<svg width="30" height="22" fill="none" xmlns="http://www.w3.org/2000/svg"><path d="M.321 9.071c0-.915.222-1.53.669-1.845.447-.315 1.149-.474 2.106-.474.435 0 1.122.006 2.058.015.936.012 1.932.015 2.988.015s2.085.006 3.087.015c1.002.012 1.797.015 2.385.015.828.021 1.482-.048 1.959-.213.48-.162.72-.54.72-1.128 0-.435.015-.954.048-1.551a28.52 28.52 0 00.048-1.551c.021-.762.24-1.245.654-1.452.414-.207.936-.048 1.569.474.654.522 1.416 1.143 2.286 1.863.87.717 1.776 1.452 2.712 2.205.936.75 1.851 1.491 2.742 2.22a136.25 136.25 0 002.385 1.911c.63.522.954 1.017.963 1.485.012.468-.288.954-.897 1.452a107.86 107.86 0 01-2.238 1.797c-.861.675-1.752 1.371-2.679 2.091-.924.72-1.833 1.431-2.727 2.139-.894.708-1.686 1.335-2.385 1.878-.762.609-1.389.837-1.878.687-.489-.153-.723-.621-.702-1.404v-1.731c0-.327-.006-.648-.015-.963a22.456 22.456 0 01-.015-.864c0-.543-.162-.888-.489-1.029-.327-.141-.774-.213-1.338-.213-.63 0-1.458-.006-2.481-.015a275.17 275.17 0 00-3.201-.015c-1.11 0-2.187-.006-3.234-.015a219.928 219.928 0 00-2.547-.015c-.282 0-.576-.027-.882-.081a2.444 2.444 0 01-.834-.309 1.64 1.64 0 01-.603-.669c-.15-.294-.228-.69-.228-1.191 0-.588-.006-1.155-.015-1.698a29.198 29.198 0 01.009-1.836z" fill="#EF1111"/></svg>