<svg width="30" height="30" fill="none" xmlns="http://www.w3.org/2000/svg"><path d="M5.7 2.567c-.13.137-.13.154-.13 2.639v2.496l-2.147.017c-2.081.018-2.158.024-2.395.148-.314.166-.593.487-.676.771-.047.16-.06 2.84-.047 9.16l.017 8.93.178.26c.119.166.29.309.498.415l.326.166h27.344l.308-.154c.332-.166.546-.403.659-.73.047-.148.065-2.596.065-9.059 0-9.705.023-9.077-.344-9.468a1.747 1.747 0 00-.457-.309c-.296-.142-.314-.142-2.383-.142h-2.093V2.685l-.136-.124-.137-.13H5.824l-.124.136zm5.792 2.698c.391.937.717 1.725.717 1.749 0 .023-.23.035-.51.03l-.51-.018-.106-.267-.107-.267-.676-.017-.676-.018-.107.302-.107.297H8.367l.563-1.322c.309-.724.64-1.512.741-1.75l.178-.426h.919l.724 1.707zm4.453-1.233v.415h-1.008v2.608h-1.008V4.447H12.92v-.83h3.024v.415zm2.816.243l.403.658.196-.314c.106-.178.29-.475.403-.664l.213-.338h1.008v3.438h-.949V5.13l-.414.622c-.226.344-.433.628-.457.634-.03.012-.231-.266-.463-.616l-.415-.635-.017.961-.012.96h-.949V3.618h1.056l.397.658zm9.919 4.44l.13.125v17.662l-.19.119c-.195.118-.343.118-13.624.118-13.28 0-13.428 0-13.618-.119l-.196-.118V8.84l.13-.125.131-.118H28.55l.13.118z" fill="#EF1111"/><path d="M10.11 5.217a6.945 6.945 0 00-.154.45c0 .013.16.025.356.025h.356l-.154-.398c-.083-.225-.172-.427-.196-.45-.03-.03-.118.142-.207.373zm-6.877 5.336a.911.911 0 00-.314.19c-.326.302-.314.1-.314 4.98 0 5.123-.03 4.803.474 5.07l.261.136 7.364-.012 7.37-.018.166-.124c.088-.066.225-.214.302-.32l.13-.196v-9.095l-.13-.195a1.735 1.735 0 00-.302-.32l-.166-.125-7.335-.012c-4.032-.006-7.411.012-7.506.041zm14.55 5.188v4.298H3.493v-8.596h14.288v4.298z" fill="#EF1111"/><path d="M4.324 13.251v.8h1.72v-1.6h-1.72v.8zm2.206 2.472l.017 3.273 3.587.006c1.975.006 3.818-.006 4.11-.018l.515-.03v-6.503H6.518l.012 3.272zm8.703-2.472v.8h1.72v-1.6h-1.72v.8zm-10.909 2.49v.8h1.72v-1.6h-1.72v.8zm10.909 0v.8h1.72v-1.6h-1.72v.8zM4.324 18.202v.83h1.72v-1.66h-1.72v.83zm10.909 0v.83h1.72v-1.66h-1.72v.83zm5.455-5.455v.415h6.344v-.83h-6.344v.415zm-.332 1.387c-.225.101-.421.339-.504.623-.041.142-.053 1.127-.041 2.893.017 2.609.023 2.68.142 2.846.065.089.213.225.32.296l.195.137h6.782l.196-.137c.107-.07.255-.207.32-.296.125-.166.125-.22.125-2.964 0-2.692-.006-2.805-.118-3a1.386 1.386 0 00-.285-.326c-.166-.125-.214-.125-3.558-.137-2.744-.012-3.426 0-3.574.065zm3.818 1.198c.018.237.03.25.237.29.119.024.285.078.374.125.207.107.593.557.575.67-.012.047-.202.148-.427.225l-.415.136-.172-.177c-.142-.143-.225-.178-.427-.178-.16 0-.278.035-.332.094-.142.172.018.285.64.445.326.083.688.208.8.279.57.355.623 1.28.096 1.772-.172.16-.623.368-.8.374-.12 0-.137.03-.137.267v.266h-.593v-.266c0-.237-.017-.267-.13-.267-.184-.006-.635-.213-.807-.374-.136-.124-.456-.688-.415-.723.066-.065 1.026-.201 1.044-.148.124.367.854.522 1.043.22.101-.155-.053-.256-.61-.398-.546-.136-.872-.279-1.026-.457-.13-.142-.285-.51-.285-.681 0-.51.415-1.05.907-1.186.279-.072.279-.072.279-.333v-.255l.285.018.278.018.018.244zM7.075 21.61c-.166.084-.35.22-.415.31-.124.171-1.28 2.892-1.352 3.171-.047.213.084.528.29.688l.167.13h9.776l.202-.201c.332-.332.303-.492-.415-2.2-.652-1.541-.776-1.737-1.191-1.933-.22-.1-.451-.113-3.504-.113H7.372l-.297.149zm6.783.795c.07.042 1.138 2.502 1.138 2.62 0 .03-1.91.054-4.358.054-2.988 0-4.358-.018-4.358-.06 0-.135 1.026-2.525 1.115-2.596.071-.053.812-.071 3.237-.071 1.732 0 3.184.023 3.226.053z" fill="#EF1111"/><path d="M7.721 22.749a4.84 4.84 0 01-.148.391 2.01 2.01 0 00-.107.338c0 .036.338.06.824.06.92 0 .848.035.925-.445.024-.13.054-.285.072-.344.023-.095-.042-.1-.754-.1-.681 0-.776.011-.812.1zm2.004.273a6.317 6.317 0 00-.065.444c0 .054.273.071.985.071h.984l-.036-.195c-.018-.101-.047-.303-.07-.445l-.042-.249H9.79l-.066.374zm2.283-.155c.018.125.053.32.077.433l.041.208.842.018c.463.006.842-.006.842-.03s-.071-.225-.154-.445l-.155-.403h-1.534l.04.22zM7.294 23.94a8.76 8.76 0 00-.302.766c0 .012.439.017.972.017h.967l.035-.255c.024-.136.054-.338.077-.444l.042-.19h-.866c-.776 0-.871.012-.925.107zm2.277.025c-.012.077-.053.278-.077.444l-.053.314h1.197c1.115 0 1.204-.006 1.18-.107-.012-.053-.047-.255-.083-.444l-.065-.338h-1.037c-1.02 0-1.032 0-1.062.13zm2.639-.065c0 .04.03.237.07.444l.066.38h1.938l-.148-.392a6.322 6.322 0 00-.178-.445c-.053-.083-1.749-.07-1.749.012z" fill="#EF1111"/></svg>