<svg width="30" height="30" fill="none" xmlns="http://www.w3.org/2000/svg"><path d="M15 .3C6.915.3.3 6.915.3 15c0 8.085 6.615 14.7 14.7 14.7 8.085 0 14.7-6.615 14.7-14.7 0-2.874-.81-5.475-2.214-7.746l-.918 1.065c1.137 2.004 1.797 4.275 1.797 6.681 0 7.35-6.015 13.365-13.365 13.365C7.65 28.365 1.635 22.35 1.635 15 1.635 7.65 7.65 1.635 15 1.635c3.474 0 6.615 1.344 9.021 3.549l.876-1.002A14.569 14.569 0 0015 .3zm12.195 3.174L14.268 18.717l-5.43-5.073-.918.981 5.952 5.532.522.48.438-.522L28.197 4.329l-1.002-.855z" fill="#EF1111"/></svg>