<svg width="30" height="30" fill="none" xmlns="http://www.w3.org/2000/svg"><path d="M28.527 9.279c-1.551-3.615-4.185-6.243-7.827-7.797A14.444 14.444 0 0014.976.309c-1.992 0-3.888.393-5.706 1.173-3.615 1.551-6.261 4.176-7.812 7.797A14.26 14.26 0 00.3 14.985c0 1.992.378 3.909 1.158 5.724 1.554 3.621 4.2 6.261 7.812 7.812a14.316 14.316 0 005.706 1.173c1.992 0 3.9-.396 5.721-1.173 3.645-1.554 6.279-4.2 7.827-7.812a14.392 14.392 0 001.173-5.724 14.24 14.24 0 00-1.17-5.706zm-2.346 12.198a12.913 12.913 0 01-4.725 4.71c-1.98 1.155-4.146 1.737-6.477 1.737a12.48 12.48 0 01-5.016-1.029c-1.59-.69-2.967-1.599-4.116-2.748-1.149-1.149-2.064-2.538-2.748-4.131a12.67 12.67 0 01-1.014-5.031c0-2.331.573-4.488 1.719-6.462a12.917 12.917 0 014.71-4.71c1.977-1.158 4.131-1.737 6.462-1.737 2.331 0 4.5.582 6.477 1.737a12.913 12.913 0 014.725 4.71c1.158 1.977 1.737 4.131 1.737 6.462 0 2.331-.573 4.503-1.734 6.492z" fill="#EF1111"/><path d="M15.909 14.856V6.528c0-.498-.435-.9-.933-.9a.908.908 0 00-.885.9v8.454c0 .015.033.081.033.13a.839.839 0 00.24.722l4.806 4.806c.32.321.915.321 1.239 0a.868.868 0 000-1.254l-4.5-4.53z" fill="#EF1111"/></svg>