<svg width="30" height="30" fill="none" xmlns="http://www.w3.org/2000/svg"><path d="M4.842.37a4.367 4.367 0 00-3.075 2.357c-.38.753-.46 1.12-.454 2.011 0 .684.017.793.184 1.282.207.598.373.92.741 1.402.431.563 1.184 1.138 1.5 1.138a.484.484 0 00.471-.465c0-.196-.15-.368-.684-.765-.477-.356-.92-1.017-1.132-1.684a4.215 4.215 0 01-.115-.735c-.12-1.656 1.07-3.219 2.707-3.564.604-.126 19.398-.126 20.002 0 1.293.27 2.374 1.35 2.644 2.644.074.345.086 1.897.086 10.966v10.57l-.15.368c-.132.333-.138.397-.074.552a.484.484 0 00.258.253c.368.155.638-.086.828-.719.115-.373.115-.523.103-11.213-.017-12.22.03-11.018-.488-12.07-.224-.466-.345-.627-.817-1.098-.47-.471-.632-.592-1.097-.816-1.052-.517.034-.471-11.15-.483C7.118.295 5.146.307 4.842.371z" fill="#EF1111"/><path d="M5.118 2.301c-.627.144-1.316.702-1.615 1.3-.173.333-.305.965-.247 1.184.086.35.511.5.781.281.098-.08.144-.201.179-.465.057-.414.166-.65.42-.914.154-.173.43-.356.522-.356.017 0 .029 4.977.029 11.058 0 7.23.023 11.162.058 11.363.132.707.69 1.43 1.327 1.735.57.27.742.276 5.817.259l4.765-.017.138-.16c.166-.196.178-.438.028-.622l-.109-.138-4.966-.028-4.96-.03-.293-.154a1.765 1.765 0 01-.477-.374c-.373-.448-.35.35-.35-12.242V2.52l-.144-.138c-.11-.115-.196-.144-.414-.138-.15.006-.374.029-.49.057zm4.264 4.897a.479.479 0 00-.103.788c.115.109.201.115 1.31.115 1.167 0 1.19 0 1.31-.133a.496.496 0 00.127-.31c0-.483-.138-.535-1.448-.535-.73 0-1.098.024-1.196.075zm3.903.012c-.167.092-.299.379-.242.534a.835.835 0 00.15.225l.115.132h4.334l.114-.132c.167-.179.196-.3.121-.5-.115-.334-.178-.346-2.414-.346-1.65.006-2.057.018-2.178.087zm5.897-.018c-.184.098-.259.225-.259.454 0 .167.035.242.15.334.138.109.23.12.822.12.598 0 .69-.011.799-.115a.479.479 0 00-.104-.787c-.178-.092-1.247-.097-1.408-.006z" fill="#EF1111"/><path d="M9.405 10.135a.472.472 0 00.012.874c.281.12 6.948.12 7.23 0a.475.475 0 000-.874c-.276-.115-6.977-.115-7.242 0zm8.886-.04c-.356.132-.466.575-.195.828l.15.138 2.516.017c2.127.011 2.558 0 2.73-.07.391-.166.408-.66.03-.85-.185-.092-.432-.103-2.673-.098-1.357 0-2.512.018-2.558.035zm-9.012 3.064a.479.479 0 00.103.787c.225.115 3.167.104 3.386-.011.276-.138.333-.552.103-.765-.132-.126-.167-.126-1.799-.126-1.598 0-1.672.005-1.793.114zm4.891.011c-.167.184-.195.305-.12.506.114.345.137.345 2.884.345 1.454 0 2.558-.023 2.644-.058.178-.069.34-.362.288-.534a.835.835 0 00-.155-.259l-.115-.126h-5.311l-.115.126zm6.851.017c-.241.236-.178.604.127.765.183.098 3.155.092 3.35-.006.31-.155.362-.54.115-.787-.109-.11-.201-.115-1.782-.115H21.16l-.138.143zm-11.765 2.96c-.144.15-.167.207-.138.362a.58.58 0 00.184.31l.143.133h6.208l.138-.144c.218-.212.213-.506-.006-.706l-.143-.127H9.428l-.172.172zm7.863-.051c-.207.16-.213.511-.006.712l.138.144h5.248l.166-.167c.098-.103.167-.23.167-.322 0-.091-.07-.218-.167-.322l-.166-.166h-2.616c-2.552 0-2.615 0-2.764.12zm-6.644 2.891c-.552.143-1.064.615-1.248 1.144-.155.448-.143 1.379.03 1.93.373 1.185.74 1.53 1.172 1.098.207-.212.2-.258-.098-1.028-.466-1.196-.27-2.093.482-2.219.592-.098.77.115.77.891-.005.563-.126 1.236-.367 1.989-.138.431-.155.557-.11.69.087.212.219.304.46.304.167 0 .27-.063.575-.339l.374-.339.034.236c.04.287.219.448.495.448.15 0 .258-.058.465-.247.546-.495.518-.477.512-.247a.443.443 0 00.132.35l.132.144h1.19c1.156 0 1.19-.006 1.305-.132.166-.178.195-.299.12-.5-.092-.282-.293-.345-1.051-.345h-.661v-.259c0-.218-.035-.299-.196-.477-.178-.19-.23-.213-.482-.213-.201 0-.38.052-.632.184l-.357.178-.069-.149a.791.791 0 00-.27-.264c-.184-.11-.212-.11-.448-.023l-.253.092.046-.328c.08-.61.04-1.328-.098-1.695-.294-.777-1.058-1.122-1.954-.874zm11.685.977c-1.018.235-1.91 1.103-2.18 2.126-.103.386-.103 1.081.007 1.489.126.494.333.857.718 1.264 1.362 1.46 3.76 1.138 4.702-.637 1.006-1.88-.3-4.184-2.431-4.3a3.573 3.573 0 00-.817.058zm1.51 1.126c.42.207.725.523.932.972.218.46.212 1.103 0 1.569a2.158 2.158 0 01-.937.971c-.247.12-.368.138-.862.138-.529 0-.598-.011-.88-.172-.408-.219-.781-.644-.93-1.052-.104-.265-.121-.414-.104-.788.04-.672.293-1.132.833-1.506.598-.408 1.294-.454 1.949-.132zm-3.885 4.167c-.184.098-1.724 2.765-1.724 2.977 0 .08.063.219.138.305.12.144.178.161.626.19.27.017.523.063.563.103.035.034.173.23.305.425.27.42.483.524.753.386.224-.121 1.713-2.696 1.719-2.972 0-.39-.518-.615-.788-.339-.069.075-.362.54-.644 1.04-.5.874-.517.903-.603.776-.173-.264-.288-.333-.517-.333-.127 0-.23-.017-.23-.035 0-.017.247-.454.546-.977.644-1.109.69-1.35.31-1.546-.195-.103-.27-.103-.454 0zm5.518.115c-.236.247-.184.431.39 1.42.294.494.53.925.53.96 0 .034-.092.063-.207.063-.167 0-.253.046-.408.207-.11.115-.202.201-.213.19a27.709 27.709 0 01-.494-.857c-.512-.897-.719-1.15-.954-1.15-.195 0-.483.288-.483.483 0 .138 1.385 2.621 1.592 2.863a.473.473 0 00.563.08c.075-.052.248-.253.38-.448.132-.202.253-.374.264-.391.017-.017.259-.04.546-.064.454-.023.534-.045.627-.16.241-.294.224-.328-.615-1.794-.437-.758-.845-1.42-.909-1.465a.48.48 0 00-.61.063z" fill="#EF1111"/></svg>