<svg width="30" height="22" fill="none" xmlns="http://www.w3.org/2000/svg"><path d="M29.7 21.974V.026H.3v21.951h29.4v-.003zm-4.215-4.497v4.269H4.848v-4.041h.036l.105-.036 7.749-6.24 2.343 1.986 2.082-1.827 8.322 5.889zm0-.756l-7.89-5.52 7.89-6.837v12.357zM24.174.254l-1.068 1.02-.507.492-.471.492-.489.456-.456.456-.438.423-.402.423-.42.387-.384.387-.717.72-.684.651-.315.3-.279.297-.297.246-.264.246-.471.459-.228.192-.192.195-.192.156-.159.177-.297.246-.123.087-.087.105-.105.051-.069.072-.087.069L6.087.218l18.087.036zM12.279 11.045l-7.434 5.94.018-12.249 7.416 6.309z" fill="#EF1111"/></svg>