<svg width="30" height="30" fill="none" xmlns="http://www.w3.org/2000/svg"><path d="M13.823.36C11.817.567 9.73 1.43 8.132 2.7 6.142 4.292 4.712 6.609 4.2 9.063c-.167.81-.259 1.857-.219 2.5.115 1.904 1.575 5.313 4.053 9.457 2.443 4.087 5.386 7.928 6.553 8.554.5.27.8.138 1.673-.719 2.817-2.77 7.582-10.45 9.123-14.693.575-1.592.73-2.552.604-3.834-.385-3.92-2.69-7.232-6.22-8.939A11.068 11.068 0 0013.823.36zm2.926 1.949c4.173.833 7.203 4.329 7.433 8.56.051 1.005-.133 1.868-.713 3.34-1.483 3.747-5.225 9.806-7.433 12.014-.58.586-.89.782-1.132.718-.834-.207-3.133-3.133-5.318-6.754-2.018-3.352-3.397-6.381-3.702-8.123-.115-.65-.08-1.581.092-2.478.713-3.679 3.633-6.593 7.29-7.272.856-.16.96-.172 1.994-.143a8.749 8.749 0 011.489.138z" fill="#EF1111"/><path d="M14.018 5.907c-1.103.196-2.075.713-2.903 1.54-3.035 3.042-1.638 8.095 2.558 9.245.633.178 2.024.178 2.656 0 2.053-.564 3.541-2.081 4.059-4.128.15-.592.132-1.972-.03-2.558-.586-2.162-2.281-3.73-4.42-4.105a5.822 5.822 0 00-1.92.006zm1.76 1.834c1.368.288 2.529 1.449 2.816 2.817.546 2.61-1.759 4.915-4.369 4.369-1.046-.219-2.023-.978-2.495-1.926-.54-1.104-.54-2.23 0-3.334.725-1.466 2.409-2.27 4.047-1.926z" fill="#EF1111"/></svg>