<svg width="30" height="30" fill="none" xmlns="http://www.w3.org/2000/svg"><path d="M7.104.341a1.383 1.383 0 00-.672.506l-.138.207v5.483l.172.247c.3.42.489.483 1.523.483 1.035 0 1.224-.063 1.523-.483l.172-.247.018-2.62c.011-1.69-.006-2.701-.04-2.828a1.19 1.19 0 00-.248-.397C9.081.353 8.96.32 8.075.302c-.442-.006-.879.01-.97.04zm1.655.954c.08.075.092.385.092 2.489 0 1.983-.011 2.42-.08 2.511-.075.098-.155.11-.782.11-.626 0-.707-.012-.781-.11-.07-.092-.08-.528-.08-2.5 0-2.137.01-2.39.097-2.488.08-.086.184-.104.77-.104.54 0 .695.018.764.092zM21.138.336a1.305 1.305 0 00-.667.488l-.155.224v5.489l.172.247c.3.42.489.483 1.523.483 1.035 0 1.224-.064 1.523-.483l.173-.247.017-2.62c.011-1.69-.006-2.702-.04-2.828a1.19 1.19 0 00-.248-.397c-.333-.339-.454-.373-1.339-.39-.442-.006-.873.01-.96.034zm1.643.96c.08.074.092.384.092 2.488 0 1.983-.011 2.42-.08 2.511-.075.098-.155.11-.782.11-.62-.006-.712-.018-.781-.115-.064-.087-.08-.552-.08-2.506 0-2.103.01-2.414.091-2.489.07-.074.23-.091.77-.091s.701.017.77.091z" fill="#EF1111"/><path d="M2.225 3.473c-.304.115-.7.408-.868.656-.344.494-.322-.374-.322 12.447v11.735l.179.35c.2.414.574.765.96.915.258.097.821.103 12.677.12 10.821.011 12.453 0 12.746-.075.557-.143.925-.436 1.213-.971l.126-.235.017-11.793.012-11.792-.121-.317c-.138-.379-.5-.77-.896-.965-.265-.126-.34-.132-1.696-.15l-1.425-.017v.868h1.253c1.2 0 1.27.006 1.505.133a.888.888 0 01.385.384l.133.248-.012 11.591-.017 11.591-.16.207c-.323.42.85.385-12.914.385s-12.591.035-12.913-.385l-.16-.207-.018-11.591-.011-11.591.132-.248a.89.89 0 01.385-.385c.235-.126.304-.132 1.506-.132h1.252v-.862l-1.362.006c-1.017 0-1.425.023-1.586.08z" fill="#EF1111"/><path d="M10.748 3.818v.431h8.447v-.862h-8.447v.431zm4.126 7.282c-.046.166-.357 1.166-.678 2.212l-.592 1.914-2.253.011-2.247.017 1.799 1.38c.988.752 1.798 1.401 1.798 1.442 0 .034-.298 1.034-.66 2.212-.363 1.184-.656 2.167-.644 2.184.005.023.822-.58 1.81-1.34L15 19.76l1.799 1.374c.983.759 1.799 1.362 1.81 1.339.006-.017-.287-1-.65-2.178-.361-1.178-.66-2.172-.66-2.213 0-.04.81-.695 1.799-1.448l1.798-1.379-2.252-.017-2.258-.011-.08-.276c-.403-1.368-1.283-4.15-1.311-4.15-.018 0-.075.139-.121.3z" fill="#EF1111"/></svg>