<svg width="30" height="22" fill="none" xmlns="http://www.w3.org/2000/svg"><path d="M.676 1.044a.934.934 0 00-.26.254c-.11.17-.115.387-.115 9.69 0 10.502-.03 9.722.363 9.958.157.09 1.33.097 14.336.097s14.18-.006 14.336-.097c.394-.236.363.544.363-9.957 0-9.304-.006-9.522-.115-9.691a.934.934 0 00-.26-.254C29.12.929.881.929.676 1.044zm25.969 1.663c-.134.128-2.807 2.51-5.947 5.293l-5.704 5.063-5.922-5.269c-3.26-2.897-5.928-5.28-5.928-5.299 0-.012 5.341-.024 11.868-.024h11.875l-.242.236zM6.198 7.311a834.931 834.931 0 014.222 3.75c.103.097-.103.279-4.192 3.787-2.366 2.027-4.332 3.69-4.362 3.702-.03.012-.054-2.88-.054-7.555V3.42l.14.121c.071.067 1.983 1.76 4.246 3.769zm21.988 3.726c0 4.785-.024 7.525-.06 7.513-.03-.012-1.99-1.675-4.356-3.702-3.448-2.958-4.282-3.702-4.222-3.763.514-.483 8.553-7.585 8.59-7.585.024 0 .048 3.393.048 7.537zm-14.935 2.547c1.41 1.252 1.548 1.343 1.936 1.258.127-.03.66-.466 1.645-1.337.81-.72 1.482-1.27 1.518-1.252.037.024 1.96 1.664 4.271 3.648L26.82 19.5l-5.91.018c-3.248.006-8.572.006-11.82 0L3.18 19.5l4.252-3.648c3.77-3.23 4.265-3.636 4.356-3.563.054.049.714.63 1.464 1.295z" fill="#fff"/></svg>