<svg width="30" height="30" fill="none" xmlns="http://www.w3.org/2000/svg"><path d="M29.646 11.1l-.405 2.178c-.474-3.648-1.065-5.559-1.065-5.559-.336-1.416-1.368-2.379-1.368-2.379.624.693.54 2.415.54 2.415-.963-2.181-2.313-2.973-2.313-2.973C20.355.204 14.865.576 14.865.576 7.818.405 4.17 5.289 4.17 5.289c-.777-.711-.675-1.824-.675-1.824C1.788 5.304 2.04 8.364 2.04 8.364l-.861 1.74c-.438.558-.777 2.958-.777 2.958v.318L.3 17.841l.186-1.116c1.014 6.234 4.377 8.7 4.377 8.7 7.806 6.774 15.459 2.907 15.459 2.907 7.314-2.586 8.565-10.137 8.565-10.137 1.113-3.396.759-7.095.759-7.095zm-5.103-1.215c.846.846-.066 5.577-.066 5.577l-1.014-1.014c.339 6.015-1.488 6.318-1.488 6.318l.438-2.4-.135.438c-4.458 7.5-11.418 1.116-11.418 1.116 2.838.846 4.425-.405 4.425-.405 1.35-1.215 2.13-1.182 2.13-1.182.912.135.438-.846.438-.846-1.08-1.317-2.805-.846-2.805-.846-2.736 1.386-4.089.237-4.089.237-3.243-1.959-.945-3.243-.945-3.243.339-.135 1.758.507 1.758.507.168-.507-.237-2.094-.237-2.094l2.466-1.722.474-.507.066-.744-.102-.339L12.21 8.7c-1.317.237-1.722-1.215-1.722-1.215.237-1.689 2.061-2.838 2.061-2.838C9 4.884 8.595 6.405 8.595 6.405c-2.568-.372-3.279.135-3.279.135L4.17 5.322l.54.474.54-.303c3.582-3.819 9.462-3.99 9.462-3.99 5.238.372 6.588 1.725 6.588 1.725-3.312-.438-3.177 0-3.177 0 2.364.27 4.191 1.419 4.191 1.419-1.689-.102-2.94.405-2.94.405 5.913 1.386 6.624 6.15 6.624 6.15-.813-1.824-1.455-1.317-1.455-1.317z" fill="#EF1111"/></svg>