<svg width="30" height="30" fill="none" xmlns="http://www.w3.org/2000/svg"><path d="M4.336.385c-.139.033-.36.18-.49.319L3.6.957l-.025 13.697c-.016 9.565 0 13.788.066 14 .114.393.449.793.792.932.22.098 2.066.114 10.668.114h10.406l.277-.188c.155-.098.36-.343.466-.547l.18-.36v-13.77c0-13.323-.008-13.772-.155-14.017-.343-.555.408-.523-11.215-.515-5.792 0-10.595.041-10.725.082zm20.788 14.613v13.395H4.867V1.602h20.256v13.396z" fill="#EF1111"/><path d="M6.827 14.67v5.555h16.336V9.117H6.827v5.554zm4.901-3.266v.98H8.134v-1.96h3.594v.98zm10.128 0v.98h-8.821v-1.96h8.821v.98zM11.728 14.67v.98H8.134v-1.96h3.594v.98zm10.128 0v.98h-8.821v-1.96h8.821v.98zm-10.128 3.267v.98H8.134v-1.96h3.594v.98zm10.128 0v.98h-8.821v-1.96h8.821v.98zm-5.227 5.555v.654h6.535v-1.307h-6.535v.653z" fill="#EF1111"/></svg>