<svg width="18" height="30" fill="none" xmlns="http://www.w3.org/2000/svg"><path d="M15.516.3H2.484A1.909 1.909 0 00.576 2.208v25.587c0 1.053.852 1.908 1.908 1.908h13.032a1.909 1.909 0 001.908-1.908V2.208A1.909 1.909 0 0015.516.3zm-1.332 1.131c.117 0 .21.093.21.21a.21.21 0 01-.21.21.209.209 0 01-.21-.21.209.209 0 01.21-.21zm-7.44-.18h4.71c.168 0 .3.135.3.3a.3.3 0 01-.3.3h-4.71a.299.299 0 01-.3-.3.3.3 0 01.3-.3zm-1.92 27.195h-.465a.057.057 0 110-.114h.465c.03 0 .057.027.057.057-.003.033-.027.057-.057.057zm0-.225h-.465a.057.057 0 110-.114h.465c.03 0 .057.024.057.057-.003.03-.027.057-.057.057zm.39.147a.12.12 0 01-.12.12.12.12 0 01-.12-.12v-.399h-.762v.399a.12.12 0 01-.12.12.12.12 0 01-.12-.12v-.519a.12.12 0 01.12-.12h1.005a.12.12 0 01.12.12v.519h-.003zm5.295-.039a.476.476 0 01-.477.477H7.947a.476.476 0 01-.477-.477v-.417c0-.264.213-.477.477-.477h2.085c.264 0 .477.213.477.477v.417zm3.114.18h-.378a.12.12 0 01-.12-.12.12.12 0 01.12-.12h.378a.144.144 0 00.147-.141.144.144 0 00-.147-.141h-.318c-.012.018-.027.024-.054.027-.006.003-.018-.003-.027-.006l-.198-.084a.063.063 0 01-.039-.06c0-.027.015-.051.039-.06l.198-.084a.066.066 0 01.072.015c.003.003.006.006.006.009h.321c.213 0 .387.171.387.384 0 .21-.174.381-.387.381zm2.529-1.668H1.692V3.24h14.46v23.601z" fill="#EF1111"/></svg>