<svg width="30" height="30" fill="none" xmlns="http://www.w3.org/2000/svg"><path d="M28.188 20.376c-1.44-.702-7.842-1.821-7.842-1.821l-2.7 2.7c-4.002-1.356-7.452-5.391-9.078-9.015l3.123-3.189S9.978 2.406 9.12 1.338C8.454.51 7.575.183 6.468.264 5.373.345.999 1.245.366 6.285c-.63 5.037 3.318 10.971 7.746 15.651 4.428 4.683 10.608 7.854 14.805 7.812 4.197-.042 6.525-3.975 6.735-5.76.198-1.659-.216-3.006-1.464-3.612zm.099 3.807c-.282 1.053-2.217 4.554-6.183 4.23-3.966-.324-8.58-3.039-13.368-7.686C3.945 16.08 1.278 10.005 1.734 6.414c.408-3.228 3.306-4.431 4.101-4.62.894-.21 1.791-.099 2.31.585.522.684 2.019 6.312 2.019 6.312l-3.09 3.123c1.866 5.196 6.249 9.447 10.902 10.965l2.832-2.799s6.237 1.119 6.963 1.659c.564.429.798 1.491.516 2.544z" fill="#FF4F4F"/></svg>