<svg width="30" height="30" fill="none" xmlns="http://www.w3.org/2000/svg"><path d="M1.197.946c-.344.092-.632.316-.77.592-.103.212-.109.557-.126 11.015-.006 7.763.006 10.86.052 11.027.08.31.465.695.77.782.16.045 1.764.063 5.303.063H11.5l-.017.586-.017.592-1.465.029c-1.667.034-1.719.046-2.167.528-.402.443-.477.747-.477 1.942v1.035h15.285v-1.035c0-1.195-.074-1.5-.477-1.942-.448-.482-.5-.494-2.166-.528l-1.465-.03-.017-.591-.017-.586h5.073c3.54 0 5.143-.017 5.304-.064.305-.086.69-.47.77-.781.046-.167.058-3.264.052-11.027-.017-10.515-.023-10.803-.126-11.02-.144-.283-.483-.53-.845-.604C28.279.83 1.559.849 1.198.946zm27.335 11.728v10.573H1.468L1.45 12.73c-.006-5.786 0-10.55.017-10.59.017-.058 2.758-.069 13.543-.058l13.521.018v10.573zM17.356 25.028v.603h-4.712v-1.206h4.712v.603zm3.867 1.873c.184.144.287.454.259.799l-.017.259H8.535l-.017-.26c-.029-.344.075-.654.259-.798.15-.12.184-.12 6.223-.12 6.04 0 6.074 0 6.223.12z" fill="#EF1111"/><path d="M3.622 3.273c-.442.092-.77.38-.913.805-.086.264-.092 14.468 0 14.79.075.282.362.604.655.736.219.103.724.109 11.636.109 10.912 0 11.418-.006 11.636-.11.293-.131.58-.453.655-.735.092-.321.086-14.526 0-14.79a1.287 1.287 0 00-.586-.702l-.241-.126-11.32-.006c-6.23-.006-11.412.006-11.522.029zm22.554 8.223v7.039H3.824l-.017-6.982c-.006-3.838 0-7.016.017-7.056.017-.058 2.287-.069 11.188-.058l11.165.017v7.04z" fill="#EF1111"/><path d="M12.983 5.089a.763.763 0 00-.236.213c-.046.074-.58 1.626-1.19 3.447L10.45 12.07H4.427v1.207h3.177c1.937 0 3.253-.023 3.38-.057.114-.035.258-.11.315-.179.058-.063.489-1.247.948-2.626.466-1.384.856-2.47.88-2.424.017.045.448 2.062.954 4.482.505 2.419.947 4.464.982 4.545.063.167.328.339.511.339.294 0 .46-.19 1.84-2.126l1.395-1.954h6.764v-1.213l-3.638.018c-3.085.017-3.66.029-3.74.103-.058.046-.587.753-1.172 1.58-1.242 1.747-1.098 1.546-1.132 1.518-.012-.018-.477-2.201-1.035-4.85-.557-2.655-1.051-4.919-1.097-5.028-.138-.327-.495-.471-.776-.316zm12.331 15.268c-.488.103-.89.614-.89 1.137 0 .707.563 1.195 1.298 1.138.684-.058 1.184-.753 1.006-1.408-.173-.65-.765-1.006-1.414-.867z" fill="#EF1111"/></svg>