<svg width="30" height="30" fill="none" xmlns="http://www.w3.org/2000/svg"><path d="M29.433 28.137l-8.4-8.4c-.021-.021-.045-.045-.069-.063a11.652 11.652 0 002.82-7.632c0-3.135-1.221-6.084-3.438-8.301A11.667 11.667 0 0012.042.3a11.671 11.671 0 00-8.304 3.438A11.671 11.671 0 00.3 12.042c0 3.135 1.221 6.084 3.438 8.301a11.664 11.664 0 008.301 3.438c2.832 0 5.508-.996 7.632-2.82.021.024.042.048.063.069l8.4 8.4a.923.923 0 001.296 0 .912.912 0 00.003-1.293zm-17.391-6.186a9.849 9.849 0 01-7.008-2.904 9.837 9.837 0 01-2.904-7.005 9.859 9.859 0 012.901-7.008 9.856 9.856 0 017.011-2.904 9.859 9.859 0 017.008 2.901 9.844 9.844 0 012.904 7.008 9.849 9.849 0 01-2.904 7.008 9.849 9.849 0 01-7.008 2.904z" fill="#fff"/></svg>