<?xml version="1.0" encoding="UTF-8"?>
<svg enable-background="new 0 0 366 68" version="1.1" viewBox="0 0 366 68" xml:space="preserve" xmlns="http://www.w3.org/2000/svg">
<style type="text/css">
	.st0{fill:#164194;}
</style>
	<path class="st0" d="m49 0.7h-14.8l-17.2 41.7h12.3l2.4-6h18.8l2 6h13.9l-17.4-41.7zm-7.9 27.9h-6.6l6.6-18.3 0.3-1h0.2l6.1 19.3h-6.6z"/>
	<polygon class="st0" points="81.2 23.5 81.3 23.5 95.4 42.4 110.6 42.4 92.7 20.1 109.4 0.7 94.9 0.7 81.3 17.8 81.2 17.8 81.2 0.7 69.1 0.7 69.1 42.4 81.2 42.4"/>
	<path class="st0" d="m133.4 42.4c8 0 17.6-2.1 17.6-12 0-5-3.1-8.1-9.1-9.2v-0.2c5-1.5 7.9-4.4 7.9-9.7 0-7.1-6.2-10.6-14.6-10.6h-20.8v41.6h19zm-7-33.8h3.5c0.8 0 1.5 0 2.2 0.1 3.1 0.2 5.7 1 5.7 4.1 0 2.8-2.6 3.9-5.7 4.3-0.8 0.1-1.6 0.1-2.4 0.1h-3.3v-8.6zm0 25.9v-9.9h3.6c0.7 0 1.3 0.1 2 0.1 3.5 0.2 6.9 1.1 6.9 4.9 0 3.6-3.2 4.6-6.9 4.8-0.7 0.1-1.4 0.1-2.1 0.1h-3.5z"/>
	<path class="st0" d="m214 38.4c1.4 0.2 2.9 0.2 4.4 0.2v3.8h12.1v-3.8c1.6 0 3.1-0.1 4.5-0.2 9.8-1.3 16.8-6.8 16.8-16.7 0-10.1-7.1-15.5-16.8-16.8-1.4-0.2-2.9-0.2-4.5-0.2v-4h-12.1v3.9c-1.5 0-3 0.1-4.4 0.2-9.8 1.3-16.9 6.7-16.9 16.8 0 9.9 7.1 15.5 16.9 16.8zm16.5-25.3c1.6 0 3.1 0.3 4.5 1 2.6 1.4 4.4 4.1 4.4 7.6 0 3.3-1.8 5.9-4.4 7.4-1.3 0.6-2.8 1-4.5 1v-17zm-16.5 1c1.3-0.6 2.8-1 4.4-1v17c-1.7 0-3.1-0.4-4.4-1-2.7-1.4-4.5-4.1-4.5-7.4 0-3.7 1.8-6.2 4.5-7.6z"/>
	<path class="st0" d="m277.9 0c-14.9 0-22.7 8.2-22.7 21.6 0 13.2 8 21.5 22.7 21.5 14.8 0 22.7-8.2 22.7-21.5 0-13.4-7.7-21.6-22.7-21.6zm0 34.9c-7.3 0-10.2-6.5-10.2-13.3 0-7.3 2.9-13.4 10.2-13.4 7.4 0 10.3 6.1 10.3 13.4 0.1 6.8-2.9 13.3-10.3 13.3z"/>
	<path class="st0" d="m321.7 0.8c-0.9-0.1-2-0.1-3-0.1h-14.3v41.7h12v-14.6h5.2c10.9-0.2 17.3-5.1 17.3-13.4 0.1-8.7-5.4-13-17.2-13.6zm0 19c-0.7 0.2-1.4 0.2-2.1 0.2h-3.2v-11.4h3.2c0.7 0 1.4 0.1 2.1 0.2 3.1 0.4 5.3 1.9 5.3 5.4 0 3.6-2.2 5.2-5.3 5.6z"/>
	<path class="st0" d="m186.6 42.4h13.7l-17.4-41.7h-14.7l-17.3 41.7h12.3l2.4-6h18.9l2.1 6zm-11.6-13.8h-6.6l6.6-18.1 0.4-1.2h0.1l6.1 19.3h-6.6z"/>
	<path class="st0" d="m348.4 2.8c-0.4-0.7-0.9-1.2-1.6-1.6-0.6-0.4-1.3-0.6-2-0.6-0.1-0.1-0.2-0.1-0.2-0.1-0.8 0.1-1.5 0.2-2.2 0.6-0.6 0.4-1.2 0.9-1.6 1.6-0.4 0.6-0.6 1.4-0.6 2.2s0.2 1.6 0.6 2.2 0.9 1.2 1.6 1.6 1.4 0.6 2.2 0.6h0.2c0.7 0 1.4-0.2 2-0.6s1.2-1 1.6-1.6 0.5-1.4 0.5-2.2c0.1-0.7-0.1-1.5-0.5-2.1zm-0.7 4c-0.3 0.6-0.8 1-1.3 1.3-0.5 0.2-1 0.4-1.6 0.5h-0.2c-0.6 0-1.3-0.2-1.7-0.5-0.6-0.3-1-0.8-1.3-1.3-0.4-0.6-0.6-1.1-0.6-1.8 0-0.6 0.2-1.2 0.5-1.8s0.8-1 1.3-1.3 1.1-0.5 1.7-0.5h0.2c0.6 0 1.1 0.2 1.6 0.5s1 0.7 1.3 1.3c0.3 0.5 0.5 1.1 0.5 1.8 0.1 0.7-0.1 1.2-0.4 1.8z"/>
	<path class="st0" d="m346.4 4.1c0-0.2 0-0.3-0.1-0.6-0.1-0.2-0.2-0.5-0.5-0.6-0.2-0.2-0.6-0.2-0.9-0.3h-1.6v4.9h0.9v-1.9h0.1l0.7 1 0.5 0.8h1.1l-1.6-1.8c0.5 0 0.8-0.2 1-0.5 0.3-0.2 0.4-0.6 0.4-1zm-1 0.5c-0.2 0.2-0.3 0.2-0.6 0.2h-0.8v-1.4h0.8c0.2 0.1 0.4 0.2 0.6 0.2 0.1 0.2 0.2 0.3 0.2 0.5-0.1 0.2-0.2 0.4-0.2 0.5z"/>
		<path class="st0" d="m53.2 59.5c0-3.5 2.8-5 8.3-5v-4h3v4c5.4 0 8.3 1.5 8.3 5 0 3.6-2.9 5-8.3 5v3.5h-3v-3.5c-5.5 0-8.3-1.4-8.3-5zm3-0.2v0.5c0 2 1.7 2.7 5.2 2.7v-5.9c-3.4-0.1-5.2 0.6-5.2 2.7zm13.5 0c0-2.1-1.8-2.7-5.2-2.7v5.9c3.5 0 5.2-0.8 5.2-2.7v-0.5z"/>
		<path class="st0" d="M78,54.8v6.7l7.6-6.7h3.3v9.5h-3v-6.7l-7.6,6.7H75v-9.5H78z"/>
		<path class="st0" d="m90.8 61.8h0.4c1.3 0 1.9-0.6 1.9-3.1v-4h11.9v9.5h-3.1v-7.5h-6v2.1c0 4-1.1 5.3-4.3 5.3h-0.8v-2.3z"/>
		<path class="st0" d="m107.7 54.8h3.1v3h6.6c2.7 0 4 1.1 4 3.2s-1.3 3.3-4 3.3h-9.7v-9.5zm10.6 6c0-0.8-0.5-1.1-1.6-1.1h-5.9v2.7h5.9c1.1 0 1.6-0.4 1.6-1.2v-0.4z"/>
		<path class="st0" d="m121.5 56.8v-2h13.5v2h-5.2v7.5h-3.1v-7.5h-5.2z"/>
		<path class="st0" d="m139.7 54.8v2c0.9-1.5 2.8-2.2 5.7-2.2 4.2 0 6.6 1.4 6.6 5s-2.5 5-6.6 5c-2.8 0-4.7-0.6-5.6-2.1v5.5h-3.1v-13.2h3zm9.2 4.4c0-2.1-1.5-2.7-4.6-2.7s-4.6 0.7-4.6 2.7v0.5c0 2.1 1.5 2.7 4.6 2.7 3 0 4.6-0.6 4.6-2.7v-0.5z"/>
		<path class="st0" d="m154.3 54.8h3.1v3h6.6c2.7 0 4 1.1 4 3.2s-1.3 3.3-4 3.3h-9.7v-9.5zm10.5 6c0-0.8-0.5-1.1-1.6-1.1h-5.9v2.7h5.9c1.1 0 1.6-0.4 1.6-1.2v-0.4zm7.3-6v9.5h-3.1v-9.5h3.1z"/>
		<path class="st0" d="m178.9 62.3h1.4c0.5-0.9 0.9-2.2 0.9-4v-3.5h12.5v7.5h1.7v4.6h-2.8v-2.6h-10.8v2.6h-2.8v-4.6zm5-5.5v1.5c0 1.8-0.4 3.1-0.8 4h7.5v-5.5h-6.7z"/>
		<path class="st0" d="m196.6 61.8h0.4c1.3 0 1.9-0.6 1.9-3.1v-4h11.9v9.5h-3.1v-7.5h-6v2.1c0 4-1.1 5.3-4.3 5.3h-0.8v-2.3z"/>
		<path class="st0" d="m218.7 61.1-2.3 3.2h-3.4l2.6-3.5c-1.8-0.4-2.5-1.4-2.5-2.8 0-2 1.3-3.2 3.9-3.2h9.9v9.5h-3.1v-3.2h-5.1zm-1-4.4c-1 0-1.5 0.4-1.5 1.1v0.3c0 0.7 0.5 1.1 1.5 1.1h6.2v-2.5h-6.2z"/>
		<path class="st0" d="m244.6 54.8c2.7 0 3.6 0.9 3.6 2.3 0 1-0.5 1.9-2 2.2 1.7 0.3 2.4 1.3 2.4 2.4 0 1.8-1 2.7-3.6 2.7h-10.2v-9.5h9.8zm0.7 2.6c0-0.5-0.3-0.9-1.3-0.9h-6.1v2h6c1 0 1.3-0.4 1.3-0.9v-0.2zm0.3 3.8c0-0.7-0.5-1-1.4-1h-6.2v2.3h6.2c1 0 1.4-0.3 1.4-1v-0.3z"/>
		<path class="st0" d="m257.9 54.5c5 0 7.7 1.2 7.7 5s-2.7 5-7.7 5c-4.9 0-7.7-1.2-7.7-5 0.1-3.7 2.8-5 7.7-5zm4.6 4.7c0-2.1-1.5-2.7-4.6-2.7s-4.6 0.6-4.6 2.7v0.5c0 2.1 1.5 2.7 4.6 2.7s4.6-0.6 4.6-2.7v-0.5z"/>
		<path class="st0" d="m266.7 62.3h1.4c0.5-0.9 0.9-2.2 0.9-4v-3.5h12.5v7.5h1.7v4.6h-2.8v-2.6h-10.8v2.6h-2.8v-4.6zm5-5.5v1.5c0 1.8-0.4 3.1-0.8 4h7.5v-5.5h-6.7z"/>
		<path class="st0" d="m285.1 54.8h3.1v3h6.6c2.7 0 4 1.1 4 3.2s-1.3 3.3-4 3.3h-9.7v-9.5zm10.6 6c0-0.8-0.5-1.1-1.6-1.1h-5.9v2.7h5.9c1.1 0 1.6-0.4 1.6-1.2v-0.4zm7.2-6v9.5h-3.1v-9.5h3.1z"/>
</svg>
