<svg width="300" height="247" viewBox="0 0 300 247" fill="none" xmlns="http://www.w3.org/2000/svg">
<g clip-path="url(#clip0)">
<path d="M288.093 59.7306V145.064H153.853V8.97461L288.093 59.7306Z" stroke="#4B7DD7" stroke-width="2" stroke-miterlimit="10" stroke-linecap="round" stroke-linejoin="round"/>
<path d="M147.371 9.07129V145.063H13.1404V59.7127L147.371 9.07129Z" stroke="#4B7DD7" stroke-width="2" stroke-miterlimit="10" stroke-linecap="round" stroke-linejoin="round"/>
<path d="M288.093 151.889H13.1404V245.748H288.093V151.889Z" stroke="#4B7DD7" stroke-width="2" stroke-miterlimit="10" stroke-linecap="round" stroke-linejoin="round"/>
<path d="M53.2925 96.9053C59.2802 96.9053 64.1342 90.8565 64.1342 83.395C64.1342 75.9335 59.2802 69.8848 53.2925 69.8848C47.3048 69.8848 42.4509 75.9335 42.4509 83.395C42.4509 90.8565 47.3048 96.9053 53.2925 96.9053Z" stroke="#4B7DD7" stroke-width="2" stroke-miterlimit="10" stroke-linecap="round" stroke-linejoin="round"/>
<path d="M43.675 88.3004L51.5398 80.4268" stroke="#4B7DD7" stroke-width="2" stroke-miterlimit="10" stroke-linecap="round" stroke-linejoin="round"/>
<path d="M48.7391 88.301L58.3302 78.7012" stroke="#4B7DD7" stroke-width="2" stroke-miterlimit="10" stroke-linecap="round" stroke-linejoin="round"/>
<path d="M0.880737 245.747V237.777C0.880737 236.835 1.64696 236.068 2.58934 236.068H9.17713" stroke="#4B7DD7" stroke-width="2" stroke-miterlimit="10" stroke-linecap="round" stroke-linejoin="round"/>
<path d="M17.1124 236.069H90.4941C92.9249 236.069 94.8977 234.096 94.8977 231.665V184.124C94.8977 183.155 95.6904 182.362 96.6592 182.362H105.643" stroke="#4B7DD7" stroke-width="2" stroke-miterlimit="10" stroke-linecap="round" stroke-linejoin="round"/>
<path d="M127.22 182.362H143.337C144.306 182.362 145.099 183.155 145.099 184.124V188.316" stroke="#4B7DD7" stroke-width="2" stroke-miterlimit="10" stroke-linecap="round" stroke-linejoin="round"/>
<path d="M176.972 182.362H156.319C155.35 182.362 154.558 183.155 154.558 184.124V188.316" stroke="#4B7DD7" stroke-width="2" stroke-miterlimit="10" stroke-linecap="round" stroke-linejoin="round"/>
<path d="M190.253 182.362H200.972C203.403 182.362 205.375 180.389 205.375 177.958V167.918C205.375 165.487 203.403 163.515 200.972 163.515H161.463C160.494 163.515 159.701 164.307 159.701 165.276V169.821" stroke="#4B7DD7" stroke-width="2" stroke-miterlimit="10" stroke-linecap="round" stroke-linejoin="round"/>
<path d="M127.705 159.305H137.472V169.292" stroke="#4B7DD7" stroke-width="2" stroke-miterlimit="10" stroke-linecap="round" stroke-linejoin="round"/>
<path d="M112.001 159.305V170.455C112.001 172.885 110.029 174.858 107.598 174.858H83.4749" stroke="#4B7DD7" stroke-width="2" stroke-miterlimit="10" stroke-linecap="round" stroke-linejoin="round"/>
<path d="M212.765 145.063V142.042" stroke="#4B7DD7" stroke-width="2" stroke-miterlimit="10" stroke-linecap="round" stroke-linejoin="round"/>
<path d="M94.9153 138.062V154.901C94.9153 157.332 96.8882 159.305 99.3189 159.305H130.734" stroke="#4B7DD7" stroke-width="2" stroke-miterlimit="10" stroke-linecap="round" stroke-linejoin="round"/>
<path d="M253.753 144.288V141.743" stroke="#4B7DD7" stroke-width="2" stroke-miterlimit="10" stroke-linecap="round" stroke-linejoin="round"/>
<path d="M225.095 145.063V141.743" stroke="#4B7DD7" stroke-width="2" stroke-miterlimit="10" stroke-linecap="round" stroke-linejoin="round"/>
<path d="M299.119 57.6257L150.612 0.880859L2.11371 57.6257" stroke="#4B7DD7" stroke-width="2" stroke-miterlimit="10" stroke-linecap="round" stroke-linejoin="round"/>
<path d="M130.276 170.164H168.508C168.94 170.164 169.292 170.516 169.292 170.948V174.074C169.292 174.506 168.94 174.858 168.508 174.858H130.171C128.849 174.858 127.784 173.766 127.828 172.436C127.863 171.15 128.99 170.164 130.276 170.164Z" stroke="white" stroke-width="2" stroke-miterlimit="3.8636" stroke-linecap="round" stroke-linejoin="round"/>
<path d="M169.292 171.204H171.503C171.767 171.204 171.978 171.415 171.978 171.679V173.344C171.978 173.608 171.767 173.819 171.503 173.819H169.292" stroke="white" stroke-width="2" stroke-miterlimit="3.8636" stroke-linecap="round" stroke-linejoin="round"/>
<path d="M159.648 168.42V170.164" stroke="white" stroke-width="2" stroke-miterlimit="3.8636" stroke-linecap="round" stroke-linejoin="round"/>
<path d="M137.472 168.42V170.164" stroke="white" stroke-width="2" stroke-miterlimit="3.8636" stroke-linecap="round" stroke-linejoin="round"/>
<path d="M177.298 193.741H190.562V189.162C190.562 187.7 189.382 186.52 187.92 186.52H179.94C178.478 186.52 177.298 187.7 177.298 189.162V193.741Z" stroke="white" stroke-width="2" stroke-miterlimit="3.8636" stroke-linecap="round" stroke-linejoin="round"/>
<path d="M176.972 197.854H190.888C191.372 197.854 191.768 197.458 191.768 196.973V194.622C191.768 194.138 191.372 193.741 190.888 193.741H176.972C176.488 193.741 176.091 194.138 176.091 194.622V196.973C176.091 197.458 176.479 197.854 176.972 197.854Z" stroke="white" stroke-width="2" stroke-miterlimit="3.8636" stroke-linecap="round" stroke-linejoin="round"/>
<path d="M182.582 226.786H185.277C188.193 226.786 190.562 224.417 190.562 221.502V197.854H177.298V221.502C177.298 224.417 179.658 226.786 182.582 226.786Z" stroke="white" stroke-width="2" stroke-miterlimit="3.8636" stroke-linecap="round" stroke-linejoin="round"/>
<path d="M181.112 181.006H186.739V183.71H185.885V186.52H181.966V183.71H181.112V181.006Z" stroke="white" stroke-width="2" stroke-miterlimit="3.8636" stroke-linecap="round" stroke-linejoin="round"/>
<path d="M189.452 183.886H187.171C186.924 183.886 186.731 183.692 186.731 183.446V181.27C186.731 181.024 186.924 180.83 187.171 180.83H189.452C189.699 180.83 189.892 181.024 189.892 181.27V183.446C189.892 183.692 189.699 183.886 189.452 183.886Z" stroke="white" stroke-width="2" stroke-miterlimit="3.8636" stroke-linecap="round" stroke-linejoin="round"/>
<path d="M180.671 183.886H178.39C178.144 183.886 177.95 183.692 177.95 183.446V181.27C177.95 181.024 178.144 180.83 178.39 180.83H180.671C180.918 180.83 181.112 181.024 181.112 181.27V183.446C181.112 183.692 180.918 183.886 180.671 183.886Z" stroke="white" stroke-width="2" stroke-miterlimit="3.8636" stroke-linecap="round" stroke-linejoin="round"/>
<path d="M189.892 182.362H191.02" stroke="white" stroke-width="2" stroke-miterlimit="3.8636" stroke-linecap="round" stroke-linejoin="round"/>
<path d="M176.831 182.362H177.95" stroke="white" stroke-width="2" stroke-miterlimit="3.8636" stroke-linecap="round" stroke-linejoin="round"/>
<path d="M111.121 190.791H120.861C121.83 190.791 122.623 189.998 122.623 189.03V183.472C122.623 182.01 121.443 180.83 119.981 180.83H112.001C110.539 180.83 109.359 182.01 109.359 183.472V189.03C109.359 190.007 110.152 190.791 111.121 190.791Z" stroke="white" stroke-width="2" stroke-miterlimit="3.8636" stroke-linecap="round" stroke-linejoin="round"/>
<path d="M113.965 226.61H118.017C119.963 226.61 121.539 225.033 121.539 223.087V190.791H110.442V223.087C110.442 225.033 112.019 226.61 113.965 226.61Z" stroke="white" stroke-width="2" stroke-miterlimit="3.8636" stroke-linecap="round" stroke-linejoin="round"/>
<path d="M120.06 180.83H125.353C125.591 180.83 125.776 181.024 125.776 181.253V183.455C125.776 183.692 125.582 183.877 125.353 183.877H122.623" stroke="white" stroke-width="2" stroke-miterlimit="3.8636" stroke-linecap="round" stroke-linejoin="round"/>
<path d="M109.359 183.886H106.629C106.391 183.886 106.206 183.692 106.206 183.463V181.262C106.206 181.024 106.4 180.839 106.629 180.839H112.301" stroke="white" stroke-width="2" stroke-miterlimit="3.8636" stroke-linecap="round" stroke-linejoin="round"/>
<path d="M105.079 182.362H106.206" stroke="white" stroke-width="2" stroke-miterlimit="3.8636" stroke-linecap="round" stroke-linejoin="round"/>
<path d="M125.776 182.362H126.903" stroke="white" stroke-width="2" stroke-miterlimit="3.8636" stroke-linecap="round" stroke-linejoin="round"/>
<path d="M134.988 237.425H164.809C165.179 237.425 165.479 237.125 165.487 236.756L166.095 190.606C166.113 189.478 165.197 188.554 164.069 188.554H135.737C134.609 188.554 133.693 189.478 133.711 190.606L134.319 236.756C134.319 237.125 134.618 237.425 134.988 237.425Z" stroke="white" stroke-width="2" stroke-miterlimit="3.8636" stroke-linecap="round" stroke-linejoin="round"/>
<path d="M135.71 244.101H164.087C164.457 244.101 164.765 243.802 164.765 243.423V237.504H135.032V243.423C135.032 243.802 135.34 244.101 135.71 244.101Z" stroke="white" stroke-width="2" stroke-miterlimit="3.8636" stroke-linecap="round" stroke-linejoin="round"/>
<path d="M166.016 197.114H133.79" stroke="white" stroke-width="2" stroke-miterlimit="3.8636" stroke-linecap="round" stroke-linejoin="round"/>
<path d="M145.169 197.114H154.628V193.944C154.628 193.459 154.232 193.063 153.747 193.063H146.05C145.566 193.063 145.169 193.459 145.169 193.944V197.114Z" stroke="white" stroke-width="2" stroke-miterlimit="3.8636" stroke-linecap="round" stroke-linejoin="round"/>
<path d="M59.6689 217.204H78.4811C81.2377 217.204 83.4747 214.967 83.4747 212.21V173.106C83.4747 170.349 81.2377 168.112 78.4811 168.112H59.6689C56.9122 168.112 54.6752 170.349 54.6752 173.106V212.21C54.6752 214.967 56.9122 217.204 59.6689 217.204Z" stroke="#4B7DD7" stroke-width="2" stroke-miterlimit="10" stroke-linecap="round" stroke-linejoin="round"/>
<path d="M64.5745 210.246H73.5754C74.9582 210.246 76.0679 209.128 76.0679 207.754V191.636C76.0679 190.254 74.9494 189.144 73.5754 189.144H64.5745C63.1917 189.144 62.082 190.263 62.082 191.636V207.754C62.082 209.128 63.2005 210.246 64.5745 210.246Z" stroke="#4B7DD7" stroke-width="2" stroke-miterlimit="10" stroke-linecap="round" stroke-linejoin="round"/>
<path d="M83.4747 173.643H54.6752" stroke="#4B7DD7" stroke-width="2" stroke-miterlimit="10" stroke-linecap="round" stroke-linejoin="round"/>
<path d="M83.4747 201.782H76.0766" stroke="#4B7DD7" stroke-width="2" stroke-miterlimit="10" stroke-linecap="round" stroke-linejoin="round"/>
<path d="M62.082 201.782H54.6752" stroke="#4B7DD7" stroke-width="2" stroke-miterlimit="10" stroke-linecap="round" stroke-linejoin="round"/>
<path d="M66.6354 203.869C66.6354 205.217 67.7275 206.309 69.075 206.309C70.4225 206.309 71.5146 205.217 71.5146 203.869C71.5146 202.522 70.4225 201.43 69.075 201.43C67.7275 201.438 66.6354 202.522 66.6354 203.869Z" stroke="#4B7DD7" stroke-width="2" stroke-miterlimit="10" stroke-linecap="round" stroke-linejoin="round"/>
<path d="M71.6818 193.53C71.6818 194.076 72.1222 194.525 72.677 194.525C73.2231 194.525 73.6723 194.085 73.6723 193.53C73.6723 192.975 73.2319 192.535 72.677 192.535C72.1222 192.535 71.6818 192.984 71.6818 193.53Z" fill="#4B7DD7"/>
<path d="M68.0797 193.53C68.0797 194.076 68.52 194.525 69.0749 194.525C69.6209 194.525 70.0701 194.085 70.0701 193.53C70.0701 192.975 69.6297 192.535 69.0749 192.535C68.5288 192.535 68.0797 192.984 68.0797 193.53Z" fill="#4B7DD7"/>
<path d="M64.4863 193.53C64.4863 194.076 64.9267 194.525 65.4815 194.525C66.0364 194.525 66.4768 194.085 66.4768 193.53C66.4768 192.975 66.0364 192.535 65.4815 192.535C64.9267 192.535 64.4863 192.984 64.4863 193.53Z" fill="#4B7DD7"/>
<path d="M76.605 168.112V166.958C76.605 165.787 75.6538 164.836 74.4825 164.836H63.6672C62.4959 164.836 61.5447 165.787 61.5447 166.958V168.112" stroke="#4B7DD7" stroke-width="2" stroke-miterlimit="10" stroke-linecap="round" stroke-linejoin="round"/>
<path d="M236.879 242.436H206.617C205.648 242.436 204.856 241.643 204.856 240.675V196.551C204.856 195.582 205.648 194.789 206.617 194.789H236.888C237.856 194.789 238.649 195.582 238.649 196.551V240.675C238.64 241.643 237.856 242.436 236.879 242.436Z" stroke="#4B7DD7" stroke-width="2" stroke-miterlimit="10" stroke-linecap="round" stroke-linejoin="round"/>
<path d="M212.289 198.224H214.253C215.019 198.224 215.636 198.841 215.636 199.607V201.668C215.636 202.434 215.019 203.05 214.253 203.05H208.396" stroke="#4B7DD7" stroke-width="2" stroke-miterlimit="10" stroke-linecap="round" stroke-linejoin="round"/>
<path d="M204.856 206.529H238.64" stroke="#4B7DD7" stroke-width="2" stroke-miterlimit="10" stroke-linecap="round" stroke-linejoin="round"/>
<path d="M230.397 200.91C230.397 201.456 229.956 201.905 229.401 201.905C228.855 201.905 228.406 201.465 228.406 200.91C228.406 200.364 228.847 199.915 229.401 199.915C229.948 199.915 230.397 200.355 230.397 200.91Z" fill="#4B7DD7"/>
<path d="M226.469 200.91C226.469 201.456 226.028 201.905 225.474 201.905C224.928 201.905 224.478 201.465 224.478 200.91C224.478 200.364 224.919 199.915 225.474 199.915C226.028 199.915 226.469 200.355 226.469 200.91Z" fill="#4B7DD7"/>
<path d="M234.325 200.91C234.325 201.456 233.884 201.905 233.33 201.905C232.784 201.905 232.334 201.465 232.334 200.91C232.334 200.364 232.775 199.915 233.33 199.915C233.876 199.915 234.325 200.355 234.325 200.91Z" fill="#4B7DD7"/>
<path d="M221.924 236.245C228.821 236.245 234.413 230.653 234.413 223.756C234.413 216.859 228.821 211.268 221.924 211.268C215.027 211.268 209.436 216.859 209.436 223.756C209.436 230.653 215.027 236.245 221.924 236.245Z" stroke="#4B7DD7" stroke-width="2" stroke-miterlimit="10" stroke-linecap="round" stroke-linejoin="round"/>
<path d="M231.11 226.539H226.522V220.832H231.11" stroke="#4B7DD7" stroke-width="2" stroke-miterlimit="10" stroke-linecap="round" stroke-linejoin="round"/>
<path d="M221.986 215.891C225.297 215.891 228.133 217.943 229.296 220.841" stroke="#4B7DD7" stroke-width="2" stroke-miterlimit="10" stroke-linecap="round" stroke-linejoin="round"/>
<path d="M229.349 226.539C228.221 229.507 225.35 231.621 221.995 231.621C217.653 231.621 214.13 228.098 214.13 223.756" stroke="#4B7DD7" stroke-width="2" stroke-miterlimit="10" stroke-linecap="round" stroke-linejoin="round"/>
<path d="M207.498 242.436V245.748" stroke="#4B7DD7" stroke-width="2" stroke-miterlimit="10" stroke-linecap="round" stroke-linejoin="round"/>
<path d="M235.998 242.436V245.748" stroke="#4B7DD7" stroke-width="2" stroke-miterlimit="10" stroke-linecap="round" stroke-linejoin="round"/>
<path d="M248.451 183.886V218.833C248.451 221.264 246.478 223.236 244.048 223.236H238.649" stroke="#4B7DD7" stroke-width="2" stroke-miterlimit="10" stroke-linecap="round" stroke-linejoin="round"/>
<path d="M184.062 86.3635V85.2714C184.062 85.0336 183.868 84.8311 183.621 84.8311H182.151C181.913 84.8311 181.71 85.0248 181.71 85.2714V90.9785H184.053V88.8912" stroke="white" stroke-width="2" stroke-miterlimit="10" stroke-linecap="round" stroke-linejoin="round"/>
<path d="M182.891 76.7725V84.8311" stroke="white" stroke-width="2" stroke-miterlimit="10" stroke-linecap="round" stroke-linejoin="round"/>
<path d="M192.402 76.7726C192.402 72.8093 190.271 70.5635 187.646 70.5635C185.022 70.5635 182.891 72.9678 182.891 76.7726" stroke="white" stroke-width="2" stroke-miterlimit="10" stroke-linecap="round" stroke-linejoin="round"/>
<path d="M192.402 76.7725V78.4018" stroke="white" stroke-width="2" stroke-miterlimit="10" stroke-linecap="round" stroke-linejoin="round"/>
<path d="M186.07 82.7969V86.3638" stroke="white" stroke-width="2" stroke-miterlimit="10" stroke-linecap="round" stroke-linejoin="round"/>
<path d="M186.396 88.8821C186.66 88.8821 186.871 88.3185 186.871 87.6227C186.871 86.9269 186.66 86.3633 186.396 86.3633" stroke="white" stroke-width="2" stroke-miterlimit="10" stroke-linecap="round" stroke-linejoin="round"/>
<path d="M184.062 88.8828H186.396" stroke="white" stroke-width="2" stroke-miterlimit="10" stroke-linecap="round" stroke-linejoin="round"/>
<path d="M186.396 86.3633H184.062" stroke="white" stroke-width="2" stroke-miterlimit="10" stroke-linecap="round" stroke-linejoin="round"/>
<path d="M185.119 105.634H184.115C183.172 105.634 182.406 104.867 182.406 103.925V95.3027" stroke="white" stroke-width="2" stroke-miterlimit="10" stroke-linecap="round" stroke-linejoin="round"/>
<path d="M218.93 94.9326H178.945V137.128H218.93V94.9326Z" stroke="#4B7DD7" stroke-width="2" stroke-miterlimit="10" stroke-linecap="round" stroke-linejoin="round"/>
<path d="M225.368 94.9326H259.918V140.043C259.918 140.986 259.152 141.752 258.21 141.752H220.629C219.687 141.752 218.921 140.986 218.921 140.043V94.9326" stroke="#4B7DD7" stroke-width="2" stroke-miterlimit="10" stroke-linecap="round" stroke-linejoin="round"/>
<path d="M229.419 90.0273V91.7183" stroke="#4B7DD7" stroke-width="2" stroke-miterlimit="10" stroke-linecap="round" stroke-linejoin="round"/>
<path d="M232.149 90.0273V91.7183" stroke="#4B7DD7" stroke-width="2" stroke-miterlimit="10" stroke-linecap="round" stroke-linejoin="round"/>
<path d="M246.699 90.0273V91.7183" stroke="#4B7DD7" stroke-width="2" stroke-miterlimit="10" stroke-linecap="round" stroke-linejoin="round"/>
<path d="M249.429 90.0273V91.7183" stroke="#4B7DD7" stroke-width="2" stroke-miterlimit="10" stroke-linecap="round" stroke-linejoin="round"/>
<path d="M225.887 106.981H255.348V136.274H225.368" stroke="#4B7DD7" stroke-width="2" stroke-miterlimit="10" stroke-linecap="round" stroke-linejoin="round"/>
<path d="M226.988 94.9334H260.403C260.878 94.9334 261.257 94.5547 261.257 94.0791V92.5731C261.257 92.0975 260.878 91.7188 260.403 91.7188H179.799C179.324 91.7188 178.945 92.0975 178.945 92.5731V94.0791C178.945 94.5547 179.324 94.9334 179.799 94.9334H217.565" stroke="#4B7DD7" stroke-width="2" stroke-miterlimit="10" stroke-linecap="round" stroke-linejoin="round"/>
<path d="M225.782 98.8436C226.002 98.7467 226.257 98.6938 226.513 98.6938C227.534 98.6938 228.353 99.5217 228.353 100.535C228.353 101.547 227.525 102.375 226.513 102.375C226.187 102.375 225.879 102.287 225.614 102.137" stroke="#4B7DD7" stroke-width="2" stroke-miterlimit="10" stroke-linecap="round" stroke-linejoin="round"/>
<path d="M242.251 100.358C242.251 100.905 241.811 101.354 241.256 101.354C240.701 101.354 240.261 100.913 240.261 100.358C240.261 99.8124 240.701 99.3633 241.256 99.3633C241.811 99.3633 242.251 99.8124 242.251 100.358Z" fill="#4B7DD7"/>
<path d="M246.232 100.358C246.232 100.905 245.792 101.354 245.237 101.354C244.691 101.354 244.242 100.913 244.242 100.358C244.242 99.8124 244.682 99.3633 245.237 99.3633C245.792 99.3633 246.232 99.8124 246.232 100.358Z" fill="#4B7DD7"/>
<path d="M250.213 100.358C250.213 100.905 249.772 101.354 249.218 101.354C248.663 101.354 248.222 100.913 248.222 100.358C248.222 99.8124 248.663 99.3633 249.218 99.3633C249.772 99.3633 250.213 99.8124 250.213 100.358Z" fill="#4B7DD7"/>
<path d="M254.194 100.358C254.194 100.905 253.753 101.354 253.199 101.354C252.644 101.354 252.203 100.913 252.203 100.358C252.203 99.8124 252.644 99.3633 253.199 99.3633C253.753 99.3633 254.194 99.8124 254.194 100.358Z" fill="#4B7DD7"/>
<path d="M236.527 101.327H232.968C232.449 101.327 232.035 100.904 232.035 100.394V100.323C232.035 99.8036 232.458 99.3896 232.968 99.3896H236.527C237.046 99.3896 237.46 99.8124 237.46 100.323V100.394C237.46 100.913 237.037 101.327 236.527 101.327Z" fill="#4B7DD7"/>
<path d="M228.124 112.336V111.332H250.733V112.336" stroke="#4B7DD7" stroke-width="2" stroke-miterlimit="10" stroke-linecap="round" stroke-linejoin="round"/>
<path d="M235.963 45.9297V50.8353C235.963 53.5479 235.249 56.2077 233.902 58.5592L226.53 71.3737C226.196 71.9638 226.618 72.6948 227.297 72.6948H251.252C251.93 72.6948 252.353 71.9638 252.018 71.3737L244.647 58.5592C243.29 56.2077 242.586 53.5479 242.586 50.8353V48.704" stroke="#4B7DD7" stroke-width="2" stroke-miterlimit="10" stroke-linecap="round" stroke-linejoin="round"/>
<path d="M217.168 141.743H180.706C179.738 141.743 178.945 140.951 178.945 139.982V137.128H218.93V139.982C218.93 140.96 218.137 141.743 217.168 141.743Z" stroke="#4B7DD7" stroke-width="2" stroke-miterlimit="10" stroke-linecap="round" stroke-linejoin="round"/>
<path d="M225.368 139.691L218.93 137.128V94.933L225.368 92.3701V139.691Z" stroke="#4B7DD7" stroke-width="2" stroke-miterlimit="10" stroke-linecap="round" stroke-linejoin="round"/>
<path d="M172.498 139.691L178.945 137.128V94.933L172.498 92.3701V139.691Z" stroke="#4B7DD7" stroke-width="2" stroke-miterlimit="10" stroke-linecap="round" stroke-linejoin="round"/>
<path d="M214.042 89.2173L216.675 86.5928" stroke="#4B7DD7" stroke-width="2" stroke-miterlimit="10" stroke-linecap="round" stroke-linejoin="round"/>
<path d="M211.514 88.4952V77.6095C211.514 76.5262 210.633 75.6543 209.559 75.6543H203.605" stroke="#4B7DD7" stroke-width="2" stroke-miterlimit="10" stroke-linecap="round" stroke-linejoin="round"/>
<path d="M214.579 91.56C214.579 89.869 213.205 88.4951 211.514 88.4951C209.823 88.4951 208.449 89.869 208.449 91.56" stroke="#4B7DD7" stroke-width="2" stroke-miterlimit="10" stroke-linecap="round" stroke-linejoin="round"/>
<path d="M185.11 145.064V142.192" stroke="#4B7DD7" stroke-width="2" stroke-miterlimit="10" stroke-linecap="round" stroke-linejoin="round"/>
<path d="M186.123 108.012H183.991C183.111 108.012 182.406 108.725 182.406 109.597V128.867C182.406 129.836 181.614 130.629 180.645 130.629H178.945" stroke="#4B7DD7" stroke-width="2" stroke-miterlimit="10" stroke-linecap="round" stroke-linejoin="round"/>
<path d="M184.062 94.9326C184.062 97.0904 185.119 98.7814 186.598 100.287" stroke="#4B7DD7" stroke-width="2" stroke-miterlimit="10" stroke-linecap="round" stroke-linejoin="round"/>
<path d="M214.042 94.9326C214.042 96.7733 213.267 98.2794 212.131 99.6092" stroke="#4B7DD7" stroke-width="2" stroke-miterlimit="10" stroke-linecap="round" stroke-linejoin="round"/>
<path d="M202.046 127.467H200.805C199.88 127.467 199.122 126.727 199.114 125.802L198.805 107.95H204.054L203.746 125.802C203.729 126.727 202.971 127.467 202.046 127.467Z" stroke="white" stroke-width="2" stroke-miterlimit="10" stroke-linecap="round" stroke-linejoin="round"/>
<path d="M208.29 127.467H207.049C206.124 127.467 205.366 126.727 205.358 125.802L205.049 107.95H210.299L209.99 125.802C209.973 126.727 209.215 127.467 208.29 127.467Z" stroke="white" stroke-width="2" stroke-miterlimit="10" stroke-linecap="round" stroke-linejoin="round"/>
<path d="M201.456 104.797V105.572" stroke="white" stroke-width="2" stroke-miterlimit="10" stroke-linecap="round" stroke-linejoin="round"/>
<path d="M206.969 104.797V105.572" stroke="white" stroke-width="2" stroke-miterlimit="10" stroke-linecap="round" stroke-linejoin="round"/>
<path d="M186.422 111.077H187.1C187.1 111.077 187.074 127.652 187.1 128.682C187.109 129.158 187.109 131.131 187.109 132.011C187.109 133.095 187.981 133.975 189.073 133.975H211.743C213.364 133.975 214.685 132.654 214.685 131.034V104.603C214.685 102.437 212.932 100.684 210.765 100.684H187.779C187.347 100.684 186.942 100.869 186.66 101.204L186.598 101.274C186.281 101.653 186.114 102.137 186.132 102.63C186.211 104.559 186.413 109.474 186.422 109.905C186.44 110.434 186.422 111.077 186.422 111.077Z" stroke="white" stroke-width="2" stroke-miterlimit="10" stroke-linecap="round" stroke-linejoin="round"/>
<path d="M191.046 133.966V135.349" stroke="white" stroke-width="2" stroke-miterlimit="10" stroke-linecap="round" stroke-linejoin="round"/>
<path d="M186.123 105.634H185.119" stroke="white" stroke-width="2" stroke-miterlimit="10" stroke-linecap="round" stroke-linejoin="round"/>
<path d="M206.873 133.966V135.349" stroke="white" stroke-width="2" stroke-miterlimit="10" stroke-linecap="round" stroke-linejoin="round"/>
<path d="M187.1 111.077H198.603" stroke="white" stroke-width="2" stroke-miterlimit="10" stroke-linecap="round" stroke-linejoin="round"/>
<path d="M210.017 124.217H211.408C211.62 124.217 212.016 124.164 212.131 123.583" stroke="white" stroke-width="2" stroke-miterlimit="10" stroke-linecap="round" stroke-linejoin="round"/>
<path d="M192.975 107.959H210.167C211.25 107.959 212.131 108.84 212.131 109.923V128.7C212.131 129.783 211.25 130.664 210.167 130.664H191.962C191.962 130.664 196.093 130.391 197.255 129.123C198.603 127.652 197.519 125.626 198.347 124.023" stroke="white" stroke-width="2" stroke-miterlimit="10" stroke-linecap="round" stroke-linejoin="round"/>
<path d="M186.202 104.471H210.166C211.25 104.471 212.13 105.352 212.13 106.435V110.046" stroke="white" stroke-width="2" stroke-miterlimit="10" stroke-linecap="round" stroke-linejoin="round"/>
<path d="M205.331 124.217H203.773" stroke="white" stroke-width="2" stroke-miterlimit="10" stroke-linecap="round" stroke-linejoin="round"/>
<path d="M199.078 124.014H198.356" stroke="white" stroke-width="2" stroke-miterlimit="10" stroke-linecap="round" stroke-linejoin="round"/>
<path d="M198.603 111.077L198.347 124.464" stroke="white" stroke-width="2" stroke-miterlimit="10" stroke-linecap="round" stroke-linejoin="round"/>
<path d="M204.054 109.606H205.076" stroke="white" stroke-width="2" stroke-miterlimit="10" stroke-linecap="round" stroke-linejoin="round"/>
<path d="M210.299 110.284C210.299 110.284 211.285 110.452 212.051 110.046" stroke="white" stroke-width="2" stroke-miterlimit="10" stroke-linecap="round" stroke-linejoin="round"/>
<path d="M126.868 57.4847H125.987C125.503 57.4847 125.106 57.0883 125.106 56.6039V53.9618C125.106 53.4774 125.503 53.0811 125.987 53.0811H126.868C127.352 53.0811 127.748 53.4774 127.748 53.9618V56.6039C127.748 57.0883 127.352 57.4847 126.868 57.4847Z" stroke="#4B7DD7" stroke-width="2" stroke-miterlimit="10" stroke-linecap="round" stroke-linejoin="round"/>
<path d="M68.7755 57.4847H67.8948C67.4104 57.4847 67.014 57.0883 67.014 56.6039V53.9618C67.014 53.4774 67.4104 53.0811 67.8948 53.0811H68.7755C69.2599 53.0811 69.6562 53.4774 69.6562 53.9618V56.6039C69.6562 57.0883 69.2599 57.4847 68.7755 57.4847Z" stroke="#4B7DD7" stroke-width="2" stroke-miterlimit="10" stroke-linecap="round" stroke-linejoin="round"/>
<path d="M106.074 55.2832H69.8234" stroke="#4B7DD7" stroke-width="2" stroke-miterlimit="10" stroke-linecap="round" stroke-linejoin="round"/>
<path d="M124.904 55.2832H121.548" stroke="#4B7DD7" stroke-width="2" stroke-miterlimit="10" stroke-linecap="round" stroke-linejoin="round"/>
<path d="M108.003 53.0811H119.76C120.72 53.0811 121.513 53.8561 121.522 54.8161L122.543 133.139C122.543 133.139 118.624 135.015 116.07 132.504C114.705 131.166 112.838 131.315 111.666 132.504C110.425 133.764 107.289 134.979 105.043 133.139L106.25 54.8073C106.259 53.8561 107.043 53.0811 108.003 53.0811Z" stroke="#4B7DD7" stroke-width="2" stroke-miterlimit="10" stroke-linecap="round" stroke-linejoin="round"/>
<path d="M111.112 107.281V132.98" stroke="#4B7DD7" stroke-width="2" stroke-miterlimit="10" stroke-linecap="round" stroke-linejoin="round"/>
<path d="M117.303 113.234V133.368" stroke="#4B7DD7" stroke-width="2" stroke-miterlimit="10" stroke-linecap="round" stroke-linejoin="round"/>
<path d="M114.987 131.791L114.256 133.79C113.322 136.353 110.891 138.053 108.161 138.053H62.716C59.9946 138.053 57.555 136.353 56.6214 133.79L52.3059 118.281" stroke="#4B7DD7" stroke-width="2" stroke-miterlimit="10" stroke-linecap="round" stroke-linejoin="round"/>
<path d="M60.6551 143.276L64.8121 138.062" stroke="#4B7DD7" stroke-width="2" stroke-miterlimit="10" stroke-linecap="round" stroke-linejoin="round"/>
<path d="M70.0171 138.062L66.732 143.276" stroke="#4B7DD7" stroke-width="2" stroke-miterlimit="10" stroke-linecap="round" stroke-linejoin="round"/>
<path d="M104.154 143.276L100.878 138.062" stroke="#4B7DD7" stroke-width="2" stroke-miterlimit="10" stroke-linecap="round" stroke-linejoin="round"/>
<path d="M106.074 138.062L110.231 143.276" stroke="#4B7DD7" stroke-width="2" stroke-miterlimit="10" stroke-linecap="round" stroke-linejoin="round"/>
<path d="M90.0977 67.3926V106.919" stroke="#4B7DD7" stroke-width="2" stroke-miterlimit="10" stroke-linecap="round" stroke-linejoin="round"/>
<path d="M105.043 118.289H47.9287C47.233 118.289 46.5988 117.875 46.317 117.241L46.1232 116.801C45.6036 115.638 46.4579 114.326 47.735 114.326H105.035" stroke="#4B7DD7" stroke-width="2" stroke-miterlimit="10" stroke-linecap="round" stroke-linejoin="round"/>
<path d="M122.543 114.326H123.345C124.622 114.326 125.476 115.638 124.957 116.801L124.763 117.241C124.481 117.875 123.847 118.289 123.151 118.289H122.376" stroke="#4B7DD7" stroke-width="2" stroke-miterlimit="10" stroke-linecap="round" stroke-linejoin="round"/>
<path d="M84.8838 106.919H95.3115" stroke="#4B7DD7" stroke-width="2" stroke-miterlimit="10" stroke-linecap="round" stroke-linejoin="round"/>
<path d="M84.8838 106.92C84.8838 107.915 84.0823 108.716 83.0871 108.716C82.0919 108.716 81.2905 107.915 81.2905 106.92C81.2905 105.925 82.0919 105.123 83.0871 105.123C84.0735 105.123 84.8838 105.925 84.8838 106.92Z" stroke="#4B7DD7" stroke-width="2" stroke-miterlimit="10" stroke-linecap="round" stroke-linejoin="round"/>
<path d="M81.7485 108.25L80.4979 109.5" stroke="#4B7DD7" stroke-width="2" stroke-miterlimit="10" stroke-linecap="round" stroke-linejoin="round"/>
<path d="M85.6675 104.33L84.4169 105.581" stroke="#4B7DD7" stroke-width="2" stroke-miterlimit="10" stroke-linecap="round" stroke-linejoin="round"/>
<path d="M81.7397 105.572L80.4979 104.33" stroke="#4B7DD7" stroke-width="2" stroke-miterlimit="10" stroke-linecap="round" stroke-linejoin="round"/>
<path d="M85.6675 109.5L84.4169 108.25" stroke="#4B7DD7" stroke-width="2" stroke-miterlimit="10" stroke-linecap="round" stroke-linejoin="round"/>
<path d="M98.9753 106.92C98.9753 107.915 98.1738 108.716 97.1786 108.716C96.1834 108.716 95.382 107.915 95.382 106.92C95.382 105.925 96.1834 105.123 97.1786 105.123C98.1738 105.123 98.9753 105.925 98.9753 106.92Z" stroke="#4B7DD7" stroke-width="2" stroke-miterlimit="10" stroke-linecap="round" stroke-linejoin="round"/>
<path d="M95.8488 108.25L94.5894 109.5" stroke="#4B7DD7" stroke-width="2" stroke-miterlimit="10" stroke-linecap="round" stroke-linejoin="round"/>
<path d="M99.759 104.33L98.5084 105.581" stroke="#4B7DD7" stroke-width="2" stroke-miterlimit="10" stroke-linecap="round" stroke-linejoin="round"/>
<path d="M95.84 105.572L94.5894 104.33" stroke="#4B7DD7" stroke-width="2" stroke-miterlimit="10" stroke-linecap="round" stroke-linejoin="round"/>
<path d="M99.759 109.5L98.5084 108.25" stroke="#4B7DD7" stroke-width="2" stroke-miterlimit="10" stroke-linecap="round" stroke-linejoin="round"/>
<path d="M90.0977 104.145C90.0977 105.677 88.8559 106.919 87.3234 106.919" stroke="#4B7DD7" stroke-width="2" stroke-miterlimit="10" stroke-linecap="round" stroke-linejoin="round"/>
<path d="M92.8631 106.919C91.3306 106.919 90.0888 105.677 90.0888 104.145" stroke="#4B7DD7" stroke-width="2" stroke-miterlimit="10" stroke-linecap="round" stroke-linejoin="round"/>
<path d="M84.9982 74.3941H78.3927C77.9083 74.3941 77.512 73.9978 77.512 73.5134V72.6327C77.512 72.1483 77.9083 71.752 78.3927 71.752H84.9982C85.4826 71.752 85.8789 72.1483 85.8789 72.6327V73.5134C85.8789 73.9978 85.4826 74.3941 84.9982 74.3941Z" stroke="#4B7DD7" stroke-width="2" stroke-miterlimit="10" stroke-linecap="round" stroke-linejoin="round"/>
<path d="M90.0975 67.3926C90.0975 67.3926 90.0094 63.1035 85.9493 63.1035C81.5809 63.1035 81.6954 67.3926 81.6954 67.3926V69.1453" stroke="#4B7DD7" stroke-width="2" stroke-miterlimit="10" stroke-linecap="round" stroke-linejoin="round"/>
<path d="M81.6955 68.9775C81.6955 70.51 80.4537 71.7518 78.9212 71.7518" stroke="#4B7DD7" stroke-width="2" stroke-miterlimit="10" stroke-linecap="round" stroke-linejoin="round"/>
<path d="M84.4609 71.7518C82.9284 71.7518 81.6866 70.51 81.6866 68.9775" stroke="#4B7DD7" stroke-width="2" stroke-miterlimit="10" stroke-linecap="round" stroke-linejoin="round"/>
<path d="M137.472 159.305H243.995C246.426 159.305 248.399 161.278 248.399 163.708V169.812" stroke="#4B7DD7" stroke-width="2" stroke-miterlimit="10" stroke-linecap="round" stroke-linejoin="round"/>
<path d="M246.628 175.862H250.151C250.636 175.862 251.032 175.466 251.032 174.982V173.643C251.032 173.159 250.636 172.762 250.151 172.762H246.628C246.144 172.762 245.748 173.159 245.748 173.643V174.982C245.748 175.466 246.144 175.862 246.628 175.862Z" stroke="white" stroke-width="2" stroke-miterlimit="3.8636" stroke-linecap="round" stroke-linejoin="round"/>
<path d="M247.13 172.753H249.649C249.896 172.753 250.09 172.56 250.09 172.313V170.886C250.09 170.64 249.896 170.446 249.649 170.446H247.13C246.884 170.446 246.69 170.64 246.69 170.886V172.313C246.69 172.56 246.893 172.753 247.13 172.753Z" stroke="white" stroke-width="2" stroke-miterlimit="3.8636" stroke-linecap="round" stroke-linejoin="round"/>
<path d="M247.738 183.26H249.05C249.658 183.26 250.16 182.776 250.178 182.168L250.372 175.862H246.435L246.628 182.168C246.628 182.776 247.13 183.26 247.738 183.26Z" stroke="white" stroke-width="2" stroke-miterlimit="3.8636" stroke-linecap="round" stroke-linejoin="round"/>
<path d="M248.39 183.568V184.202" stroke="white" stroke-width="2" stroke-miterlimit="3.8636" stroke-linecap="round" stroke-linejoin="round"/>
<path d="M69.075 164.836V161.066C69.075 160.098 69.8677 159.305 70.8365 159.305H81.8014C84.2322 159.305 86.205 157.332 86.205 154.901V138.062" stroke="#4B7DD7" stroke-width="2" stroke-miterlimit="10" stroke-linecap="round" stroke-linejoin="round"/>
<path d="M171.978 122.702H123.09" stroke="#4B7DD7" stroke-width="2" stroke-miterlimit="10" stroke-linecap="round" stroke-linejoin="round"/>
<path d="M171.978 130.637H123.09" stroke="#4B7DD7" stroke-width="2" stroke-miterlimit="10" stroke-linecap="round" stroke-linejoin="round"/>
<path d="M83.0872 108.716V114.326" stroke="#4B7DD7" stroke-width="2" stroke-miterlimit="10" stroke-linecap="round" stroke-linejoin="round"/>
<path d="M97.1788 108.716V114.326" stroke="#4B7DD7" stroke-width="2" stroke-miterlimit="10" stroke-linecap="round" stroke-linejoin="round"/>
</g>
<defs>
<clipPath id="clip0">
<rect width="300" height="246.628" fill="white"/>
</clipPath>
</defs>
</svg>
