<?xml version="1.0" encoding="iso-8859-1"?>
<!-- Generator: Adobe Illustrator 17.1.0, SVG Export Plug-In . SVG Version: 6.00 Build 0)  -->
<!DOCTYPE svg PUBLIC "-//W3C//DTD SVG 1.1//EN" "http://www.w3.org/Graphics/SVG/1.1/DTD/svg11.dtd">
<svg version="1.1" id="Capa_1" xmlns="http://www.w3.org/2000/svg" xmlns:xlink="http://www.w3.org/1999/xlink" x="0px" y="0px"
	 viewBox="0 0 347.848 347.848" style="enable-background:new 0 0 347.848 347.848;" xml:space="preserve">
<g>
	<path d="M222.621,194.056h-97.065c-4.142,0-7.5,3.357-7.5,7.5v28.508c0,19.922,16.208,36.13,36.129,36.13h39.807
		c19.922,0,36.129-16.208,36.129-36.13v-28.508C230.121,197.413,226.763,194.056,222.621,194.056z M215.121,230.063
		c0,11.651-9.479,21.13-21.129,21.13h-39.807c-11.651,0-21.129-9.479-21.129-21.13v-21.008h82.065V230.063z"/>
	<path d="M299.593,79.792c-4.142,0-7.5,3.357-7.5,7.5v21.217c0,20.525-6.317,40.194-18.268,56.881l-8.859,12.37
		c-2.586-1.619-5.373-2.974-8.337-4.008l-0.597-0.209c-18.38-6.416-30.729-23.806-30.729-43.272v-25.323
		c0-9.138-3.506-17.471-9.242-23.73c0.068-0.405,0.111-0.818,0.111-1.242V41.737C216.172,18.724,197.448,0,174.434,0h-0.691
		c-23.014,0-41.738,18.724-41.738,41.737v38.237c0,0.424,0.044,0.837,0.111,1.242c-5.735,6.259-9.242,14.592-9.242,23.73v25.323
		c0,19.467-12.349,36.856-30.734,43.274l-0.586,0.205c-3.053,1.065-5.92,2.468-8.571,4.151l-8.96-12.512
		c-11.951-16.686-18.268-36.355-18.268-56.881V87.292c0-4.143-3.358-7.5-7.5-7.5s-7.5,3.357-7.5,7.5v21.217
		c0,23.678,7.287,46.367,21.073,65.615l10.079,14.074c-5.22,7.018-8.235,15.661-8.235,24.815v105.124
		c0,16.382,13.328,29.71,29.71,29.71h161.413c16.382,0,29.71-13.328,29.71-29.71V213.014c0-9.253-3.079-17.985-8.402-25.042
		l9.917-13.848c13.786-19.249,21.072-41.938,21.072-65.615V87.292C307.093,83.149,303.735,79.792,299.593,79.792z M173.743,15h0.691
		c14.743,0,26.738,11.994,26.738,26.737v29.831c-3.472-1.151-7.178-1.782-11.031-1.782h-32.105c-3.853,0-7.559,0.632-11.031,1.782
		V41.737C147.005,26.994,159,15,173.743,15z M269.505,318.138c0,8.111-6.599,14.71-14.71,14.71H93.382
		c-8.111,0-14.71-6.599-14.71-14.71V213.014c0-11.293,7.163-21.381,17.83-25.104l0.587-0.205
		c24.395-8.516,40.786-31.597,40.786-57.435v-25.323c0-11.117,9.044-20.161,20.161-20.161h32.105
		c11.117,0,20.162,9.044,20.162,20.161v25.323c0,25.838,16.391,48.919,40.781,57.433l0.597,0.209
		c3.167,1.105,6.016,2.783,8.47,4.877c0.49,0.739,1.113,1.408,1.877,1.955c0.131,0.094,0.271,0.161,0.406,0.245
		c4.435,4.808,7.072,11.19,7.072,18.025V318.138z"/>
</g>
<g>
</g>
<g>
</g>
<g>
</g>
<g>
</g>
<g>
</g>
<g>
</g>
<g>
</g>
<g>
</g>
<g>
</g>
<g>
</g>
<g>
</g>
<g>
</g>
<g>
</g>
<g>
</g>
<g>
</g>
</svg>
