<?xml version="1.0" encoding="iso-8859-1"?>
<!-- Generator: Adobe Illustrator 17.1.0, SVG Export Plug-In . SVG Version: 6.00 Build 0)  -->
<!DOCTYPE svg PUBLIC "-//W3C//DTD SVG 1.1//EN" "http://www.w3.org/Graphics/SVG/1.1/DTD/svg11.dtd">
<svg version="1.1" id="Capa_1" xmlns="http://www.w3.org/2000/svg" xmlns:xlink="http://www.w3.org/1999/xlink" x="0px" y="0px"
	 viewBox="0 0 347.94 347.94" style="enable-background:new 0 0 347.94 347.94;" xml:space="preserve">
<path d="M264.587,203.746c-2.339,3.419-1.463,8.086,1.956,10.425c3.42,2.338,8.086,1.463,10.425-1.956l69.663-101.85
	c1.57-2.296,1.741-5.273,0.443-7.734c-1.299-2.46-3.852-4-6.634-4h-19.535L298.63,66.297V38.63c0-4.142-3.357-7.5-7.5-7.5h-43.333
	c-1.504,0-2.974,0.452-4.218,1.298l-39.758,27.036h-60.406c-2.491,0-4.82,1.237-6.215,3.302l-8.423,12.471
	c-2.318,3.433-1.415,8.095,2.018,10.413c3.43,2.318,8.095,1.415,10.412-2.018l6.193-9.169h58.729c1.504,0,2.974-0.452,4.218-1.298
	l39.758-27.036h33.524v22.5c0,1.52,0.462,3.003,1.324,4.255L302.69,98.63H96.964c-4.143,0-7.5,3.358-7.5,7.5v61.252l-22.588-11.039
	V94.047c0-2.515-1.261-4.863-3.357-6.252L11.643,53.42c-3.45-2.287-8.105-1.344-10.395,2.109c-2.288,3.453-1.344,8.107,2.109,10.395
	l48.518,32.15v62.952c0,2.865,1.633,5.48,4.207,6.738l33.381,16.313v70.066c0,12.567,7.199,23.394,18.787,28.255
	c3.941,1.653,8.016,2.46,12.033,2.46c7.798,0,15.373-3.044,21.291-8.856l33.448-32.855c2.955-2.903,2.997-7.651,0.095-10.606
	c-2.904-2.955-7.651-2.996-10.606-0.095l-33.448,32.855c-4.646,4.563-11.006,5.782-17.01,3.265c-6.005-2.519-9.59-7.911-9.59-14.423
	v-64.923l127.774,55.369l28.583,14.455c-1.621,4.538-2.511,9.421-2.511,14.509c0,23.852,19.405,43.256,43.257,43.256
	s43.257-19.405,43.257-43.256c0-23.852-19.405-43.257-43.257-43.257c-13.388,0-25.374,6.115-33.314,15.697l-15.337-7.756
	c-0.751-0.983-1.754-1.796-2.97-2.323l-145.482-63.042V113.63h212.499l0.008,0c0,0,0.004,0,0.007,0h9.246L264.587,203.746z
	 M301.567,245.297c15.581,0,28.257,12.676,28.257,28.257c0,15.581-12.676,28.256-28.257,28.256s-28.257-12.676-28.257-28.256
	c0-2.653,0.375-5.219,1.063-7.655l28.372,14.348c1.085,0.549,2.24,0.809,3.379,0.809c2.739,0,5.378-1.505,6.698-4.117
	c1.87-3.696,0.389-8.208-3.308-10.078l-27.343-13.828C287.237,248.243,294.062,245.297,301.567,245.297z"/>
<g>
</g>
<g>
</g>
<g>
</g>
<g>
</g>
<g>
</g>
<g>
</g>
<g>
</g>
<g>
</g>
<g>
</g>
<g>
</g>
<g>
</g>
<g>
</g>
<g>
</g>
<g>
</g>
<g>
</g>
</svg>
