<?xml version="1.0" encoding="iso-8859-1"?>
<!-- Generator: Adobe Illustrator 17.1.0, SVG Export Plug-In . SVG Version: 6.00 Build 0)  -->
<!DOCTYPE svg PUBLIC "-//W3C//DTD SVG 1.1//EN" "http://www.w3.org/Graphics/SVG/1.1/DTD/svg11.dtd">
<svg version="1.1" id="Capa_1" xmlns="http://www.w3.org/2000/svg" xmlns:xlink="http://www.w3.org/1999/xlink" x="0px" y="0px"
	 viewBox="0 0 327.674 327.674" style="enable-background:new 0 0 327.674 327.674;" xml:space="preserve">
<g>
	<path d="M204.823,94.209c0-1.989-0.79-3.896-2.196-5.304l-8.562-8.562l22.037-22.037c2.929-2.93,2.929-7.678,0-10.607
		l-31.637-31.637c-2.93-2.928-7.678-2.928-10.607,0L151.82,38.099l-8.562-8.562c-2.93-2.928-7.678-2.928-10.607,0L37.74,124.448
		c-2.929,2.93-2.929,7.678,0,10.607c2.93,2.928,7.678,2.928,10.607,0l89.607-89.608l8.543,8.543c0.007,0.007,0.012,0.014,0.019,0.02
		l31.637,31.637c0.006,0.006,0.014,0.012,0.02,0.018l8.543,8.543l-37.826,37.825l-29.848-29.85c-2.929-2.928-7.677-2.928-10.607,0
		c-2.929,2.93-2.929,7.678,0,10.606l29.849,29.85l-71.415,71.415l-54.064-54.064c-2.93-2.928-7.678-2.928-10.607,0
		c-2.929,2.93-2.929,7.678,0,10.607l59.368,59.367c1.465,1.464,3.385,2.196,5.304,2.196s3.839-0.732,5.304-2.196L202.626,99.513
		C204.032,98.105,204.823,96.198,204.823,94.209z M179.16,31.973l21.03,21.03l-16.733,16.733l-21.03-21.03L179.16,31.973z"/>
	<path d="M325.478,157.075L266.11,97.708c-2.93-2.928-7.678-2.928-10.607,0c-2.929,2.93-2.929,7.678,0,10.607l54.065,54.063
		L189.72,282.226l-8.543-8.543c-0.007-0.007-0.012-0.014-0.019-0.02l-31.637-31.637c-0.006-0.006-0.014-0.012-0.02-0.018
		l-8.543-8.543l37.826-37.825l29.848,29.85c1.465,1.464,3.384,2.196,5.304,2.196c1.919,0,3.839-0.732,5.304-2.196
		c2.929-2.93,2.929-7.678,0-10.606l-29.849-29.85l41.176-41.175c2.929-2.93,2.929-7.678,0-10.607c-2.93-2.928-7.678-2.928-10.607,0
		l-94.911,94.911c-2.929,2.93-2.929,7.678,0,10.607l8.562,8.562l-22.037,22.037c-2.929,2.93-2.929,7.678,0,10.607l31.637,31.637
		c1.465,1.464,3.385,2.196,5.304,2.196s3.839-0.732,5.304-2.196l22.037-22.037l8.562,8.562c1.465,1.464,3.385,2.196,5.304,2.196
		s3.839-0.732,5.304-2.196l130.454-130.454c1.406-1.407,2.196-3.314,2.196-5.304S326.884,158.482,325.478,157.075z M148.514,295.701
		l-21.03-21.03l16.733-16.733l21.03,21.03L148.514,295.701z"/>
</g>
<g>
</g>
<g>
</g>
<g>
</g>
<g>
</g>
<g>
</g>
<g>
</g>
<g>
</g>
<g>
</g>
<g>
</g>
<g>
</g>
<g>
</g>
<g>
</g>
<g>
</g>
<g>
</g>
<g>
</g>
</svg>
