<?xml version="1.0" encoding="iso-8859-1"?>
<!-- Generator: Adobe Illustrator 17.1.0, SVG Export Plug-In . SVG Version: 6.00 Build 0)  -->
<!DOCTYPE svg PUBLIC "-//W3C//DTD SVG 1.1//EN" "http://www.w3.org/Graphics/SVG/1.1/DTD/svg11.dtd">
<svg version="1.1" id="Capa_1" xmlns="http://www.w3.org/2000/svg" xmlns:xlink="http://www.w3.org/1999/xlink" x="0px" y="0px"
	 viewBox="0 0 324.33 324.33" style="enable-background:new 0 0 324.33 324.33;" xml:space="preserve">
<g>
	<path d="M153.086,39.057H54.788V15h90.029v9.026c0,4.143,3.357,7.5,7.5,7.5s7.5-3.357,7.5-7.5V7.5c0-4.143-3.357-7.5-7.5-7.5
		H47.288c-4.143,0-7.5,3.357-7.5,7.5v32.212c-16.111,3.149-28.309,17.366-28.309,34.384v169.171c0,4.143,3.357,7.5,7.5,7.5
		s7.5-3.357,7.5-7.5V74.097c0-11.05,8.99-20.04,20.041-20.04h106.565c11.05,0,20.04,8.99,20.04,20.04v215.192
		c0,11.051-8.99,20.041-20.04,20.041H46.52c-11.051,0-20.041-8.99-20.041-20.041c0-4.143-3.357-7.5-7.5-7.5s-7.5,3.357-7.5,7.5
		c0,19.321,15.72,35.041,35.041,35.041h106.565c19.321,0,35.04-15.72,35.04-35.041V74.097
		C188.126,54.775,172.407,39.057,153.086,39.057z"/>
	<path d="M50.359,96.832h98.887c4.143,0,7.5-3.357,7.5-7.5s-3.357-7.5-7.5-7.5H50.359c-4.143,0-7.5,3.357-7.5,7.5
		S46.217,96.832,50.359,96.832z"/>
	<path d="M50.359,127.619h98.887c4.143,0,7.5-3.357,7.5-7.5s-3.357-7.5-7.5-7.5H50.359c-4.143,0-7.5,3.357-7.5,7.5
		S46.217,127.619,50.359,127.619z"/>
	<path d="M50.359,158.406h98.887c4.143,0,7.5-3.357,7.5-7.5s-3.357-7.5-7.5-7.5H50.359c-4.143,0-7.5,3.357-7.5,7.5
		S46.217,158.406,50.359,158.406z"/>
	<path d="M50.359,189.193h98.887c4.143,0,7.5-3.357,7.5-7.5s-3.357-7.5-7.5-7.5H50.359c-4.143,0-7.5,3.357-7.5,7.5
		S46.217,189.193,50.359,189.193z"/>
	<path d="M50.359,219.98h98.887c4.143,0,7.5-3.357,7.5-7.5s-3.357-7.5-7.5-7.5H50.359c-4.143,0-7.5,3.357-7.5,7.5
		S46.217,219.98,50.359,219.98z"/>
	<path d="M50.359,250.768h98.887c4.143,0,7.5-3.357,7.5-7.5s-3.357-7.5-7.5-7.5H50.359c-4.143,0-7.5,3.357-7.5,7.5
		S46.217,250.768,50.359,250.768z"/>
	<path d="M50.359,281.555h98.887c4.143,0,7.5-3.357,7.5-7.5s-3.357-7.5-7.5-7.5H50.359c-4.143,0-7.5,3.357-7.5,7.5
		S46.217,281.555,50.359,281.555z"/>
	<path d="M310.654,119.834l-39.646-39.646c-2.93-2.928-7.678-2.928-10.607,0l-39.646,39.646c-2.929,2.93-2.929,7.678,0,10.607
		c2.93,2.928,7.678,2.928,10.607,0l26.843-26.844v170.457c0,4.143,3.357,7.5,7.5,7.5s7.5-3.357,7.5-7.5V103.598l26.843,26.844
		c1.465,1.464,3.385,2.196,5.304,2.196s3.839-0.732,5.304-2.196C313.583,127.512,313.583,122.764,310.654,119.834z"/>
</g>
<g>
</g>
<g>
</g>
<g>
</g>
<g>
</g>
<g>
</g>
<g>
</g>
<g>
</g>
<g>
</g>
<g>
</g>
<g>
</g>
<g>
</g>
<g>
</g>
<g>
</g>
<g>
</g>
<g>
</g>
</svg>
