<?xml version="1.0" encoding="iso-8859-1"?>
<!-- Generator: Adobe Illustrator 17.1.0, SVG Export Plug-In . SVG Version: 6.00 Build 0)  -->
<!DOCTYPE svg PUBLIC "-//W3C//DTD SVG 1.1//EN" "http://www.w3.org/Graphics/SVG/1.1/DTD/svg11.dtd">
<svg version="1.1" id="Capa_1" xmlns="http://www.w3.org/2000/svg" xmlns:xlink="http://www.w3.org/1999/xlink" x="0px" y="0px"
	 viewBox="0 0 341.049 341.049" style="enable-background:new 0 0 341.049 341.049;" xml:space="preserve">
<g>
	<path d="M67.027,234.691c0,40.832,33.22,74.052,74.052,74.052c4.142,0,7.5-3.357,7.5-7.5s-3.358-7.5-7.5-7.5
		c-32.561,0-59.052-26.49-59.052-59.052c0-4.143-3.358-7.5-7.5-7.5S67.027,230.549,67.027,234.691z"/>
	<path d="M202.374,0h-1.214c-37.265,0-67.582,30.317-67.582,67.582v25.335h-21.667c-4.142,0-7.5,3.357-7.5,7.5v34.432
		c-40.634,14.97-69.691,54.076-69.691,99.843c0,58.646,47.712,106.357,106.358,106.357c58.646,0,106.357-47.712,106.357-106.357
		c0-58.646-47.712-106.358-106.357-106.358c-7.423,0-14.669,0.767-21.667,2.221v-22.637h43.333v10.208c0,4.143,3.358,7.5,7.5,7.5
		s7.5-3.357,7.5-7.5v-17.708c0-4.143-3.358-7.5-7.5-7.5h-21.667V67.582C148.579,38.588,172.166,15,201.16,15h1.214
		c28.994,0,52.582,23.588,52.582,52.582v40.751c0,4.143,3.358,7.5,7.5,7.5s7.5-3.357,7.5-7.5V67.582
		C269.956,30.317,239.639,0,202.374,0z M232.436,234.691c0,50.375-40.983,91.357-91.357,91.357
		c-50.375,0-91.358-40.982-91.358-91.357s40.983-91.358,91.358-91.358C191.453,143.333,232.436,184.316,232.436,234.691z"/>
	<path d="M232.922,120.524l-12.143,12.144c-2.929,2.929-2.929,7.678,0,10.606c1.464,1.464,3.384,2.196,5.303,2.196
		s3.839-0.732,5.303-2.197l12.143-12.144c2.929-2.929,2.929-7.678,0-10.606C240.6,117.596,235.851,117.595,232.922,120.524z"/>
	<path d="M291.988,120.524c-2.928-2.93-7.677-2.929-10.606-0.001c-2.929,2.929-2.929,7.678,0,10.606l12.143,12.144
		c1.464,1.465,3.384,2.197,5.303,2.197c1.919,0,3.839-0.732,5.303-2.196c2.929-2.929,2.929-7.678,0-10.606L291.988,120.524z"/>
	<path d="M286.685,102.163c1.919,0,3.839-0.732,5.303-2.197l12.143-12.144c2.929-2.929,2.929-7.678,0-10.606
		c-2.929-2.928-7.678-2.929-10.606,0.001L281.382,89.36c-2.929,2.929-2.929,7.678,0,10.606
		C282.846,101.431,284.766,102.163,286.685,102.163z"/>
	<path d="M243.529,89.36l-12.143-12.144c-2.929-2.93-7.678-2.929-10.606-0.001c-2.929,2.929-2.929,7.678,0,10.606l12.143,12.144
		c1.464,1.465,3.384,2.197,5.303,2.197c1.919,0,3.839-0.732,5.303-2.196C246.458,97.038,246.458,92.289,243.529,89.36z"/>
</g>
<g>
</g>
<g>
</g>
<g>
</g>
<g>
</g>
<g>
</g>
<g>
</g>
<g>
</g>
<g>
</g>
<g>
</g>
<g>
</g>
<g>
</g>
<g>
</g>
<g>
</g>
<g>
</g>
<g>
</g>
</svg>
