<?xml version="1.0" encoding="iso-8859-1"?>
<!-- Generator: Adobe Illustrator 17.1.0, SVG Export Plug-In . SVG Version: 6.00 Build 0)  -->
<!DOCTYPE svg PUBLIC "-//W3C//DTD SVG 1.1//EN" "http://www.w3.org/Graphics/SVG/1.1/DTD/svg11.dtd">
<svg version="1.1" id="Capa_1" xmlns="http://www.w3.org/2000/svg" xmlns:xlink="http://www.w3.org/1999/xlink" x="0px" y="0px"
	 viewBox="0 0 288.595 288.595" style="enable-background:new 0 0 288.595 288.595;" xml:space="preserve">
<g>
	<path d="M244.167,55.514c-4.143,0-7.5,3.358-7.5,7.5v210.581H51.927V15h192.24c4.143,0,7.5-3.358,7.5-7.5s-3.357-7.5-7.5-7.5
		H44.427c-4.143,0-7.5,3.358-7.5,7.5v273.595c0,4.142,3.357,7.5,7.5,7.5h199.74c4.143,0,7.5-3.358,7.5-7.5V63.014
		C251.667,58.872,248.31,55.514,244.167,55.514z"/>
	<path d="M89.714,40.013c0-4.142-3.357-7.5-7.5-7.5s-7.5,3.358-7.5,7.5v23.001c0,4.142,3.357,7.5,7.5,7.5s7.5-3.358,7.5-7.5V40.013z
		"/>
	<path d="M151.797,40.013c0-4.142-3.357-7.5-7.5-7.5s-7.5,3.358-7.5,7.5v23.001c0,4.142,3.357,7.5,7.5,7.5s7.5-3.358,7.5-7.5V40.013
		z"/>
	<path d="M213.88,40.013c0-4.142-3.357-7.5-7.5-7.5s-7.5,3.358-7.5,7.5v23.001c0,4.142,3.357,7.5,7.5,7.5s7.5-3.358,7.5-7.5V40.013z
		"/>
	<path d="M89.714,167.47c0-4.142-3.357-7.5-7.5-7.5s-7.5,3.358-7.5,7.5v23.001c0,4.142,3.357,7.5,7.5,7.5s7.5-3.358,7.5-7.5V167.47z
		"/>
	<path d="M151.797,167.47c0-4.142-3.357-7.5-7.5-7.5s-7.5,3.358-7.5,7.5v23.001c0,4.142,3.357,7.5,7.5,7.5s7.5-3.358,7.5-7.5V167.47
		z"/>
	<path d="M213.88,167.47c0-4.142-3.357-7.5-7.5-7.5s-7.5,3.358-7.5,7.5v23.001c0,4.142,3.357,7.5,7.5,7.5s7.5-3.358,7.5-7.5V167.47z
		"/>
	<path d="M89.714,106.387c0-4.142-3.357-7.5-7.5-7.5s-7.5,3.358-7.5,7.5v23c0,4.142,3.357,7.5,7.5,7.5s7.5-3.358,7.5-7.5V106.387z"
		/>
	<path d="M151.797,106.387c0-4.142-3.357-7.5-7.5-7.5s-7.5,3.358-7.5,7.5v23c0,4.142,3.357,7.5,7.5,7.5s7.5-3.358,7.5-7.5V106.387z"
		/>
	<path d="M213.88,106.387c0-4.142-3.357-7.5-7.5-7.5s-7.5,3.358-7.5,7.5v23c0,4.142,3.357,7.5,7.5,7.5s7.5-3.358,7.5-7.5V106.387z"
		/>
	<path d="M82.214,219.857c-4.143,0-7.5,3.358-7.5,7.5v23c0,4.142,3.357,7.5,7.5,7.5s7.5-3.358,7.5-7.5v-23
		C89.714,223.215,86.357,219.857,82.214,219.857z"/>
	<path d="M144.297,219.857c-4.143,0-7.5,3.358-7.5,7.5v23c0,4.142,3.357,7.5,7.5,7.5s7.5-3.358,7.5-7.5v-23
		C151.797,223.215,148.44,219.857,144.297,219.857z"/>
	<path d="M206.38,219.857c-4.143,0-7.5,3.358-7.5,7.5v23c0,4.142,3.357,7.5,7.5,7.5s7.5-3.358,7.5-7.5v-23
		C213.88,223.215,210.523,219.857,206.38,219.857z"/>
</g>
<g>
</g>
<g>
</g>
<g>
</g>
<g>
</g>
<g>
</g>
<g>
</g>
<g>
</g>
<g>
</g>
<g>
</g>
<g>
</g>
<g>
</g>
<g>
</g>
<g>
</g>
<g>
</g>
<g>
</g>
</svg>
