<?xml version="1.0" encoding="iso-8859-1"?>
<!-- Generator: Adobe Illustrator 17.1.0, SVG Export Plug-In . SVG Version: 6.00 Build 0)  -->
<!DOCTYPE svg PUBLIC "-//W3C//DTD SVG 1.1//EN" "http://www.w3.org/Graphics/SVG/1.1/DTD/svg11.dtd">
<svg version="1.1" id="Capa_1" xmlns="http://www.w3.org/2000/svg" xmlns:xlink="http://www.w3.org/1999/xlink" x="0px" y="0px"
	 viewBox="0 0 353.461 353.461" style="enable-background:new 0 0 353.461 353.461;" xml:space="preserve">
<g>
	<path d="M170.323,194.508c1.588-2.294,1.771-5.279,0.477-7.75c-1.295-2.472-3.854-4.02-6.644-4.02H43.877
		c-4.142,0-7.5,3.357-7.5,7.5s3.358,7.5,7.5,7.5h105.966l-3.815,5.51c-0.868,1.255-1.333,2.744-1.333,4.27v69.879
		c0,1.165,0.271,2.301,0.776,3.323H29.067c0.116-0.524,0.176-1.065,0.176-1.614v-71.588c0-1.74-0.605-3.427-1.712-4.771
		l-14.242-17.279c-2.634-3.195-7.361-3.653-10.558-1.017c-3.196,2.634-3.652,7.361-1.018,10.558l12.529,15.201v64.791l-10.785,6.901
		c-2.805,1.796-4.091,5.227-3.155,8.424c0.936,3.196,3.867,5.394,7.198,5.394h156.656c3.102,0,5.884-1.909,6.999-4.804
		c1.115-2.895,0.333-6.177-1.967-8.258l-9.495-8.59V209.86L170.323,194.508z"/>
	<path d="M43.877,275.212h83.904c4.142,0,7.5-3.357,7.5-7.5v-56.966c0-4.143-3.358-7.5-7.5-7.5H43.877c-4.142,0-7.5,3.357-7.5,7.5
		v56.966C36.377,271.854,39.735,275.212,43.877,275.212z M51.377,218.246h68.904v41.966H51.377V218.246z"/>
	<path d="M350.992,282.658l-9.495-8.59V209.86l10.629-15.353c1.588-2.294,1.771-5.279,0.477-7.75
		c-1.295-2.472-3.854-4.02-6.644-4.02H189.304c-2.903,0-5.545,1.675-6.783,4.301c-1.238,2.625-0.851,5.729,0.996,7.97l12.529,15.201
		v64.791l-10.784,6.901c-2.806,1.796-4.091,5.227-3.155,8.424c0.936,3.196,3.867,5.394,7.198,5.394h120.281
		c4.142,0,7.5-3.357,7.5-7.5s-3.358-7.5-7.5-7.5H210.87c0.116-0.524,0.176-1.065,0.176-1.614v-71.588
		c0-1.74-0.605-3.427-1.712-4.771l-4.128-5.009h126.441l-3.815,5.51c-0.868,1.255-1.333,2.744-1.333,4.27v69.879
		c0,2.119,0.896,4.14,2.468,5.562l11.963,10.823c1.435,1.299,3.235,1.938,5.029,1.938c2.045,0,4.083-0.832,5.564-2.468
		C354.301,290.18,354.064,285.437,350.992,282.658z"/>
	<path d="M225.68,203.246c-4.142,0-7.5,3.357-7.5,7.5v56.966c0,4.143,3.358,7.5,7.5,7.5h83.904c4.142,0,7.5-3.357,7.5-7.5v-56.966
		c0-4.143-3.358-7.5-7.5-7.5H225.68z M302.085,260.212H233.18v-41.966h68.904V260.212z"/>
	<path d="M98.636,85.213v64.79l-10.784,6.901c-2.806,1.796-4.091,5.227-3.155,8.424c0.936,3.196,3.867,5.394,7.198,5.394h156.656
		c0.007,0,0.013,0,0.02,0c4.142,0,7.5-3.357,7.5-7.5c0-2.369-1.098-4.481-2.813-5.855l-9.169-8.296V84.863l10.629-15.353
		c1.588-2.294,1.771-5.279,0.477-7.75c-1.295-2.472-3.854-4.02-6.644-4.02H91.895c-2.903,0-5.545,1.675-6.783,4.301
		c-1.238,2.625-0.851,5.729,0.996,7.97L98.636,85.213z M234.237,72.741l-3.815,5.51c-0.868,1.255-1.333,2.744-1.333,4.27v69.878
		c0,1.165,0.271,2.301,0.776,3.323H113.46c0.116-0.524,0.176-1.065,0.176-1.614V82.52c0-1.74-0.605-3.427-1.712-4.771l-4.128-5.009
		H234.237z"/>
	<path d="M128.27,150.215h83.905c4.142,0,7.5-3.357,7.5-7.5V118.89c0-4.143-3.358-7.5-7.5-7.5s-7.5,3.357-7.5,7.5v16.325H135.77
		V93.248h76.405c4.142,0,7.5-3.357,7.5-7.5s-3.358-7.5-7.5-7.5H128.27c-4.142,0-7.5,3.357-7.5,7.5v56.967
		C120.77,146.857,124.128,150.215,128.27,150.215z"/>
</g>
<g>
</g>
<g>
</g>
<g>
</g>
<g>
</g>
<g>
</g>
<g>
</g>
<g>
</g>
<g>
</g>
<g>
</g>
<g>
</g>
<g>
</g>
<g>
</g>
<g>
</g>
<g>
</g>
<g>
</g>
</svg>
