<?xml version="1.0" encoding="iso-8859-1"?>
<!-- Generator: Adobe Illustrator 17.1.0, SVG Export Plug-In . SVG Version: 6.00 Build 0)  -->
<!DOCTYPE svg PUBLIC "-//W3C//DTD SVG 1.1//EN" "http://www.w3.org/Graphics/SVG/1.1/DTD/svg11.dtd">
<svg version="1.1" id="Capa_1" xmlns="http://www.w3.org/2000/svg" xmlns:xlink="http://www.w3.org/1999/xlink" x="0px" y="0px"
	 viewBox="0 0 340.451 340.451" style="enable-background:new 0 0 340.451 340.451;" xml:space="preserve">
<path d="M171.236,0h-2.299c-26.635,0-51.913,8.472-73.101,24.498C75.343,39.999,60.028,62.026,52.711,86.522
	c-1.186,3.969,1.071,8.147,5.04,9.333c3.966,1.185,8.146-1.071,9.333-5.04c6.409-21.461,19.834-40.764,37.801-54.354
	C123.447,22.421,145.595,15,168.937,15h2.299c58.604,0,106.281,47.678,106.281,106.281v9.354H55.434
	c-2.275,0-4.428,1.033-5.852,2.809c-1.423,1.774-1.964,4.101-1.469,6.321l38.186,171.522c0.2,0.899,0.564,1.755,1.074,2.522
	c10.594,15.935,43.89,26.641,82.853,26.641c36.11,0,67.633-9.17,80.306-23.362c0.835-0.935,1.423-2.063,1.708-3.284l27.981-119.418
	c0.945-4.033-1.558-8.068-5.591-9.013c-4.026-0.95-8.068,1.558-9.013,5.591l-27.507,117.39
	c-9.048,8.461-33.368,17.097-67.885,17.097c-35.812,0-62.072-9.581-69.624-18.944L64.788,145.636h67.626v36.239
	c0,5.674-4.615,10.289-10.289,10.289h-0.359c-5.674,0-10.289-4.615-10.289-10.289V161.97c0-4.143-3.357-7.5-7.5-7.5
	s-7.5,3.357-7.5,7.5v19.905c0,13.944,11.345,25.289,25.289,25.289h0.359c13.944,0,25.289-11.345,25.289-25.289v-36.239h15.173
	v111.04c0,15.326,12.469,27.795,27.795,27.795h0.41c15.326,0,27.795-12.469,27.795-27.795v-47.229c0-4.143-3.357-7.5-7.5-7.5
	s-7.5,3.357-7.5,7.5v47.229c0,7.055-5.74,12.795-12.795,12.795h-0.41c-7.055,0-12.795-5.74-12.795-12.795v-111.04h56.702v22.902
	c0,5.673-4.615,10.288-10.289,10.288h-0.359c-5.674,0-10.289-4.615-10.289-10.288c0-4.143-3.357-7.5-7.5-7.5s-7.5,3.357-7.5,7.5
	c0,13.944,11.345,25.288,25.289,25.288h0.359c13.944,0,25.289-11.344,25.289-25.288v-22.902h35.729c4.143,0,7.5-3.357,7.5-7.5
	v-16.854C292.517,54.406,238.111,0,171.236,0z"/>
<g>
</g>
<g>
</g>
<g>
</g>
<g>
</g>
<g>
</g>
<g>
</g>
<g>
</g>
<g>
</g>
<g>
</g>
<g>
</g>
<g>
</g>
<g>
</g>
<g>
</g>
<g>
</g>
<g>
</g>
</svg>
