<?xml version="1.0" encoding="iso-8859-1"?>
<!-- Generator: Adobe Illustrator 17.1.0, SVG Export Plug-In . SVG Version: 6.00 Build 0)  -->
<!DOCTYPE svg PUBLIC "-//W3C//DTD SVG 1.1//EN" "http://www.w3.org/Graphics/SVG/1.1/DTD/svg11.dtd">
<svg version="1.1" id="Capa_1" xmlns="http://www.w3.org/2000/svg" xmlns:xlink="http://www.w3.org/1999/xlink" x="0px" y="0px"
	 viewBox="0 0 319.166 319.166" style="enable-background:new 0 0 319.166 319.166;" xml:space="preserve">
<path d="M233.958,101.696h59.375c4.142,0,7.5-3.357,7.5-7.5V33.253c0-4.143-3.358-7.5-7.5-7.5h-23.75V7.5c0-4.143-3.358-7.5-7.5-7.5
	s-7.5,3.357-7.5,7.5v18.253H201.25V7.5c0-4.143-3.358-7.5-7.5-7.5s-7.5,3.357-7.5,7.5v18.253h-53.333V7.5c0-4.143-3.358-7.5-7.5-7.5
	s-7.5,3.357-7.5,7.5v18.253H64.583V7.5c0-4.143-3.358-7.5-7.5-7.5s-7.5,3.357-7.5,7.5v18.253h-23.75c-4.142,0-7.5,3.357-7.5,7.5
	v60.943v186.593c0,21.161,17.216,38.377,38.377,38.377h205.745c21.162,0,38.377-17.216,38.377-38.377V135.583
	c0-4.143-3.358-7.5-7.5-7.5s-7.5,3.357-7.5,7.5v23.604h-51.875V101.696z M218.958,159.187h-51.875v-57.49h51.875V159.187z
	 M167.083,231.677v-57.49h51.875v57.49H167.083z M218.958,246.677v57.489h-51.875v-57.489H218.958z M152.083,101.696v57.49h-51.875
	v-57.49H152.083z M85.208,159.187H33.333v-57.49h51.875V159.187z M33.333,174.187h51.875v57.49H33.333V174.187z M100.208,174.187
	h51.875v57.49h-51.875V174.187z M33.333,40.753h16.25v12.58c0,4.143,3.358,7.5,7.5,7.5s7.5-3.357,7.5-7.5v-12.58h53.333v12.58
	c0,4.143,3.358,7.5,7.5,7.5s7.5-3.357,7.5-7.5v-12.58h53.333v12.58c0,4.143,3.358,7.5,7.5,7.5s7.5-3.357,7.5-7.5v-12.58h53.333
	v12.58c0,4.143,3.358,7.5,7.5,7.5s7.5-3.357,7.5-7.5v-12.58h16.25v45.943h-252.5V40.753z M33.333,280.789v-34.112h51.875v34.906
	c0,4.143,3.358,7.5,7.5,7.5s7.5-3.357,7.5-7.5v-34.906h51.875v57.489H56.71C43.82,304.166,33.333,293.679,33.333,280.789z
	 M285.833,174.187v106.603c0,12.89-10.487,23.377-23.377,23.377h-28.498v-57.489h28.125c4.142,0,7.5-3.357,7.5-7.5
	s-3.358-7.5-7.5-7.5h-28.125v-57.49H285.833z"/>
<g>
</g>
<g>
</g>
<g>
</g>
<g>
</g>
<g>
</g>
<g>
</g>
<g>
</g>
<g>
</g>
<g>
</g>
<g>
</g>
<g>
</g>
<g>
</g>
<g>
</g>
<g>
</g>
<g>
</g>
</svg>
