<?xml version="1.0" encoding="iso-8859-1"?>
<!-- Generator: Adobe Illustrator 17.1.0, SVG Export Plug-In . SVG Version: 6.00 Build 0)  -->
<!DOCTYPE svg PUBLIC "-//W3C//DTD SVG 1.1//EN" "http://www.w3.org/Graphics/SVG/1.1/DTD/svg11.dtd">
<svg version="1.1" id="Capa_1" xmlns="http://www.w3.org/2000/svg" xmlns:xlink="http://www.w3.org/1999/xlink" x="0px" y="0px"
	 viewBox="0 0 264.846 264.846" style="enable-background:new 0 0 264.846 264.846;" xml:space="preserve">
<g>
	<path d="M263.746,87.091c-1.362-2.23-3.787-3.591-6.4-3.591H38.051l17.425-31.875h34.788l14.65,15.735
		c1.419,1.524,3.407,2.39,5.489,2.39h22.02c1.989,0,3.896-0.79,5.304-2.196l34.957-34.958h45.383l6.472,20.071
		c1.271,3.942,5.499,6.108,9.439,4.836c3.942-1.271,6.107-5.497,4.836-9.439l-8.147-25.27c-0.998-3.098-3.882-5.198-7.138-5.198
		h-53.951c-1.989,0-3.896,0.79-5.304,2.196L129.317,54.75h-15.648l-14.65-15.735c-1.419-1.524-3.407-2.39-5.489-2.39h-42.5
		c-2.742,0-5.266,1.496-6.581,3.902L20.956,83.5H7.5c-2.613,0-5.038,1.36-6.4,3.591c-1.362,2.229-1.466,5.008-0.272,7.333
		l33.77,65.811c1.892,3.686,6.413,5.14,10.097,3.249c3.686-1.891,5.14-6.411,3.249-10.097L19.778,98.5h5.602
		c0.005,0,0.01,0.001,0.016,0.001c0.005,0,0.01-0.001,0.015-0.001h219.656L202.736,181H57.529c-4.143,0-7.5,3.357-7.5,7.5
		c0,3.993,3.122,7.248,7.058,7.478c-3.43,5.217-5.434,11.451-5.434,18.147c0,18.266,14.859,33.125,33.125,33.125
		s33.125-14.859,33.125-33.125c0-6.687-1.998-12.913-5.419-18.125h39.877c-3.421,5.212-5.419,11.438-5.419,18.125
		c0,18.266,14.859,33.125,33.125,33.125s33.125-14.859,33.125-33.125c0-6.7-2.005-12.938-5.439-18.155
		c2.639-0.155,5.019-1.674,6.236-4.046l50.029-97.5C265.212,92.099,265.109,89.32,263.746,87.091z M102.903,214.125
		c0,9.994-8.131,18.125-18.125,18.125s-18.125-8.131-18.125-18.125S74.784,196,84.778,196S102.903,204.131,102.903,214.125z
		 M180.068,232.25c-9.994,0-18.125-8.131-18.125-18.125S170.073,196,180.068,196s18.125,8.131,18.125,18.125
		S190.062,232.25,180.068,232.25z"/>
	<path d="M197.279,142.875c4.143,0,7.5-3.357,7.5-7.5s-3.357-7.5-7.5-7.5H68.528c-4.143,0-7.5,3.357-7.5,7.5s3.357,7.5,7.5,7.5
		H197.279z"/>
</g>
<g>
</g>
<g>
</g>
<g>
</g>
<g>
</g>
<g>
</g>
<g>
</g>
<g>
</g>
<g>
</g>
<g>
</g>
<g>
</g>
<g>
</g>
<g>
</g>
<g>
</g>
<g>
</g>
<g>
</g>
</svg>
