<?xml version="1.0" encoding="iso-8859-1"?>
<!-- Generator: Adobe Illustrator 17.1.0, SVG Export Plug-In . SVG Version: 6.00 Build 0)  -->
<!DOCTYPE svg PUBLIC "-//W3C//DTD SVG 1.1//EN" "http://www.w3.org/Graphics/SVG/1.1/DTD/svg11.dtd">
<svg version="1.1" id="Capa_1" xmlns="http://www.w3.org/2000/svg" xmlns:xlink="http://www.w3.org/1999/xlink" x="0px" y="0px"
	 viewBox="0 0 314.168 314.168" style="enable-background:new 0 0 314.168 314.168;" xml:space="preserve">
<g>
	<path d="M154.555,188.178h20.824c4.143,0,7.5-3.358,7.5-7.5s-3.357-7.5-7.5-7.5h-25.737l-19.62-59.897
		c6.44-7.337,10.357-16.941,10.357-27.447c0-22.975-18.691-41.667-41.666-41.667c-22.976,0-41.667,18.692-41.667,41.667
		S75.738,127.5,98.713,127.5c6.731,0,13.089-1.614,18.722-4.461l16.424,50.139h-27.646v-16.511c0-4.142-3.357-7.5-7.5-7.5
		s-7.5,3.358-7.5,7.5v16.511H66.164l10.723-32.735c1.29-3.936-0.855-8.172-4.792-9.462c-3.937-1.289-8.173,0.857-9.462,4.793
		l-12.252,37.404H22.046c-4.143,0-7.5,3.358-7.5,7.5s3.357,7.5,7.5,7.5h23.421L7.419,304.332c-1.29,3.936,0.855,8.172,4.792,9.462
		c0.775,0.254,1.563,0.375,2.336,0.375c3.155,0,6.091-2.006,7.126-5.167L61.25,188.178h29.963V202.5c0,4.142,3.357,7.5,7.5,7.5
		s7.5-3.358,7.5-7.5v-14.322h32.559l39.578,120.823c1.035,3.161,3.971,5.167,7.126,5.167c0.773,0,1.561-0.121,2.336-0.375
		c3.937-1.29,6.082-5.526,4.792-9.462L154.555,188.178z M72.046,85.833c0-14.704,11.963-26.667,26.667-26.667
		s26.666,11.963,26.666,26.667S113.417,112.5,98.713,112.5S72.046,100.538,72.046,85.833z"/>
	<path d="M98.713,33.77c4.143,0,7.5-3.358,7.5-7.5V7.5c0-4.142-3.357-7.5-7.5-7.5s-7.5,3.358-7.5,7.5v18.77
		C91.213,30.412,94.571,33.77,98.713,33.77z"/>
	<path d="M153.751,299.164H49.464c-4.143,0-7.5,3.358-7.5,7.5s3.357,7.5,7.5,7.5h104.287c4.143,0,7.5-3.358,7.5-7.5
		S157.894,299.164,153.751,299.164z"/>
	<path d="M299.624,299.164h-77.659c-4.143,0-7.5,3.358-7.5,7.5s3.357,7.5,7.5,7.5h77.659c4.143,0,7.5-3.358,7.5-7.5
		S303.767,299.164,299.624,299.164z"/>
</g>
<g>
</g>
<g>
</g>
<g>
</g>
<g>
</g>
<g>
</g>
<g>
</g>
<g>
</g>
<g>
</g>
<g>
</g>
<g>
</g>
<g>
</g>
<g>
</g>
<g>
</g>
<g>
</g>
<g>
</g>
</svg>
