<?xml version="1.0" encoding="iso-8859-1"?>
<!-- Generator: Adobe Illustrator 17.1.0, SVG Export Plug-In . SVG Version: 6.00 Build 0)  -->
<!DOCTYPE svg PUBLIC "-//W3C//DTD SVG 1.1//EN" "http://www.w3.org/Graphics/SVG/1.1/DTD/svg11.dtd">
<svg version="1.1" id="Capa_1" xmlns="http://www.w3.org/2000/svg" xmlns:xlink="http://www.w3.org/1999/xlink" x="0px" y="0px"
	 viewBox="0 0 338.879 338.879" style="enable-background:new 0 0 338.879 338.879;" xml:space="preserve">
<path d="M331.379,298.736H57.242l15.195-45.001h70.557c3.239,0,6.112-2.08,7.124-5.156l13.856-42.123
	c0.752-2.285,0.362-4.792-1.049-6.741c-1.41-1.949-3.67-3.103-6.075-3.103h-50.411c-4.143,0-7.5,3.358-7.5,7.5s3.357,7.5,7.5,7.5
	h40.049l-8.922,27.123H77.501l29.783-88.206h58.804c3.239,0,6.112-2.08,7.124-5.156l13.856-42.123
	c0.752-2.285,0.362-4.792-1.049-6.741c-1.41-1.949-3.67-3.103-6.075-3.103h-53.373l17.985-53.265h49.764l81.013,239.928
	c1.324,3.925,5.579,6.031,9.505,4.707c3.925-1.325,6.031-5.581,4.706-9.505L206.811,30.242c-1.029-3.048-3.888-5.101-7.105-5.101
	h-60.531c-3.218,0-6.076,2.052-7.105,5.101L41.411,298.736H7.5c-4.143,0-7.5,3.358-7.5,7.5s3.357,7.5,7.5,7.5h39.271
	c0.008,0,0.016,0.002,0.024,0.002c0.008,0,0.017-0.002,0.025-0.002h284.559c4.143,0,7.5-3.358,7.5-7.5
	S335.521,298.736,331.379,298.736z M169.583,108.406l-8.923,27.123H112.35l9.158-27.123H169.583z"/>
<g>
</g>
<g>
</g>
<g>
</g>
<g>
</g>
<g>
</g>
<g>
</g>
<g>
</g>
<g>
</g>
<g>
</g>
<g>
</g>
<g>
</g>
<g>
</g>
<g>
</g>
<g>
</g>
<g>
</g>
</svg>
