<?xml version="1.0" encoding="iso-8859-1"?>
<!-- Generator: Adobe Illustrator 17.1.0, SVG Export Plug-In . SVG Version: 6.00 Build 0)  -->
<!DOCTYPE svg PUBLIC "-//W3C//DTD SVG 1.1//EN" "http://www.w3.org/Graphics/SVG/1.1/DTD/svg11.dtd">
<svg version="1.1" id="Capa_1" xmlns="http://www.w3.org/2000/svg" xmlns:xlink="http://www.w3.org/1999/xlink" x="0px" y="0px"
	 viewBox="0 0 347.342 347.342" style="enable-background:new 0 0 347.342 347.342;" xml:space="preserve">
<path d="M326.14,230.762v-9.167h10.176c4.143,0,7.5-3.358,7.5-7.5v-37.71c0-4.142-3.357-7.5-7.5-7.5H326.14v-28.6v-26.711
	c0-4.142-3.357-7.5-7.5-7.5H189.092l-25.009-53.135l106.368,47.381c0.991,0.442,2.027,0.651,3.048,0.651
	c2.871,0,5.611-1.658,6.854-4.45c1.686-3.784-0.015-8.217-3.799-9.903l-122.25-54.455l-7.984-16.964
	c-1.237-2.628-3.881-4.306-6.786-4.306s-5.549,1.678-6.786,4.306l-8.221,17.467L3.566,107.189c-0.036,0.022-0.067,0.048-0.103,0.071
	c-0.125,0.08-0.247,0.165-0.368,0.253c-0.088,0.064-0.175,0.127-0.26,0.194c-0.098,0.078-0.192,0.16-0.286,0.242
	c-0.096,0.084-0.191,0.168-0.282,0.256c-0.076,0.074-0.148,0.151-0.22,0.229c-0.096,0.102-0.192,0.203-0.281,0.309
	c-0.065,0.077-0.126,0.158-0.188,0.238c-0.085,0.11-0.17,0.219-0.249,0.333c-0.063,0.092-0.121,0.188-0.181,0.283
	c-0.066,0.106-0.133,0.211-0.194,0.32c-0.064,0.114-0.121,0.232-0.179,0.35c-0.046,0.095-0.095,0.189-0.137,0.285
	c-0.058,0.132-0.108,0.267-0.159,0.402c-0.033,0.09-0.069,0.178-0.098,0.269c-0.045,0.137-0.083,0.277-0.121,0.418
	c-0.026,0.097-0.053,0.193-0.074,0.29c-0.029,0.129-0.052,0.261-0.074,0.393c-0.02,0.117-0.039,0.233-0.053,0.351
	c-0.014,0.113-0.022,0.228-0.031,0.342c-0.01,0.141-0.019,0.283-0.021,0.425C0.006,113.486,0,113.53,0,113.574v26.711
	c0,4.142,3.357,7.5,7.5,7.5s7.5-3.358,7.5-7.5v-19.211h169.31c0.009,0,0.019,0.002,0.028,0.002c0.012,0,0.024-0.002,0.036-0.002
	H311.14v11.711H184.333H94.734H61.338c-4.143,0-7.5,3.358-7.5,7.5s3.357,7.5,7.5,7.5h25.896v55.388v62.888v62.888
	c0,0.02,0.003,0.039,0.003,0.059c0.001,0.167,0.013,0.334,0.025,0.502c0.006,0.081,0.008,0.163,0.016,0.244
	c0.017,0.16,0.045,0.319,0.073,0.479c0.015,0.086,0.025,0.173,0.042,0.258c0.028,0.135,0.068,0.268,0.104,0.402
	c0.028,0.105,0.052,0.213,0.084,0.316c0.032,0.102,0.074,0.201,0.11,0.301c0.048,0.133,0.094,0.267,0.149,0.396
	c0.032,0.075,0.072,0.149,0.107,0.223c0.071,0.151,0.141,0.302,0.222,0.447c0.037,0.066,0.08,0.13,0.119,0.196
	c0.088,0.149,0.178,0.296,0.276,0.438c0.011,0.016,0.019,0.032,0.03,0.048c0.027,0.039,0.06,0.072,0.088,0.111
	c0.13,0.177,0.266,0.349,0.411,0.514c0.063,0.073,0.128,0.144,0.194,0.214c0.13,0.137,0.266,0.269,0.406,0.396
	c0.071,0.064,0.139,0.131,0.211,0.192c0.205,0.173,0.417,0.337,0.639,0.487c0.038,0.025,0.078,0.046,0.116,0.07
	c0.195,0.126,0.395,0.244,0.601,0.352c0.074,0.038,0.149,0.072,0.224,0.108c0.178,0.086,0.36,0.166,0.546,0.238
	c0.078,0.03,0.156,0.058,0.235,0.086c0.19,0.066,0.384,0.124,0.58,0.175c0.075,0.019,0.149,0.041,0.224,0.058
	c0.208,0.047,0.42,0.083,0.634,0.113c0.065,0.009,0.13,0.022,0.195,0.03c0.271,0.03,0.545,0.048,0.824,0.048
	c0.006,0,0.011,0.001,0.017,0.001c0.002,0,0.004,0,0.007,0h89.585c4.143,0,7.5-3.358,7.5-7.5v-62.888v-62.888v-55.388H311.14v21.1
	h-10.177c-4.143,0-7.5,3.358-7.5,7.5v37.71c0,4.142,3.357,7.5,7.5,7.5h10.177v15.672c0,4.142,3.357,7.5,7.5,7.5
	c7.556,0,13.702,6.147,13.702,13.703c0,7.556-6.146,13.703-13.702,13.703s-13.703-6.147-13.703-13.703c0-4.142-3.357-7.5-7.5-7.5
	s-7.5,3.358-7.5,7.5c0,15.827,12.876,28.703,28.703,28.703c15.826,0,28.702-12.876,28.702-28.703
	C347.342,245.238,338.341,234.068,326.14,230.762z M172.514,106.074h-65.96l32.98-70.071L172.514,106.074z M89.975,106.074H33.971
	l78.877-48.597L89.975,106.074z M176.833,258.561h-58.358l58.358-40.961V258.561z M102.234,251.634v-40.961h58.358L102.234,251.634z
	 M102.234,273.561h58.358l-58.358,40.961V273.561z M160.593,147.786l-34.539,24.243c-3.391,2.379-4.21,7.057-1.83,10.447
	c1.46,2.08,3.784,3.192,6.146,3.192c1.488,0,2.991-0.442,4.302-1.362l42.162-29.593v40.961h-74.599v-47.888H160.593z
	 M118.475,321.449l58.358-40.961v40.961H118.475z M308.463,183.885h20.353v22.71h-20.353V183.885z"/>
<g>
</g>
<g>
</g>
<g>
</g>
<g>
</g>
<g>
</g>
<g>
</g>
<g>
</g>
<g>
</g>
<g>
</g>
<g>
</g>
<g>
</g>
<g>
</g>
<g>
</g>
<g>
</g>
<g>
</g>
</svg>
