<?xml version="1.0" encoding="iso-8859-1"?>
<!-- Generator: Adobe Illustrator 17.1.0, SVG Export Plug-In . SVG Version: 6.00 Build 0)  -->
<!DOCTYPE svg PUBLIC "-//W3C//DTD SVG 1.1//EN" "http://www.w3.org/Graphics/SVG/1.1/DTD/svg11.dtd">
<svg version="1.1" id="Capa_1" xmlns="http://www.w3.org/2000/svg" xmlns:xlink="http://www.w3.org/1999/xlink" x="0px" y="0px"
	 viewBox="0 0 336.919 336.919" style="enable-background:new 0 0 336.919 336.919;" xml:space="preserve">
<g>
	<path d="M329.976,244.328L212.863,41.351c-9.266-16.058-25.864-25.645-44.403-25.645s-35.138,9.587-44.403,25.645
		c-2.07,3.587-0.84,8.174,2.748,10.244c3.587,2.069,8.174,0.839,10.244-2.748c6.555-11.359,18.297-18.142,31.411-18.142
		s24.856,6.782,31.411,18.141l117.113,202.977c6.551,11.354,6.548,24.909-0.008,36.26s-18.295,18.128-31.403,18.128H51.346
		c-13.108,0-24.848-6.777-31.403-18.128s-6.559-24.906-0.008-36.26l93.534-162.109c2.07-3.587,0.84-8.174-2.748-10.244
		c-3.59-2.072-8.175-0.84-10.244,2.748L6.943,244.328c-9.261,16.05-9.257,35.211,0.011,51.258
		c9.267,16.046,25.862,25.626,44.393,25.626h234.227c18.53,0,35.126-9.58,44.393-25.626
		C339.233,279.54,339.237,260.378,329.976,244.328z"/>
	<path d="M195.149,102.302c-6.644-7.628-16.256-12.003-26.371-12.003h-0.637c-10.115,0-19.728,4.375-26.371,12.003
		c-6.644,7.628-9.658,17.75-8.269,27.77l6.528,47.099c0.569,4.103,4.359,6.972,8.458,6.399c4.104-0.569,6.969-4.356,6.399-8.459
		l-6.528-47.099c-0.793-5.722,0.928-11.502,4.723-15.859c3.794-4.356,9.283-6.854,15.06-6.854h0.637
		c5.776,0,11.266,2.499,15.06,6.854c3.795,4.356,5.516,10.137,4.723,15.859l-10.979,79.21c-0.618,4.456-4.477,7.816-8.976,7.816
		h-0.291c-4.499,0-8.357-3.36-8.976-7.816c-0.568-4.103-4.356-6.967-8.458-6.4c-4.104,0.569-6.968,4.355-6.399,8.458
		c1.64,11.834,11.886,20.758,23.833,20.758h0.291c11.947,0,22.193-8.924,23.833-20.757l10.979-79.21
		C204.807,120.052,201.792,109.93,195.149,102.302z"/>
	<path d="M168.459,236.171c-13.664,0-24.78,11.116-24.78,24.78c0,13.664,11.116,24.78,24.78,24.78s24.78-11.116,24.78-24.78
		C193.24,247.287,182.123,236.171,168.459,236.171z M168.459,270.731c-5.393,0-9.78-4.387-9.78-9.78c0-5.393,4.388-9.78,9.78-9.78
		s9.78,4.387,9.78,9.78C178.24,266.344,173.852,270.731,168.459,270.731z"/>
</g>
<g>
</g>
<g>
</g>
<g>
</g>
<g>
</g>
<g>
</g>
<g>
</g>
<g>
</g>
<g>
</g>
<g>
</g>
<g>
</g>
<g>
</g>
<g>
</g>
<g>
</g>
<g>
</g>
<g>
</g>
</svg>
