<?xml version="1.0" encoding="iso-8859-1"?>
<!-- Generator: Adobe Illustrator 17.1.0, SVG Export Plug-In . SVG Version: 6.00 Build 0)  -->
<!DOCTYPE svg PUBLIC "-//W3C//DTD SVG 1.1//EN" "http://www.w3.org/Graphics/SVG/1.1/DTD/svg11.dtd">
<svg version="1.1" id="Capa_1" xmlns="http://www.w3.org/2000/svg" xmlns:xlink="http://www.w3.org/1999/xlink" x="0px" y="0px"
	 viewBox="0 0 341.662 341.662" style="enable-background:new 0 0 341.662 341.662;" xml:space="preserve">
<g>
	<path d="M334.858,250.016L213.452,41.915c-8.942-15.328-24.875-24.479-42.62-24.479c-0.001,0,0,0,0,0
		c-17.745,0-33.679,9.151-42.621,24.479L40.553,192.168c-2.087,3.578-0.879,8.17,2.699,10.257c3.577,2.086,8.17,0.879,10.257-2.699
		l87.657-150.253c6.224-10.668,17.314-17.037,29.665-17.037s23.44,6.369,29.665,17.037l121.406,208.101
		c6.272,10.752,6.316,23.616,0.116,34.411c-6.2,10.795-17.333,17.239-29.781,17.239H49.425c-12.448,0-23.582-6.444-29.781-17.239
		c-6.2-10.795-6.156-23.659,0.116-34.411c2.087-3.578,0.879-8.17-2.699-10.257c-3.576-2.087-8.17-0.879-10.257,2.699
		c-9.013,15.449-9.075,33.931-0.167,49.44s24.903,24.769,42.789,24.769h242.812c17.885,0,33.881-9.259,42.789-24.769
		S343.871,265.465,334.858,250.016z"/>
	<path d="M171.639,88.957c-3.739-1.785-8.215-0.201-10,3.537l-34.565,72.399c-1.109,2.324-0.949,5.054,0.424,7.232
		c1.374,2.178,3.769,3.499,6.344,3.499h47.226l-14.923,37.336c-1.537,3.847,0.334,8.211,4.181,9.748
		c0.913,0.365,1.855,0.538,2.781,0.538c2.977,0,5.794-1.785,6.967-4.718l19.033-47.62c0.923-2.311,0.641-4.929-0.754-6.989
		c-1.396-2.061-3.722-3.294-6.21-3.294h-46.409l29.442-61.667C176.96,95.218,175.377,90.741,171.639,88.957z"/>
	<path d="M123.874,227.006c-1.569,2.371-1.664,5.424-0.244,7.887l28.418,49.287c1.177,2.042,3.246,3.411,5.585,3.698
		c0.305,0.038,0.609,0.056,0.913,0.056c2.024,0,3.978-0.82,5.4-2.296l39.477-40.968c1.972-2.047,2.618-5.033,1.667-7.712
		c-0.951-2.679-3.334-4.59-6.156-4.936l-67.896-8.318C128.22,223.354,125.444,224.635,123.874,227.006z M182.195,245.081
		l-22.132,22.968l-15.932-27.631L182.195,245.081z"/>
</g>
<g>
</g>
<g>
</g>
<g>
</g>
<g>
</g>
<g>
</g>
<g>
</g>
<g>
</g>
<g>
</g>
<g>
</g>
<g>
</g>
<g>
</g>
<g>
</g>
<g>
</g>
<g>
</g>
<g>
</g>
</svg>
