<?xml version="1.0" encoding="iso-8859-1"?>
<!-- Generator: Adobe Illustrator 17.1.0, SVG Export Plug-In . SVG Version: 6.00 Build 0)  -->
<!DOCTYPE svg PUBLIC "-//W3C//DTD SVG 1.1//EN" "http://www.w3.org/Graphics/SVG/1.1/DTD/svg11.dtd">
<svg version="1.1" id="Capa_1" xmlns="http://www.w3.org/2000/svg" xmlns:xlink="http://www.w3.org/1999/xlink" x="0px" y="0px"
	 viewBox="0 0 322.816 322.816" style="enable-background:new 0 0 322.816 322.816;" xml:space="preserve">
<g>
	<path d="M315.316,58.904c-4.143,0-7.5,3.357-7.5,7.5v94.082H15V21.577h300.316c4.143,0,7.5-3.357,7.5-7.5s-3.357-7.5-7.5-7.5H7.5
		c-4.143,0-7.5,3.357-7.5,7.5v153.909c0,4.143,3.357,7.5,7.5,7.5h54.212v44.493H7.5c-4.143,0-7.5,3.357-7.5,7.5v15.929
		c0,4.143,3.357,7.5,7.5,7.5s7.5-3.357,7.5-7.5v-8.429h292.816v31.434h-36.058h-36.308H87.365H51.058H7.5
		c-4.143,0-7.5,3.357-7.5,7.5s3.357,7.5,7.5,7.5h36.058v27.326c0,4.143,3.357,7.5,7.5,7.5h36.308c4.143,0,7.5-3.357,7.5-7.5v-27.326
		h133.086v27.326c0,4.143,3.357,7.5,7.5,7.5h36.308c4.143,0,7.5-3.357,7.5-7.5v-27.326h36.058c4.143,0,7.5-3.357,7.5-7.5v-46.434
		c0-4.143-3.357-7.5-7.5-7.5h-54.212v-28.571c0-4.143-3.357-7.5-7.5-7.5s-7.5,3.357-7.5,7.5v28.571H76.712v-44.493h238.604
		c4.143,0,7.5-3.357,7.5-7.5V66.404C322.816,62.262,319.459,58.904,315.316,58.904z M79.865,301.239H58.558v-19.826h21.308V301.239z
		 M264.259,301.239h-21.308v-19.826h21.308V301.239z"/>
	<path d="M179.271,140.257c1.021,0.482,2.115,0.719,3.203,0.719c1.705,0,3.396-0.581,4.764-1.707l51.626-42.444
		c1.733-1.424,2.737-3.55,2.737-5.793s-1.004-4.369-2.737-5.794l-51.626-42.443c-2.239-1.842-5.343-2.226-7.967-0.987
		c-2.623,1.239-4.296,3.88-4.296,6.781v12.815H88.716c-4.143,0-7.5,3.357-7.5,7.5v44.257c0,4.143,3.357,7.5,7.5,7.5h86.259v12.815
		C174.975,136.377,176.647,139.018,179.271,140.257z M96.216,105.66V76.403h86.259c4.143,0,7.5-3.357,7.5-7.5v-4.44l32.316,26.568
		l-32.316,26.569v-4.44c0-4.143-3.357-7.5-7.5-7.5H96.216z"/>
</g>
<g>
</g>
<g>
</g>
<g>
</g>
<g>
</g>
<g>
</g>
<g>
</g>
<g>
</g>
<g>
</g>
<g>
</g>
<g>
</g>
<g>
</g>
<g>
</g>
<g>
</g>
<g>
</g>
<g>
</g>
</svg>
