<?xml version="1.0" encoding="iso-8859-1"?>
<!-- Generator: Adobe Illustrator 17.1.0, SVG Export Plug-In . SVG Version: 6.00 Build 0)  -->
<!DOCTYPE svg PUBLIC "-//W3C//DTD SVG 1.1//EN" "http://www.w3.org/Graphics/SVG/1.1/DTD/svg11.dtd">
<svg version="1.1" id="Capa_1" xmlns="http://www.w3.org/2000/svg" xmlns:xlink="http://www.w3.org/1999/xlink" x="0px" y="0px"
	 viewBox="0 0 362.497 362.497" style="enable-background:new 0 0 362.497 362.497;" xml:space="preserve">
<g>
	<path d="M321.25,123.413h-36.946c-3.538-19.159-20.358-33.722-40.525-33.722h-31.903v-27.5c0-4.143-3.358-7.5-7.5-7.5H95.033
		c-28.836,0-54.485,17.728-64.768,44.419C13.429,99.984,0,113.956,0,131.006v0.493c0,17.052,13.432,31.026,30.271,31.897
		c10.282,26.706,35.882,44.419,64.762,44.419h11.861L93.49,236.04c-1.777,3.742-0.184,8.216,3.558,9.992
		c3.742,1.781,8.215,0.184,9.992-3.557l16.46-34.659h40.895l-27.898,58.74H83.738c-4.142,0-7.5,3.357-7.5,7.5v26.25
		c0,4.143,3.358,7.5,7.5,7.5h83.75c4.142,0,7.5-3.357,7.5-7.5v-26.25c0-4.143-3.358-7.5-7.5-7.5h-14.385L181,207.816h23.375
		c4.142,0,7.5-3.357,7.5-7.5v-27.5h31.903c20.406,0,37.387-14.908,40.647-34.403h36.824c4.142,0,7.5-3.357,7.5-7.5
		S325.392,123.413,321.25,123.413z M159.988,292.806h-68.75v-11.25h49.959c0.012,0,0.024,0.002,0.036,0.002
		c0.009,0,0.018-0.002,0.028-0.002h18.728V292.806z M196.875,192.816h-20.616h-57.5H95.033c-20.618,0-39.107-11.511-48.334-29.375
		h79.55c4.142,0,7.5-3.357,7.5-7.5v-49.375c0-4.143-3.358-7.5-7.5-7.5s-7.5,3.357-7.5,7.5v41.875H31.94
		c-9.341,0-16.94-7.6-16.94-16.941v-0.493c0-9.341,7.6-16.94,16.94-16.94h55.808c4.142,0,7.5-3.357,7.5-7.5s-3.358-7.5-7.5-7.5
		H46.707C55.94,81.212,74.45,69.691,95.033,69.691h101.842v27.5v68.125V192.816z M270,131.593c0,14.459-11.763,26.223-26.222,26.223
		h-8.153v-34.067c0-4.143-3.358-7.5-7.5-7.5s-7.5,3.357-7.5,7.5v34.067h-8.75v-53.125h31.903c14.458,0,26.222,11.763,26.222,26.222
		V131.593z"/>
	<path d="M354.997,123.753h-10.622c-4.142,0-7.5,3.357-7.5,7.5s3.358,7.5,7.5,7.5h10.622c4.142,0,7.5-3.357,7.5-7.5
		S359.139,123.753,354.997,123.753z"/>
</g>
<g>
</g>
<g>
</g>
<g>
</g>
<g>
</g>
<g>
</g>
<g>
</g>
<g>
</g>
<g>
</g>
<g>
</g>
<g>
</g>
<g>
</g>
<g>
</g>
<g>
</g>
<g>
</g>
<g>
</g>
</svg>
