<?xml version="1.0" encoding="iso-8859-1"?>
<!-- Generator: Adobe Illustrator 17.1.0, SVG Export Plug-In . SVG Version: 6.00 Build 0)  -->
<!DOCTYPE svg PUBLIC "-//W3C//DTD SVG 1.1//EN" "http://www.w3.org/Graphics/SVG/1.1/DTD/svg11.dtd">
<svg version="1.1" id="Capa_1" xmlns="http://www.w3.org/2000/svg" xmlns:xlink="http://www.w3.org/1999/xlink" x="0px" y="0px"
	 viewBox="0 0 332.604 332.604" style="enable-background:new 0 0 332.604 332.604;" xml:space="preserve">
<g>
	<path d="M95.056,117.539c0.984,0,1.985-0.195,2.947-0.607l115.311-49.357c0.029-0.012,0.057-0.024,0.085-0.037l27.104-11.602
		c3.808-1.63,5.573-6.038,3.943-9.846c-1.629-3.807-6.037-5.573-9.846-3.943l-16.667,7.134V7.5c0-4.143-3.357-7.5-7.5-7.5h-90.582
		c-4.143,0-7.5,3.357-7.5,7.5v86.975l-20.251,8.668c-3.808,1.63-5.573,6.038-3.943,9.846
		C89.375,115.834,92.144,117.539,95.056,117.539z M127.352,15h75.582v40.702l-75.582,32.352V15z"/>
	<path d="M234.601,118.52l-16.667,7.134v-33.57c0-4.143-3.357-7.5-7.5-7.5s-7.5,3.357-7.5,7.5v39.99l-75.582,32.352v-39.012
		c0-4.143-3.357-7.5-7.5-7.5s-7.5,3.357-7.5,7.5v45.433l-20.251,8.668c-3.808,1.63-5.573,6.038-3.943,9.846
		c1.218,2.846,3.986,4.551,6.898,4.551c0.984,0,1.985-0.195,2.947-0.607l24.727-10.584c0.03-0.013,0.059-0.025,0.089-0.038
		l90.495-38.735c0.029-0.012,0.057-0.024,0.085-0.037l27.104-11.602c3.808-1.63,5.573-6.038,3.943-9.846
		C242.817,118.655,238.409,116.89,234.601,118.52z"/>
	<path d="M234.601,194.892l-16.667,7.134v-35.723c0-4.143-3.357-7.5-7.5-7.5s-7.5,3.357-7.5,7.5v42.144l-75.582,32.352v-39.012
		c0-4.143-3.357-7.5-7.5-7.5s-7.5,3.357-7.5,7.5v45.433l-20.251,8.668c-3.808,1.63-5.573,6.038-3.943,9.846
		c1.218,2.846,3.986,4.551,6.898,4.551c0.984,0,1.985-0.195,2.947-0.607l20.717-8.868l39.954,68.091
		c1.347,2.295,3.808,3.704,6.469,3.704s5.122-1.409,6.469-3.704l45.291-77.188c0.675-1.151,1.031-2.462,1.031-3.796v-29.575
		l22.569-9.661c3.808-1.63,5.573-6.038,3.943-9.846C242.817,195.027,238.409,193.261,234.601,194.892z M202.934,245.878
		l-37.791,64.405l-32.522-55.425l70.313-30.096V245.878z"/>
</g>
<g>
</g>
<g>
</g>
<g>
</g>
<g>
</g>
<g>
</g>
<g>
</g>
<g>
</g>
<g>
</g>
<g>
</g>
<g>
</g>
<g>
</g>
<g>
</g>
<g>
</g>
<g>
</g>
<g>
</g>
</svg>
