<?xml version="1.0" encoding="iso-8859-1"?>
<!-- Generator: Adobe Illustrator 17.1.0, SVG Export Plug-In . SVG Version: 6.00 Build 0)  -->
<!DOCTYPE svg PUBLIC "-//W3C//DTD SVG 1.1//EN" "http://www.w3.org/Graphics/SVG/1.1/DTD/svg11.dtd">
<svg version="1.1" id="Capa_1" xmlns="http://www.w3.org/2000/svg" xmlns:xlink="http://www.w3.org/1999/xlink" x="0px" y="0px"
	 viewBox="0 0 353.041 353.041" style="enable-background:new 0 0 353.041 353.041;" xml:space="preserve">
<g>
	<path d="M121.764,86.295c4.143,0,7.5-3.357,7.5-7.5V15h82.361v41.118h-20.323c-4.143,0-7.5,3.357-7.5,7.5
		c0,19.751,20.463,35.819,45.614,35.819s45.614-16.068,45.614-35.819c0-4.143-3.357-7.5-7.5-7.5h-40.905V7.5
		c0-4.143-3.357-7.5-7.5-7.5h-97.361c-4.143,0-7.5,3.357-7.5,7.5v71.295C114.264,82.938,117.622,86.295,121.764,86.295z
		 M229.417,84.438c-12.73,0-23.946-5.611-28.479-13.319h56.957C253.363,78.826,242.147,84.438,229.417,84.438z"/>
	<path d="M219.125,191.01c-4.143,0-7.5,3.357-7.5,7.5v83.981l-41.181,51.098l-41.181-51.098v-40.649c0-4.143-3.357-7.5-7.5-7.5
		s-7.5,3.357-7.5,7.5v43.296c0,1.712,0.586,3.373,1.66,4.706l48.681,60.403c1.424,1.767,3.571,2.794,5.84,2.794
		s4.416-1.027,5.84-2.794l48.681-60.403c1.074-1.333,1.66-2.994,1.66-4.706V198.51C226.625,194.367,223.268,191.01,219.125,191.01z"
		/>
	<path d="M123.625,141.038c25.151,0,45.614-16.068,45.614-35.819c0-4.143-3.357-7.5-7.5-7.5H85.51c-4.143,0-7.5,3.357-7.5,7.5
		C78.01,124.97,98.473,141.038,123.625,141.038z M152.103,112.719c-4.532,7.708-15.748,13.319-28.479,13.319
		s-23.946-5.611-28.479-13.319H152.103z"/>
	<path d="M169.239,181.966c0-4.143-3.357-7.5-7.5-7.5h-32.475v-16.351c0-4.143-3.357-7.5-7.5-7.5s-7.5,3.357-7.5,7.5v16.351H85.51
		c-4.143,0-7.5,3.357-7.5,7.5c0,19.751,20.463,35.819,45.614,35.819S169.239,201.717,169.239,181.966z M95.146,189.466h56.957
		c-4.532,7.708-15.748,13.319-28.479,13.319S99.678,197.174,95.146,189.466z"/>
	<path d="M267.531,130.972h-40.905v-14.35c0-4.143-3.357-7.5-7.5-7.5s-7.5,3.357-7.5,7.5v14.35h-20.323c-4.143,0-7.5,3.357-7.5,7.5
		c0,19.75,20.463,35.818,45.614,35.818s45.614-16.068,45.614-35.818C275.031,134.329,271.673,130.972,267.531,130.972z
		 M229.417,159.29c-12.73,0-23.945-5.61-28.479-13.318h56.957C253.362,153.68,242.147,159.29,229.417,159.29z"/>
</g>
<g>
</g>
<g>
</g>
<g>
</g>
<g>
</g>
<g>
</g>
<g>
</g>
<g>
</g>
<g>
</g>
<g>
</g>
<g>
</g>
<g>
</g>
<g>
</g>
<g>
</g>
<g>
</g>
<g>
</g>
</svg>
