<?xml version="1.0" encoding="iso-8859-1"?>
<!-- Generator: Adobe Illustrator 17.1.0, SVG Export Plug-In . SVG Version: 6.00 Build 0)  -->
<!DOCTYPE svg PUBLIC "-//W3C//DTD SVG 1.1//EN" "http://www.w3.org/Graphics/SVG/1.1/DTD/svg11.dtd">
<svg version="1.1" id="Capa_1" xmlns="http://www.w3.org/2000/svg" xmlns:xlink="http://www.w3.org/1999/xlink" x="0px" y="0px"
	 viewBox="0 0 345 345" style="enable-background:new 0 0 345 345;" xml:space="preserve">
<path d="M280.132,100.873c4.143,0,7.5-3.357,7.5-7.5V7.5c0-4.143-3.357-7.5-7.5-7.5H66.952c-4.143,0-7.5,3.357-7.5,7.5v85.873
	c0,4.143,3.357,7.5,7.5,7.5h20.507l57.179,15.87L85.561,133.14c-3.338,0.926-5.607,4.019-5.49,7.48
	c0.118,3.463,2.592,6.394,5.984,7.092l49.413,10.167l-48.5,9.979c-3.393,0.698-5.866,3.629-5.984,7.092
	c-0.117,3.462,2.152,6.554,5.49,7.48l58.167,16.146l-59.08,16.4c-3.991,1.107-6.329,5.241-5.221,9.232
	c0.922,3.32,3.937,5.496,7.223,5.496c0.664,0,1.339-0.089,2.01-0.275l83.108-23.069L227,221.438l-53.493,12.025l-44.833-10.274
	c-4.035-0.926-8.061,1.599-8.985,5.636s1.598,8.061,5.636,8.985l14.282,3.273l-51.96,11.68H64.868c-4.143,0-7.5,3.357-7.5,7.5
	v32.405c0,4.143,3.357,7.5,7.5,7.5h27.402c-2.539,4.394-4,9.486-4,14.915c0,16.496,13.42,29.916,29.915,29.916
	c16.496,0,29.916-13.42,29.916-29.916c0-5.429-1.461-10.521-4-14.915h57.2c-2.539,4.394-4,9.486-4,14.915
	c0,16.496,13.42,29.916,29.916,29.916c16.495,0,29.915-13.42,29.915-29.916c0-5.429-1.461-10.521-4-14.915h27
	c4.143,0,7.5-3.357,7.5-7.5v-32.405c0-4.143-3.357-7.5-7.5-7.5h-22.401l-50.356-11.54l52.065-11.704
	c3.355-0.754,5.768-3.693,5.854-7.131c0.085-3.438-2.179-6.493-5.492-7.413l-59.08-16.4l58.168-16.146
	c3.338-0.927,5.607-4.019,5.49-7.48c-0.118-3.463-2.592-6.394-5.984-7.092l-48.5-9.979l49.412-10.167
	c4.057-0.834,6.669-4.8,5.834-8.857c-0.834-4.057-4.798-6.672-8.857-5.834l-83.601,17.202l-53.167-10.94l53.167-14.756
	l43.698,12.128c0.671,0.187,1.346,0.275,2.01,0.275c3.286,0,6.302-2.176,7.223-5.496c1.108-3.991-1.229-8.125-5.221-9.232
	l-19.666-5.458l57.179-15.87H280.132z M133.102,315.084c0,8.225-6.691,14.916-14.916,14.916s-14.915-6.691-14.915-14.916
	s6.69-14.915,14.915-14.915S133.102,306.859,133.102,315.084z M242.132,315.084c0,8.225-6.69,14.916-14.915,14.916
	s-14.916-6.691-14.916-14.916s6.691-14.915,14.916-14.915S242.132,306.859,242.132,315.084z M272.632,285.169H72.368v-17.405H88.45
	c0.008,0,0.015,0.002,0.023,0.002c0.012,0,0.023-0.002,0.035-0.002h168.347c0.012,0,0.023,0.002,0.035,0.002
	c0.008,0,0.015-0.002,0.023-0.002h15.719V285.169z M190.578,252.764H156.04l17.435-3.919L190.578,252.764z M224.937,176.288
	l-52.256,14.505l-52.256-14.505l52.256-10.752L224.937,176.288z M74.452,15h198.18v70.873h-91.59V34.08c0-4.143-3.357-7.5-7.5-7.5
	s-7.5,3.357-7.5,7.5v51.793h-91.59V15z M172.681,108.959l-29.136-8.086h58.272L172.681,108.959z"/>
<g>
</g>
<g>
</g>
<g>
</g>
<g>
</g>
<g>
</g>
<g>
</g>
<g>
</g>
<g>
</g>
<g>
</g>
<g>
</g>
<g>
</g>
<g>
</g>
<g>
</g>
<g>
</g>
<g>
</g>
</svg>
