<?xml version="1.0" encoding="iso-8859-1"?>
<!-- Generator: Adobe Illustrator 17.1.0, SVG Export Plug-In . SVG Version: 6.00 Build 0)  -->
<!DOCTYPE svg PUBLIC "-//W3C//DTD SVG 1.1//EN" "http://www.w3.org/Graphics/SVG/1.1/DTD/svg11.dtd">
<svg version="1.1" id="Capa_1" xmlns="http://www.w3.org/2000/svg" xmlns:xlink="http://www.w3.org/1999/xlink" x="0px" y="0px"
	 viewBox="0 0 368.554 368.554" style="enable-background:new 0 0 368.554 368.554;" xml:space="preserve">
<g>
	<path d="M332.537,252.713H164.688c-19.859,0-36.017,16.157-36.017,36.017v0.576c0,19.86,16.157,36.017,36.017,36.017h125.589
		c4.142,0,7.5-3.358,7.5-7.5s-3.358-7.5-7.5-7.5H164.688c-11.588,0-21.017-9.428-21.017-21.017v-0.576
		c0-11.588,9.428-21.017,21.017-21.017h167.849c11.589,0,21.017,9.428,21.017,21.017v0.576c0,11.589-9.428,21.017-21.017,21.017
		c-4.142,0-7.5,3.358-7.5,7.5s3.358,7.5,7.5,7.5c19.86,0,36.017-16.157,36.017-36.017v-0.576
		C368.554,268.87,352.396,252.713,332.537,252.713z"/>
	<path d="M361.054,183.546h-88.216H154.417l69.888-69.139h41.033v48.203c0,4.142,3.358,7.5,7.5,7.5s7.5-3.358,7.5-7.5v-55.703
		c0-4.142-3.358-7.5-7.5-7.5h-51.616c-1.975,0-3.871,0.779-5.274,2.168l-85.051,84.139c-0.004,0.004-0.007,0.008-0.01,0.012
		c-0.236,0.234-0.451,0.488-0.654,0.752c-0.046,0.06-0.091,0.12-0.135,0.181c-0.194,0.268-0.375,0.545-0.533,0.837
		c-0.003,0.005-0.005,0.011-0.008,0.016c-0.153,0.286-0.283,0.587-0.398,0.894c-0.023,0.061-0.046,0.122-0.067,0.183
		c-0.211,0.609-0.346,1.253-0.393,1.923c-0.006,0.088-0.01,0.175-0.013,0.264c-0.003,0.09-0.014,0.179-0.014,0.27v45
		c0,4.142,3.358,7.5,7.5,7.5h224.882c4.142,0,7.5-3.358,7.5-7.5v-45C368.554,186.904,365.196,183.546,361.054,183.546z
		 M353.554,228.546H143.671v-30h129.167h80.716V228.546z"/>
	<path d="M53.512,138.225l33.298-33.298h24.616l33.298,33.298c2.929,2.929,7.678,2.929,10.606,0l33.019-33.019
		c2.929-2.929,2.929-7.678,0-10.606l-49.008-49.008c-1.368-1.453-3.309-2.36-5.462-2.36H64.34c-2.187,0-4.154,0.941-5.525,2.439
		L9.886,94.599c-2.929,2.929-2.929,7.678,0,10.606l25.656,25.656L2.51,160.304c-1.597,1.423-2.51,3.46-2.51,5.599v37.874
		c0,4.142,3.358,7.5,7.5,7.5s7.5-3.358,7.5-7.5v-34.512l22.004-19.612v78.894H7.5c-4.142,0-7.5,3.358-7.5,7.5v50.079
		c0,4.142,3.358,7.5,7.5,7.5h31.698c1.982,0,3.884-0.785,5.29-2.183l50.333-50.079c2.153-2.142,2.801-5.371,1.643-8.178
		s-3.896-4.639-6.933-4.639H52.004v-89.165C52.541,139.065,53.051,138.685,53.512,138.225z M36.103,278.625H15v-35.079h29.504H71.36
		L36.103,278.625z M67.468,58.23h63.3l41.672,41.672l-22.413,22.413l-30.191-30.191c-1.406-1.407-3.314-2.197-5.303-2.197H83.704
		c-1.989,0-3.897,0.79-5.303,2.197l-30.192,30.191L25.796,99.902L67.468,58.23z"/>
	<path d="M318.3,281.518H178.925c-4.142,0-7.5,3.358-7.5,7.5s3.358,7.5,7.5,7.5H318.3c4.142,0,7.5-3.358,7.5-7.5
		S322.442,281.518,318.3,281.518z"/>
</g>
<g>
</g>
<g>
</g>
<g>
</g>
<g>
</g>
<g>
</g>
<g>
</g>
<g>
</g>
<g>
</g>
<g>
</g>
<g>
</g>
<g>
</g>
<g>
</g>
<g>
</g>
<g>
</g>
<g>
</g>
</svg>
