<?xml version="1.0" encoding="iso-8859-1"?>
<!-- Generator: Adobe Illustrator 17.1.0, SVG Export Plug-In . SVG Version: 6.00 Build 0)  -->
<!DOCTYPE svg PUBLIC "-//W3C//DTD SVG 1.1//EN" "http://www.w3.org/Graphics/SVG/1.1/DTD/svg11.dtd">
<svg version="1.1" id="Capa_1" xmlns="http://www.w3.org/2000/svg" xmlns:xlink="http://www.w3.org/1999/xlink" x="0px" y="0px"
	 viewBox="0 0 353.996 353.996" style="enable-background:new 0 0 353.996 353.996;" xml:space="preserve">
<path d="M350.245,154.075l-99.121-57.228c2.136-8.18-1.316-17.117-8.984-21.545l-0.205-0.118c-9.195-5.31-20.996-2.147-26.305,7.048
	l-38.636,66.919L138.36,82.232c-5.309-9.196-17.11-12.356-26.304-7.049l-0.207,0.119c-9.195,5.309-12.357,17.109-7.048,26.305
	l1.204,2.086c0,0,0,0.001,0.001,0.001l36.983,64.056L31.116,155.593l48.208-27.833c3.587-2.071,4.816-6.658,2.745-10.245
	c-2.071-3.588-6.658-4.816-10.245-2.745L3.746,154.075c-0.057,0.033-0.108,0.072-0.164,0.106c-0.117,0.072-0.232,0.145-0.345,0.223
	c-0.099,0.068-0.195,0.138-0.289,0.21c-0.096,0.073-0.19,0.148-0.282,0.226c-0.1,0.084-0.197,0.17-0.291,0.258
	c-0.081,0.076-0.16,0.154-0.238,0.234c-0.092,0.094-0.182,0.19-0.269,0.289c-0.075,0.085-0.146,0.172-0.217,0.26
	c-0.079,0.098-0.156,0.197-0.229,0.299c-0.072,0.1-0.141,0.202-0.208,0.305c-0.062,0.095-0.123,0.191-0.18,0.289
	c-0.068,0.115-0.132,0.233-0.193,0.353c-0.048,0.093-0.095,0.187-0.139,0.281c-0.058,0.126-0.113,0.253-0.164,0.383
	c-0.039,0.098-0.076,0.196-0.111,0.295c-0.044,0.126-0.085,0.253-0.122,0.383c-0.033,0.113-0.063,0.227-0.091,0.342
	c-0.028,0.116-0.054,0.233-0.077,0.352c-0.026,0.136-0.047,0.272-0.065,0.409c-0.009,0.063-0.023,0.125-0.03,0.189
	c-0.005,0.042-0.003,0.084-0.007,0.126c-0.014,0.147-0.021,0.294-0.026,0.441c-0.003,0.103-0.008,0.205-0.007,0.307
	c0.001,0.14,0.009,0.28,0.018,0.421c0.007,0.109,0.013,0.218,0.024,0.326c0.014,0.128,0.035,0.256,0.056,0.385
	c0.019,0.117,0.037,0.235,0.061,0.35c0.024,0.116,0.056,0.231,0.086,0.347c0.033,0.125,0.065,0.25,0.104,0.373
	c0.033,0.104,0.072,0.207,0.11,0.309c0.048,0.132,0.097,0.263,0.153,0.391c0.04,0.094,0.086,0.186,0.13,0.278
	c0.064,0.133,0.13,0.265,0.202,0.394c0.021,0.037,0.036,0.075,0.057,0.112l44.375,76.86c0.995,1.723,2.633,2.979,4.554,3.495
	c0.639,0.171,1.291,0.255,1.941,0.255c1.305,0,2.6-0.341,3.75-1.005l98.51-56.875l0.492,0.852l-17.761,30.763
	c-2.071,3.587-0.842,8.174,2.745,10.245c3.586,2.071,8.174,0.841,10.245-2.745l19.598-33.945c0.248-0.357,0.466-0.731,0.648-1.122
	l58.523-101.365c0.568-0.985,1.486-1.689,2.585-1.983c1.097-0.293,2.245-0.143,3.23,0.426l0.205,0.118
	c2.032,1.173,2.731,3.782,1.558,5.814L170.611,207.71c-0.014,0.024-0.027,0.048-0.041,0.071l-32.251,55.861l-14.073-8.125
	c-3.587-2.072-8.174-0.842-10.245,2.745c-2.071,3.587-0.842,8.174,2.745,10.245l20.568,11.875c1.181,0.682,2.471,1.006,3.743,1.006
	c2.592,0,5.113-1.346,6.502-3.751l29.437-50.985l29.437,50.985c1.389,2.406,3.91,3.751,6.502,3.751c1.272,0,2.562-0.324,3.743-1.006
	l20.568-11.875c1.723-0.995,2.979-2.633,3.495-4.554c0.515-1.921,0.245-3.968-0.75-5.691l-40.623-70.36l0.492-0.852l98.51,56.875
	c1.15,0.664,2.445,1.005,3.75,1.005c0.65,0,1.303-0.084,1.941-0.255c1.921-0.515,3.56-1.772,4.554-3.495l44.375-76.86
	C355.061,160.732,353.832,156.146,350.245,154.075z M119.348,88.294l0.207-0.119c2.033-1.175,4.641-0.474,5.814,1.558l42.966,74.419
	l-5.052,8.75l-45.491-78.794C116.618,92.075,117.317,89.466,119.348,88.294z M54.616,227.185l-33.233-57.561l111.873,12.158
	L54.616,227.185z M223.25,259.267l-7.578,4.375l-30.017-51.99l5.052-8.75L223.25,259.267z M299.375,227.185l-78.64-45.403
	l74.401-8.086c4.118-0.447,7.093-4.148,6.646-8.267c-0.447-4.117-4.147-7.093-8.267-6.646l-82.513,8.968l8.367-14.492l24.866-43.069
	l92.015,53.125L299.375,227.185z"/>
<g>
</g>
<g>
</g>
<g>
</g>
<g>
</g>
<g>
</g>
<g>
</g>
<g>
</g>
<g>
</g>
<g>
</g>
<g>
</g>
<g>
</g>
<g>
</g>
<g>
</g>
<g>
</g>
<g>
</g>
</svg>
