<?xml version="1.0" encoding="iso-8859-1"?>
<!-- Generator: Adobe Illustrator 17.1.0, SVG Export Plug-In . SVG Version: 6.00 Build 0)  -->
<!DOCTYPE svg PUBLIC "-//W3C//DTD SVG 1.1//EN" "http://www.w3.org/Graphics/SVG/1.1/DTD/svg11.dtd">
<svg version="1.1" id="Capa_1" xmlns="http://www.w3.org/2000/svg" xmlns:xlink="http://www.w3.org/1999/xlink" x="0px" y="0px"
	 viewBox="0 0 298.473 298.473" style="enable-background:new 0 0 298.473 298.473;" xml:space="preserve">
<path d="M248.584,173.66c9.769-9.77,9.769-25.664,0-35.434l-0.251-0.251c-9.768-9.769-25.663-9.767-35.435,0l-13.476,13.477V48.969
	c0-13.815-11.239-25.056-25.055-25.056h-0.355c-3.573,0-6.976,0.753-10.055,2.106v-0.965C163.958,11.239,152.718,0,138.902,0h-0.354
	c-13.815,0-25.055,11.239-25.055,25.055v0.965c-3.08-1.354-6.481-2.106-10.056-2.106h-0.354c-13.815,0-25.056,11.24-25.056,25.056
	v12.922c-3.079-1.354-6.481-2.106-10.055-2.106h-0.354c-13.815,0-25.056,11.239-25.056,25.055v130.469c0,4.143,3.357,7.5,7.5,7.5
	s7.5-3.357,7.5-7.5V84.839c0-5.544,4.511-10.055,10.056-10.055h0.354c5.544,0,10.055,4.511,10.055,10.055v44.086
	c0,4.143,3.357,7.5,7.5,7.5s7.5-3.357,7.5-7.5V84.839v-35.87c0-5.545,4.511-10.056,10.056-10.056h0.354
	c5.545,0,10.056,4.511,10.056,10.056v43.609c0,4.143,3.357,7.5,7.5,7.5s7.5-3.357,7.5-7.5V48.969v-0.477V25.055
	c0-5.544,4.511-10.055,10.055-10.055h0.354c5.545,0,10.056,4.511,10.056,10.055v22.246c-0.063,0.389-0.104,0.785-0.104,1.191v44.086
	c0,4.143,3.357,7.5,7.5,7.5s7.5-3.357,7.5-7.5V50.16c0.063-0.389,0.104-0.785,0.104-1.191c0-5.545,4.511-10.056,10.055-10.056h0.355
	c5.544,0,10.055,4.511,10.055,10.056v120.59c0,3.033,1.827,5.769,4.63,6.929c2.802,1.162,6.028,0.52,8.174-1.625l26.278-26.279
	c3.921-3.922,10.3-3.921,14.221,0l0.251,0.251c3.921,3.92,3.921,10.299,0,14.219l-51.357,51.357
	c-1.406,1.407-2.196,3.314-2.196,5.304v28.679H50.062c-4.143,0-7.5,3.357-7.5,7.5v35.08c0,4.143,3.357,7.5,7.5,7.5h107.849
	c4.143,0,7.5-3.357,7.5-7.5s-3.357-7.5-7.5-7.5H57.562v-20.08h127.017v27.58c0,4.143,3.357,7.5,7.5,7.5s7.5-3.357,7.5-7.5v-35.08
	c0-0.523-0.054-1.034-0.156-1.527V222.82L248.584,173.66z"/>
<g>
</g>
<g>
</g>
<g>
</g>
<g>
</g>
<g>
</g>
<g>
</g>
<g>
</g>
<g>
</g>
<g>
</g>
<g>
</g>
<g>
</g>
<g>
</g>
<g>
</g>
<g>
</g>
<g>
</g>
</svg>
