<?xml version="1.0" encoding="iso-8859-1"?>
<!-- Generator: Adobe Illustrator 17.1.0, SVG Export Plug-In . SVG Version: 6.00 Build 0)  -->
<!DOCTYPE svg PUBLIC "-//W3C//DTD SVG 1.1//EN" "http://www.w3.org/Graphics/SVG/1.1/DTD/svg11.dtd">
<svg version="1.1" id="Capa_1" xmlns="http://www.w3.org/2000/svg" xmlns:xlink="http://www.w3.org/1999/xlink" x="0px" y="0px"
	 viewBox="0 0 345.687 345.687" style="enable-background:new 0 0 345.687 345.687;" xml:space="preserve">
<g>
	<path d="M188.466,82.335H157.22c-8.749,0-17.154,1.482-25.002,4.173V61.227h29.167h22.916h29.167v8.758c0,4.142,3.357,7.5,7.5,7.5
		s7.5-3.358,7.5-7.5V53.727c0-4.142-3.357-7.5-7.5-7.5h-29.167V18.844C191.801,8.453,183.348,0,172.958,0h-0.229
		c-10.391,0-18.844,8.453-18.844,18.844v27.383h-29.167c-4.143,0-7.5,3.358-7.5,7.5v39.786
		c-22.338,13.565-37.292,38.126-37.292,66.115v122.215c0,4.142,3.357,7.5,7.5,7.5s7.5-3.358,7.5-7.5V159.628
		c0-34.349,27.945-62.293,62.294-62.293h31.246c34.349,0,62.294,27.945,62.294,62.293v171.058H87.426c-4.143,0-7.5,3.358-7.5,7.5
		s3.357,7.5,7.5,7.5H258.26c4.143,0,7.5-3.358,7.5-7.5V159.628C265.76,117.009,231.086,82.335,188.466,82.335z M168.885,18.844
		c0-2.12,1.725-3.844,3.844-3.844h0.229c2.119,0,3.844,1.724,3.844,3.844v27.383h-7.916V18.844z"/>
	<path d="M173.387,153.75h-63.334c-4.143,0-7.5,3.358-7.5,7.5v155.018c0,4.142,3.357,7.5,7.5,7.5H236.72c4.143,0,7.5-3.358,7.5-7.5
		V161.25c0-4.142-3.357-7.5-7.5-7.5h-28.542c-4.143,0-7.5,3.358-7.5,7.5v45.278c0,5.361-4.361,9.722-9.722,9.722h-0.348
		c-5.36,0-9.722-4.361-9.722-9.722V161.25C180.887,157.108,177.53,153.75,173.387,153.75z M190.609,231.25h0.348
		c13.632,0,24.722-11.09,24.722-24.722V168.75h13.542v140.018H117.553V168.75h48.334v37.778
		C165.887,220.16,176.977,231.25,190.609,231.25z"/>
</g>
<g>
</g>
<g>
</g>
<g>
</g>
<g>
</g>
<g>
</g>
<g>
</g>
<g>
</g>
<g>
</g>
<g>
</g>
<g>
</g>
<g>
</g>
<g>
</g>
<g>
</g>
<g>
</g>
<g>
</g>
</svg>
