<?xml version="1.0" encoding="iso-8859-1"?>
<!-- Generator: Adobe Illustrator 17.1.0, SVG Export Plug-In . SVG Version: 6.00 Build 0)  -->
<!DOCTYPE svg PUBLIC "-//W3C//DTD SVG 1.1//EN" "http://www.w3.org/Graphics/SVG/1.1/DTD/svg11.dtd">
<svg version="1.1" id="Capa_1" xmlns="http://www.w3.org/2000/svg" xmlns:xlink="http://www.w3.org/1999/xlink" x="0px" y="0px"
	 viewBox="0 0 309.166 309.166" style="enable-background:new 0 0 309.166 309.166;" xml:space="preserve">
<path d="M270.412,97.659l-40.024-63.333c-1.374-2.175-3.767-3.493-6.34-3.493H203.92c-4.142,0-7.5,3.357-7.5,7.5s3.358,7.5,7.5,7.5
	h15.996l30.544,48.333H84.812c3.444-6.614,5.479-14.969,5.479-24.166c0-9.197-2.035-17.553-5.479-24.167h24.543
	c4.62,12.629,16.757,21.667,30.966,21.667h13.249c18.174,0,32.959-14.785,32.959-32.959V7.5c0-4.143-3.358-7.5-7.5-7.5h-64.167
	c-4.142,0-7.5,3.357-7.5,7.5v23.333H63.943c-14.775,0-26.349,17.204-26.349,39.167c0,21.962,11.574,39.166,26.349,39.166h43.418
	v192.5c0,4.143,3.358,7.5,7.5,7.5h64.167c4.142,0,7.5-3.357,7.5-7.5V130.583c0-4.143-3.358-7.5-7.5-7.5s-7.5,3.357-7.5,7.5v163.583
	h-49.167v-185h141.71c2.733,0,5.25-1.486,6.569-3.881C271.959,102.892,271.872,99.97,270.412,97.659z M122.362,15h49.167v19.541
	c0,9.902-8.056,17.959-17.959,17.959h-13.249c-9.903,0-17.959-8.057-17.959-17.959V15z M63.943,45.833
	c4.627,0,11.349,9.414,11.349,24.167c0,14.752-6.721,24.166-11.349,24.166S52.594,84.752,52.594,70
	C52.594,55.247,59.316,45.833,63.943,45.833z"/>
<g>
</g>
<g>
</g>
<g>
</g>
<g>
</g>
<g>
</g>
<g>
</g>
<g>
</g>
<g>
</g>
<g>
</g>
<g>
</g>
<g>
</g>
<g>
</g>
<g>
</g>
<g>
</g>
<g>
</g>
</svg>
