<?xml version="1.0" encoding="iso-8859-1"?>
<!-- Generator: Adobe Illustrator 17.1.0, SVG Export Plug-In . SVG Version: 6.00 Build 0)  -->
<!DOCTYPE svg PUBLIC "-//W3C//DTD SVG 1.1//EN" "http://www.w3.org/Graphics/SVG/1.1/DTD/svg11.dtd">
<svg version="1.1" id="Capa_1" xmlns="http://www.w3.org/2000/svg" xmlns:xlink="http://www.w3.org/1999/xlink" x="0px" y="0px"
	 viewBox="0 0 313.096 313.096" style="enable-background:new 0 0 313.096 313.096;" xml:space="preserve">
<g>
	<path d="M310.86,32.694c-2.806-2.766-7.274-2.888-10.227-0.281L151.585,163.958c-3.105,2.741-3.401,7.48-0.66,10.586
		c2.741,3.105,7.481,3.402,10.586,0.66l68.403-60.371l-97.554,113.85l-33.094-47.923l28.595,17.164
		c3.552,2.131,8.159,0.98,10.291-2.571c2.131-3.552,0.98-8.159-2.571-10.291l-58.338-35.017c-3.027-1.817-6.914-1.276-9.33,1.299
		s-2.708,6.487-0.702,9.393l58.338,84.48c1.322,1.915,3.458,3.107,5.781,3.228c0.13,0.007,0.261,0.01,0.391,0.01
		c2.183,0,4.266-0.953,5.695-2.62L311.291,42.915C313.855,39.924,313.666,35.459,310.86,32.694z"/>
	<path d="M254.277,124.067c-4.142,0-7.5,3.358-7.5,7.5V274.71H40.768V131.567c0-0.428-0.044-0.845-0.113-1.253l103.117-89.497
		l56.717,49.226c3.128,2.716,7.866,2.379,10.58-0.748c2.715-3.128,2.38-7.865-0.748-10.58l-61.633-53.492
		c-2.82-2.448-7.012-2.448-9.832,0L2.584,143.495c-3.128,2.715-3.463,7.452-0.748,10.58c1.483,1.709,3.569,2.584,5.667,2.584
		c1.742,0,3.493-0.604,4.913-1.836l13.352-11.588V282.21c0,4.142,3.358,7.5,7.5,7.5h221.009c4.142,0,7.5-3.358,7.5-7.5V131.567
		C261.777,127.425,258.419,124.067,254.277,124.067z"/>
</g>
<g>
</g>
<g>
</g>
<g>
</g>
<g>
</g>
<g>
</g>
<g>
</g>
<g>
</g>
<g>
</g>
<g>
</g>
<g>
</g>
<g>
</g>
<g>
</g>
<g>
</g>
<g>
</g>
<g>
</g>
</svg>
