<?xml version="1.0" encoding="iso-8859-1"?>
<!-- Generator: Adobe Illustrator 17.1.0, SVG Export Plug-In . SVG Version: 6.00 Build 0)  -->
<!DOCTYPE svg PUBLIC "-//W3C//DTD SVG 1.1//EN" "http://www.w3.org/Graphics/SVG/1.1/DTD/svg11.dtd">
<svg version="1.1" id="Capa_1" xmlns="http://www.w3.org/2000/svg" xmlns:xlink="http://www.w3.org/1999/xlink" x="0px" y="0px"
	 viewBox="0 0 315.564 315.564" style="enable-background:new 0 0 315.564 315.564;" xml:space="preserve">
<g>
	<path d="M306.729,121.916h-16.653L162.927,2.043c-0.055-0.052-0.115-0.096-0.171-0.146c-0.1-0.089-0.201-0.178-0.306-0.262
		c-0.09-0.072-0.182-0.138-0.274-0.205c-0.102-0.074-0.204-0.147-0.31-0.216c-0.1-0.065-0.203-0.125-0.305-0.185
		c-0.104-0.061-0.208-0.122-0.316-0.178c-0.107-0.056-0.216-0.107-0.326-0.157c-0.109-0.05-0.217-0.1-0.329-0.146
		c-0.112-0.045-0.226-0.085-0.34-0.124c-0.113-0.039-0.225-0.079-0.341-0.113c-0.119-0.035-0.24-0.063-0.36-0.093
		c-0.113-0.027-0.224-0.056-0.339-0.078c-0.137-0.027-0.276-0.044-0.414-0.063c-0.1-0.014-0.198-0.031-0.299-0.04
		c-0.19-0.018-0.381-0.025-0.572-0.029C157.877,0.006,157.83,0,157.782,0c-0.005,0-0.01,0.001-0.014,0.001
		c-0.247,0-0.493,0.013-0.739,0.037c-0.065,0.006-0.127,0.02-0.192,0.028c-0.176,0.022-0.351,0.045-0.524,0.08
		c-0.102,0.02-0.2,0.048-0.3,0.073c-0.134,0.032-0.268,0.063-0.401,0.103c-0.105,0.032-0.206,0.07-0.309,0.106
		c-0.125,0.044-0.25,0.086-0.373,0.137c-0.1,0.041-0.197,0.089-0.294,0.134c-0.121,0.056-0.241,0.111-0.36,0.173
		c-0.096,0.051-0.188,0.108-0.282,0.163c-0.114,0.067-0.227,0.132-0.338,0.205c-0.096,0.064-0.188,0.133-0.281,0.201
		c-0.101,0.074-0.203,0.146-0.301,0.225c-0.099,0.08-0.192,0.166-0.287,0.25c-0.069,0.062-0.141,0.117-0.208,0.182L28.128,121.916
		H8.835c-4.143,0-7.5,3.358-7.5,7.5s3.357,7.5,7.5,7.5h142.79v163.648H38.652V160.282c0-4.142-3.357-7.5-7.5-7.5s-7.5,3.358-7.5,7.5
		v147.782c0,4.142,3.357,7.5,7.5,7.5h127.973h127.974c4.143,0,7.5-3.358,7.5-7.5V136.916h12.131c4.143,0,7.5-3.358,7.5-7.5
		S310.872,121.916,306.729,121.916z M165.282,24.878l44.982,42.407l-44.982,44.236V24.878z M221.186,77.583l47.024,44.333h-92.105
		L221.186,77.583z M150.282,25.132v86.389L121.35,83.068c-2.953-2.902-7.701-2.866-10.606,0.089
		c-2.904,2.953-2.864,7.702,0.089,10.606l28.627,28.152H49.756L150.282,25.132z M279.599,300.564h-48.986V174.449
		c0-4.142-3.357-7.5-7.5-7.5s-7.5,3.358-7.5,7.5v126.115h-48.987V136.916h112.974V300.564z"/>
	<path d="M118.742,234.942c4.143,0,7.5-3.358,7.5-7.5v-47.208c0-4.142-3.357-7.5-7.5-7.5H71.535c-4.143,0-7.5,3.358-7.5,7.5v47.208
		c0,4.142,3.357,7.5,7.5,7.5H118.742z M79.035,187.735h32.207v32.208H79.035V187.735z"/>
</g>
<g>
</g>
<g>
</g>
<g>
</g>
<g>
</g>
<g>
</g>
<g>
</g>
<g>
</g>
<g>
</g>
<g>
</g>
<g>
</g>
<g>
</g>
<g>
</g>
<g>
</g>
<g>
</g>
<g>
</g>
</svg>
