<?xml version="1.0" encoding="iso-8859-1"?>
<!-- Generator: Adobe Illustrator 17.1.0, SVG Export Plug-In . SVG Version: 6.00 Build 0)  -->
<!DOCTYPE svg PUBLIC "-//W3C//DTD SVG 1.1//EN" "http://www.w3.org/Graphics/SVG/1.1/DTD/svg11.dtd">
<svg version="1.1" id="Capa_1" xmlns="http://www.w3.org/2000/svg" xmlns:xlink="http://www.w3.org/1999/xlink" x="0px" y="0px"
	 viewBox="0 0 341.234 341.234" style="enable-background:new 0 0 341.234 341.234;" xml:space="preserve">
<g>
	<path d="M240.585,108.817l-7.299-14.459V7.5c0-4.142-3.358-7.5-7.5-7.5s-7.5,3.358-7.5,7.5v57.143l-6.064-12.014
		c-1.275-2.527-3.865-4.12-6.695-4.12h-69.82c-2.831,0-5.42,1.593-6.695,4.12l-6.064,12.013V7.669c0-4.142-3.358-7.5-7.5-7.5
		s-7.5,3.358-7.5,7.5v86.688l-7.299,14.459c-0.949,1.88-1.064,4.073-0.316,6.042l48.624,128.042
		c1.105,2.912,3.896,4.837,7.011,4.837h7.15v29.137c0,4.142,3.358,7.5,7.5,7.5c11.541,0,20.93,9.389,20.93,20.93
		s-9.389,20.93-20.93,20.93s-20.93-9.389-20.93-20.93c0-4.142-3.358-7.5-7.5-7.5s-7.5,3.358-7.5,7.5
		c0,19.812,16.118,35.93,35.93,35.93s35.93-16.118,35.93-35.93c0-17.241-12.205-31.684-28.43-35.143v-22.424h7.15
		c3.115,0,5.906-1.925,7.012-4.837l32.161-84.692c1.471-3.873-0.477-8.204-4.349-9.674c-3.872-1.472-8.204,0.476-9.674,4.349
		l-30.325,79.855h-18.952l-45.613-120.113l24.794-49.115h60.59l26.283,52.067c1.867,3.698,6.378,5.181,10.075,3.315
		C240.968,117.025,242.452,112.515,240.585,108.817z"/>
	<path d="M145.4,101.567c0,13.905,11.312,25.217,25.217,25.217s25.217-11.312,25.217-25.217S184.521,76.35,170.617,76.35
		S145.4,87.662,145.4,101.567z M180.833,101.567c0,5.634-4.583,10.217-10.217,10.217s-10.217-4.583-10.217-10.217
		s4.583-10.217,10.217-10.217S180.833,95.933,180.833,101.567z"/>
</g>
<g>
</g>
<g>
</g>
<g>
</g>
<g>
</g>
<g>
</g>
<g>
</g>
<g>
</g>
<g>
</g>
<g>
</g>
<g>
</g>
<g>
</g>
<g>
</g>
<g>
</g>
<g>
</g>
<g>
</g>
</svg>
