<?xml version="1.0" encoding="iso-8859-1"?>
<!-- Generator: Adobe Illustrator 17.1.0, SVG Export Plug-In . SVG Version: 6.00 Build 0)  -->
<!DOCTYPE svg PUBLIC "-//W3C//DTD SVG 1.1//EN" "http://www.w3.org/Graphics/SVG/1.1/DTD/svg11.dtd">
<svg version="1.1" id="Capa_1" xmlns="http://www.w3.org/2000/svg" xmlns:xlink="http://www.w3.org/1999/xlink" x="0px" y="0px"
	 viewBox="0 0 325.841 325.841" style="enable-background:new 0 0 325.841 325.841;" xml:space="preserve">
<g>
	<path d="M117.608,189.614c-4.142,0-7.5,3.357-7.5,7.5v27.898c0,4.143,3.358,7.5,7.5,7.5h104.167c4.142,0,7.5-3.357,7.5-7.5v-53.993
		l9.28,9.28c2.929,2.928,7.678,2.928,10.606,0c2.929-2.93,2.929-7.678,0-10.607l-74.167-74.167
		c-1.406-1.406-3.314-2.196-5.303-2.196s-3.897,0.79-5.303,2.196l-74.635,74.636c-2.929,2.93-2.929,7.678,0,10.607
		c1.464,1.464,3.384,2.196,5.303,2.196s3.839-0.732,5.303-2.196l69.332-69.333l44.583,44.583v61.494h-89.167v-20.398
		C125.108,192.971,121.75,189.614,117.608,189.614z"/>
	<path d="M280.633,61.065c-2.941-2.916-7.689-2.896-10.606,0.046c-2.917,2.941-2.896,7.689,0.045,10.606l42.989,42.625
		c2.151,2.132,5.372,2.762,8.166,1.597c2.795-1.164,4.615-3.896,4.615-6.923V40.834c0-4.143-3.358-7.5-7.5-7.5H7.5
		c-4.142,0-7.5,3.357-7.5,7.5v244.174c0,4.143,3.358,7.5,7.5,7.5h310.841c4.142,0,7.5-3.357,7.5-7.5V134.965
		c0-4.143-3.358-7.5-7.5-7.5s-7.5,3.357-7.5,7.5v142.543H15V48.334h295.841v42.685L280.633,61.065z"/>
</g>
<g>
</g>
<g>
</g>
<g>
</g>
<g>
</g>
<g>
</g>
<g>
</g>
<g>
</g>
<g>
</g>
<g>
</g>
<g>
</g>
<g>
</g>
<g>
</g>
<g>
</g>
<g>
</g>
<g>
</g>
</svg>
