<?xml version="1.0" encoding="iso-8859-1"?>
<!-- Generator: Adobe Illustrator 17.1.0, SVG Export Plug-In . SVG Version: 6.00 Build 0)  -->
<!DOCTYPE svg PUBLIC "-//W3C//DTD SVG 1.1//EN" "http://www.w3.org/Graphics/SVG/1.1/DTD/svg11.dtd">
<svg version="1.1" id="Capa_1" xmlns="http://www.w3.org/2000/svg" xmlns:xlink="http://www.w3.org/1999/xlink" x="0px" y="0px"
	 viewBox="0 0 348.711 348.711" style="enable-background:new 0 0 348.711 348.711;" xml:space="preserve">
<path d="M298.888,52.458c-0.314-0.53-0.69-1.034-1.146-1.489c-0.456-0.456-0.959-0.832-1.489-1.146
	C264.792,19.022,221.757,0,174.355,0C78.215,0,0,78.215,0,174.355s78.215,174.355,174.355,174.355s174.355-78.215,174.355-174.355
	C348.711,126.954,329.689,83.919,298.888,52.458z M174.355,333.711c-41.242,0-78.874-15.75-107.2-41.549l25.938-25.938
	c15.168,29.094,45.619,49.005,80.637,49.005c50.03,0,90.747-40.634,90.875-90.634c0.342-5.663,3.715-76.512-39.323-93.728
	c-2.498-0.998-5.339-0.582-7.446,1.089c-2.107,1.672-3.158,4.346-2.753,7.005c2.869,18.863,5.152,68.221-16.314,80.063
	c-2.414-1.81-5.972-5.064-8.628-9.995c-5.924-10.998-4.924-25.152,2.971-42.07c0.415-0.889,0.805-1.79,1.185-2.696
	c0.037-0.085,0.073-0.171,0.106-0.257c8.595-20.739,8.078-46.036-1.552-71.658c-10.135-26.966-28.931-50.367-46.771-58.23
	c-3.246-1.431-7.052-0.392-9.12,2.492s-1.832,6.821,0.564,9.438c0.111,0.121,11.19,12.312,18.208,28.383
	c8.726,19.982,7.042,36.221-5.003,48.267c-10.355,10.355-19.334,22.03-26.69,34.701c-2.08,3.582-0.861,8.172,2.721,10.251
	c3.582,2.079,8.172,0.862,10.251-2.721c6.704-11.548,14.887-22.188,24.324-31.625c11.69-11.689,16.546-26.265,14.464-42.882
	c1.116,2.435,2.124,4.848,3.009,7.205c8.09,21.525,8.838,42.461,2.215,59.454l-81.766,81.766c-0.912-4.694-1.404-9.535-1.404-14.492
	c0-12.459,1-23.12,2.354-31.84c4.348,8.284,9.139,12.694,9.51,13.029c3.078,2.772,7.841,2.545,10.614-0.533
	c2.772-3.077,2.547-7.8-0.531-10.572c-0.497-0.462-12.15-11.555-11.723-32.858c0.071-3.551-2.358-6.665-5.819-7.46
	c-3.457-0.795-7.005,0.945-8.492,4.171c-0.445,0.967-10.914,24.171-10.914,66.063c0,9.342,1.419,18.358,4.049,26.847l-30.354,30.354
	C30.75,253.229,15,215.597,15,174.355C15,86.487,86.487,15,174.355,15c41.242,0,78.874,15.75,107.2,41.549l-56.754,56.754
	c-2.929,2.929-2.929,7.678,0,10.606c1.464,1.464,3.384,2.197,5.303,2.197s3.839-0.732,5.303-2.197l56.754-56.754
	c25.799,28.326,41.549,65.958,41.549,107.2C333.711,262.224,262.224,333.711,174.355,333.711z M194.822,234.24
	c1.796,0.877,3.868,1,5.755,0.344c22.529-7.836,29.17-34.818,30.774-56.073c0.709-9.396,0.545-18.428,0.125-25.679
	c21.051,21.886,18.182,70.462,18.146,71.023c-0.011,0.166-0.017,0.333-0.017,0.499c0,41.838-34.038,75.875-75.876,75.875
	c-1.836,0-3.65-0.089-5.454-0.218c-0.364-0.827-0.878-1.604-1.555-2.281c-22.357-22.357-17.961-45.29-11.277-59.617l6.268,30.259
	c0.455,2.197,1.87,4.075,3.856,5.119c1.987,1.043,4.335,1.142,6.403,0.271l14.93-6.297c-0.618,2.759-1.466,5.352-2.543,7.765
	c-1.688,3.782,0.009,8.217,3.792,9.905c3.783,1.69,8.218-0.009,9.905-3.792c3.37-7.55,5.079-16.197,5.079-25.701
	c0-2.513-1.259-4.86-3.353-6.25c-2.095-1.39-4.746-1.637-7.062-0.661l-18.169,7.663l-8.141-39.304
	c-0.574-2.77-2.657-4.981-5.388-5.719c-2.732-0.737-5.645,0.125-7.535,2.228c-0.444,0.494-10.925,12.294-15.904,29.714
	c-3.807,13.318-4.931,31.969,7.337,51.218c-18.088-7.454-32.675-21.7-40.583-39.549l67.287-67.287
	C168.474,220.87,194.495,234.08,194.822,234.24z"/>
<g>
</g>
<g>
</g>
<g>
</g>
<g>
</g>
<g>
</g>
<g>
</g>
<g>
</g>
<g>
</g>
<g>
</g>
<g>
</g>
<g>
</g>
<g>
</g>
<g>
</g>
<g>
</g>
<g>
</g>
</svg>
