<?xml version="1.0" encoding="iso-8859-1"?>
<!-- Generator: Adobe Illustrator 17.1.0, SVG Export Plug-In . SVG Version: 6.00 Build 0)  -->
<!DOCTYPE svg PUBLIC "-//W3C//DTD SVG 1.1//EN" "http://www.w3.org/Graphics/SVG/1.1/DTD/svg11.dtd">
<svg version="1.1" id="Capa_1" xmlns="http://www.w3.org/2000/svg" xmlns:xlink="http://www.w3.org/1999/xlink" x="0px" y="0px"
	 viewBox="0 0 379.318 379.318" style="enable-background:new 0 0 379.318 379.318;" xml:space="preserve">
<path d="M238.903,0c-4.143,0-7.5,3.357-7.5,7.5v26.551h-65.748c-4.143,0-7.5,3.357-7.5,7.5s3.357,7.5,7.5,7.5h65.748v33.333h-83.488
	V7.5c0-4.143-3.357-7.5-7.5-7.5s-7.5,3.357-7.5,7.5v364.318c0,4.143,3.357,7.5,7.5,7.5s7.5-3.357,7.5-7.5v-32.768h83.488v32.768
	c0,4.143,3.357,7.5,7.5,7.5s7.5-3.357,7.5-7.5V7.5C246.403,3.357,243.046,0,238.903,0z M147.915,145.717h83.488v33.334h-65.748
	c-4.143,0-7.5,3.357-7.5,7.5s3.357,7.5,7.5,7.5h65.748v33.333h-83.488V145.717z M231.403,97.384v33.333h-83.488V97.384H231.403z
	 M147.915,324.051v-33.334h66.747c4.143,0,7.5-3.357,7.5-7.5s-3.357-7.5-7.5-7.5h-66.747v-33.333h83.488v81.667H147.915z"/>
<g>
</g>
<g>
</g>
<g>
</g>
<g>
</g>
<g>
</g>
<g>
</g>
<g>
</g>
<g>
</g>
<g>
</g>
<g>
</g>
<g>
</g>
<g>
</g>
<g>
</g>
<g>
</g>
<g>
</g>
</svg>
