<?xml version="1.0" encoding="iso-8859-1"?>
<!-- Generator: Adobe Illustrator 17.1.0, SVG Export Plug-In . SVG Version: 6.00 Build 0)  -->
<!DOCTYPE svg PUBLIC "-//W3C//DTD SVG 1.1//EN" "http://www.w3.org/Graphics/SVG/1.1/DTD/svg11.dtd">
<svg version="1.1" id="Capa_1" xmlns="http://www.w3.org/2000/svg" xmlns:xlink="http://www.w3.org/1999/xlink" x="0px" y="0px"
	 viewBox="0 0 308.069 308.069" style="enable-background:new 0 0 308.069 308.069;" xml:space="preserve">
<path d="M307.701,287.76L219.349,15.677c-0.021-0.066-0.051-0.128-0.074-0.193c-0.046-0.128-0.093-0.256-0.146-0.381
	c-0.048-0.114-0.099-0.226-0.152-0.337c-0.05-0.104-0.101-0.208-0.156-0.31c-0.064-0.12-0.132-0.237-0.202-0.353
	c-0.054-0.089-0.11-0.177-0.168-0.264c-0.077-0.116-0.157-0.23-0.241-0.341c-0.063-0.084-0.128-0.167-0.195-0.248
	c-0.084-0.103-0.17-0.203-0.259-0.301c-0.078-0.086-0.159-0.17-0.241-0.253c-0.084-0.084-0.17-0.167-0.258-0.247
	c-0.096-0.087-0.195-0.172-0.295-0.254c-0.083-0.068-0.167-0.134-0.253-0.198c-0.11-0.083-0.223-0.162-0.338-0.239
	c-0.087-0.058-0.175-0.114-0.264-0.168c-0.116-0.07-0.234-0.138-0.355-0.203c-0.101-0.054-0.204-0.105-0.307-0.154
	c-0.112-0.053-0.225-0.106-0.341-0.154c-0.122-0.051-0.247-0.097-0.372-0.142c-0.068-0.024-0.132-0.054-0.201-0.077
	c-0.039-0.013-0.078-0.02-0.117-0.032c-0.134-0.041-0.27-0.076-0.407-0.11c-0.106-0.026-0.212-0.054-0.319-0.075
	c-0.13-0.026-0.26-0.045-0.392-0.064c-0.116-0.017-0.231-0.036-0.347-0.047c-0.119-0.012-0.239-0.016-0.358-0.022
	c-0.129-0.007-0.257-0.014-0.385-0.014c-0.107,0-0.214,0.007-0.322,0.012c-0.141,0.006-0.281,0.012-0.42,0.026
	c-0.098,0.01-0.196,0.026-0.294,0.04c-0.148,0.021-0.296,0.043-0.443,0.073c-0.093,0.019-0.185,0.043-0.278,0.066
	c-0.149,0.036-0.298,0.074-0.445,0.12c-0.036,0.011-0.071,0.017-0.106,0.029c-0.063,0.021-0.122,0.048-0.184,0.07
	c-0.134,0.048-0.267,0.097-0.398,0.152c-0.108,0.045-0.214,0.094-0.319,0.144c-0.111,0.053-0.22,0.107-0.329,0.165
	c-0.114,0.061-0.226,0.126-0.336,0.192c-0.095,0.058-0.189,0.117-0.281,0.179c-0.11,0.073-0.218,0.15-0.324,0.229
	c-0.09,0.067-0.179,0.137-0.266,0.209c-0.097,0.08-0.192,0.161-0.285,0.245c-0.091,0.082-0.179,0.167-0.266,0.254
	c-0.081,0.081-0.159,0.162-0.236,0.246c-0.091,0.099-0.178,0.201-0.263,0.306c-0.065,0.08-0.129,0.161-0.191,0.244
	c-0.084,0.113-0.166,0.227-0.244,0.345c-0.057,0.086-0.112,0.172-0.165,0.26c-0.071,0.117-0.139,0.235-0.204,0.356
	c-0.054,0.102-0.105,0.204-0.155,0.308c-0.053,0.111-0.105,0.223-0.153,0.338c-0.052,0.125-0.099,0.253-0.145,0.381
	c-0.023,0.065-0.052,0.127-0.074,0.194l-6.141,18.912H98.351l4.637-14.279c1.279-3.939-0.877-8.17-4.817-9.45
	c-3.939-1.28-8.171,0.877-9.45,4.817L15.452,241.31c-0.007,0.021-0.014,0.042-0.021,0.063L0.369,287.76
	c-1.279,3.939,0.877,8.17,4.817,9.45c0.77,0.25,1.55,0.369,2.318,0.369c3.162,0,6.103-2.016,7.132-5.186l13.416-41.313h76.707
	c4.142,0,7.5-3.358,7.5-7.5s-3.358-7.5-7.5-7.5H32.922l16.645-51.257c0.67,0.197,1.378,0.307,2.112,0.307h98.379L116.73,287.76
	c-1.279,3.939,0.877,8.17,4.817,9.45c0.77,0.25,1.55,0.369,2.318,0.369c3.162,0,6.103-2.016,7.132-5.186l81.218-250.116
	l81.219,250.116c1.029,3.17,3.97,5.186,7.132,5.186c0.768,0,1.548-0.119,2.318-0.369C306.823,295.93,308.98,291.699,307.701,287.76z
	 M54.337,170.129l17.951-55.28h75.522c4.142,0,7.5-3.358,7.5-7.5s-3.358-7.5-7.5-7.5H77.159L93.593,49.24
	c0.714,0.226,1.473,0.349,2.261,0.349h98.216l-39.142,120.54H54.337z"/>
<g>
</g>
<g>
</g>
<g>
</g>
<g>
</g>
<g>
</g>
<g>
</g>
<g>
</g>
<g>
</g>
<g>
</g>
<g>
</g>
<g>
</g>
<g>
</g>
<g>
</g>
<g>
</g>
<g>
</g>
</svg>
