<?xml version="1.0" encoding="iso-8859-1"?>
<!-- Generator: Adobe Illustrator 17.1.0, SVG Export Plug-In . SVG Version: 6.00 Build 0)  -->
<!DOCTYPE svg PUBLIC "-//W3C//DTD SVG 1.1//EN" "http://www.w3.org/Graphics/SVG/1.1/DTD/svg11.dtd">
<svg version="1.1" id="Capa_1" xmlns="http://www.w3.org/2000/svg" xmlns:xlink="http://www.w3.org/1999/xlink" x="0px" y="0px"
	 viewBox="0 0 368.553 368.553" style="enable-background:new 0 0 368.553 368.553;" xml:space="preserve">
<g>
	<path d="M361.053,47.271H7.5c-4.143,0-7.5,3.358-7.5,7.5s3.357,7.5,7.5,7.5h353.553c4.143,0,7.5-3.358,7.5-7.5
		S365.195,47.271,361.053,47.271z"/>
	<path d="M329.276,239.002l-84.165-66.983c-3.24-2.58-7.96-2.043-10.538,1.198c-2.579,3.241-2.043,7.959,1.198,10.539l67.367,53.615
		H65.414l123.532-98.315c0.014-0.011,0.026-0.024,0.04-0.035c0.125-0.101,0.244-0.21,0.362-0.319
		c0.067-0.062,0.138-0.12,0.203-0.184c0.096-0.095,0.184-0.197,0.274-0.296c0.076-0.084,0.157-0.165,0.229-0.252
		c0.063-0.077,0.119-0.159,0.18-0.238c0.088-0.115,0.179-0.228,0.259-0.347c0.047-0.07,0.087-0.145,0.131-0.216
		c0.083-0.133,0.169-0.264,0.243-0.4c0.324-0.594,0.563-1.239,0.717-1.916c0.009-0.038,0.021-0.075,0.029-0.114
		c0.03-0.143,0.048-0.289,0.07-0.434c0.015-0.1,0.035-0.199,0.046-0.3c0.012-0.112,0.015-0.226,0.022-0.339
		c0.009-0.138,0.02-0.276,0.021-0.415c0-0.021,0.003-0.042,0.003-0.063V83.229c0-4.142-3.357-7.5-7.5-7.5s-7.5,3.358-7.5,7.5v46.342
		l-137.5,109.431c-2.495,1.985-3.462,5.332-2.41,8.342s3.892,5.026,7.08,5.026h280.66c3.188,0,6.028-2.016,7.08-5.026
		S331.771,240.987,329.276,239.002z"/>
	<path d="M231.276,260.435c-3.823,0-6.923,3.1-6.923,6.923c0,22.099-17.979,40.077-40.077,40.077s-40.077-17.978-40.077-40.077
		c0-3.824-3.1-6.923-6.923-6.923s-6.923,3.1-6.923,6.923c0,29.733,24.189,53.923,53.923,53.923s53.923-24.19,53.923-53.923
		C238.199,263.535,235.1,260.435,231.276,260.435z"/>
</g>
<g>
</g>
<g>
</g>
<g>
</g>
<g>
</g>
<g>
</g>
<g>
</g>
<g>
</g>
<g>
</g>
<g>
</g>
<g>
</g>
<g>
</g>
<g>
</g>
<g>
</g>
<g>
</g>
<g>
</g>
</svg>
