<?xml version="1.0" encoding="iso-8859-1"?>
<!-- Generator: Adobe Illustrator 17.1.0, SVG Export Plug-In . SVG Version: 6.00 Build 0)  -->
<!DOCTYPE svg PUBLIC "-//W3C//DTD SVG 1.1//EN" "http://www.w3.org/Graphics/SVG/1.1/DTD/svg11.dtd">
<svg version="1.1" id="Capa_1" xmlns="http://www.w3.org/2000/svg" xmlns:xlink="http://www.w3.org/1999/xlink" x="0px" y="0px"
	 viewBox="0 0 331.406 331.406" style="enable-background:new 0 0 331.406 331.406;" xml:space="preserve">
<g>
	<path d="M221.953,258.073h-112.5c-4.143,0-7.5,3.358-7.5,7.5s3.357,7.5,7.5,7.5h112.5c4.143,0,7.5-3.358,7.5-7.5
		S226.096,258.073,221.953,258.073z"/>
	<path d="M221.953,287.24h-112.5c-4.143,0-7.5,3.358-7.5,7.5s3.357,7.5,7.5,7.5h112.5c4.143,0,7.5-3.358,7.5-7.5
		S226.096,287.24,221.953,287.24z"/>
	<path d="M206.944,316.406h-82.482c-4.143,0-7.5,3.358-7.5,7.5s3.357,7.5,7.5,7.5h82.482c4.143,0,7.5-3.358,7.5-7.5
		S211.087,316.406,206.944,316.406z"/>
	<path d="M194.109,0h-0.563c-11.299,0-21.369,5.336-27.844,13.614C159.229,5.336,149.158,0,137.859,0h-0.563
		c-19.488,0-35.344,15.855-35.344,35.344v127.359c0,4.142,3.357,7.5,7.5,7.5s7.5-3.358,7.5-7.5V35.344
		c0-11.218,9.126-20.344,20.344-20.344h0.563c11.218,0,20.344,9.126,20.344,20.344v170.591h-48.75c-4.143,0-7.5,3.358-7.5,7.5
		v23.098c0,4.142,3.357,7.5,7.5,7.5h112.5c4.143,0,7.5-3.358,7.5-7.5v-23.098V35.344C229.453,15.855,213.598,0,194.109,0z
		 M173.203,35.344c0-11.218,9.126-20.344,20.344-20.344h0.563c11.218,0,20.344,9.126,20.344,20.344v170.591h-41.25V35.344z
		 M214.453,229.032h-97.5v-8.098h48.75h48.75V229.032z"/>
</g>
<g>
</g>
<g>
</g>
<g>
</g>
<g>
</g>
<g>
</g>
<g>
</g>
<g>
</g>
<g>
</g>
<g>
</g>
<g>
</g>
<g>
</g>
<g>
</g>
<g>
</g>
<g>
</g>
<g>
</g>
</svg>
