<?xml version="1.0" encoding="iso-8859-1"?>
<!-- Generator: Adobe Illustrator 17.1.0, SVG Export Plug-In . SVG Version: 6.00 Build 0)  -->
<!DOCTYPE svg PUBLIC "-//W3C//DTD SVG 1.1//EN" "http://www.w3.org/Graphics/SVG/1.1/DTD/svg11.dtd">
<svg version="1.1" id="Capa_1" xmlns="http://www.w3.org/2000/svg" xmlns:xlink="http://www.w3.org/1999/xlink" x="0px" y="0px"
	 viewBox="0 0 324.276 324.276" style="enable-background:new 0 0 324.276 324.276;" xml:space="preserve">
<g>
	<path d="M162.138,0C96.363,0,42.851,53.512,42.851,119.287c0,28.278,10.076,55.697,28.372,77.207
		c18.081,21.257,43.107,35.569,70.471,40.299c2.18,0.379,4.415-0.228,6.107-1.653c1.693-1.425,2.67-3.525,2.67-5.737v-70.137
		c0-2.883-1.653-5.512-4.252-6.76c-12.928-6.211-20.959-18.939-20.959-33.218c0-20.335,16.543-36.878,36.878-36.878
		c8.589,0,16.951,3.017,23.546,8.494c3.185,2.646,7.914,2.209,10.562-0.978c2.646-3.187,2.209-7.915-0.978-10.562
		c-9.282-7.709-21.048-11.955-33.13-11.955c-28.605,0-51.878,23.272-51.878,51.878c0,18.179,9.755,35.136,25.211,44.443v56.378
		c-45.476-11.915-77.62-52.977-77.62-100.821C57.851,61.783,104.634,15,162.138,15s104.287,46.783,104.287,104.287
		c0,47.844-32.145,88.907-77.62,100.821V163.73c15.456-9.307,25.211-26.265,25.211-44.443c0-4.142-3.357-7.5-7.5-7.5
		s-7.5,3.358-7.5,7.5c0,14.279-8.031,27.007-20.959,33.218c-2.599,1.249-4.252,3.877-4.252,6.76v70.137
		c0,2.212,0.977,4.312,2.67,5.737c1.362,1.147,3.076,1.763,4.83,1.763c0.425,0,0.853-0.036,1.277-0.11
		c27.363-4.73,52.39-19.042,70.471-40.299c18.296-21.51,28.372-48.929,28.372-77.207C281.425,53.512,227.914,0,162.138,0z"/>
	<path d="M218.388,250.943h-112.5c-4.143,0-7.5,3.358-7.5,7.5s3.357,7.5,7.5,7.5h112.5c4.143,0,7.5-3.358,7.5-7.5
		S222.531,250.943,218.388,250.943z"/>
	<path d="M218.388,280.11h-112.5c-4.143,0-7.5,3.358-7.5,7.5s3.357,7.5,7.5,7.5h112.5c4.143,0,7.5-3.358,7.5-7.5
		S222.531,280.11,218.388,280.11z"/>
	<path d="M203.379,309.276h-82.482c-4.143,0-7.5,3.358-7.5,7.5s3.357,7.5,7.5,7.5h82.482c4.143,0,7.5-3.358,7.5-7.5
		S207.522,309.276,203.379,309.276z"/>
</g>
<g>
</g>
<g>
</g>
<g>
</g>
<g>
</g>
<g>
</g>
<g>
</g>
<g>
</g>
<g>
</g>
<g>
</g>
<g>
</g>
<g>
</g>
<g>
</g>
<g>
</g>
<g>
</g>
<g>
</g>
</svg>
