<?xml version="1.0" encoding="iso-8859-1"?>
<!-- Generator: Adobe Illustrator 17.1.0, SVG Export Plug-In . SVG Version: 6.00 Build 0)  -->
<!DOCTYPE svg PUBLIC "-//W3C//DTD SVG 1.1//EN" "http://www.w3.org/Graphics/SVG/1.1/DTD/svg11.dtd">
<svg version="1.1" id="Capa_1" xmlns="http://www.w3.org/2000/svg" xmlns:xlink="http://www.w3.org/1999/xlink" x="0px" y="0px"
	 viewBox="0 0 264.348 264.348" style="enable-background:new 0 0 264.348 264.348;" xml:space="preserve">
<path d="M256.848,162.007c4.143,0,7.5-3.357,7.5-7.5v-22.289c0-72.193-58.733-130.928-130.927-130.928h-2.494
	C58.733,1.29,0,60.024,0,132.218v123.34c0,4.143,3.357,7.5,7.5,7.5H60c4.143,0,7.5-3.357,7.5-7.5v-121.97
	c0-35.264,28.688-63.953,63.952-63.953h1.443c35.264,0,63.952,28.688,63.952,63.952v121.971c0,4.143,3.357,7.5,7.5,7.5h52.5
	c4.143,0,7.5-3.357,7.5-7.5v-51.586c0-4.143-3.357-7.5-7.5-7.5c-0.192,0-0.38,0.015-0.569,0.029
	c-0.188-0.014-0.377-0.029-0.569-0.029h-43.862v-62.885c0-43.534-35.418-78.952-78.952-78.952h-1.443
	c-43.534,0-78.952,35.418-78.952,78.953v114.47H15v-36.586h18.274c4.143,0,7.5-3.357,7.5-7.5s-3.357-7.5-7.5-7.5H15v-64.254
	C15,68.295,67.005,16.29,130.927,16.29h2.494c63.922,0,115.927,52.005,115.927,115.928v22.289
	C249.348,158.649,252.705,162.007,256.848,162.007z M249.348,211.472v36.586h-37.5v-36.586H249.348z"/>
<g>
</g>
<g>
</g>
<g>
</g>
<g>
</g>
<g>
</g>
<g>
</g>
<g>
</g>
<g>
</g>
<g>
</g>
<g>
</g>
<g>
</g>
<g>
</g>
<g>
</g>
<g>
</g>
<g>
</g>
</svg>
