<?xml version="1.0" encoding="iso-8859-1"?>
<!-- Generator: Adobe Illustrator 17.1.0, SVG Export Plug-In . SVG Version: 6.00 Build 0)  -->
<!DOCTYPE svg PUBLIC "-//W3C//DTD SVG 1.1//EN" "http://www.w3.org/Graphics/SVG/1.1/DTD/svg11.dtd">
<svg version="1.1" id="Capa_1" xmlns="http://www.w3.org/2000/svg" xmlns:xlink="http://www.w3.org/1999/xlink" x="0px" y="0px"
	 viewBox="0 0 324.442 324.442" style="enable-background:new 0 0 324.442 324.442;" xml:space="preserve">
<g>
	<path d="M119.721,86.223c-46.646,0-84.596,37.949-84.596,84.596s37.95,84.596,84.596,84.596s84.596-37.949,84.596-84.596
		c0-23.648-10.003-46.382-27.443-62.371c-3.054-2.8-7.798-2.594-10.597,0.46c-2.799,3.054-2.593,7.798,0.46,10.597
		c14.35,13.155,22.58,31.859,22.58,51.314c0,38.375-31.221,69.596-69.596,69.596s-69.596-31.221-69.596-69.596
		s31.221-69.596,69.596-69.596c4.142,0,7.5-3.357,7.5-7.5S123.863,86.223,119.721,86.223z"/>
	<path d="M148.193,139.68c-1.161-2.803-3.896-4.63-6.929-4.63H97.221c-4.142,0-7.5,3.357-7.5,7.5s3.358,7.5,7.5,7.5h25.936
		l-8.739,8.739c-2.145,2.146-2.787,5.371-1.626,8.174c1.161,2.803,3.896,4.63,6.929,4.63c8.271,0,15,6.729,15,15s-6.729,15-15,15
		s-15-6.729-15-15c0-4.143-3.358-7.5-7.5-7.5s-7.5,3.357-7.5,7.5c0,16.542,13.458,30,30,30s30-13.458,30-30
		c0-11.322-6.305-21.199-15.588-26.306l12.434-12.434C148.712,145.708,149.354,142.483,148.193,139.68z"/>
	<path d="M316.942,212.654h-27.5c-4.142,0-7.5,3.357-7.5,7.5v35.625h-42.5v-88.188c0-44.467-24.604-83.29-60.909-103.589
		l9.888-9.888l43.31,43.311l-1.82,1.819c-2.929,2.93-2.929,7.678,0,10.607c1.464,1.464,3.384,2.196,5.303,2.196
		s3.839-0.732,5.303-2.196l7.123-7.123c2.929-2.93,2.929-7.678,0-10.607l-53.917-53.917c-2.929-2.927-7.678-2.929-10.606,0
		l-18.974,18.973c-13.421-5.281-28.028-8.185-43.301-8.185h-2.244C53.203,48.992,0,102.196,0,167.591v61.354
		c0,4.143,3.358,7.5,7.5,7.5s7.5-3.357,7.5-7.5v-61.354c0-57.124,46.475-103.599,103.599-103.599h2.244
		c57.125,0,103.599,46.475,103.599,103.599v105.843H7.5c-4.142,0-7.5,3.357-7.5,7.5s3.358,7.5,7.5,7.5h224.442
		c4.142,0,7.5-3.357,7.5-7.5v-10.155h50h27.5c4.142,0,7.5-3.357,7.5-7.5v-43.125C324.442,216.011,321.084,212.654,316.942,212.654z
		 M309.442,255.779h-12.5v-28.125h12.5V255.779z"/>
</g>
<g>
</g>
<g>
</g>
<g>
</g>
<g>
</g>
<g>
</g>
<g>
</g>
<g>
</g>
<g>
</g>
<g>
</g>
<g>
</g>
<g>
</g>
<g>
</g>
<g>
</g>
<g>
</g>
<g>
</g>
</svg>
