<?xml version="1.0" encoding="iso-8859-1"?>
<!-- Generator: Adobe Illustrator 17.1.0, SVG Export Plug-In . SVG Version: 6.00 Build 0)  -->
<!DOCTYPE svg PUBLIC "-//W3C//DTD SVG 1.1//EN" "http://www.w3.org/Graphics/SVG/1.1/DTD/svg11.dtd">
<svg version="1.1" id="Capa_1" xmlns="http://www.w3.org/2000/svg" xmlns:xlink="http://www.w3.org/1999/xlink" x="0px" y="0px"
	 viewBox="0 0 351.327 351.327" style="enable-background:new 0 0 351.327 351.327;" xml:space="preserve">
<g>
	<path d="M263.807,108.461l-33.977-13.154V61.25c0-4.142-3.357-7.5-7.5-7.5h-17.334c-4.143,0-7.5,3.358-7.5,7.5s3.357,7.5,7.5,7.5
		h9.834v31.696c0,3.097,1.904,5.876,4.792,6.994l33.977,13.154v158.243c0,4.142,3.357,7.5,7.5,7.5s7.5-3.358,7.5-7.5V115.456
		C268.599,112.358,266.695,109.58,263.807,108.461z"/>
	<path d="M224.83,297.342l-10.987,8.475h-75.162l-40.953-30.728V120.594l33.977-13.154c2.888-1.118,4.792-3.897,4.792-6.994V68.75
		h31.667v12.212c-11.528,3.274-20,13.889-20,26.452c0,15.164,12.337,27.5,27.5,27.5s27.5-12.336,27.5-27.5
		c0-12.563-8.472-23.178-20-26.452V7.5c0-4.142-3.357-7.5-7.5-7.5s-7.5,3.358-7.5,7.5v46.25h-39.167c-4.143,0-7.5,3.358-7.5,7.5
		v34.058L87.52,108.461c-2.888,1.118-4.792,3.897-4.792,6.994v163.382c0,2.36,1.111,4.583,2.999,5.999l86.616,64.99
		c1.334,1.001,2.918,1.501,4.501,1.501c1.616,0,3.232-0.521,4.581-1.562l52.566-40.547c3.279-2.53,3.888-7.239,1.357-10.519
		C232.819,295.419,228.108,294.812,224.83,297.342z M188.164,107.414c0,6.893-5.607,12.5-12.5,12.5s-12.5-5.607-12.5-12.5
		c0-4.077,1.971-7.693,5-9.976v6.313c0,4.142,3.357,7.5,7.5,7.5s7.5-3.358,7.5-7.5v-6.313
		C186.193,99.72,188.164,103.337,188.164,107.414z M176.782,334.404l-18.109-13.587h35.724L176.782,334.404z"/>
	<path d="M110.254,186.25v73.854c0,4.142,3.357,7.5,7.5,7.5s7.5-3.358,7.5-7.5V186.25c0-4.142-3.357-7.5-7.5-7.5
		S110.254,182.108,110.254,186.25z"/>
</g>
<g>
</g>
<g>
</g>
<g>
</g>
<g>
</g>
<g>
</g>
<g>
</g>
<g>
</g>
<g>
</g>
<g>
</g>
<g>
</g>
<g>
</g>
<g>
</g>
<g>
</g>
<g>
</g>
<g>
</g>
</svg>
