<?xml version="1.0" encoding="iso-8859-1"?>
<!-- Generator: Adobe Illustrator 17.1.0, SVG Export Plug-In . SVG Version: 6.00 Build 0)  -->
<!DOCTYPE svg PUBLIC "-//W3C//DTD SVG 1.1//EN" "http://www.w3.org/Graphics/SVG/1.1/DTD/svg11.dtd">
<svg version="1.1" id="Capa_1" xmlns="http://www.w3.org/2000/svg" xmlns:xlink="http://www.w3.org/1999/xlink" x="0px" y="0px"
	 viewBox="0 0 339.41 339.41" style="enable-background:new 0 0 339.41 339.41;" xml:space="preserve">
<path d="M261.193,105.047H202.79V27.052c0-6.646,5.406-12.052,12.052-12.052h0.395c6.646,0,12.052,5.406,12.052,12.052v59.479
	c0,4.142,3.358,7.5,7.5,7.5s7.5-3.358,7.5-7.5V27.052C242.288,12.135,230.153,0,215.236,0h-0.395
	c-14.917,0-27.052,12.135-27.052,27.052v77.995h-36.169V27.052C151.621,12.135,139.485,0,124.569,0h-0.395
	c-14.917,0-27.052,12.135-27.052,27.052v77.995H78.217c-4.142,0-7.5,3.358-7.5,7.5v49.288c0,45.283,30.851,83.489,72.636,94.721
	v75.355c0,4.142,3.358,7.5,7.5,7.5s7.5-3.358,7.5-7.5v-72.559c3.43,0.365,6.911,0.556,10.437,0.556h1.83
	c3.525,0,7.006-0.191,10.437-0.556v72.559c0,4.142,3.358,7.5,7.5,7.5s7.5-3.358,7.5-7.5v-75.355
	c41.785-11.232,72.636-49.438,72.636-94.721v-49.288C268.693,108.405,265.335,105.047,261.193,105.047z M112.122,27.052
	c0-6.646,5.406-12.052,12.052-12.052h0.395c6.646,0,12.052,5.406,12.052,12.052v77.995h-24.499V27.052z M253.693,161.834
	c0,45.807-37.266,83.073-83.073,83.073h-1.83c-45.807,0-83.073-37.266-83.073-83.073v-41.788h18.905h39.499h109.572V161.834z"/>
<g>
</g>
<g>
</g>
<g>
</g>
<g>
</g>
<g>
</g>
<g>
</g>
<g>
</g>
<g>
</g>
<g>
</g>
<g>
</g>
<g>
</g>
<g>
</g>
<g>
</g>
<g>
</g>
<g>
</g>
</svg>
