<?xml version="1.0" encoding="iso-8859-1"?>
<!-- Generator: Adobe Illustrator 17.1.0, SVG Export Plug-In . SVG Version: 6.00 Build 0)  -->
<!DOCTYPE svg PUBLIC "-//W3C//DTD SVG 1.1//EN" "http://www.w3.org/Graphics/SVG/1.1/DTD/svg11.dtd">
<svg version="1.1" id="Capa_1" xmlns="http://www.w3.org/2000/svg" xmlns:xlink="http://www.w3.org/1999/xlink" x="0px" y="0px"
	 viewBox="0 0 361.086 361.086" style="enable-background:new 0 0 361.086 361.086;" xml:space="preserve">
<g>
	<path d="M195.397,193.476c-0.037-0.429-0.109-0.846-0.215-1.248v-3.324c0-15.844-12.89-28.733-28.733-28.733h-0.43
		c-15.844,0-28.733,12.89-28.733,28.733v3.323c-0.105,0.403-0.178,0.82-0.215,1.248c-1.022,11.753-6.379,22.647-15.082,30.675
		c-8.753,8.075-20.138,12.521-32.057,12.521h-1.108c-26.11,0-47.354-21.243-47.354-47.354v-64.902h211.572
		c4.143,0,7.5-3.357,7.5-7.5s-3.357-7.5-7.5-7.5H33.971c-4.143,0-7.5,3.357-7.5,7.5v72.402c0,0.577,0.028,1.148,0.044,1.722H15
		v-44.814c0-4.143-3.357-7.5-7.5-7.5s-7.5,3.357-7.5,7.5v52.314c0,4.143,3.357,7.5,7.5,7.5h21.266
		c7.328,26.284,31.469,45.632,60.058,45.632h1.108c15.699,0,30.696-5.858,42.228-16.495c10.966-10.115,17.895-23.692,19.65-38.416
		c0.308-0.819,0.476-1.707,0.476-2.635v-5.222c0-7.572,6.161-13.733,13.733-13.733h0.43c7.572,0,13.733,6.161,13.733,13.733v5.222
		c0,0.927,0.168,1.815,0.476,2.635c1.34,11.24,5.701,21.861,12.678,30.83c2.544,3.271,7.258,3.857,10.524,1.315
		c3.27-2.543,3.858-7.256,1.315-10.524C199.568,211.173,196.188,202.561,195.397,193.476z"/>
	<path d="M63.198,137.088c-4.143,0-7.5,3.357-7.5,7.5v40.913c0,21.228,17.27,38.497,38.497,38.497h0.626c4.143,0,7.5-3.357,7.5-7.5
		s-3.357-7.5-7.5-7.5h-0.626c-12.956,0-23.497-10.541-23.497-23.497v-40.913C70.698,140.445,67.341,137.088,63.198,137.088z"/>
	<path d="M353.586,138.725h-19.606v-21.81c0-4.143-3.357-7.5-7.5-7.5s-7.5,3.357-7.5,7.5v29.31v3.938h-12.981v-33.248
		c0-4.143-3.357-7.5-7.5-7.5s-7.5,3.357-7.5,7.5v72.402c0,26.11-21.243,47.354-47.354,47.354h-1.108c-4.143,0-7.5,3.357-7.5,7.5
		s3.357,7.5,7.5,7.5h1.108h26.873h1.108c28.589,0,52.729-19.348,60.058-45.632h21.902c4.143,0,7.5-3.357,7.5-7.5v-52.314
		C361.086,142.082,357.729,138.725,353.586,138.725z M318.979,165.163v16.994h-12.981v-16.994H318.979z M286.958,234.109
		c9.954-9.628,16.711-22.528,18.53-36.952h12.831C315.428,214.423,303.168,228.545,286.958,234.109z M346.086,191.039h-12.106
		v-1.722v-35.593h12.106V191.039z"/>
</g>
<g>
</g>
<g>
</g>
<g>
</g>
<g>
</g>
<g>
</g>
<g>
</g>
<g>
</g>
<g>
</g>
<g>
</g>
<g>
</g>
<g>
</g>
<g>
</g>
<g>
</g>
<g>
</g>
<g>
</g>
</svg>
