<?xml version="1.0" encoding="iso-8859-1"?>
<!-- Generator: Adobe Illustrator 17.1.0, SVG Export Plug-In . SVG Version: 6.00 Build 0)  -->
<!DOCTYPE svg PUBLIC "-//W3C//DTD SVG 1.1//EN" "http://www.w3.org/Graphics/SVG/1.1/DTD/svg11.dtd">
<svg version="1.1" id="Capa_1" xmlns="http://www.w3.org/2000/svg" xmlns:xlink="http://www.w3.org/1999/xlink" x="0px" y="0px"
	 viewBox="0 0 350.109 350.109" style="enable-background:new 0 0 350.109 350.109;" xml:space="preserve">
<g>
	<path d="M300.055,300.555c4.142,0,7.5-3.357,7.5-7.5V153.026c0-22.879-5.978-45.406-17.286-65.148
		c-10.263-17.916-24.715-33.261-41.958-44.601V33.73C248.311,15.132,233.179,0,214.58,0h-21.116
		c-14.601,0-27.061,9.327-31.745,22.334C94.492,28.458,42.555,84.896,42.555,153.026v70.417c0,4.143,3.358,7.5,7.5,7.5h40.472
		v111.666c0,4.143,3.358,7.5,7.5,7.5h202.028c4.142,0,7.5-3.357,7.5-7.5s-3.358-7.5-7.5-7.5H105.526V223.443
		c0-4.143-3.358-7.5-7.5-7.5H57.555v-62.917c0-59.205,44.277-108.443,102.179-115.403v99.293
		c-8.243,9.887-13.211,22.594-13.211,36.443v21.834c0,31.43,25.57,57,57,57h1c31.43,0,57-25.57,57-57v-21.834
		c0-31.43-25.57-57-57-57h-1c-10.497,0-20.333,2.864-28.789,7.835V33.73c0-10.328,8.403-18.73,18.731-18.73h21.116
		c10.328,0,18.731,8.402,18.731,18.73v63.851c0,4.143,3.358,7.5,7.5,7.5s7.5-3.357,7.5-7.5V61.745
		c27.925,21.945,44.244,55.156,44.244,91.281v140.028C292.555,297.197,295.913,300.555,300.055,300.555z M204.522,131.359
		c23.159,0,42,18.841,42,42v21.834c0,23.159-18.841,42-42,42h-1c-23.159,0-42-18.841-42-42v-21.834c0-23.159,18.841-42,42-42
		H204.522z"/>
	<path d="M109.301,107.91c-11.641,0-21.112,9.471-21.112,21.112v18.191c0,11.642,9.471,21.112,21.112,21.112h0.275
		c11.642,0,21.113-9.471,21.113-21.112v-18.191c0-11.642-9.471-21.112-21.113-21.112H109.301z M115.689,129.022v18.191
		c0,3.37-2.742,6.112-6.113,6.112h-0.275c-3.37,0-6.112-2.742-6.112-6.112v-18.191c0-3.37,2.742-6.112,6.112-6.112h0.275
		C112.947,122.91,115.689,125.652,115.689,129.022z"/>
</g>
<g>
</g>
<g>
</g>
<g>
</g>
<g>
</g>
<g>
</g>
<g>
</g>
<g>
</g>
<g>
</g>
<g>
</g>
<g>
</g>
<g>
</g>
<g>
</g>
<g>
</g>
<g>
</g>
<g>
</g>
</svg>
