<?xml version="1.0" encoding="iso-8859-1"?>
<!-- Generator: Adobe Illustrator 17.1.0, SVG Export Plug-In . SVG Version: 6.00 Build 0)  -->
<!DOCTYPE svg PUBLIC "-//W3C//DTD SVG 1.1//EN" "http://www.w3.org/Graphics/SVG/1.1/DTD/svg11.dtd">
<svg version="1.1" id="Capa_1" xmlns="http://www.w3.org/2000/svg" xmlns:xlink="http://www.w3.org/1999/xlink" x="0px" y="0px"
	 viewBox="0 0 364.41 364.41" style="enable-background:new 0 0 364.41 364.41;" xml:space="preserve">
<path d="M226.936,0h-89.462c-4.142,0-7.5,3.357-7.5,7.5v150.688c0,2.529,1.275,4.889,3.391,6.274l29.632,19.407v26.336
	c0,4.143,3.358,7.5,7.5,7.5s7.5-3.357,7.5-7.5v-30.39c0-2.529-1.275-4.889-3.391-6.274l-5.839-3.824l40.138-40.138
	c2.929-2.93,2.929-7.678,0-10.607l-16.362-16.362l16.362-16.362c2.929-2.93,2.929-7.678,0-10.607l-16.362-16.362l16.362-16.362
	c2.929-2.93,2.929-7.678,0-10.607c-2.929-2.928-7.678-2.928-10.606,0L181.936,48.67l-16.363-16.363
	c-2.929-2.928-7.678-2.928-10.606,0c-2.929,2.93-2.929,7.678,0,10.607l16.362,16.362L154.966,75.64
	c-2.929,2.93-2.929,7.678,0,10.607l16.363,16.362l-16.363,16.362c-2.929,2.93-2.929,7.678,0,10.607
	c1.464,1.464,3.384,2.196,5.303,2.196s3.839-0.732,5.303-2.196l16.363-16.363l11.059,11.059l-37.046,37.046l-10.975-7.188V15h74.462
	v139.134l-29.632,19.407c-2.116,1.386-3.391,3.745-3.391,6.274v46.132h-32.27c-4.142,0-7.5,3.357-7.5,7.5v25.167v70.515
	c0,19.454,15.827,35.281,35.281,35.281h0.562c19.454,0,35.281-15.827,35.281-35.281v-70.515v-25.167c0-4.143-3.358-7.5-7.5-7.5
	h-8.853v-42.078l29.632-19.407c2.116-1.386,3.391-3.745,3.391-6.274V7.5C234.436,3.357,231.078,0,226.936,0z M170.876,80.943
	l11.06-11.06l11.06,11.06l-11.06,11.06L170.876,80.943z M202.767,258.614v70.515c0,11.184-9.098,20.281-20.281,20.281h-0.562
	c-11.183,0-20.281-9.098-20.281-20.281v-63.015h24.311c4.142,0,7.5-3.357,7.5-7.5s-3.358-7.5-7.5-7.5h-24.311v-10.167h41.123
	V258.614z"/>
<g>
</g>
<g>
</g>
<g>
</g>
<g>
</g>
<g>
</g>
<g>
</g>
<g>
</g>
<g>
</g>
<g>
</g>
<g>
</g>
<g>
</g>
<g>
</g>
<g>
</g>
<g>
</g>
<g>
</g>
</svg>
