<?xml version="1.0" encoding="iso-8859-1"?>
<!-- Generator: Adobe Illustrator 17.1.0, SVG Export Plug-In . SVG Version: 6.00 Build 0)  -->
<!DOCTYPE svg PUBLIC "-//W3C//DTD SVG 1.1//EN" "http://www.w3.org/Graphics/SVG/1.1/DTD/svg11.dtd">
<svg version="1.1" id="Capa_1" xmlns="http://www.w3.org/2000/svg" xmlns:xlink="http://www.w3.org/1999/xlink" x="0px" y="0px"
	 viewBox="0 0 368.554 368.554" style="enable-background:new 0 0 368.554 368.554;" xml:space="preserve">
<g>
	<path d="M292.193,330.165h-21.25V229.277c0-4.142-3.358-7.5-7.5-7.5s-7.5,3.358-7.5,7.5v100.888h-21.25c-4.142,0-7.5,3.358-7.5,7.5
		s3.358,7.5,7.5,7.5h57.5c4.142,0,7.5-3.358,7.5-7.5S296.335,330.165,292.193,330.165z"/>
	<path d="M368.516,30.147c-0.01-0.106-0.031-0.21-0.045-0.315c-0.019-0.137-0.036-0.275-0.063-0.411
		c-0.024-0.122-0.058-0.24-0.088-0.36c-0.029-0.117-0.055-0.235-0.09-0.351c-0.036-0.118-0.08-0.231-0.121-0.347
		c-0.041-0.116-0.08-0.232-0.127-0.346c-0.045-0.108-0.098-0.212-0.147-0.317c-0.055-0.116-0.106-0.233-0.167-0.347
		c-0.055-0.103-0.118-0.2-0.177-0.3c-0.066-0.11-0.128-0.222-0.2-0.329c-0.075-0.112-0.158-0.217-0.239-0.324
		c-0.066-0.088-0.127-0.179-0.198-0.264c-0.314-0.383-0.665-0.734-1.048-1.047c-0.083-0.069-0.172-0.128-0.257-0.192
		c-0.11-0.083-0.218-0.168-0.332-0.244c-0.104-0.069-0.211-0.129-0.317-0.193c-0.104-0.062-0.206-0.127-0.313-0.185
		c-0.108-0.058-0.219-0.107-0.329-0.159c-0.112-0.053-0.221-0.108-0.336-0.156c-0.107-0.044-0.216-0.08-0.324-0.119
		c-0.122-0.044-0.243-0.091-0.369-0.129c-0.107-0.032-0.216-0.056-0.325-0.083c-0.129-0.033-0.256-0.069-0.387-0.095
		c-0.122-0.024-0.245-0.038-0.367-0.056c-0.12-0.018-0.237-0.04-0.359-0.052c-0.216-0.021-0.432-0.03-0.648-0.033
		c-0.03,0-0.059-0.005-0.089-0.005H7.5c-4.142,0-7.5,3.358-7.5,7.5v166.664c0,0.248,0.013,0.496,0.037,0.744
		c0.01,0.107,0.031,0.21,0.046,0.315c0.019,0.137,0.036,0.274,0.063,0.41c0.024,0.122,0.058,0.241,0.088,0.361
		c0.029,0.117,0.055,0.235,0.09,0.351c0.036,0.119,0.08,0.233,0.122,0.349c0.041,0.115,0.079,0.23,0.126,0.344
		c0.045,0.109,0.098,0.213,0.148,0.319c0.054,0.116,0.106,0.232,0.166,0.346c0.055,0.103,0.118,0.201,0.178,0.301
		c0.065,0.11,0.127,0.221,0.199,0.327c0.075,0.112,0.159,0.218,0.24,0.326c0.066,0.088,0.127,0.178,0.197,0.263
		c0.314,0.383,0.665,0.734,1.048,1.047c0.083,0.068,0.171,0.127,0.256,0.191c0.11,0.083,0.219,0.168,0.334,0.245
		c0.104,0.069,0.211,0.129,0.318,0.193c0.104,0.062,0.205,0.127,0.312,0.184c0.11,0.059,0.223,0.108,0.335,0.161
		c0.109,0.052,0.217,0.106,0.329,0.153c0.11,0.046,0.223,0.082,0.335,0.122c0.119,0.043,0.236,0.088,0.358,0.125
		c0.112,0.034,0.227,0.059,0.34,0.087c0.124,0.031,0.246,0.066,0.372,0.091c0.131,0.026,0.263,0.041,0.394,0.06
		c0.111,0.016,0.219,0.037,0.331,0.048c0.246,0.024,0.493,0.037,0.74,0.037h90.943v125.11h-21.25c-4.142,0-7.5,3.358-7.5,7.5
		s3.358,7.5,7.5,7.5h57.5c4.142,0,7.5-3.358,7.5-7.5s-3.358-7.5-7.5-7.5h-21.25v-125.11h247.61c4.142,0,7.5-3.358,7.5-7.5V30.891
		C368.554,30.643,368.541,30.395,368.516,30.147z M25.607,190.055L177.273,38.389h72.23L123.416,164.476
		c-2.929,2.929-2.929,7.678,0,10.606c1.464,1.464,3.384,2.197,5.303,2.197s3.839-0.732,5.303-2.197L270.717,38.389h72.23
		L191.28,190.055H25.607z M15,111.813l73.425-73.425h67.636L15,179.449V111.813z M67.212,38.389L15,90.601V38.389H67.212z
		 M299.99,190.055l41.033-41.032c2.929-2.929,2.929-7.678,0-10.606c-2.929-2.929-7.678-2.929-10.606,0l-51.639,51.639h-66.284
		l141.06-141.06v141.06H299.99z"/>
</g>
<g>
</g>
<g>
</g>
<g>
</g>
<g>
</g>
<g>
</g>
<g>
</g>
<g>
</g>
<g>
</g>
<g>
</g>
<g>
</g>
<g>
</g>
<g>
</g>
<g>
</g>
<g>
</g>
<g>
</g>
</svg>
