<?xml version="1.0" encoding="iso-8859-1"?>
<!-- Generator: Adobe Illustrator 17.1.0, SVG Export Plug-In . SVG Version: 6.00 Build 0)  -->
<!DOCTYPE svg PUBLIC "-//W3C//DTD SVG 1.1//EN" "http://www.w3.org/Graphics/SVG/1.1/DTD/svg11.dtd">
<svg version="1.1" id="Capa_1" xmlns="http://www.w3.org/2000/svg" xmlns:xlink="http://www.w3.org/1999/xlink" x="0px" y="0px"
	 viewBox="0 0 368.554 368.554" style="enable-background:new 0 0 368.554 368.554;" xml:space="preserve">
<path d="M368.554,157.855V99.48c0-0.01,0-0.021,0-0.031v-0.018c0-0.033-0.005-0.065-0.005-0.097
	c-0.003-0.214-0.011-0.428-0.032-0.642c-0.008-0.079-0.023-0.155-0.033-0.233c-0.021-0.166-0.043-0.331-0.076-0.496
	c-0.021-0.104-0.049-0.205-0.074-0.307c-0.033-0.134-0.063-0.268-0.103-0.401c-0.038-0.125-0.085-0.246-0.129-0.368
	c-0.039-0.107-0.073-0.215-0.117-0.32c-0.061-0.148-0.132-0.29-0.202-0.433c-0.038-0.077-0.071-0.156-0.112-0.232
	c-0.097-0.182-0.205-0.357-0.316-0.53c-0.022-0.034-0.039-0.07-0.062-0.104c-0.002-0.003-0.004-0.005-0.006-0.008
	c-0.139-0.207-0.287-0.408-0.445-0.6c-0.1-0.121-0.208-0.232-0.314-0.346c-0.059-0.063-0.113-0.13-0.174-0.19
	c-0.129-0.129-0.265-0.247-0.401-0.365c-0.047-0.04-0.09-0.084-0.138-0.124c-0.128-0.105-0.261-0.2-0.395-0.295
	c-0.065-0.047-0.128-0.097-0.194-0.142c-0.114-0.076-0.232-0.143-0.349-0.212c-0.095-0.056-0.188-0.116-0.285-0.168
	c-0.092-0.049-0.187-0.09-0.281-0.135c-0.128-0.062-0.255-0.126-0.388-0.181c-0.069-0.028-0.139-0.05-0.209-0.076
	c-0.159-0.06-0.318-0.121-0.482-0.171c-0.051-0.016-0.104-0.026-0.156-0.04c-0.181-0.051-0.363-0.1-0.55-0.137
	c-0.055-0.011-0.111-0.016-0.166-0.025c-0.198-0.035-0.398-0.066-0.602-0.085c-0.229-0.022-0.46-0.034-0.691-0.035
	c-0.004,0-0.009-0.001-0.013-0.001h-44.601c6.176-7.325,9.908-16.775,9.908-27.083c0-23.205-18.878-42.083-42.083-42.083
	s-42.083,18.878-42.083,42.083c0,10.309,3.732,19.758,9.908,27.083H118.953c6.176-7.325,9.908-16.775,9.908-27.083
	c0-23.205-18.878-42.083-42.083-42.083S44.693,41.644,44.693,64.848c0,10.309,3.732,19.758,9.908,27.083H7.5
	c-4.142,0-7.5,3.358-7.5,7.5V210.63c0,0.01,0,0.021,0,0.031v0.018c0,0.033,0.005,0.065,0.005,0.097
	c0.003,0.214,0.011,0.428,0.032,0.642c0.008,0.079,0.023,0.155,0.033,0.233c0.022,0.166,0.043,0.331,0.076,0.496
	c0.021,0.104,0.05,0.205,0.075,0.308c0.033,0.134,0.063,0.268,0.103,0.401c0.038,0.125,0.085,0.246,0.129,0.368
	c0.039,0.107,0.073,0.215,0.117,0.32c0.061,0.148,0.132,0.29,0.202,0.433c0.038,0.077,0.071,0.156,0.112,0.232
	c0.097,0.182,0.205,0.357,0.316,0.53c0.022,0.034,0.039,0.07,0.062,0.104c0.002,0.003,0.004,0.005,0.005,0.007
	c0.161,0.24,0.337,0.467,0.523,0.686c0.061,0.072,0.126,0.139,0.189,0.208c0.127,0.139,0.259,0.273,0.396,0.402
	c0.08,0.075,0.16,0.149,0.243,0.221c0.146,0.125,0.298,0.243,0.453,0.357c0.069,0.051,0.135,0.106,0.206,0.154
	c0.224,0.153,0.458,0.294,0.699,0.422c0.061,0.033,0.125,0.059,0.187,0.09c0.191,0.095,0.386,0.184,0.587,0.263
	c0.078,0.031,0.157,0.058,0.236,0.086c0.191,0.068,0.385,0.128,0.582,0.18c0.081,0.022,0.162,0.044,0.243,0.063
	c0.203,0.047,0.409,0.083,0.618,0.113c0.076,0.011,0.151,0.026,0.227,0.035c0.258,0.029,0.52,0.045,0.785,0.047
	c0.021,0,0.043,0.004,0.064,0.004c0.005,0,0.009-0.001,0.014-0.001h93.414c0.005,0,0.011,0.001,0.016,0.001
	c0.005,0,0.009-0.001,0.014-0.001h10.813v112.61h-50v-93.898c0-4.142-3.358-7.5-7.5-7.5s-7.5,3.358-7.5,7.5v101.398
	c0,4.142,3.358,7.5,7.5,7.5h65h0c0,0,0,0,0,0c0.244,0,0.487-0.013,0.73-0.037c0.097-0.009,0.192-0.027,0.288-0.04
	c0.143-0.019,0.286-0.038,0.428-0.065c0.111-0.022,0.218-0.051,0.327-0.077c0.125-0.03,0.251-0.059,0.375-0.096
	c0.11-0.033,0.216-0.072,0.324-0.11c0.12-0.042,0.24-0.083,0.358-0.131c0.105-0.043,0.206-0.091,0.308-0.138
	c0.117-0.054,0.233-0.107,0.347-0.167c0.101-0.053,0.198-0.111,0.295-0.168c0.109-0.064,0.218-0.128,0.325-0.198
	c0.1-0.066,0.196-0.136,0.293-0.207c0.098-0.071,0.195-0.141,0.29-0.217c0.102-0.082,0.198-0.169,0.295-0.255
	c0.063-0.056,0.13-0.107,0.192-0.166l61.363-58.54l60.757,58.515c0.063,0.061,0.131,0.113,0.196,0.171
	c0.1,0.09,0.199,0.181,0.304,0.265c0.095,0.077,0.194,0.147,0.292,0.218c0.096,0.07,0.191,0.142,0.291,0.207
	c0.109,0.072,0.221,0.137,0.333,0.203c0.096,0.056,0.19,0.114,0.289,0.166c0.117,0.062,0.236,0.116,0.356,0.171
	c0.1,0.046,0.199,0.094,0.301,0.136c0.121,0.049,0.244,0.091,0.367,0.134c0.106,0.037,0.211,0.076,0.318,0.109
	c0.126,0.038,0.253,0.067,0.381,0.098c0.108,0.026,0.214,0.055,0.323,0.077c0.144,0.028,0.289,0.047,0.434,0.066
	c0.095,0.013,0.189,0.031,0.285,0.04c0.244,0.024,0.488,0.037,0.732,0.037c0,0,0,0,0,0h0h65c4.142,0,7.5-3.358,7.5-7.5v-120.11
	h36.777c4.142,0,7.5-3.358,7.5-7.5v-52.798C368.554,157.872,368.554,157.864,368.554,157.855z M251.777,203.179h-32.644
	l134.421-89.724v40.369l-73.943,49.355H251.777z M125.689,203.179l144.194-96.247h66.425l-144.194,96.247H125.689z M32.246,203.179
	l110.63-73.844c3.445-2.299,4.374-6.957,2.075-10.401c-2.3-3.445-6.957-4.374-10.402-2.074L15,196.656v-41.271l72.591-48.453
	h155.274L98.671,203.179H32.246z M284.277,37.765c14.934,0,27.083,12.149,27.083,27.083c0,14.934-12.149,27.083-27.083,27.083
	s-27.083-12.149-27.083-27.083C257.193,49.915,269.343,37.765,284.277,37.765z M86.777,37.765c14.934,0,27.083,12.149,27.083,27.083
	c0,14.934-12.149,27.083-27.083,27.083S59.693,79.782,59.693,64.848C59.693,49.915,71.843,37.765,86.777,37.765z M60.573,106.932
	L15,137.351v-30.419H60.573z M126.777,320.768v-92.454l48.226,46.446L126.777,320.768z M230.992,231.714
	c-2.859-2.997-7.607-3.108-10.604-0.25l-34.522,32.934l-47.99-46.219h56.502c0.005,0,0.011,0.001,0.016,0.001
	c0.005,0,0.009-0.001,0.014-0.001h49.87v102.474l-47.597-45.841l34.062-32.495C233.739,239.458,233.851,234.711,230.992,231.714z
	 M309.277,330.789h-50v-112.61h50V330.789z M316.777,203.179H306.63l46.924-31.321v31.321H316.777z"/>
<g>
</g>
<g>
</g>
<g>
</g>
<g>
</g>
<g>
</g>
<g>
</g>
<g>
</g>
<g>
</g>
<g>
</g>
<g>
</g>
<g>
</g>
<g>
</g>
<g>
</g>
<g>
</g>
<g>
</g>
</svg>
