<?xml version="1.0" encoding="iso-8859-1"?>
<!-- Generator: Adobe Illustrator 17.1.0, SVG Export Plug-In . SVG Version: 6.00 Build 0)  -->
<!DOCTYPE svg PUBLIC "-//W3C//DTD SVG 1.1//EN" "http://www.w3.org/Graphics/SVG/1.1/DTD/svg11.dtd">
<svg version="1.1" id="Capa_1" xmlns="http://www.w3.org/2000/svg" xmlns:xlink="http://www.w3.org/1999/xlink" x="0px" y="0px"
	 viewBox="0 0 371.025 371.025" style="enable-background:new 0 0 371.025 371.025;" xml:space="preserve">
<path d="M200.805,20.337h-59.218V7.5c0-4.143-3.357-7.5-7.5-7.5s-7.5,3.357-7.5,7.5v12.837h-9.407c-4.143,0-7.5,3.357-7.5,7.5
	s3.357,7.5,7.5,7.5h5.377c1.451,4.289,4.239,7.026,6.291,9.029c2.325,2.271,2.739,2.803,2.739,4.397c0,1.596-0.414,2.128-2.74,4.398
	c-2.891,2.823-7.26,7.089-7.26,15.13s4.369,12.307,7.261,15.129c2.325,2.271,2.739,2.802,2.739,4.396
	c0,1.594-0.414,2.125-2.739,4.395c-2.892,2.823-7.261,7.089-7.261,15.13c0,8.04,4.369,12.306,7.261,15.128
	c2.325,2.271,2.739,2.802,2.739,4.396c0,1.594-0.414,2.125-2.739,4.395c-2.892,2.823-7.261,7.089-7.261,15.13
	c0,8.04,4.37,12.306,7.262,15.128c2.324,2.27,2.738,2.801,2.738,4.394s-0.414,2.124-2.738,4.394
	c-2.892,2.822-7.262,7.088-7.262,15.128s4.37,12.305,7.262,15.127c2.324,2.269,2.738,2.8,2.738,4.393
	c0,1.594-0.414,2.125-2.739,4.395c-1.82,1.777-4.224,4.127-5.757,7.629h-5.911c-4.143,0-7.5,3.357-7.5,7.5s3.357,7.5,7.5,7.5h9.407
	v11.521c0,4.143,3.357,7.5,7.5,7.5s7.5-3.357,7.5-7.5v-19.021c0-1.854-0.676-3.547-1.79-4.856c2.872-2.824,6.79-7.051,6.79-14.667
	c0-8.04-4.37-12.305-7.262-15.127c-2.324-2.269-2.738-2.8-2.738-4.393s0.414-2.124,2.738-4.394
	c2.892-2.822,7.262-7.088,7.262-15.128s-4.37-12.306-7.262-15.128c-2.324-2.27-2.738-2.801-2.738-4.394
	c0-1.595,0.414-2.126,2.739-4.396c2.892-2.822,7.261-7.088,7.261-15.128c0-8.041-4.369-12.307-7.261-15.13
	c-2.325-2.27-2.739-2.801-2.739-4.395c0-1.595,0.414-2.126,2.739-4.396c2.892-2.822,7.261-7.088,7.261-15.128
	c0-8.041-4.369-12.307-7.261-15.129c-2.325-2.271-2.739-2.802-2.739-4.396s0.414-2.127,2.739-4.397
	c2.892-2.823,7.261-7.089,7.261-15.131c0-6.575-2.921-10.625-5.567-13.427h59.785c25.111,0,45.541,20.43,45.541,45.541v90.557
	c0,25.112-20.43,45.542-45.541,45.542h-36.292c-4.143,0-7.5,3.357-7.5,7.5s3.357,7.5,7.5,7.5h13.08v43.105h-16.25
	c-4.143,0-7.5,3.357-7.5,7.5v57.431c0,17.101,13.912,31.013,31.013,31.013h0.475c17.101,0,31.013-13.912,31.013-31.013v-23.996
	c0-4.143-3.357-7.5-7.5-7.5s-7.5,3.357-7.5,7.5v23.996c0,8.829-7.184,16.013-16.013,16.013h-0.475
	c-8.829,0-16.013-7.184-16.013-16.013v-49.931h40c4.143,0,7.5-3.357,7.5-7.5s-3.357-7.5-7.5-7.5h-16.25v-43.105h8.212
	c33.383,0,60.541-27.159,60.541-60.542V80.878C261.346,47.495,234.188,20.337,200.805,20.337z"/>
<g>
</g>
<g>
</g>
<g>
</g>
<g>
</g>
<g>
</g>
<g>
</g>
<g>
</g>
<g>
</g>
<g>
</g>
<g>
</g>
<g>
</g>
<g>
</g>
<g>
</g>
<g>
</g>
<g>
</g>
</svg>
