<?xml version="1.0" encoding="iso-8859-1"?>
<!-- Generator: Adobe Illustrator 17.1.0, SVG Export Plug-In . SVG Version: 6.00 Build 0)  -->
<!DOCTYPE svg PUBLIC "-//W3C//DTD SVG 1.1//EN" "http://www.w3.org/Graphics/SVG/1.1/DTD/svg11.dtd">
<svg version="1.1" id="Capa_1" xmlns="http://www.w3.org/2000/svg" xmlns:xlink="http://www.w3.org/1999/xlink" x="0px" y="0px"
	 viewBox="0 0 312.056 312.056" style="enable-background:new 0 0 312.056 312.056;" xml:space="preserve">
<path d="M304.556,148.658h-25.539c-1.087-17.733-5.999-34.447-13.923-49.327l32.117,4.059c0.319,0.041,0.636,0.061,0.95,0.061
	c3.723,0,6.953-2.771,7.432-6.561c0.519-4.109-2.391-7.862-6.5-8.381l-44.537-5.628c-8.095-10.647-17.902-19.923-29.015-27.408
	l29.046-11.791c3.838-1.558,5.687-5.933,4.128-9.771s-5.932-5.687-9.77-4.128L208.849,46.06
	c-13.184-6.12-27.643-9.938-42.861-10.939l20.531-20.531c2.929-2.93,2.929-7.678,0-10.607c-2.929-2.928-7.678-2.928-10.606,0
	l-31.64,31.64c-12.364,1.393-24.171,4.651-35.132,9.487l8.561-26.384c1.278-3.939-0.879-8.17-4.819-9.448
	c-3.941-1.278-8.17,0.879-9.449,4.819L89.912,55.769c-9.848,6.695-18.66,14.802-26.151,24.023l-8.883-29.813
	c-1.183-3.97-5.359-6.233-9.329-5.046c-3.97,1.183-6.229,5.359-5.046,9.329l12.331,41.383c-5.486,9.492-9.721,19.792-12.483,30.674
	l-28.19-22.357c-3.245-2.574-7.963-2.03-10.537,1.216c-2.574,3.245-2.029,7.963,1.216,10.536l34.5,27.361
	c-0.199,1.849-0.354,3.71-0.469,5.582h-25.54c-4.142,0-7.5,3.357-7.5,7.5s3.358,7.5,7.5,7.5h285.524
	c-3.907,73.236-64.72,131.612-138.912,131.612c-59.863,0-112.874-38.101-131.911-94.809c-1.318-3.927-5.573-6.045-9.497-4.724
	c-3.927,1.318-6.042,5.57-4.723,9.497C32.904,268.06,91.63,310.27,157.944,310.27c84.978,0,154.112-69.135,154.112-154.112
	C312.056,152.015,308.698,148.658,304.556,148.658z M133.77,148.658c1.089-12.385,11.511-22.133,24.174-22.133
	c6.483,0,12.579,2.525,17.164,7.11c2.929,2.928,7.678,2.928,10.606,0c2.929-2.93,2.929-7.678,0-10.607
	c-7.418-7.418-17.28-11.503-27.771-11.503c-20.937,0-38.097,16.469-39.213,37.133h-66.83c1.182-16.87,6.317-32.664,14.482-46.465
	c0.803-0.816,1.404-1.806,1.766-2.886c7.919-12.463,18.358-23.176,30.597-31.411c1.036-0.386,1.982-0.991,2.761-1.791
	c16.366-10.293,35.716-16.258,56.437-16.258c16.504,0,32.142,3.781,46.094,10.521c0.698,0.507,1.471,0.901,2.296,1.144
	c32.256,16.558,54.991,49.128,57.654,87.146H133.77z"/>
<g>
</g>
<g>
</g>
<g>
</g>
<g>
</g>
<g>
</g>
<g>
</g>
<g>
</g>
<g>
</g>
<g>
</g>
<g>
</g>
<g>
</g>
<g>
</g>
<g>
</g>
<g>
</g>
<g>
</g>
</svg>
