<?xml version="1.0" encoding="iso-8859-1"?>
<!-- Generator: Adobe Illustrator 17.1.0, SVG Export Plug-In . SVG Version: 6.00 Build 0)  -->
<!DOCTYPE svg PUBLIC "-//W3C//DTD SVG 1.1//EN" "http://www.w3.org/Graphics/SVG/1.1/DTD/svg11.dtd">
<svg version="1.1" id="Capa_1" xmlns="http://www.w3.org/2000/svg" xmlns:xlink="http://www.w3.org/1999/xlink" x="0px" y="0px"
	 viewBox="0 0 349.471 349.471" style="enable-background:new 0 0 349.471 349.471;" xml:space="preserve">
<g>
	<path d="M301.987,1.533c-7.384-3.088-15.814-1.427-21.477,4.23L147.767,138.372c-0.083,0.082-0.154,0.171-0.232,0.256
		c-0.083,0.076-0.169,0.145-0.249,0.225L48.22,237.919c-17.084,17.084-17.084,44.883,0,61.968l36.938,36.939
		c8.434,8.434,19.523,12.646,30.645,12.645c10.668-0.001,21.366-3.877,29.769-11.621c0.707-0.357,1.356-0.825,1.921-1.391
		c8.276-8.276,12.834-19.28,12.834-30.984v-60.267l33.284-33.285c0.055-0.055,0.103-0.116,0.156-0.172
		c0.107-0.114,0.214-0.227,0.314-0.347c0.072-0.086,0.135-0.176,0.203-0.264c0.08-0.105,0.16-0.209,0.234-0.319
		c0.068-0.1,0.129-0.202,0.191-0.305c0.064-0.105,0.128-0.209,0.187-0.317c0.058-0.107,0.11-0.216,0.162-0.325
		c0.053-0.11,0.107-0.22,0.155-0.333c0.046-0.11,0.087-0.221,0.128-0.333c0.043-0.117,0.086-0.233,0.124-0.353
		c0.035-0.113,0.064-0.227,0.094-0.341c0.031-0.121,0.063-0.241,0.089-0.364c0.025-0.122,0.044-0.245,0.063-0.368
		c0.018-0.116,0.038-0.231,0.051-0.349c0.015-0.138,0.021-0.275,0.029-0.413c0.004-0.084,0.016-0.166,0.018-0.25l0.434-21.66
		l21.666-0.438c4.023-0.082,7.265-3.324,7.347-7.347l0.438-21.667l21.667-0.438c4.023-0.082,7.266-3.324,7.347-7.348l0.435-21.662
		l21.665-0.437c4.022-0.081,7.264-3.322,7.347-7.344l0.447-21.686l21.696-0.455c4.062-0.085,7.318-3.39,7.343-7.453l0.424-69.045
		C314.112,11.787,309.372,4.62,301.987,1.533z M298.684,81.445l-21.591,0.452c-4.02,0.084-7.258,3.324-7.341,7.344l-0.447,21.68
		l-21.668,0.437c-4.024,0.081-7.266,3.324-7.347,7.348l-0.435,21.663l-21.667,0.438c-4.023,0.082-7.265,3.324-7.347,7.347
		l-0.438,21.667l-21.667,0.438c-4.024,0.082-7.266,3.325-7.347,7.348l-0.518,25.844l-20.304,20.304v-32.385
		c0-4.142-3.358-7.5-7.5-7.5s-7.5,3.358-7.5,7.5v48.882c-0.151,0.593-0.239,1.21-0.239,1.849v63.373
		c0,7.172-2.603,13.945-7.361,19.239c-0.616,0.339-1.184,0.765-1.686,1.267c-11.236,11.237-29.412,11.343-40.516,0.239
		L58.827,289.28c-11.236-11.236-11.236-29.519,0-40.755l99.065-99.065c0.08-0.08,0.149-0.166,0.225-0.249
		c0.083-0.076,0.17-0.146,0.251-0.227L291.113,16.375c1.993-1.992,4.222-1.366,5.089-1.003c0.866,0.362,2.879,1.508,2.861,4.327
		L298.684,81.445z"/>
	<path d="M114.784,225.858c-2.802-1.16-6.028-0.519-8.173,1.626l-35.648,35.648c-2.929,2.929-2.929,7.678,0,10.606l35.648,35.648
		c1.435,1.435,3.353,2.197,5.305,2.197c0.966,0,1.941-0.187,2.869-0.571c2.803-1.161,4.63-3.896,4.63-6.929v-71.297
		C119.414,229.754,117.587,227.02,114.784,225.858z M104.414,285.978l-17.542-17.542l17.542-17.542V285.978z"/>
</g>
<g>
</g>
<g>
</g>
<g>
</g>
<g>
</g>
<g>
</g>
<g>
</g>
<g>
</g>
<g>
</g>
<g>
</g>
<g>
</g>
<g>
</g>
<g>
</g>
<g>
</g>
<g>
</g>
<g>
</g>
</svg>
