<?xml version="1.0" encoding="iso-8859-1"?>
<!-- Generator: Adobe Illustrator 17.1.0, SVG Export Plug-In . SVG Version: 6.00 Build 0)  -->
<!DOCTYPE svg PUBLIC "-//W3C//DTD SVG 1.1//EN" "http://www.w3.org/Graphics/SVG/1.1/DTD/svg11.dtd">
<svg version="1.1" id="Capa_1" xmlns="http://www.w3.org/2000/svg" xmlns:xlink="http://www.w3.org/1999/xlink" x="0px" y="0px"
	 viewBox="0 0 368.554 368.554" style="enable-background:new 0 0 368.554 368.554;" xml:space="preserve">
<g>
	<path d="M343.501,168.648c0-0.004,0-0.008-0.001-0.013c-0.034-0.345-0.099-0.679-0.178-1.009c-0.015-0.063-0.032-0.126-0.048-0.189
		c-0.179-0.665-0.446-1.293-0.79-1.872c-0.036-0.06-0.072-0.12-0.109-0.18c-0.18-0.284-0.373-0.557-0.588-0.813
		c-0.028-0.034-0.06-0.065-0.089-0.098c-0.206-0.237-0.427-0.459-0.661-0.669c-0.03-0.028-0.055-0.06-0.086-0.087L154.205,1.833
		c-0.022-0.02-0.047-0.036-0.07-0.055c-0.109-0.093-0.224-0.178-0.338-0.265c-0.084-0.064-0.167-0.13-0.253-0.189
		c-0.112-0.078-0.23-0.147-0.347-0.219c-0.094-0.058-0.187-0.119-0.282-0.172c-0.112-0.062-0.229-0.115-0.344-0.171
		c-0.105-0.051-0.209-0.106-0.316-0.152c-0.111-0.048-0.226-0.086-0.339-0.129c-0.116-0.043-0.23-0.09-0.348-0.127
		c-0.108-0.035-0.22-0.06-0.331-0.09c-0.126-0.034-0.252-0.07-0.379-0.098c-0.105-0.022-0.212-0.036-0.319-0.054
		c-0.138-0.023-0.275-0.048-0.413-0.063c-0.101-0.011-0.204-0.015-0.306-0.022c-0.147-0.01-0.293-0.021-0.441-0.022
		c-0.029,0-0.057-0.004-0.085-0.004H32.515c-4.143,0-7.5,3.358-7.5,7.5v45.11v116.771c0,0.003,0,0.007,0,0.01v116.767
		c0,0.003,0,0.007,0,0.01v74.885c0,4.142,3.357,7.5,7.5,7.5s7.5-3.358,7.5-7.5v-67.39h73.262c4.143,0,7.5-3.358,7.5-7.5
		s-3.357-7.5-7.5-7.5H50.622l40.281-40.281l50.888,50.888v71.783c0,4.142,3.357,7.5,7.5,7.5s7.5-3.358,7.5-7.5v-74.885
		c0-0.003,0-0.007,0-0.01V176.887h171.747v16.557h-40.092H211.78h-38.503c-4.143,0-7.5,3.358-7.5,7.5s3.357,7.5,7.5,7.5h31.003
		v152.61c0,4.142,3.357,7.5,7.5,7.5s7.5-3.358,7.5-7.5v-152.61h61.667v152.61c0,4.142,3.357,7.5,7.5,7.5s7.5-3.358,7.5-7.5v-152.61
		h40.092c4.143,0,7.5-3.358,7.5-7.5v-31.557C343.539,169.137,343.525,168.891,343.501,168.648z M40.015,60.11h91.169l-40.281,40.281
		L62.2,71.688c-2.93-2.929-7.678-2.929-10.607,0c-2.929,2.929-2.929,7.678,0,10.606l28.704,28.704L40.015,151.28V60.11z
		 M101.51,110.999l40.281-40.281v80.563L101.51,110.999z M131.185,161.887H50.622l40.281-40.281L131.185,161.887z M131.185,176.887
		l-40.281,40.281l-40.281-40.281H131.185z M40.015,15h101.776v30.11H40.015V15z M40.015,268.057v-80.563l40.281,40.281
		L40.015,268.057z M101.51,227.775l40.281-40.281v80.563L101.51,227.775z M156.792,161.887V52.615c0-0.003,0-0.007,0-0.01V23.928
		l159.146,137.959H156.792z"/>
	<path d="M238.03,220.275c-4.143,0-7.5,3.358-7.5,7.5v133.279c0,4.142,3.357,7.5,7.5,7.5s7.5-3.358,7.5-7.5V227.775
		C245.53,223.633,242.172,220.275,238.03,220.275z"/>
	<path d="M262.405,220.275c-4.143,0-7.5,3.358-7.5,7.5v133.279c0,4.142,3.357,7.5,7.5,7.5s7.5-3.358,7.5-7.5V227.775
		C269.905,223.633,266.547,220.275,262.405,220.275z"/>
</g>
<g>
</g>
<g>
</g>
<g>
</g>
<g>
</g>
<g>
</g>
<g>
</g>
<g>
</g>
<g>
</g>
<g>
</g>
<g>
</g>
<g>
</g>
<g>
</g>
<g>
</g>
<g>
</g>
<g>
</g>
</svg>
