<?xml version="1.0" encoding="iso-8859-1"?>
<!-- Generator: Adobe Illustrator 17.1.0, SVG Export Plug-In . SVG Version: 6.00 Build 0)  -->
<!DOCTYPE svg PUBLIC "-//W3C//DTD SVG 1.1//EN" "http://www.w3.org/Graphics/SVG/1.1/DTD/svg11.dtd">
<svg version="1.1" id="Capa_1" xmlns="http://www.w3.org/2000/svg" xmlns:xlink="http://www.w3.org/1999/xlink" x="0px" y="0px"
	 viewBox="0 0 362.43 362.43" style="enable-background:new 0 0 362.43 362.43;" xml:space="preserve">
<g>
	<path d="M132.318,281.511c-13.521,0-24.522,11.001-24.522,24.522s11.001,24.521,24.522,24.521s24.521-11,24.521-24.521
		S145.84,281.511,132.318,281.511z M132.318,315.555c-5.251,0-9.522-4.271-9.522-9.521c0-5.251,4.271-9.522,9.522-9.522
		c5.25,0,9.521,4.271,9.521,9.522C141.84,311.283,137.568,315.555,132.318,315.555z"/>
	<path d="M279.009,298.533c-4.143,0-7.5,3.357-7.5,7.5c0,22.826-18.571,41.396-41.397,41.396s-41.396-18.57-41.396-41.396
		s18.57-41.397,41.396-41.397c9.162,0,17.841,2.93,25.099,8.473c3.291,2.514,7.999,1.884,10.513-1.409
		c2.514-3.292,1.883-7.998-1.409-10.513c-8.208-6.268-17.747-10.076-27.884-11.195L191.85,6.151
		c-0.646-3.528-3.697-6.105-7.284-6.15C184.534,0,184.502,0,184.471,0c-3.546,0-6.613,2.487-7.341,5.966l-50.979,244.014
		c-28.206,3.083-50.23,27.041-50.23,56.054c0,31.097,25.3,56.396,56.397,56.396c20.891,0,39.151-11.427,48.896-28.35
		c9.745,16.923,28.006,28.35,48.896,28.35c31.098,0,56.397-25.3,56.397-56.396C286.509,301.891,283.151,298.533,279.009,298.533z
		 M181.215,277.986c-8.304-14.421-22.791-24.843-39.822-27.61L177.048,79.71v88.449h-8.166c-4.143,0-7.5,3.357-7.5,7.5
		s3.357,7.5,7.5,7.5h40.08l12.282,67.18C204.123,253.055,189.553,263.507,181.215,277.986z M192.048,90.643l14.172,77.517h-14.172
		V90.643z M132.318,347.43c-22.826,0-41.397-18.57-41.397-41.396c0-22.819,18.56-41.386,41.377-41.397
		c0.009,0,0.019,0.001,0.028,0.001c0.009,0,0.017-0.001,0.025-0.001c22.811,0.018,41.363,18.582,41.363,41.396
		C173.715,328.859,155.145,347.43,132.318,347.43z"/>
	<path d="M205.59,306.033c0,13.521,11,24.521,24.521,24.521s24.522-11,24.522-24.521s-11.001-24.522-24.522-24.522
		S205.59,292.512,205.59,306.033z M239.634,306.033c0,5.25-4.271,9.521-9.522,9.521c-5.25,0-9.521-4.271-9.521-9.521
		c0-5.251,4.271-9.522,9.521-9.522C235.362,296.511,239.634,300.782,239.634,306.033z"/>
	<path d="M182.277,210.11c-9.305,0-16.875,7.57-16.875,16.875s7.57,16.875,16.875,16.875s16.875-7.57,16.875-16.875
		S191.582,210.11,182.277,210.11z M182.277,228.86c-1.034,0-1.875-0.841-1.875-1.875s0.841-1.875,1.875-1.875
		s1.875,0.841,1.875,1.875S183.312,228.86,182.277,228.86z"/>
</g>
<g>
</g>
<g>
</g>
<g>
</g>
<g>
</g>
<g>
</g>
<g>
</g>
<g>
</g>
<g>
</g>
<g>
</g>
<g>
</g>
<g>
</g>
<g>
</g>
<g>
</g>
<g>
</g>
<g>
</g>
</svg>
