<?xml version="1.0" encoding="iso-8859-1"?>
<!-- Generator: Adobe Illustrator 17.1.0, SVG Export Plug-In . SVG Version: 6.00 Build 0)  -->
<!DOCTYPE svg PUBLIC "-//W3C//DTD SVG 1.1//EN" "http://www.w3.org/Graphics/SVG/1.1/DTD/svg11.dtd">
<svg version="1.1" id="Capa_1" xmlns="http://www.w3.org/2000/svg" xmlns:xlink="http://www.w3.org/1999/xlink" x="0px" y="0px"
	 viewBox="0 0 290.369 290.369" style="enable-background:new 0 0 290.369 290.369;" xml:space="preserve">
<g>
	<path d="M221.33,149.924c-8.366,0-16.389,1.498-23.816,4.237l-9.321-9.322l65.194-65.194c20.61-20.611,20.61-54.148,0-74.759
		l-0.324-0.324c-2.93-2.929-7.678-2.929-10.607,0l-76.947,76.947c-2.929,2.929-2.929,7.678,0,10.606s7.677,2.93,10.607,0
		l71.18-71.179c10.051,14.732,8.546,35.042-4.516,48.103l-65.194,65.194L47.914,4.562c-2.93-2.929-7.678-2.929-10.607,0
		l-0.324,0.324c-20.61,20.611-20.61,54.148,0,74.759l65.194,65.195l-9.321,9.321c-7.428-2.739-15.45-4.237-23.817-4.237
		C30.971,149.924,0,180.895,0,218.964c0,38.068,30.971,69.04,69.039,69.04s69.04-30.971,69.04-69.04
		c0-7.247-1.129-14.234-3.209-20.802l10.314-10.314l10.314,10.314c-2.08,6.568-3.209,13.555-3.209,20.802
		c0,38.068,30.972,69.04,69.04,69.04s69.039-30.971,69.039-69.04C290.369,180.895,259.398,149.924,221.33,149.924z M69.039,273.004
		c-29.797,0-54.039-24.242-54.039-54.04c0-29.798,24.242-54.04,54.039-54.04c29.798,0,54.04,24.242,54.04,54.04
		C123.079,248.762,98.837,273.004,69.039,273.004z M128.273,183.545c-5.354-8.921-12.667-16.532-21.338-22.249l5.85-5.849
		l21.793,21.794L128.273,183.545z M118.092,139.542c-0.001-0.002-0.003-0.003-0.004-0.005s-0.003-0.003-0.005-0.005L47.59,69.039
		c-13.062-13.062-14.566-33.371-4.516-48.103l129.203,129.203c0.001,0.001,0.002,0.003,0.004,0.004s0.003,0.003,0.004,0.004
		l11.149,11.149c-8.671,5.717-15.984,13.328-21.339,22.249L118.092,139.542z M221.33,273.004c-29.798,0-54.04-24.242-54.04-54.04
		c0-29.798,24.242-54.04,54.04-54.04c29.797,0,54.039,24.242,54.039,54.04C275.369,248.762,251.127,273.004,221.33,273.004z"/>
	<path d="M69.039,189.579c-16.203,0-29.385,13.182-29.385,29.385c0,16.203,13.182,29.385,29.385,29.385s29.385-13.182,29.385-29.385
		C98.424,202.761,85.242,189.579,69.039,189.579z M69.039,233.349c-7.932,0-14.385-6.453-14.385-14.385
		c0-7.932,6.453-14.385,14.385-14.385s14.385,6.453,14.385,14.385C83.424,226.896,76.971,233.349,69.039,233.349z"/>
	<path d="M221.33,189.579c-16.203,0-29.385,13.182-29.385,29.385c0,4.142,3.357,7.5,7.5,7.5s7.5-3.358,7.5-7.5
		c0-7.932,6.453-14.385,14.385-14.385s14.385,6.453,14.385,14.385c0,7.932-6.453,14.385-14.385,14.385c-4.143,0-7.5,3.358-7.5,7.5
		s3.357,7.5,7.5,7.5c16.203,0,29.385-13.182,29.385-29.385C250.715,202.761,237.533,189.579,221.33,189.579z"/>
</g>
<g>
</g>
<g>
</g>
<g>
</g>
<g>
</g>
<g>
</g>
<g>
</g>
<g>
</g>
<g>
</g>
<g>
</g>
<g>
</g>
<g>
</g>
<g>
</g>
<g>
</g>
<g>
</g>
<g>
</g>
</svg>
