<?xml version="1.0" encoding="iso-8859-1"?>
<!-- Generator: Adobe Illustrator 17.1.0, SVG Export Plug-In . SVG Version: 6.00 Build 0)  -->
<!DOCTYPE svg PUBLIC "-//W3C//DTD SVG 1.1//EN" "http://www.w3.org/Graphics/SVG/1.1/DTD/svg11.dtd">
<svg version="1.1" id="Capa_1" xmlns="http://www.w3.org/2000/svg" xmlns:xlink="http://www.w3.org/1999/xlink" x="0px" y="0px"
	 viewBox="0 0 349.071 349.071" style="enable-background:new 0 0 349.071 349.071;" xml:space="preserve">
<g>
	<path d="M316.841,216.299v-21.054c0-30.046-22.543-54.908-51.6-58.607V84.687c0-4.143-3.358-7.5-7.5-7.5s-7.5,3.357-7.5,7.5v51.458
		H223.33l-28.435-96.699c-0.938-3.191-3.868-5.384-7.195-5.384H60.625c-4.142,0-7.5,3.357-7.5,7.5v94.583H42.922
		c-4.142,0-7.5,3.357-7.5,7.5v53.224c0,4.143,3.358,7.5,7.5,7.5s7.5-3.357,7.5-7.5v-45.724h10.203h157.093h0.02h40.004
		c24.316,0,44.1,19.783,44.1,44.1v17.697c-1.136-0.076-2.278-0.129-3.433-0.129H50.663C22.728,212.812,0,235.54,0,263.475v0.871
		c0,27.936,22.728,50.663,50.663,50.663h247.745c11.95,0,23.553-4.24,32.67-11.939c3.165-2.673,3.564-7.405,0.891-10.569
		c-2.672-3.165-7.405-3.563-10.569-0.892c-6.415,5.417-14.58,8.4-22.992,8.4H50.663C30.999,300.009,15,284.011,15,264.346v-0.871
		c0-19.665,15.999-35.663,35.663-35.663h247.745c19.665,0,35.663,15.998,35.663,35.663v0.871c0,4.143,3.358,7.5,7.5,7.5
		s7.5-3.357,7.5-7.5v-0.871C349.071,242.042,335.686,223.688,316.841,216.299z M119.393,136.145V68.869c0-4.143-3.358-7.5-7.5-7.5
		s-7.5,3.357-7.5,7.5v67.276H68.125V49.062h113.962l25.607,87.083H119.393z"/>
	<path d="M27.593,263.911c0,12.961,10.544,23.506,23.505,23.506s23.506-10.545,23.506-23.506s-10.545-23.506-23.506-23.506
		S27.593,250.95,27.593,263.911z M59.604,263.911c0,4.69-3.816,8.506-8.506,8.506s-8.505-3.815-8.505-8.506s3.815-8.506,8.505-8.506
		S59.604,259.22,59.604,263.911z"/>
	<path d="M273.35,263.911c0,12.961,10.544,23.506,23.506,23.506s23.506-10.545,23.506-23.506s-10.544-23.506-23.506-23.506
		S273.35,250.95,273.35,263.911z M305.361,263.911c0,4.69-3.816,8.506-8.506,8.506s-8.506-3.815-8.506-8.506
		s3.816-8.506,8.506-8.506S305.361,259.22,305.361,263.911z"/>
	<path d="M97.036,256.411c-4.142,0-7.5,3.357-7.5,7.5s3.358,7.5,7.5,7.5h155c4.142,0,7.5-3.357,7.5-7.5s-3.358-7.5-7.5-7.5H97.036z"
		/>
</g>
<g>
</g>
<g>
</g>
<g>
</g>
<g>
</g>
<g>
</g>
<g>
</g>
<g>
</g>
<g>
</g>
<g>
</g>
<g>
</g>
<g>
</g>
<g>
</g>
<g>
</g>
<g>
</g>
<g>
</g>
</svg>
