<?xml version="1.0" encoding="iso-8859-1"?>
<!-- Generator: Adobe Illustrator 17.1.0, SVG Export Plug-In . SVG Version: 6.00 Build 0)  -->
<!DOCTYPE svg PUBLIC "-//W3C//DTD SVG 1.1//EN" "http://www.w3.org/Graphics/SVG/1.1/DTD/svg11.dtd">
<svg version="1.1" id="Capa_1" xmlns="http://www.w3.org/2000/svg" xmlns:xlink="http://www.w3.org/1999/xlink" x="0px" y="0px"
	 viewBox="0 0 355.496 355.496" style="enable-background:new 0 0 355.496 355.496;" xml:space="preserve">
<path d="M346.283,261.645c-0.3-0.147-0.609-0.274-0.926-0.38l-0.446-0.149c-26.541-8.859-48.462-27.306-61.727-51.944l-0.847-1.572
	c-3.29-6.111-9.338-9.759-16.179-9.759c-9.168,0-18.651,6.935-18.651,18.539v31.147H214.14v-86.76
	c0-15.729-12.796-28.525-28.525-28.525H44.223V77.693h77.699l34.698,41.779c2.646,3.186,7.375,3.623,10.562,0.978
	c3.186-2.646,3.624-7.375,0.978-10.562l-36.947-44.487c-1.425-1.715-3.54-2.708-5.77-2.708h-88.72c-4.142,0-7.5,3.358-7.5,7.5
	v63.056c-12.101,3.302-21.025,14.384-21.025,27.517v49.335c0,1.176,0.278,2.284,0.76,3.274l-4.73,10.657
	c-6.743,15.192-5.359,32.582,3.702,46.517c9.061,13.935,24.394,22.254,41.016,22.254c4.142,0,7.5-3.358,7.5-7.5s-3.358-7.5-7.5-7.5
	c-11.525,0-22.157-5.769-28.44-15.431c-6.283-9.662-7.243-21.72-2.567-32.254l14.608-32.916c3.32-7.479,9.699-13.179,17.504-15.638
	c7.805-2.459,16.3-1.446,23.307,2.779l104.793,63.184h-65.79c-22.198,0-43.066-8.644-58.762-24.34l-2.264-2.264
	c-2.929-2.929-7.678-2.929-10.606,0c-2.929,2.929-2.929,7.678,0,10.606l2.264,2.264c18.529,18.529,43.165,28.733,69.369,28.733
	h90.64c4.742,3.036,3.873,7.787,3.483,9.19c-0.397,1.428-2.148,6.086-8.01,6.086H102.73c-4.142,0-7.5,3.358-7.5,7.5
	s3.358,7.5,7.5,7.5h95.744c10.596,0,19.623-6.859,22.462-17.067c1.25-4.494,1.135-9.05-0.156-13.21h28.752
	c5.564,17.534,21.992,30.277,41.344,30.277h48.178c7.802,0,14.229-5.106,15.993-12.707
	C356.81,272.496,353.288,265.081,346.283,261.645z M45.543,167.257c-9.086,2.863-16.899,8.612-22.345,16.242v-22.733
	c0-7.458,6.067-13.525,13.525-13.525h148.892c7.458,0,13.525,6.067,13.525,13.525v81.9L81.103,171.497
	C70.412,165.051,57.45,163.506,45.543,167.257z M340.434,276.706c-0.255,1.098-1.016,1.098-1.381,1.098h-48.178
	c-10.922,0-20.415-6.208-25.154-15.277h13.025c4.142,0,7.5-3.358,7.5-7.5s-3.358-7.5-7.5-7.5h-16.239v-31.147
	c0-3.499,3.614-3.539,3.651-3.539c1.964,0,2.722,1.407,2.972,1.871l0.847,1.572c15.052,27.959,39.91,48.907,70.009,59.002
	C340.3,275.501,340.622,275.896,340.434,276.706z"/>
<g>
</g>
<g>
</g>
<g>
</g>
<g>
</g>
<g>
</g>
<g>
</g>
<g>
</g>
<g>
</g>
<g>
</g>
<g>
</g>
<g>
</g>
<g>
</g>
<g>
</g>
<g>
</g>
<g>
</g>
</svg>
