<?xml version="1.0" encoding="iso-8859-1"?>
<!-- Generator: Adobe Illustrator 17.1.0, SVG Export Plug-In . SVG Version: 6.00 Build 0)  -->
<!DOCTYPE svg PUBLIC "-//W3C//DTD SVG 1.1//EN" "http://www.w3.org/Graphics/SVG/1.1/DTD/svg11.dtd">
<svg version="1.1" id="Capa_1" xmlns="http://www.w3.org/2000/svg" xmlns:xlink="http://www.w3.org/1999/xlink" x="0px" y="0px"
	 viewBox="0 0 347.498 347.498" style="enable-background:new 0 0 347.498 347.498;" xml:space="preserve">
<g>
	<path d="M235.015,167.771v-0.397c0-4.143-3.357-7.5-7.5-7.5h-57.406v-81.36h12.018v62.902c0,4.143,3.357,7.5,7.5,7.5
		s7.5-3.357,7.5-7.5V72.341c0.286-0.419,0.546-0.858,0.745-1.339l7.912-19.07c0.649-1.565,0.749-3.304,0.284-4.934L194.199,5.44
		c-0.92-3.22-3.863-5.44-7.212-5.44h-21.74c-3.349,0-6.291,2.22-7.211,5.438l-11.868,41.515c-0.466,1.628-0.366,3.365,0.281,4.93
		l7.912,19.113c0.2,0.482,0.461,0.924,0.747,1.344v87.534h-35.125c-4.143,0-7.5,3.357-7.5,7.5v0.397
		c0,14.748,6.854,28.347,18.315,37.11c-3.945,7.119-6.002,15.069-6.002,23.376v70.703c0,11.257,3.943,22.229,11.104,30.897
		c2.639,3.194,7.366,3.645,10.559,1.006c3.193-2.638,3.644-7.365,1.006-10.559c-4.944-5.986-7.668-13.566-7.668-21.345v-70.703
		c0-7.663,2.538-14.891,7.341-20.9c1.402-1.755,1.944-4.046,1.477-6.244c-0.469-2.197-1.896-4.068-3.893-5.101
		c-8.471-4.377-14.385-12.136-16.44-21.139h90.936c-2.056,9.003-7.97,16.762-16.44,21.139c-1.996,1.032-3.424,2.903-3.893,5.101
		c-0.468,2.198,0.074,4.489,1.477,6.244c4.803,6.01,7.341,13.237,7.341,20.9v70.703c0,18.492-15.045,33.537-33.538,33.537h-0.828
		c-4.143,0-7.5,3.357-7.5,7.5s3.357,7.5,7.5,7.5h0.828c26.764,0,48.538-21.773,48.538-48.537v-70.703
		c0-8.307-2.057-16.257-6.002-23.376C228.16,196.118,235.015,182.52,235.015,167.771z M170.903,15h10.426l9.596,33.601
		l-4.989,12.027h-19.632l-4.995-12.065L170.903,15z"/>
	<path d="M157.872,220.619c-4.143,0-7.5,3.357-7.5,7.5v74.271c0,4.143,3.357,7.5,7.5,7.5s7.5-3.357,7.5-7.5v-74.271
		C165.372,223.977,162.015,220.619,157.872,220.619z"/>
	<path d="M197.126,302.391v-74.271c0-4.143-3.357-7.5-7.5-7.5s-7.5,3.357-7.5,7.5v74.271c0,4.143,3.357,7.5,7.5,7.5
		S197.126,306.533,197.126,302.391z"/>
</g>
<g>
</g>
<g>
</g>
<g>
</g>
<g>
</g>
<g>
</g>
<g>
</g>
<g>
</g>
<g>
</g>
<g>
</g>
<g>
</g>
<g>
</g>
<g>
</g>
<g>
</g>
<g>
</g>
<g>
</g>
</svg>
