<?xml version="1.0" encoding="iso-8859-1"?>
<!-- Generator: Adobe Illustrator 17.1.0, SVG Export Plug-In . SVG Version: 6.00 Build 0)  -->
<!DOCTYPE svg PUBLIC "-//W3C//DTD SVG 1.1//EN" "http://www.w3.org/Graphics/SVG/1.1/DTD/svg11.dtd">
<svg version="1.1" id="Capa_1" xmlns="http://www.w3.org/2000/svg" xmlns:xlink="http://www.w3.org/1999/xlink" x="0px" y="0px"
	 viewBox="0 0 341.058 341.058" style="enable-background:new 0 0 341.058 341.058;" xml:space="preserve">
<g>
	<path d="M289.395,5.023C288.342,2.015,285.503,0,282.316,0h-97.177c-4.143,0-7.5,3.358-7.5,7.5v25.373h-14.22V7.5
		c0-4.142-3.357-7.5-7.5-7.5H58.742c-3.188,0-6.026,2.015-7.079,5.023s-0.089,6.354,2.403,8.341l67.895,54.127v67.845
		c0,4.142,3.357,7.5,7.5,7.5s7.5-3.358,7.5-7.5V63.879c0-2.283-1.04-4.441-2.825-5.864L80.18,15h68.239v25.373
		c0,4.142,3.357,7.5,7.5,7.5h29.22c4.143,0,7.5-3.358,7.5-7.5V15h68.238l-53.955,43.015c-1.785,1.423-2.825,3.582-2.825,5.864V95.3
		l-45.232,19.321c-3.809,1.627-5.578,6.034-3.951,9.843c1.627,3.809,6.031,5.579,9.844,3.951l49.786-21.266
		c2.762-1.18,4.554-3.894,4.554-6.897V67.491l67.895-54.127C289.484,11.377,290.448,8.032,289.395,5.023z"/>
	<path d="M215.73,120.116c-2.102-1.388-4.761-1.628-7.079-0.638l-82.137,35.084c-2.762,1.18-4.554,3.894-4.554,6.897v24.106
		c0,2.52,1.265,4.871,3.367,6.259c1.245,0.822,2.685,1.241,4.134,1.241c0.998,0,2-0.199,2.945-0.603l82.137-35.085
		c2.762-1.18,4.554-3.894,4.554-6.897v-24.106C219.097,123.855,217.833,121.504,215.73,120.116z M204.097,145.529l-67.137,28.677
		v-7.795l67.137-28.677V145.529z"/>
	<path d="M215.73,167.855c-2.102-1.388-4.761-1.628-7.079-0.638l-82.137,35.084c-2.762,1.18-4.554,3.894-4.554,6.897v24.106
		c0,2.52,1.265,4.871,3.367,6.259c1.245,0.822,2.685,1.241,4.134,1.241c0.998,0,2-0.199,2.945-0.603l82.137-35.085
		c2.762-1.18,4.554-3.894,4.554-6.897v-24.106C219.097,171.595,217.833,169.244,215.73,167.855z M204.097,193.268l-67.137,28.678
		v-7.795l67.137-28.677V193.268z"/>
	<path d="M211.597,216.684c-4.143,0-7.5,3.358-7.5,7.5v75.61l-33.755,24.616l-33.382-22.321v-37.869l39.122-16.711
		c3.809-1.627,5.578-6.034,3.951-9.843c-1.627-3.808-6.033-5.58-9.844-3.951l-43.676,18.656c-2.762,1.18-4.554,3.894-4.554,6.897
		v46.828c0,2.504,1.25,4.843,3.331,6.235l41.068,27.461c1.264,0.845,2.717,1.265,4.169,1.265c1.554,0,3.104-0.481,4.419-1.44
		l41.068-29.95c1.937-1.412,3.081-3.664,3.081-6.06v-79.423C219.097,220.042,215.74,216.684,211.597,216.684z"/>
</g>
<g>
</g>
<g>
</g>
<g>
</g>
<g>
</g>
<g>
</g>
<g>
</g>
<g>
</g>
<g>
</g>
<g>
</g>
<g>
</g>
<g>
</g>
<g>
</g>
<g>
</g>
<g>
</g>
<g>
</g>
</svg>
