<?xml version="1.0" encoding="iso-8859-1"?>
<!-- Generator: Adobe Illustrator 17.1.0, SVG Export Plug-In . SVG Version: 6.00 Build 0)  -->
<!DOCTYPE svg PUBLIC "-//W3C//DTD SVG 1.1//EN" "http://www.w3.org/Graphics/SVG/1.1/DTD/svg11.dtd">
<svg version="1.1" id="Capa_1" xmlns="http://www.w3.org/2000/svg" xmlns:xlink="http://www.w3.org/1999/xlink" x="0px" y="0px"
	 viewBox="0 0 290.971 290.971" style="enable-background:new 0 0 290.971 290.971;" xml:space="preserve">
<g>
	<path d="M222.812,44.387l-42.19-42.19C179.215,0.79,177.308,0,175.318,0h-59.666c-1.989,0-3.897,0.79-5.303,2.196l-42.19,42.19
		c-1.407,1.407-2.197,3.314-2.197,5.304v59.666c0,1.989,0.79,3.896,2.197,5.304l42.19,42.189c0.731,0.731,1.599,1.291,2.542,1.665
		v61.385c0,0.001,0,0.003,0,0.005v42.509c0,0.001,0,0.003,0,0.005v21.053c0,4.143,3.358,7.5,7.5,7.5h50.188
		c4.142,0,7.5-3.357,7.5-7.5V158.514c0.943-0.374,1.811-0.934,2.542-1.665l42.19-42.189c1.407-1.407,2.197-3.314,2.197-5.304V49.69
		C225.008,47.701,224.218,45.794,222.812,44.387z M163.08,166.606l-35.188,35.188v-42.749h35.188V166.606z M127.891,275.971v-10.449
		l29.003-29.003c2.929-2.93,2.929-7.678,0-10.607c-2.929-2.928-7.678-2.928-10.606,0l-18.396,18.397v-21.3l35.188-35.188v88.151
		H127.891z M210.008,106.25l-37.796,37.796h-1.632h-50.188h-1.632L80.962,106.25V52.797L118.759,15h53.453l37.796,37.797V106.25z"/>
	<path d="M115.088,49.125c-8.12,8.12-12.591,18.915-12.591,30.398c0,11.482,4.472,22.278,12.591,30.397s18.915,12.591,30.397,12.591
		s22.278-4.472,30.397-12.591s12.591-18.915,12.591-30.397c0-11.483-4.472-22.278-12.591-30.398
		c-8.12-8.119-18.915-12.59-30.397-12.59S123.208,41.006,115.088,49.125z M165.276,99.313c-5.287,5.287-12.315,8.198-19.791,8.198
		s-14.504-2.911-19.791-8.198c-5.287-5.286-8.198-12.314-8.198-19.79c0-7.477,2.912-14.505,8.198-19.791s12.315-8.197,19.791-8.197
		c4.904,0,9.613,1.26,13.766,3.615l-24.662,24.663c-2.929,2.93-2.929,7.678,0,10.607c1.464,1.464,3.384,2.196,5.303,2.196
		s3.839-0.732,5.303-2.196l24.663-24.664c2.354,4.154,3.615,8.862,3.615,13.767C173.474,86.999,170.563,94.027,165.276,99.313z"/>
</g>
<g>
</g>
<g>
</g>
<g>
</g>
<g>
</g>
<g>
</g>
<g>
</g>
<g>
</g>
<g>
</g>
<g>
</g>
<g>
</g>
<g>
</g>
<g>
</g>
<g>
</g>
<g>
</g>
<g>
</g>
</svg>
