<?xml version="1.0" encoding="iso-8859-1"?>
<!-- Generator: Adobe Illustrator 17.1.0, SVG Export Plug-In . SVG Version: 6.00 Build 0)  -->
<!DOCTYPE svg PUBLIC "-//W3C//DTD SVG 1.1//EN" "http://www.w3.org/Graphics/SVG/1.1/DTD/svg11.dtd">
<svg version="1.1" id="Capa_1" xmlns="http://www.w3.org/2000/svg" xmlns:xlink="http://www.w3.org/1999/xlink" x="0px" y="0px"
	 viewBox="0 0 325.833 325.833" style="enable-background:new 0 0 325.833 325.833;" xml:space="preserve">
<g>
	<path d="M262.083,0H63.75c-4.142,0-7.5,3.358-7.5,7.5v70.833c0,4.142,3.358,7.5,7.5,7.5h55.417v147.5c0,4.142,3.358,7.5,7.5,7.5
		h72.5c4.142,0,7.5-3.358,7.5-7.5V116.551c0-4.142-3.358-7.5-7.5-7.5s-7.5,3.358-7.5,7.5v109.282h-57.5v-140h127.917
		c4.142,0,7.5-3.358,7.5-7.5V7.5C269.583,3.358,266.225,0,262.083,0z M254.583,70.833H71.25V15h183.333V70.833z"/>
	<path d="M199.167,254.167h-72.5c-4.142,0-7.5,3.358-7.5,7.5s3.358,7.5,7.5,7.5h72.5c4.142,0,7.5-3.358,7.5-7.5
		S203.309,254.167,199.167,254.167z"/>
	<path d="M199.167,282.5h-72.5c-4.142,0-7.5,3.358-7.5,7.5s3.358,7.5,7.5,7.5h72.5c4.142,0,7.5-3.358,7.5-7.5
		S203.309,282.5,199.167,282.5z"/>
	<path d="M199.167,310.833h-72.5c-4.142,0-7.5,3.358-7.5,7.5s3.358,7.5,7.5,7.5h72.5c4.142,0,7.5-3.358,7.5-7.5
		S203.309,310.833,199.167,310.833z"/>
</g>
<g>
</g>
<g>
</g>
<g>
</g>
<g>
</g>
<g>
</g>
<g>
</g>
<g>
</g>
<g>
</g>
<g>
</g>
<g>
</g>
<g>
</g>
<g>
</g>
<g>
</g>
<g>
</g>
<g>
</g>
</svg>
