<?xml version="1.0" encoding="iso-8859-1"?>
<!-- Generator: Adobe Illustrator 17.1.0, SVG Export Plug-In . SVG Version: 6.00 Build 0)  -->
<!DOCTYPE svg PUBLIC "-//W3C//DTD SVG 1.1//EN" "http://www.w3.org/Graphics/SVG/1.1/DTD/svg11.dtd">
<svg version="1.1" id="Capa_1" xmlns="http://www.w3.org/2000/svg" xmlns:xlink="http://www.w3.org/1999/xlink" x="0px" y="0px"
	 viewBox="0 0 347.61 347.61" style="enable-background:new 0 0 347.61 347.61;" xml:space="preserve">
<path d="M206.696,210.266h-25.391V78.75h13.125c4.142,0,7.5-3.358,7.5-7.5V7.5c0-4.142-3.358-7.5-7.5-7.5h-41.25
	c-4.142,0-7.5,3.358-7.5,7.5v63.75c0,4.142,3.358,7.5,7.5,7.5h13.125v131.516h-25.391c-4.142,0-7.5,3.358-7.5,7.5v89.783
	c0,22.09,17.972,40.062,40.062,40.062h0.658c22.09,0,40.062-17.972,40.062-40.062v-89.783
	C214.196,213.624,210.838,210.266,206.696,210.266z M160.68,15h26.25v48.75h-26.25V15z M199.196,307.549
	c0,13.819-11.243,25.062-25.062,25.062h-0.658c-13.819,0-25.062-11.243-25.062-25.062V255h33.619c4.142,0,7.5-3.358,7.5-7.5
	s-3.358-7.5-7.5-7.5h-33.619v-14.734h50.781V307.549z"/>
<g>
</g>
<g>
</g>
<g>
</g>
<g>
</g>
<g>
</g>
<g>
</g>
<g>
</g>
<g>
</g>
<g>
</g>
<g>
</g>
<g>
</g>
<g>
</g>
<g>
</g>
<g>
</g>
<g>
</g>
</svg>
