<?xml version="1.0" encoding="iso-8859-1"?>
<!-- Generator: Adobe Illustrator 17.1.0, SVG Export Plug-In . SVG Version: 6.00 Build 0)  -->
<!DOCTYPE svg PUBLIC "-//W3C//DTD SVG 1.1//EN" "http://www.w3.org/Graphics/SVG/1.1/DTD/svg11.dtd">
<svg version="1.1" id="Capa_1" xmlns="http://www.w3.org/2000/svg" xmlns:xlink="http://www.w3.org/1999/xlink" x="0px" y="0px"
	 viewBox="0 0 357.988 357.988" style="enable-background:new 0 0 357.988 357.988;" xml:space="preserve">
<g>
	<path d="M240.26,178.263v-0.397c0-4.143-3.357-7.5-7.5-7.5h-57.406v-81.36h12.018v62.322c0,4.143,3.357,7.5,7.5,7.5
		s7.5-3.357,7.5-7.5V81.505c0-0.101-0.011-0.199-0.015-0.299c-0.004-0.11-0.007-0.22-0.017-0.331
		c-0.015-0.178-0.039-0.352-0.066-0.526c-0.01-0.064-0.012-0.128-0.024-0.191L188.74,6.153C188.09,2.59,184.985,0,181.362,0
		s-6.728,2.59-7.378,6.153l-13.509,74.005c-0.012,0.063-0.014,0.127-0.024,0.191c-0.027,0.174-0.052,0.348-0.066,0.526
		c-0.009,0.11-0.012,0.22-0.017,0.331c-0.004,0.1-0.015,0.198-0.015,0.299v88.86h-35.125c-4.143,0-7.5,3.357-7.5,7.5v0.397
		c0,14.748,6.854,28.347,18.315,37.11c-3.945,7.119-6.002,15.069-6.002,23.376v32.578c0,4.143,3.357,7.5,7.5,7.5s7.5-3.357,7.5-7.5
		v-32.578c0-7.663,2.538-14.891,7.341-20.9c1.402-1.755,1.944-4.046,1.477-6.244c-0.469-2.197-1.896-4.069-3.893-5.101
		c-8.471-4.377-14.385-12.136-16.44-21.139h90.936c-2.056,9.003-7.97,16.762-16.44,21.139c-1.996,1.031-3.424,2.903-3.893,5.101
		c-0.468,2.198,0.074,4.489,1.477,6.244c4.802,6.01,7.34,13.236,7.34,20.9v70.702c0,18.492-15.045,33.537-33.537,33.537h-0.829
		c-18.492,0-33.537-15.045-33.537-33.537c0-4.143-3.357-7.5-7.5-7.5s-7.5,3.357-7.5,7.5c0,26.764,21.773,48.537,48.537,48.537h0.829
		c26.764,0,48.537-21.773,48.537-48.537v-70.702c0-8.307-2.056-16.257-6.001-23.376C233.405,206.609,240.26,193.011,240.26,178.263z
		 M181.362,49.266l4.516,24.739h-9.031L181.362,49.266z"/>
	<path d="M170.617,312.882V238.61c0-4.143-3.357-7.5-7.5-7.5s-7.5,3.357-7.5,7.5v74.271c0,4.143,3.357,7.5,7.5,7.5
		S170.617,317.024,170.617,312.882z"/>
	<path d="M202.371,312.882V238.61c0-4.143-3.357-7.5-7.5-7.5s-7.5,3.357-7.5,7.5v74.271c0,4.143,3.357,7.5,7.5,7.5
		S202.371,317.024,202.371,312.882z"/>
</g>
<g>
</g>
<g>
</g>
<g>
</g>
<g>
</g>
<g>
</g>
<g>
</g>
<g>
</g>
<g>
</g>
<g>
</g>
<g>
</g>
<g>
</g>
<g>
</g>
<g>
</g>
<g>
</g>
<g>
</g>
</svg>
