<?xml version="1.0" encoding="iso-8859-1"?>
<!-- Generator: Adobe Illustrator 17.1.0, SVG Export Plug-In . SVG Version: 6.00 Build 0)  -->
<!DOCTYPE svg PUBLIC "-//W3C//DTD SVG 1.1//EN" "http://www.w3.org/Graphics/SVG/1.1/DTD/svg11.dtd">
<svg version="1.1" id="Capa_1" xmlns="http://www.w3.org/2000/svg" xmlns:xlink="http://www.w3.org/1999/xlink" x="0px" y="0px"
	 viewBox="0 0 313.758 313.758" style="enable-background:new 0 0 313.758 313.758;" xml:space="preserve">
<g>
	<path d="M272.586,0H41.174c-4.143,0-7.5,3.357-7.5,7.5v59.712c0,4.143,3.357,7.5,7.5,7.5s7.5-3.357,7.5-7.5V15h59.899v109.879
		c0,4.143,3.357,7.5,7.5,7.5s7.5-3.357,7.5-7.5V15h15.757v199.479c0,15.084,12.271,27.355,27.355,27.355h0.4
		c15.084,0,27.355-12.271,27.355-27.355V44.879c0-4.143-3.357-7.5-7.5-7.5s-7.5,3.357-7.5,7.5v169.601
		c0,6.813-5.543,12.355-12.355,12.355h-0.4c-6.813,0-12.355-5.543-12.355-12.355V15h110.756v82.46
		c-23.389,10.047-38.752,33.051-38.752,58.848v1.143c0,12.746,3.738,25.059,10.812,35.606c1.447,2.158,3.819,3.324,6.236,3.324
		c1.437,0,2.888-0.412,4.17-1.271c3.44-2.308,4.359-6.967,2.053-10.406c-5.411-8.068-8.271-17.492-8.271-27.253v-1.143
		c0-21.169,13.51-39.882,33.617-46.564c3.066-1.019,5.135-3.887,5.135-7.117V7.5C280.086,3.357,276.729,0,272.586,0z"/>
	<path d="M272.586,203.633c-4.143,0-7.5,3.357-7.5,7.5v87.625H48.674v-82.459c23.388-10.048,38.751-33.052,38.751-58.849v-1.143
		c0-27.642-17.637-52.075-43.886-60.799c-3.933-1.306-8.176,0.821-9.482,4.752s0.821,8.176,4.752,9.482
		c20.106,6.683,33.616,25.396,33.616,46.564v1.143c0,21.169-13.51,39.882-33.616,46.565c-3.066,1.02-5.135,3.887-5.135,7.117v95.125
		c0,4.143,3.357,7.5,7.5,7.5h231.412c4.143,0,7.5-3.357,7.5-7.5v-95.125C280.086,206.99,276.729,203.633,272.586,203.633z"/>
</g>
<g>
</g>
<g>
</g>
<g>
</g>
<g>
</g>
<g>
</g>
<g>
</g>
<g>
</g>
<g>
</g>
<g>
</g>
<g>
</g>
<g>
</g>
<g>
</g>
<g>
</g>
<g>
</g>
<g>
</g>
</svg>
