<?xml version="1.0" encoding="iso-8859-1"?>
<!-- Generator: Adobe Illustrator 17.1.0, SVG Export Plug-In . SVG Version: 6.00 Build 0)  -->
<!DOCTYPE svg PUBLIC "-//W3C//DTD SVG 1.1//EN" "http://www.w3.org/Graphics/SVG/1.1/DTD/svg11.dtd">
<svg version="1.1" id="Capa_1" xmlns="http://www.w3.org/2000/svg" xmlns:xlink="http://www.w3.org/1999/xlink" x="0px" y="0px"
	 viewBox="0 0 363.194 363.194" style="enable-background:new 0 0 363.194 363.194;" xml:space="preserve">
<g>
	<path d="M259.93,223.931h-56.666V65.597c0-4.142-3.357-7.5-7.5-7.5s-7.5,3.358-7.5,7.5v158.333H174.93V46.777h59.584
		c4.143,0,7.5-3.358,7.5-7.5V7.5c0-4.142-3.357-7.5-7.5-7.5H128.68c-4.143,0-7.5,3.358-7.5,7.5v31.777c0,4.142,3.357,7.5,7.5,7.5
		h31.25v177.154h-56.666c-4.143,0-7.5,3.358-7.5,7.5c0,30.522,14.188,62.813,41.031,93.379
		c19.964,22.733,39.707,36.48,40.538,37.055c1.282,0.887,2.773,1.33,4.264,1.33s2.981-0.443,4.264-1.33
		c0.831-0.574,20.574-14.321,40.538-37.055c26.843-30.566,41.031-62.856,41.031-93.379
		C267.43,227.289,264.073,223.931,259.93,223.931z M136.18,15h90.834v16.777H136.18V15z M181.597,346.348
		c-15.201-11.742-65.981-54.685-70.51-107.417h56.343h28.334h56.343C247.579,291.664,196.798,334.606,181.597,346.348z"/>
	<path d="M185.861,316.52c-0.354-0.245-32.818-23.006-37.813-52.468h33.55c4.143,0,7.5-3.358,7.5-7.5s-3.357-7.5-7.5-7.5h-41.691
		c-4.143,0-7.5,3.358-7.5,7.5c0,40.789,43.093,71.04,44.928,72.308c1.301,0.899,2.786,1.331,4.257,1.331
		c2.38,0,4.721-1.13,6.177-3.236C190.122,323.546,189.269,318.875,185.861,316.52z"/>
</g>
<g>
</g>
<g>
</g>
<g>
</g>
<g>
</g>
<g>
</g>
<g>
</g>
<g>
</g>
<g>
</g>
<g>
</g>
<g>
</g>
<g>
</g>
<g>
</g>
<g>
</g>
<g>
</g>
<g>
</g>
</svg>
