<?xml version="1.0" encoding="iso-8859-1"?>
<!-- Generator: Adobe Illustrator 17.1.0, SVG Export Plug-In . SVG Version: 6.00 Build 0)  -->
<!DOCTYPE svg PUBLIC "-//W3C//DTD SVG 1.1//EN" "http://www.w3.org/Graphics/SVG/1.1/DTD/svg11.dtd">
<svg version="1.1" id="Capa_1" xmlns="http://www.w3.org/2000/svg" xmlns:xlink="http://www.w3.org/1999/xlink" x="0px" y="0px"
	 viewBox="0 0 365.874 365.874" style="enable-background:new 0 0 365.874 365.874;" xml:space="preserve">
<g>
	<path d="M261.27,223.931h-58.333V46.777h31.25c4.143,0,7.5-3.358,7.5-7.5V7.5c0-4.142-3.357-7.5-7.5-7.5H128.354
		c-4.143,0-7.5,3.358-7.5,7.5v31.777c0,4.142,3.357,7.5,7.5,7.5h59.583v177.154h-13.333V66.437c0-4.142-3.357-7.5-7.5-7.5
		s-7.5,3.358-7.5,7.5v157.494h-55c-2.342,0-4.549,1.093-5.967,2.956c-1.419,1.863-1.886,4.281-1.263,6.539l35.021,126.943
		c0.896,3.252,3.855,5.505,7.229,5.505h86.625c3.374,0,6.333-2.253,7.229-5.505l26.19-94.936c1.102-3.993-1.242-8.123-5.235-9.225
		c-3.992-1.103-8.123,1.243-9.224,5.235l-24.672,89.431h-75.203l-30.882-111.943h52.65h28.333h65.833c4.143,0,7.5-3.358,7.5-7.5
		S265.413,223.931,261.27,223.931z M135.854,15h90.833v16.777h-90.833V15z"/>
	<path d="M190.981,257.765c0-4.142-3.357-7.5-7.5-7.5h-46.377c-2.342,0-4.549,1.093-5.967,2.956
		c-1.419,1.863-1.886,4.281-1.263,6.539l20.49,74.275c0.917,3.326,3.935,5.507,7.226,5.507c0.66,0,1.331-0.088,1.998-0.272
		c3.993-1.102,6.337-5.231,5.235-9.225l-17.87-64.781h36.527C187.624,265.265,190.981,261.907,190.981,257.765z"/>
</g>
<g>
</g>
<g>
</g>
<g>
</g>
<g>
</g>
<g>
</g>
<g>
</g>
<g>
</g>
<g>
</g>
<g>
</g>
<g>
</g>
<g>
</g>
<g>
</g>
<g>
</g>
<g>
</g>
<g>
</g>
</svg>
