<?xml version="1.0" encoding="iso-8859-1"?>
<!-- Generator: Adobe Illustrator 17.1.0, SVG Export Plug-In . SVG Version: 6.00 Build 0)  -->
<!DOCTYPE svg PUBLIC "-//W3C//DTD SVG 1.1//EN" "http://www.w3.org/Graphics/SVG/1.1/DTD/svg11.dtd">
<svg version="1.1" id="Capa_1" xmlns="http://www.w3.org/2000/svg" xmlns:xlink="http://www.w3.org/1999/xlink" x="0px" y="0px"
	 viewBox="0 0 336.807 336.807" style="enable-background:new 0 0 336.807 336.807;" xml:space="preserve">
<g>
	<path d="M314.764,146.081H195.959V59.635c0-2.494,2.028-4.523,4.522-4.523h0.243c2.494,0,4.522,2.029,4.522,4.523v13.75
		c0,4.143,3.357,7.5,7.5,7.5h40.111c4.143,0,7.5-3.357,7.5-7.5V59.233C260.358,26.572,233.787,0,201.126,0h-1.045
		c-32.661,0-59.233,26.572-59.233,59.233v86.848H22.043c-4.143,0-7.5,3.357-7.5,7.5v59.504c0,23.364,9.227,44.807,25.98,60.378
		c16.329,15.176,38.365,23.534,62.048,23.534h38.276v32.31c0,4.143,3.357,7.5,7.5,7.5h40.111c4.143,0,7.5-3.357,7.5-7.5v-32.31
		h38.276c23.683,0,45.719-8.358,62.048-23.534c16.754-15.571,25.98-37.014,25.98-60.378v-59.504
		C322.264,149.438,318.906,146.081,314.764,146.081z M155.848,59.233C155.848,34.843,175.69,15,200.081,15h1.045
		c24.39,0,44.232,19.843,44.232,44.233v6.651h-25.111v-6.25c0-10.766-8.758-19.523-19.522-19.523h-0.243
		c-10.765,0-19.522,8.758-19.522,19.523v84.485h-25.111V59.233z M180.959,321.807h-25.111v-24.81h25.111V321.807z M234.235,281.997
		h-45.776h-40.111h-45.776c-41.633,0-73.028-29.626-73.028-68.912v-52.004h277.721v12.17H46.824c-4.143,0-7.5,3.357-7.5,7.5
		s3.357,7.5,7.5,7.5h260.439v24.834C307.264,252.371,275.868,281.997,234.235,281.997z"/>
	<path d="M252.858,90.483h-40.144c-4.143,0-7.5,3.357-7.5,7.5s3.357,7.5,7.5,7.5h40.144c4.143,0,7.5-3.357,7.5-7.5
		S257.001,90.483,252.858,90.483z"/>
</g>
<g>
</g>
<g>
</g>
<g>
</g>
<g>
</g>
<g>
</g>
<g>
</g>
<g>
</g>
<g>
</g>
<g>
</g>
<g>
</g>
<g>
</g>
<g>
</g>
<g>
</g>
<g>
</g>
<g>
</g>
</svg>
