<?xml version="1.0" encoding="iso-8859-1"?>
<!-- Generator: Adobe Illustrator 17.1.0, SVG Export Plug-In . SVG Version: 6.00 Build 0)  -->
<!DOCTYPE svg PUBLIC "-//W3C//DTD SVG 1.1//EN" "http://www.w3.org/Graphics/SVG/1.1/DTD/svg11.dtd">
<svg version="1.1" id="Capa_1" xmlns="http://www.w3.org/2000/svg" xmlns:xlink="http://www.w3.org/1999/xlink" x="0px" y="0px"
	 viewBox="0 0 222.461 222.461" style="enable-background:new 0 0 222.461 222.461;" xml:space="preserve">
<g>
	<path d="M189.54,0H32.921c-13.35,0-24.21,10.861-24.21,24.21c0,4.142,3.358,7.5,7.5,7.5s7.5-3.358,7.5-7.5
		c0-5.079,4.132-9.21,9.21-9.21H189.54c5.079,0,9.21,4.132,9.21,9.21v174.04c0,5.079-4.132,9.21-9.21,9.21H32.921
		c-5.079,0-9.21-4.132-9.21-9.21V87.563c0-4.142-3.358-7.5-7.5-7.5s-7.5,3.358-7.5,7.5V198.25c0,13.35,10.861,24.21,24.21,24.21
		H189.54c13.35,0,24.21-10.861,24.21-24.21V24.21C213.75,10.861,202.889,0,189.54,0z"/>
	<path d="M111.23,22.877c-4.142,0-7.5,3.358-7.5,7.5v17.979C72.333,52.08,47.897,78.847,47.897,111.23s24.436,59.151,55.833,62.874
		v17.979c0,4.142,3.358,7.5,7.5,7.5s7.5-3.358,7.5-7.5v-17.97c9.452-1.119,18.526-4.341,26.585-9.496
		c3.489-2.232,4.508-6.87,2.276-10.359c-2.231-3.489-6.869-4.509-10.359-2.276c-7.755,4.96-16.747,7.583-26.002,7.583
		c-26.651,0-48.333-21.682-48.333-48.333s21.682-48.333,48.333-48.333s48.333,21.682,48.333,48.333
		c0,7.111-1.506,13.956-4.477,20.346c-1.746,3.756-0.117,8.217,3.64,9.963c3.755,1.745,8.216,0.116,9.963-3.64
		c3.897-8.385,5.874-17.357,5.874-26.669c0-32.383-24.436-59.151-55.833-62.874V30.377C118.73,26.235,115.373,22.877,111.23,22.877z
		"/>
	<path d="M106.32,105.93c-1.39,1.39-2.19,3.33-2.19,5.3c0,1.97,0.8,3.91,2.19,5.3c1.4,1.4,3.33,2.2,5.31,2.2c1.97,0,3.9-0.8,5.3-2.2
		c1.4-1.39,2.2-3.33,2.2-5.3c0-1.97-0.8-3.91-2.2-5.3c-1.4-1.4-3.33-2.2-5.3-2.2C109.65,103.73,107.72,104.53,106.32,105.93z"/>
	<path d="M130.93,105.93c-1.4,1.39-2.2,3.32-2.2,5.3s0.8,3.91,2.2,5.3c1.39,1.4,3.33,2.2,5.3,2.2c1.97,0,3.91-0.8,5.3-2.2
		c1.4-1.39,2.2-3.33,2.2-5.3c0-1.97-0.8-3.91-2.2-5.3c-1.39-1.4-3.32-2.2-5.3-2.2S132.32,104.53,130.93,105.93z"/>
	<path d="M80.93,105.93c-1.4,1.39-2.2,3.33-2.2,5.3c0,1.97,0.8,3.91,2.2,5.3c1.39,1.4,3.33,2.2,5.3,2.2c1.98,0,3.91-0.8,5.3-2.2
		c1.4-1.39,2.2-3.33,2.2-5.3c0-1.97-0.8-3.91-2.2-5.3c-1.39-1.4-3.33-2.2-5.3-2.2C84.26,103.73,82.32,104.53,80.93,105.93z"/>
</g>
<g>
</g>
<g>
</g>
<g>
</g>
<g>
</g>
<g>
</g>
<g>
</g>
<g>
</g>
<g>
</g>
<g>
</g>
<g>
</g>
<g>
</g>
<g>
</g>
<g>
</g>
<g>
</g>
<g>
</g>
</svg>
