<?xml version="1.0" encoding="iso-8859-1"?>
<!-- Generator: Adobe Illustrator 17.1.0, SVG Export Plug-In . SVG Version: 6.00 Build 0)  -->
<!DOCTYPE svg PUBLIC "-//W3C//DTD SVG 1.1//EN" "http://www.w3.org/Graphics/SVG/1.1/DTD/svg11.dtd">
<svg version="1.1" id="Capa_1" xmlns="http://www.w3.org/2000/svg" xmlns:xlink="http://www.w3.org/1999/xlink" x="0px" y="0px"
	 viewBox="0 0 329.377 329.377" style="enable-background:new 0 0 329.377 329.377;" xml:space="preserve">
<g>
	<path d="M220.757,109.053l-2.5-8.689c-5.248-18.245-22.172-30.987-41.156-30.987h-5.926v-38.75c0-4.142-3.358-7.5-7.5-7.5h-46.719
		c-4.142,0-7.5,3.358-7.5,7.5v38.75h-5.926c-18.984,0-35.908,12.742-41.156,30.987l-2.607,9.064
		c-0.002,0.006-0.004,0.013-0.005,0.019l-0.041,0.143c-0.013,0.046-0.019,0.092-0.031,0.138c-0.053,0.2-0.1,0.403-0.137,0.609
		c-0.017,0.092-0.029,0.184-0.042,0.276c-0.024,0.173-0.043,0.348-0.055,0.525c-0.008,0.109-0.014,0.217-0.016,0.326
		c-0.002,0.067-0.01,0.132-0.01,0.199v210.214c0,4.142,3.358,7.5,7.5,7.5h86.933c4.142,0,7.5-3.358,7.5-7.5s-3.358-7.5-7.5-7.5
		H74.427V145.002h88.339c4.142,0,7.5-3.358,7.5-7.5s-3.358-7.5-7.5-7.5H74.427v-10.839h131.776v42.089h-94.375
		c-4.142,0-7.5,3.358-7.5,7.5v106.305c0,4.142,3.358,7.5,7.5,7.5h94.375v39.32c0,4.142,3.358,7.5,7.5,7.5s7.5-3.358,7.5-7.5v-46.82
		V168.752V112.06c0.007-0.132,0.02-0.263,0.02-0.397C221.224,110.746,221.059,109.866,220.757,109.053z M124.456,38.127h31.719
		v8.125h-11.221c-4.142,0-7.5,3.358-7.5,7.5s3.358,7.5,7.5,7.5h11.221v8.125h-31.719V38.127z M76.891,104.164
		c3.523-11.669,14.424-19.786,26.639-19.786h13.426h46.719h13.426c12.214,0,23.116,8.117,26.639,19.786H76.891z M119.329,267.558
		v-91.305h86.875v91.305H119.329z"/>
	<path d="M189.33,61.25c1.97,0,3.9-0.8,5.3-2.19c1.4-1.4,2.2-3.33,2.2-5.31c0-1.97-0.8-3.9-2.2-5.3s-3.33-2.2-5.3-2.2
		c-1.98,0-3.91,0.8-5.31,2.2c-1.39,1.4-2.19,3.33-2.19,5.3c0,1.98,0.8,3.91,2.19,5.31C185.42,60.45,187.36,61.25,189.33,61.25z"/>
	<path d="M213.7,61.25c1.98,0,3.91-0.8,5.31-2.19c1.39-1.4,2.19-3.33,2.19-5.31c0-1.97-0.8-3.9-2.19-5.3c-1.4-1.4-3.33-2.2-5.31-2.2
		c-1.97,0-3.9,0.8-5.3,2.2s-2.2,3.33-2.2,5.3c0,1.98,0.8,3.91,2.2,5.31C209.8,60.45,211.73,61.25,213.7,61.25z"/>
	<path d="M213.7,38.13c1.98,0,3.91-0.8,5.31-2.2c1.39-1.39,2.19-3.33,2.19-5.3c0-1.98-0.8-3.91-2.19-5.31
		c-1.4-1.39-3.33-2.19-5.31-2.19c-1.97,0-3.9,0.8-5.3,2.19c-1.4,1.4-2.2,3.33-2.2,5.31c0,1.97,0.8,3.91,2.2,5.3
		C209.8,37.33,211.73,38.13,213.7,38.13z"/>
	<path d="M238.08,23.13c-1.97,0-3.91,0.8-5.3,2.19c-1.4,1.4-2.2,3.33-2.2,5.31c0,1.97,0.8,3.91,2.2,5.3c1.39,1.4,3.32,2.2,5.3,2.2
		c1.97,0,3.9-0.8,5.3-2.2c1.4-1.39,2.2-3.33,2.2-5.3c0-1.98-0.8-3.91-2.2-5.31C241.98,23.93,240.05,23.13,238.08,23.13z"/>
	<path d="M238.08,0c-1.98,0-3.91,0.8-5.3,2.2c-1.4,1.39-2.2,3.33-2.2,5.3c0,1.98,0.8,3.91,2.2,5.31c1.39,1.39,3.32,2.19,5.3,2.19
		c1.97,0,3.91-0.8,5.3-2.19c1.4-1.4,2.2-3.33,2.2-5.31c0-1.97-0.8-3.9-2.2-5.3S240.05,0,238.08,0z"/>
	<path d="M262.45,15c1.98,0,3.91-0.8,5.31-2.19c1.39-1.4,2.19-3.33,2.19-5.31c0-1.97-0.8-3.9-2.19-5.3c-1.4-1.4-3.33-2.2-5.31-2.2
		c-1.97,0-3.9,0.8-5.3,2.2c-1.4,1.39-2.2,3.33-2.2,5.3c0,1.98,0.8,3.91,2.2,5.31C258.541,14.2,260.48,15,262.45,15z"/>
	<path d="M262.45,23.13c-1.97,0-3.9,0.8-5.3,2.19c-1.4,1.4-2.2,3.33-2.2,5.31c0,1.97,0.8,3.91,2.2,5.3c1.4,1.4,3.33,2.2,5.3,2.2
		c1.98,0,3.91-0.8,5.31-2.2c1.39-1.39,2.19-3.33,2.19-5.3c0-1.98-0.8-3.91-2.19-5.31C266.36,23.93,264.43,23.13,262.45,23.13z"/>
	<path d="M238.08,46.25c-1.98,0-3.91,0.8-5.3,2.2c-1.4,1.4-2.2,3.33-2.2,5.3c0,1.98,0.8,3.91,2.2,5.31c1.39,1.39,3.33,2.19,5.3,2.19
		c1.97,0,3.9-0.8,5.3-2.19c1.4-1.4,2.2-3.33,2.2-5.31c0-1.97-0.8-3.9-2.2-5.3C241.99,47.05,240.05,46.25,238.08,46.25z"/>
	<path d="M262.45,46.25c-1.97,0-3.9,0.8-5.3,2.2s-2.2,3.33-2.2,5.3c0,1.98,0.8,3.91,2.2,5.31c1.4,1.39,3.33,2.19,5.3,2.19
		c1.98,0,3.91-0.8,5.31-2.19c1.39-1.4,2.19-3.33,2.19-5.31c0-1.97-0.8-3.9-2.19-5.3C266.36,47.05,264.43,46.25,262.45,46.25z"/>
</g>
<g>
</g>
<g>
</g>
<g>
</g>
<g>
</g>
<g>
</g>
<g>
</g>
<g>
</g>
<g>
</g>
<g>
</g>
<g>
</g>
<g>
</g>
<g>
</g>
<g>
</g>
<g>
</g>
<g>
</g>
</svg>
