<?xml version="1.0" encoding="iso-8859-1"?>
<!-- Generator: Adobe Illustrator 17.1.0, SVG Export Plug-In . SVG Version: 6.00 Build 0)  -->
<!DOCTYPE svg PUBLIC "-//W3C//DTD SVG 1.1//EN" "http://www.w3.org/Graphics/SVG/1.1/DTD/svg11.dtd">
<svg version="1.1" id="Capa_1" xmlns="http://www.w3.org/2000/svg" xmlns:xlink="http://www.w3.org/1999/xlink" x="0px" y="0px"
	 viewBox="0 0 404.973 404.973" style="enable-background:new 0 0 404.973 404.973;" xml:space="preserve">
<path d="M343.905,215.465l-14.006-50.395c-0.902-3.245-3.858-5.491-7.227-5.491h-68.163v-95c0-2.277-1.035-4.432-2.813-5.855
	c-1.778-1.423-4.111-1.962-6.329-1.463l-144.778,32.5c-3.424,0.77-5.857,3.81-5.857,7.318v53.659c0,4.143,3.357,7.5,7.5,7.5
	s7.5-3.357,7.5-7.5v-47.656l129.778-29.133v93.13v52.003h-63.771c-15.35-25.982-43.101-41.943-73.507-41.943
	c-30.407,0-58.157,15.961-73.506,41.943H7.5c-4.143,0-7.5,3.357-7.5,7.5v30.497c0,4.143,3.357,7.5,7.5,7.5h9.406
	c1.102,46.125,38.94,83.316,85.326,83.316c46.387,0,84.225-37.191,85.327-83.316h19.257c4.143,0,7.5-3.357,7.5-7.5
	s-3.357-7.5-7.5-7.5H15v-15.497h224.509v22.997c0,4.143,3.357,7.5,7.5,7.5h100.678c0.005-0.001,0.013-0.001,0.02,0
	c4.143,0,7.5-3.357,7.5-7.5c0-0.895-0.156-1.752-0.443-2.548l-6.497-23.376c23.718,4.519,41.707,25.398,41.707,50.412
	c0,28.303-23.026,51.329-51.329,51.329c-25.858,0-47.756-19.316-50.935-44.933c-0.511-4.11-4.26-7.021-8.367-6.52
	c-4.11,0.511-7.029,4.257-6.52,8.367c4.11,33.114,32.407,58.085,65.821,58.085c36.574,0,66.329-29.755,66.329-66.329
	C404.973,246.764,378.026,218.157,343.905,215.465z M102.231,332.895c-38.115,0-69.229-30.462-70.326-68.316h140.652
	C171.461,302.433,140.347,332.895,102.231,332.895z M102.231,192.138c21.932,0,42.188,10.076,55.39,26.943H46.843
	C60.043,202.214,80.299,192.138,102.231,192.138z M254.509,249.578v-22.997v-52.003h62.463l20.846,75H254.509z"/>
<g>
</g>
<g>
</g>
<g>
</g>
<g>
</g>
<g>
</g>
<g>
</g>
<g>
</g>
<g>
</g>
<g>
</g>
<g>
</g>
<g>
</g>
<g>
</g>
<g>
</g>
<g>
</g>
<g>
</g>
</svg>
