<?xml version="1.0" encoding="iso-8859-1"?>
<!-- Generator: Adobe Illustrator 17.1.0, SVG Export Plug-In . SVG Version: 6.00 Build 0)  -->
<!DOCTYPE svg PUBLIC "-//W3C//DTD SVG 1.1//EN" "http://www.w3.org/Graphics/SVG/1.1/DTD/svg11.dtd">
<svg version="1.1" id="Capa_1" xmlns="http://www.w3.org/2000/svg" xmlns:xlink="http://www.w3.org/1999/xlink" x="0px" y="0px"
	 viewBox="0 0 345.053 345.053" style="enable-background:new 0 0 345.053 345.053;" xml:space="preserve">
<g>
	<path d="M342.856,98.867l-96.67-96.67C244.779,0.79,242.872,0,240.883,0H104.17c-1.989,0-3.896,0.79-5.304,2.197l-96.67,96.67
		C0.79,100.273,0,102.181,0,104.17v136.713c0,4.142,3.357,7.5,7.5,7.5s7.5-3.358,7.5-7.5V107.276L107.276,15h130.5l92.276,92.276
		v130.5l-92.276,92.276h-130.5l-46.138-46.138c-2.93-2.929-7.678-2.929-10.607,0c-2.929,2.929-2.929,7.678,0,10.606l48.335,48.335
		c1.407,1.407,3.314,2.197,5.304,2.197h136.713c1.989,0,3.896-0.79,5.304-2.197l96.67-96.67c1.406-1.406,2.196-3.314,2.196-5.303
		V104.17C345.053,102.181,344.263,100.273,342.856,98.867z"/>
	<path d="M230.389,187.026c4.143,0,7.5-3.358,7.5-7.5V102.9c0-13.625-11.085-24.71-24.71-24.71h-0.348
		c-3.574,0-6.969,0.769-10.04,2.14c-1.921-11.726-12.12-20.703-24.381-20.703h-0.348c-12.056,0-22.469,8.624-25.645,20.854
		c-3.156-1.466-6.669-2.291-10.373-2.291h-0.348c-13.625,0-24.71,11.085-24.71,24.71v0.866c-2.982-1.28-6.264-1.991-9.71-1.991
		h-0.348c-13.626,0-24.711,11.085-24.711,24.71v60.023v23.586v21.458c0,29.706,24.168,53.873,53.874,53.873h28.585
		c22.628,0,45.054-7.486,63.185-21.108l51.625-39.323c5.459-3.396,9.321-8.683,10.897-14.934c1.613-6.4,0.638-13.045-2.752-18.72
		l-0.174-0.29c-6.985-11.698-22.188-15.53-33.885-8.543c-0.158,0.094-0.313,0.194-0.463,0.3l-24.134,16.938
		c-9.763-2.385-35.45-5.864-56.189,16.059c-2.847,3.009-2.715,7.756,0.294,10.603c1.45,1.372,3.303,2.052,5.153,2.052
		c1.989,0,3.975-0.787,5.449-2.346c18.682-19.747,43.031-11.506,44.163-11.107c2.559,0.922,5.286,0.359,7.258-1.236l26.365-18.504
		c4.569-2.581,10.405-1.052,13.116,3.484l0.174,0.29c1.33,2.227,1.713,4.838,1.079,7.354c-0.635,2.515-2.21,4.632-4.437,5.962
		c-0.242,0.145-0.475,0.302-0.699,0.473l-51.892,39.526c-15.51,11.653-34.735,18.07-54.135,18.07h-28.585
		c-21.436,0-38.874-17.438-38.874-38.873v-21.458v-23.586v-60.023c0-5.354,4.356-9.71,9.711-9.71h0.348
		c5.354,0,9.71,4.356,9.71,9.71v60.023v23.586c0,4.142,3.357,7.5,7.5,7.5s7.5-3.358,7.5-7.5v-23.586v-60.023V102.9
		c0-5.354,4.355-9.71,9.71-9.71h0.348c5.354,0,9.71,4.356,9.71,9.71v65.045v18.564c0,4.142,3.357,7.5,7.5,7.5s7.5-3.358,7.5-7.5
		v-18.564V102.9V85.027c1.238-5.967,6.014-10.4,11.308-10.4h0.348c5.354,0,9.711,4.356,9.711,9.71V102.9v65.045v18.564
		c0,4.142,3.357,7.5,7.5,7.5s7.5-3.358,7.5-7.5v-18.564V102.9c0-5.354,4.355-9.71,9.71-9.71h0.348c5.354,0,9.71,4.356,9.71,9.71
		v76.626C222.889,183.668,226.246,187.026,230.389,187.026z"/>
</g>
<g>
</g>
<g>
</g>
<g>
</g>
<g>
</g>
<g>
</g>
<g>
</g>
<g>
</g>
<g>
</g>
<g>
</g>
<g>
</g>
<g>
</g>
<g>
</g>
<g>
</g>
<g>
</g>
<g>
</g>
</svg>
