<?xml version="1.0" encoding="iso-8859-1"?>
<!-- Generator: Adobe Illustrator 17.1.0, SVG Export Plug-In . SVG Version: 6.00 Build 0)  -->
<!DOCTYPE svg PUBLIC "-//W3C//DTD SVG 1.1//EN" "http://www.w3.org/Graphics/SVG/1.1/DTD/svg11.dtd">
<svg version="1.1" id="Capa_1" xmlns="http://www.w3.org/2000/svg" xmlns:xlink="http://www.w3.org/1999/xlink" x="0px" y="0px"
	 viewBox="0 0 353.188 353.188" style="enable-background:new 0 0 353.188 353.188;" xml:space="preserve">
<g>
	<path d="M242.135,230.232c-12.104,0-21.95,9.847-21.95,21.95s9.847,21.95,21.95,21.95s21.95-9.847,21.95-21.95
		S254.239,230.232,242.135,230.232z M242.135,259.133c-3.833,0-6.95-3.118-6.95-6.95s3.118-6.95,6.95-6.95s6.95,3.118,6.95,6.95
		S245.968,259.133,242.135,259.133z"/>
	<path d="M352.181,50.163c-1.025-1.773-2.73-3.05-4.721-3.535c-0.659-0.16-16.33-3.885-34.581-0.884
		c-25.014,4.114-42.772,18.687-51.355,42.145c-0.013,0.036-0.026,0.072-0.039,0.109l-20.988,60.215
		c-1.363,3.911,0.702,8.187,4.614,9.55c3.909,1.365,8.187-0.702,9.55-4.614l20.968-60.158c12.423-33.869,45.313-34.64,60.48-33.036
		l-41.367,141.68c-5.44-9.273-13.472-16.844-23.097-21.717l27.169-72.132c1.46-3.876-0.499-8.202-4.375-9.662
		c-3.874-1.462-8.202,0.498-9.662,4.375l-27.309,72.502c-3.558-0.712-7.234-1.092-10.998-1.092H55.937
		C25.093,173.91,0,199.003,0,229.846v21.847v0.979c0,30.844,25.093,55.937,55.937,55.937h190.535
		c30.844,0,55.937-25.093,55.937-55.937v-0.979v-21.847c0-0.402-0.022-0.799-0.031-1.2c0.173-0.361,0.321-0.74,0.437-1.136
		l50.072-171.492C353.461,54.052,353.206,51.936,352.181,50.163z M55.937,188.91h190.535c14.36,0,27.009,7.439,34.317,18.659
		c-9.483-7.392-21.39-11.812-34.317-11.812H55.937c-12.927,0-24.834,4.42-34.317,11.812C28.929,196.348,41.577,188.91,55.937,188.91
		z M246.472,293.608H55.937C33.364,293.608,15,275.244,15,252.672v-0.979c0-22.572,18.364-40.937,40.937-40.937h190.535
		c22.573,0,40.937,18.364,40.937,40.937v0.979C287.409,275.244,269.044,293.608,246.472,293.608z"/>
</g>
<g>
</g>
<g>
</g>
<g>
</g>
<g>
</g>
<g>
</g>
<g>
</g>
<g>
</g>
<g>
</g>
<g>
</g>
<g>
</g>
<g>
</g>
<g>
</g>
<g>
</g>
<g>
</g>
<g>
</g>
</svg>
