<?xml version="1.0" encoding="iso-8859-1"?>
<!-- Generator: Adobe Illustrator 17.1.0, SVG Export Plug-In . SVG Version: 6.00 Build 0)  -->
<!DOCTYPE svg PUBLIC "-//W3C//DTD SVG 1.1//EN" "http://www.w3.org/Graphics/SVG/1.1/DTD/svg11.dtd">
<svg version="1.1" id="Capa_1" xmlns="http://www.w3.org/2000/svg" xmlns:xlink="http://www.w3.org/1999/xlink" x="0px" y="0px"
	 viewBox="0 0 324.908 324.908" style="enable-background:new 0 0 324.908 324.908;" xml:space="preserve">
<path d="M324.908,79.177c0-4.142-3.358-7.5-7.5-7.5h-64.579l-17.171-43.439c-1.131-2.862-3.896-4.743-6.975-4.743H103.875
	c-3.078,0-5.843,1.88-6.975,4.743l-8.474,21.437c-1.523,3.852,0.365,8.209,4.217,9.732c3.853,1.523,8.209-0.366,9.732-4.217
	l6.6-16.694h114.608L236.7,71.677H7.5c-4.142,0-7.5,3.358-7.5,7.5v46.397c0,0.033,0.005,0.066,0.005,0.099
	c0.002,0.131,0.011,0.263,0.02,0.395c0.009,0.131,0.017,0.262,0.032,0.392c0.004,0.033,0.004,0.066,0.008,0.1l22.306,168.338
	c0.494,3.729,3.674,6.515,7.435,6.515h265.296c3.761,0,6.941-2.786,7.435-6.515l22.306-168.338c0.004-0.033,0.004-0.066,0.008-0.1
	c0.015-0.129,0.023-0.26,0.032-0.392c0.009-0.132,0.018-0.264,0.02-0.395c0-0.033,0.005-0.066,0.005-0.099V79.177z M288.53,286.413
	H36.378L15,125.079V86.677h232.705c0.009,0,0.017,0.002,0.026,0.002c0.014,0,0.028-0.002,0.042-0.002h62.135v31.397h-33.265v-12.129
	c0-4.142-3.358-7.5-7.5-7.5h-42.828c-4.142,0-7.5,3.358-7.5,7.5v12.129H113.742v-12.129c0-4.142-3.358-7.5-7.5-7.5H63.414
	c-4.142,0-7.5,3.358-7.5,7.5v12.129h-12.96c-4.142,0-7.5,3.358-7.5,7.5s3.358,7.5,7.5,7.5h12.96v33.742c0,4.142,3.358,7.5,7.5,7.5
	h42.828c4.142,0,7.5-3.358,7.5-7.5v-33.742h105.073v33.742c0,4.142,3.358,7.5,7.5,7.5h42.828c4.142,0,7.5-3.358,7.5-7.5v-13.362
	c0-4.142-3.358-7.5-7.5-7.5s-7.5,3.358-7.5,7.5v5.862h-27.828v-26.242h75.034L288.53,286.413z M261.643,118.074h-27.828v-4.629
	h27.828V118.074z M70.914,133.074h27.828v26.242H70.914V133.074z M70.914,118.074v-4.629h27.828v4.629H70.914z"/>
<g>
</g>
<g>
</g>
<g>
</g>
<g>
</g>
<g>
</g>
<g>
</g>
<g>
</g>
<g>
</g>
<g>
</g>
<g>
</g>
<g>
</g>
<g>
</g>
<g>
</g>
<g>
</g>
<g>
</g>
</svg>
