<?xml version="1.0" encoding="iso-8859-1"?>
<!-- Generator: Adobe Illustrator 17.1.0, SVG Export Plug-In . SVG Version: 6.00 Build 0)  -->
<!DOCTYPE svg PUBLIC "-//W3C//DTD SVG 1.1//EN" "http://www.w3.org/Graphics/SVG/1.1/DTD/svg11.dtd">
<svg version="1.1" id="Capa_1" xmlns="http://www.w3.org/2000/svg" xmlns:xlink="http://www.w3.org/1999/xlink" x="0px" y="0px"
	 viewBox="0 0 328.75 328.75" style="enable-background:new 0 0 328.75 328.75;" xml:space="preserve">
<g>
	<path d="M321.25,135.711H42.5V99.826c0-37.334,30.373-67.707,67.707-67.707h108.336c37.334,0,67.707,30.373,67.707,67.707
		c0,4.143,3.357,7.5,7.5,7.5s7.5-3.357,7.5-7.5c0-45.604-37.103-82.707-82.707-82.707H110.207
		c-45.604,0-82.707,37.103-82.707,82.707v35.885h-20c-4.143,0-7.5,3.357-7.5,7.5v70v90.92c0,4.143,3.357,7.5,7.5,7.5h313.75
		c4.143,0,7.5-3.357,7.5-7.5v-90.92v-70C328.75,139.068,325.393,135.711,321.25,135.711z M313.75,296.631H15v-75.92h256.375
		c4.143,0,7.5-3.357,7.5-7.5s-3.357-7.5-7.5-7.5h-99.5v-41.336c0-4.143-3.357-7.5-7.5-7.5s-7.5,3.357-7.5,7.5v41.336H15v-55h298.75
		v62.5V296.631z"/>
	<path d="M135,170.711H93.75c-4.143,0-7.5,3.357-7.5,7.5s3.357,7.5,7.5,7.5H135c4.143,0,7.5-3.357,7.5-7.5
		S139.143,170.711,135,170.711z"/>
	<path d="M237.482,170.711h-41.25c-4.143,0-7.5,3.357-7.5,7.5s3.357,7.5,7.5,7.5h41.25c4.143,0,7.5-3.357,7.5-7.5
		S241.625,170.711,237.482,170.711z"/>
</g>
<g>
</g>
<g>
</g>
<g>
</g>
<g>
</g>
<g>
</g>
<g>
</g>
<g>
</g>
<g>
</g>
<g>
</g>
<g>
</g>
<g>
</g>
<g>
</g>
<g>
</g>
<g>
</g>
<g>
</g>
</svg>
