<?xml version="1.0" encoding="iso-8859-1"?>
<!-- Generator: Adobe Illustrator 17.1.0, SVG Export Plug-In . SVG Version: 6.00 Build 0)  -->
<!DOCTYPE svg PUBLIC "-//W3C//DTD SVG 1.1//EN" "http://www.w3.org/Graphics/SVG/1.1/DTD/svg11.dtd">
<svg version="1.1" id="Capa_1" xmlns="http://www.w3.org/2000/svg" xmlns:xlink="http://www.w3.org/1999/xlink" x="0px" y="0px"
	 viewBox="0 0 334.887 334.887" style="enable-background:new 0 0 334.887 334.887;" xml:space="preserve">
<path d="M332.69,146.962l-39.063-39.063c7.613-18.785,3.363-40.869-11.204-55.436C267.86,37.901,245.772,33.65,226.989,41.26
	L187.925,2.197C186.519,0.79,184.611,0,182.622,0s-3.897,0.79-5.303,2.196l-45.812,45.812c-0.054,0.054-0.1,0.113-0.152,0.168
	c-0.113,0.12-0.226,0.239-0.33,0.366c-0.08,0.097-0.151,0.198-0.225,0.298c-0.071,0.095-0.144,0.188-0.21,0.286
	c-0.077,0.114-0.145,0.232-0.215,0.35c-0.055,0.092-0.112,0.182-0.163,0.276c-0.064,0.118-0.119,0.238-0.176,0.358
	c-0.048,0.102-0.098,0.202-0.142,0.306c-0.047,0.113-0.086,0.227-0.128,0.341c-0.043,0.117-0.087,0.234-0.124,0.354
	c-0.032,0.104-0.057,0.21-0.084,0.316c-0.034,0.132-0.07,0.263-0.097,0.397c-0.021,0.102-0.034,0.205-0.05,0.308
	c-0.022,0.137-0.046,0.274-0.06,0.413c-0.012,0.118-0.015,0.235-0.021,0.354c-0.007,0.125-0.017,0.248-0.018,0.374
	c-0.001,0.17,0.01,0.34,0.021,0.509c0.005,0.07,0.002,0.14,0.009,0.21l0.003,0.036c0,0.002,0,0.004,0,0.004l7.824,85.948
	L72.249,204.9c-2.929,2.93-2.929,7.678,0,10.607c2.929,2.928,7.678,2.928,10.606,0l62.1-62.101l5.548,5.548l-91.892,91.892
	l-10.852-10.852c-2.929-2.928-7.678-2.928-10.606,0L2.197,274.951C0.79,276.359,0,278.266,0,280.255s0.79,3.896,2.197,5.304
	l47.132,47.132c1.464,1.464,3.384,2.196,5.303,2.196s3.839-0.732,5.303-2.196l34.958-34.957l100.014-100.015l40.96,3.729
	c0.231,0.021,0.46,0.031,0.688,0.031c3.835,0,7.106-2.927,7.46-6.82c0.375-4.125-2.664-7.773-6.79-8.148l-41.754-3.801
	l-40.26-40.261l-3.033-3.033l-6.021-66.149l130.115,130.115c1.464,1.464,3.384,2.196,5.303,2.196s3.839-0.732,5.303-2.196
	l45.812-45.812c1.407-1.407,2.197-3.314,2.197-5.304S334.097,148.369,332.69,146.962z M271.817,63.071
	c8.695,8.694,12.188,21.178,9.826,32.844l-42.67-42.67C250.64,50.884,263.125,54.378,271.817,63.071z M161.111,169.561l20.37,20.371
	L89.59,281.823l-5.549-5.549l72.894-72.894c2.929-2.93,2.929-7.678,0-10.607c-2.929-2.928-7.678-2.928-10.606,0l-72.894,72.894
	l-4.215-4.215L161.111,169.561z M54.632,316.781l-36.526-36.525l24.351-24.351l36.526,36.525L54.632,316.781z M281.576,187.471
	L147.417,53.312l35.205-35.205l96.328,96.328c0.241,0.276,0.498,0.542,0.783,0.783l37.048,37.048L281.576,187.471z"/>
<g>
</g>
<g>
</g>
<g>
</g>
<g>
</g>
<g>
</g>
<g>
</g>
<g>
</g>
<g>
</g>
<g>
</g>
<g>
</g>
<g>
</g>
<g>
</g>
<g>
</g>
<g>
</g>
<g>
</g>
</svg>
