<?xml version="1.0" encoding="iso-8859-1"?>
<!-- Generator: Adobe Illustrator 17.1.0, SVG Export Plug-In . SVG Version: 6.00 Build 0)  -->
<!DOCTYPE svg PUBLIC "-//W3C//DTD SVG 1.1//EN" "http://www.w3.org/Graphics/SVG/1.1/DTD/svg11.dtd">
<svg version="1.1" id="Capa_1" xmlns="http://www.w3.org/2000/svg" xmlns:xlink="http://www.w3.org/1999/xlink" x="0px" y="0px"
	 viewBox="0 0 355.692 355.692" style="enable-background:new 0 0 355.692 355.692;" xml:space="preserve">
<g>
	<path d="M155.351,189.38c-4.142,0-7.5,3.357-7.5,7.5v35.185c0,4.143,3.358,7.5,7.5,7.5s7.5-3.357,7.5-7.5V196.88
		C162.851,192.738,159.493,189.38,155.351,189.38z"/>
	<path d="M179.697,189.38c-4.142,0-7.5,3.357-7.5,7.5v35.185c0,4.143,3.358,7.5,7.5,7.5s7.5-3.357,7.5-7.5V196.88
		C187.197,192.738,183.839,189.38,179.697,189.38z"/>
	<path d="M204.042,239.565c4.142,0,7.5-3.357,7.5-7.5V196.88c0-4.143-3.358-7.5-7.5-7.5s-7.5,3.357-7.5,7.5v35.185
		C196.542,236.208,199.9,239.565,204.042,239.565z"/>
	<path d="M348.192,240.331h-11.701v-56.332c0-4.143-3.358-7.5-7.5-7.5h-8.059c-3.272-69.676-60.979-125.356-131.451-125.356h-17.888
		c-70.472,0-128.179,55.68-131.451,125.356h-9.741c-4.142,0-7.5,3.357-7.5,7.5v56.332H7.5c-4.142,0-7.5,3.357-7.5,7.5v49.22
		c0,4.143,3.358,7.5,7.5,7.5h340.692c4.142,0,7.5-3.357,7.5-7.5v-49.22C355.692,243.688,352.334,240.331,348.192,240.331z
		 M37.902,191.499h58.944c4.142,0,7.5-3.357,7.5-7.5s-3.358-7.5-7.5-7.5H55.159c3.257-61.402,54.235-110.356,116.435-110.356h17.888
		c62.199,0,113.178,48.954,116.435,110.356h-45.571c-4.142,0-7.5,3.357-7.5,7.5s3.358,7.5,7.5,7.5h61.146v48.832h-4.062h-81.583
		c3.565-7.797,5.568-16.451,5.568-25.569c0-16.881-6.685-32.64-18.822-44.374c-2.979-2.881-7.727-2.801-10.605,0.179
		c-2.879,2.978-2.799,7.726,0.179,10.604c9.188,8.884,14.248,20.813,14.248,33.591c0,25.761-20.958,46.719-46.719,46.719
		s-46.718-20.958-46.718-46.719s20.958-46.719,46.718-46.719c4.142,0,7.5-3.357,7.5-7.5s-3.358-7.5-7.5-7.5
		c-34.032,0-61.718,27.687-61.718,61.719c0,9.118,2.003,17.772,5.568,25.569H47.491h-9.589V191.499z M340.692,289.55H15v-34.22
		h15.402h17.089h85.754c11.322,12.947,27.942,21.149,46.452,21.149s35.13-8.202,46.453-21.149h91.281h11.562h11.701V289.55z"/>
</g>
<g>
</g>
<g>
</g>
<g>
</g>
<g>
</g>
<g>
</g>
<g>
</g>
<g>
</g>
<g>
</g>
<g>
</g>
<g>
</g>
<g>
</g>
<g>
</g>
<g>
</g>
<g>
</g>
<g>
</g>
</svg>
