<?xml version="1.0" encoding="iso-8859-1"?>
<!-- Generator: Adobe Illustrator 17.1.0, SVG Export Plug-In . SVG Version: 6.00 Build 0)  -->
<!DOCTYPE svg PUBLIC "-//W3C//DTD SVG 1.1//EN" "http://www.w3.org/Graphics/SVG/1.1/DTD/svg11.dtd">
<svg version="1.1" id="Capa_1" xmlns="http://www.w3.org/2000/svg" xmlns:xlink="http://www.w3.org/1999/xlink" x="0px" y="0px"
	 viewBox="0 0 368.553 368.553" style="enable-background:new 0 0 368.553 368.553;" xml:space="preserve">
<path d="M276.787,190.925L210.322,17.896C206.146,7.024,195.922,0,184.276,0s-21.87,7.024-26.047,17.896L91.764,190.925
	c-0.886,2.306-0.579,4.901,0.819,6.937c1.399,2.036,3.711,3.252,6.182,3.252h78.011v36.495h-25.625c-4.143,0-7.5,3.358-7.5,7.5
	v83.149c0,22.218,18.076,40.294,40.294,40.294h0.662c22.218,0,40.294-18.076,40.294-40.294v-25.178V272.61v-27.5
	c0-4.142-3.357-7.5-7.5-7.5h-25.625v-36.495h12.833c4.143,0,7.5-3.358,7.5-7.5s-3.357-7.5-7.5-7.5H109.68l62.551-162.839
	c2.345-6.102,7.759-8.275,12.045-8.275s9.7,2.174,12.045,8.275l66.465,173.029c1.146,2.982,3.988,4.813,7.003,4.813
	c0.894,0,1.803-0.161,2.688-0.5C276.342,199.131,278.273,194.792,276.787,190.925z M184.607,353.553h-0.662
	c-13.947,0-25.294-11.347-25.294-25.294v-17.678h51.25v17.678C209.901,342.207,198.554,353.553,184.607,353.553z M209.901,265.11
	h-27.958c-4.143,0-7.5,3.358-7.5,7.5s3.357,7.5,7.5,7.5h27.958v15.472h-51.25V252.61h51.25V265.11z"/>
<g>
</g>
<g>
</g>
<g>
</g>
<g>
</g>
<g>
</g>
<g>
</g>
<g>
</g>
<g>
</g>
<g>
</g>
<g>
</g>
<g>
</g>
<g>
</g>
<g>
</g>
<g>
</g>
<g>
</g>
</svg>
