<?xml version="1.0" encoding="iso-8859-1"?>
<!-- Generator: Adobe Illustrator 17.1.0, SVG Export Plug-In . SVG Version: 6.00 Build 0)  -->
<!DOCTYPE svg PUBLIC "-//W3C//DTD SVG 1.1//EN" "http://www.w3.org/Graphics/SVG/1.1/DTD/svg11.dtd">
<svg version="1.1" id="Capa_1" xmlns="http://www.w3.org/2000/svg" xmlns:xlink="http://www.w3.org/1999/xlink" x="0px" y="0px"
	 viewBox="0 0 340 340" style="enable-background:new 0 0 340 340;" xml:space="preserve">
<path d="M339.231,107.038c-1.261-2.566-3.872-4.192-6.731-4.192H138.938l18.873-18.873h36.177c4.142,0,7.5-3.358,7.5-7.5V58.861
	h40.982v25.056c0,4.142,3.358,7.5,7.5,7.5h33.595c4.142,0,7.5-3.358,7.5-7.5s-3.358-7.5-7.5-7.5H257.47V51.361
	c0-4.142-3.358-7.5-7.5-7.5h-55.982c-4.142,0-7.5,3.358-7.5,7.5v17.612h-31.784c-1.989,0-3.897,0.79-5.303,2.197l-31.676,31.676
	H98.567c-0.097,0-0.191,0.011-0.287,0.015c-0.096-0.004-0.19-0.015-0.287-0.015H72.396c-35.541,0-65.161,25.751-71.235,59.571
	c-0.017,0.081-0.029,0.164-0.044,0.246C0.397,166.751,0,170.949,0,175.241v76.82c0,4.142,3.358,7.5,7.5,7.5h11.063
	c3.572,20.743,21.679,36.578,43.426,36.578s39.854-15.835,43.427-36.578h31.356c3.572,20.743,21.679,36.578,43.426,36.578
	c15.216,0,28.654-7.751,36.578-19.51c7.924,11.76,21.362,19.51,36.578,19.51c21.747,0,39.854-15.835,43.427-36.578h9.573
	c4.142,0,7.5-3.358,7.5-7.5V224.5c0-4.142-3.358-7.5-7.5-7.5s-7.5,3.358-7.5,7.5v20.061h-2.073
	c-3.573-20.743-21.68-36.578-43.427-36.578c-15.216,0-28.654,7.751-36.578,19.51c-7.924-11.76-21.362-19.51-36.578-19.51
	c-21.747,0-39.854,15.835-43.426,36.578H33.897c3.316-12.41,14.651-21.578,28.092-21.578c4.142,0,7.5-3.358,7.5-7.5
	s-3.358-7.5-7.5-7.5c-21.747,0-39.854,15.835-43.426,36.578H15v-69.32c0-1.261,0.055-2.51,0.136-3.751h59.11
	c4.142,0,7.5-3.358,7.5-7.5v-46.145h8.747v68.498H32.114c-4.142,0-7.5,3.358-7.5,7.5s3.358,7.5,7.5,7.5h65.878h0.575h17.811h151.674
	h38.302c4.142,0,7.5-3.358,7.5-7.5s-3.358-7.5-7.5-7.5h-23.039l55.122-71.415C340.185,112.664,340.492,109.604,339.231,107.038z
	 M61.989,281.139c-13.441,0-24.776-9.168-28.092-21.578h56.184C86.765,271.971,75.43,281.139,61.989,281.139z M180.198,281.139
	c-13.441,0-24.776-9.168-28.092-21.578h56.184C204.974,271.971,193.639,281.139,180.198,281.139z M253.354,281.139
	c-13.441,0-24.776-9.168-28.092-21.578h56.185C278.13,271.971,266.795,281.139,253.354,281.139z M253.354,222.983
	c13.441,0,24.776,9.168,28.092,21.578h-56.185C228.578,232.151,239.914,222.983,253.354,222.983z M180.198,222.983
	c13.441,0,24.776,9.168,28.092,21.578h-56.184C155.423,232.151,166.758,222.983,180.198,222.983z M18.162,156.49
	c7.198-20.758,25.982-36.145,48.584-38.364v38.364H18.162z M265.695,184.622v-42.104c0-4.142-3.358-7.5-7.5-7.5s-7.5,3.358-7.5,7.5
	v43.824h-18.756v-43.824c0-4.142-3.358-7.5-7.5-7.5s-7.5,3.358-7.5,7.5v43.824h-18.756v-43.824c0-4.142-3.358-7.5-7.5-7.5
	s-7.5,3.358-7.5,7.5v43.824h-18.756v-43.824c0-4.142-3.358-7.5-7.5-7.5s-7.5,3.358-7.5,7.5v43.824h-33.049h-10.311v-68.498h211.169
	L265.695,184.622z"/>
<g>
</g>
<g>
</g>
<g>
</g>
<g>
</g>
<g>
</g>
<g>
</g>
<g>
</g>
<g>
</g>
<g>
</g>
<g>
</g>
<g>
</g>
<g>
</g>
<g>
</g>
<g>
</g>
<g>
</g>
</svg>
