<?xml version="1.0" encoding="iso-8859-1"?>
<!-- Generator: Adobe Illustrator 17.1.0, SVG Export Plug-In . SVG Version: 6.00 Build 0)  -->
<!DOCTYPE svg PUBLIC "-//W3C//DTD SVG 1.1//EN" "http://www.w3.org/Graphics/SVG/1.1/DTD/svg11.dtd">
<svg version="1.1" id="Capa_1" xmlns="http://www.w3.org/2000/svg" xmlns:xlink="http://www.w3.org/1999/xlink" x="0px" y="0px"
	 viewBox="0 0 305.804 305.804" style="enable-background:new 0 0 305.804 305.804;" xml:space="preserve">
<path d="M295.382,182.354l-0.396-0.396c-6.729-6.728-15.673-10.433-25.188-10.433c-9.514,0-18.458,3.705-25.187,10.433
	l-16.273,16.273V45.831h15.239c4.143,0,7.5-3.357,7.5-7.5v-26c0-4.143-3.357-7.5-7.5-7.5H7.5c-4.143,0-7.5,3.357-7.5,7.5v26
	c0,4.143,3.357,7.5,7.5,7.5h15.239v32.318c0,0.003,0,0.007,0,0.01v181.814H7.5c-4.143,0-7.5,3.357-7.5,7.5v26
	c0,4.143,3.357,7.5,7.5,7.5h182.411c4.143,0,7.5-3.357,7.5-7.5s-3.357-7.5-7.5-7.5H15v-11h15.239h190.6h15.239v18.5
	c0,4.143,3.357,7.5,7.5,7.5s7.5-3.357,7.5-7.5v-26c0-4.143-3.357-7.5-7.5-7.5h-15.239v-40.526l26.881-26.881
	c3.895-3.895,9.072-6.04,14.579-6.04c5.508,0,10.686,2.146,14.587,6.046l0.396,0.396c8.04,8.039,8.04,21.121,0,29.16l-8.449,8.449
	c-2.929,2.93-2.929,7.678,0,10.607c2.93,2.928,7.678,2.928,10.607,0l8.449-8.449C309.276,218.846,309.276,196.248,295.382,182.354z
	 M133.015,259.973l80.324-80.324v33.583l-46.741,46.741H133.015z M72.809,45.831h33.943l-69.013,69.013V81.261l33.9-33.901
	C72.107,46.893,72.491,46.375,72.809,45.831z M37.739,136.058l90.228-90.228h33.582L55.995,151.385
	c-2.929,2.93-2.929,7.678,0,10.607c1.465,1.464,3.385,2.196,5.304,2.196s3.839-0.732,5.304-2.196L182.764,45.831h30.575v3.008
	l-175.6,175.6V136.058z M15,19.831h221.078v11h-15.239h-190.6H15V19.831z M51.954,45.831L37.739,60.046V45.831H51.954z
	 M37.739,245.653l175.6-175.6v88.381L111.8,259.973H78.217l123.319-123.318c2.929-2.93,2.929-7.678,0-10.607
	c-2.93-2.927-7.678-2.929-10.607,0L57.002,259.973H37.739V245.653z M213.339,259.973h-25.526l25.526-25.526V259.973z"/>
<g>
</g>
<g>
</g>
<g>
</g>
<g>
</g>
<g>
</g>
<g>
</g>
<g>
</g>
<g>
</g>
<g>
</g>
<g>
</g>
<g>
</g>
<g>
</g>
<g>
</g>
<g>
</g>
<g>
</g>
</svg>
