<?xml version="1.0" encoding="iso-8859-1"?>
<!-- Generator: Adobe Illustrator 17.1.0, SVG Export Plug-In . SVG Version: 6.00 Build 0)  -->
<!DOCTYPE svg PUBLIC "-//W3C//DTD SVG 1.1//EN" "http://www.w3.org/Graphics/SVG/1.1/DTD/svg11.dtd">
<svg version="1.1" id="Capa_1" xmlns="http://www.w3.org/2000/svg" xmlns:xlink="http://www.w3.org/1999/xlink" x="0px" y="0px"
	 viewBox="0 0 340.89 340.89" style="enable-background:new 0 0 340.89 340.89;" xml:space="preserve">
<g>
	<path d="M73.417,223.124c29.047,0,52.679-23.632,52.679-52.679s-23.631-52.679-52.679-52.679c-4.142,0-7.5,3.357-7.5,7.5
		s3.358,7.5,7.5,7.5c20.776,0,37.679,16.902,37.679,37.679s-16.903,37.679-37.679,37.679s-37.678-16.902-37.678-37.679
		c0-9.743,3.706-18.987,10.436-26.029c2.862-2.994,2.754-7.742-0.24-10.604c-2.994-2.862-7.742-2.755-10.604,0.24
		c-9.41,9.846-14.592,22.771-14.592,36.393C20.739,199.492,44.371,223.124,73.417,223.124z"/>
	<path d="M73.417,192.987c12.43,0,22.542-10.112,22.542-22.542s-10.112-22.542-22.542-22.542s-22.542,10.112-22.542,22.542
		S60.988,192.987,73.417,192.987z M73.417,162.903c4.159,0,7.542,3.384,7.542,7.542s-3.383,7.542-7.542,7.542
		s-7.542-3.384-7.542-7.542S69.259,162.903,73.417,162.903z"/>
	<path d="M340.89,181.627v-22.365c0-34.316-27.918-62.235-62.235-62.235H73.417C32.935,97.027,0,129.962,0,170.445
		s32.935,73.418,73.417,73.418c25.033,0,47.169-12.603,60.427-31.787l30.174-8.681c12.488-3.592,25.932-1.645,36.888,5.345
		l0.332,0.212c9.705,6.19,20.918,9.463,32.429,9.463h15.703c4.142,0,7.5-3.357,7.5-7.5s-3.358-7.5-7.5-7.5h-15.703
		c-8.647,0-17.071-2.458-24.364-7.11l-0.332-0.212c-14.582-9.302-32.478-11.895-49.1-7.113l-16.879,4.856
		c2.479-7.352,3.843-15.213,3.843-23.39c0-23.807-11.398-44.995-29.016-58.418h160.835c14.25,0,27.036,6.352,35.704,16.363
		l-15.565,11.677c-10.822,8.119-24.233,12.591-37.763,12.591h-23.183c-4.142,0-7.5,3.357-7.5,7.5s3.358,7.5,7.5,7.5h23.183
		c16.755,0,33.363-5.537,46.765-15.593l14.494-10.874c2.315,5.57,3.6,11.672,3.6,18.071v15.899l-31.86,4.738
		c-10.395,1.545-18.509,9.189-20.672,19.474c-2.163,10.284,2.186,20.55,11.078,26.151l3.762,2.37
		c-3.083,0.635-6.274,0.969-9.542,0.969H139.335c-4.142,0-7.5,3.357-7.5,7.5s3.358,7.5,7.5,7.5h139.319
		c10.739,0,20.851-2.735,29.678-7.544c0.27-0.134,0.531-0.285,0.785-0.452c18.828-10.617,31.606-30.74,31.761-53.817
		c0.001-0.012,0-0.024,0.001-0.036C340.881,181.884,340.89,181.757,340.89,181.627z M131.835,170.445
		c0,32.212-26.206,58.418-58.418,58.418C41.206,228.863,15,202.657,15,170.445s26.206-58.418,58.417-58.418
		C105.629,112.027,131.835,138.233,131.835,170.445z M305.05,220.782l-12.62-7.949c-5.387-3.394-4.725-8.798-4.394-10.373
		c0.331-1.575,1.901-6.788,8.199-7.725l28.815-4.285C322.664,203.027,315.286,213.859,305.05,220.782z"/>
	<path d="M266.664,133.141c0-4.143-3.358-7.5-7.5-7.5H228.82c-12.619,0-24.401,6.222-31.519,16.646l-0.183,0.269
		c-4.319,6.326-11.471,10.103-19.13,10.103h-11.543c-4.142,0-7.5,3.357-7.5,7.5s3.358,7.5,7.5,7.5h11.543
		c12.619,0,24.401-6.222,31.519-16.646l0.183-0.269c4.319-6.326,11.471-10.103,19.13-10.103h30.344
		C263.306,140.641,266.664,137.284,266.664,133.141z"/>
</g>
<g>
</g>
<g>
</g>
<g>
</g>
<g>
</g>
<g>
</g>
<g>
</g>
<g>
</g>
<g>
</g>
<g>
</g>
<g>
</g>
<g>
</g>
<g>
</g>
<g>
</g>
<g>
</g>
<g>
</g>
</svg>
