<?xml version="1.0" encoding="iso-8859-1"?>
<!-- Generator: Adobe Illustrator 17.1.0, SVG Export Plug-In . SVG Version: 6.00 Build 0)  -->
<!DOCTYPE svg PUBLIC "-//W3C//DTD SVG 1.1//EN" "http://www.w3.org/Graphics/SVG/1.1/DTD/svg11.dtd">
<svg version="1.1" id="Capa_1" xmlns="http://www.w3.org/2000/svg" xmlns:xlink="http://www.w3.org/1999/xlink" x="0px" y="0px"
	 viewBox="0 0 335.815 335.815" style="enable-background:new 0 0 335.815 335.815;" xml:space="preserve">
<g>
	<path d="M284.957,123.75h-6.813v-4.542c0-33.338-14.78-64.154-40.652-85.01V7.5c0-4.142-3.357-7.5-7.5-7.5h-40
		c-4.143,0-7.5,3.358-7.5,7.5v3.35c-4.475-0.554-9.025-0.85-13.556-0.85h-2.055c-4.536,0-9.07,0.283-13.556,0.838V7.5
		c0-4.142-3.357-7.5-7.5-7.5h-40c-4.143,0-7.5,3.358-7.5,7.5v26.721c-1.55,1.252-3.08,2.531-4.547,3.854
		c-22.945,20.687-36.105,50.259-36.105,81.134v4.542h-6.813c-4.143,0-7.5,3.358-7.5,7.5v56.25c0,4.142,3.357,7.5,7.5,7.5h8.878
		c0.993,36.593,11.856,70.88,30.857,97.062c20.479,28.215,47.936,43.754,77.313,43.754c51.843,0,96.548-49.811,106.299-118.44
		c0.582-4.101-2.27-7.898-6.371-8.48c-4.094-0.581-7.897,2.27-8.48,6.37c-8.689,61.16-47.148,105.55-91.447,105.55
		c-50.11,0-91.108-55.949-93.165-125.815h210.214c4.143,0,7.5-3.358,7.5-7.5v-56.25C292.457,127.108,289.099,123.75,284.957,123.75z
		 M197.491,15h25v65h-25V15z M277.457,180H58.359v-41.25h121.554c4.143,0,7.5-3.358,7.5-7.5s-3.357-7.5-7.5-7.5H72.672v-4.542
		c0-24.06,9.268-47.203,25.652-64.609v4.308c0,4.142,3.357,7.5,7.5,7.5s7.5-3.358,7.5-7.5V15h25v65h-32.5
		c-4.143,0-7.5,3.358-7.5,7.5s3.357,7.5,7.5,7.5h40c4.143,0,7.5-3.358,7.5-7.5V25.974C157.797,25.331,162.336,25,166.88,25h2.055
		c4.354,0,8.731,0.299,13.009,0.89c0.182,0.025,0.365,0.058,0.547,0.084V87.5c0,4.142,3.357,7.5,7.5,7.5h40
		c4.143,0,7.5-3.358,7.5-7.5V54.57c16.448,17.359,25.652,40.213,25.652,64.639v4.542h-22.735c-4.143,0-7.5,3.358-7.5,7.5
		s3.357,7.5,7.5,7.5h37.049V180z"/>
	<path d="M110.408,216.649c-4.143,0-7.5,3.358-7.5,7.5s3.357,7.5,7.5,7.5h34.583c4.143,0,7.5-3.358,7.5-7.5s-3.357-7.5-7.5-7.5
		H110.408z"/>
	<path d="M190.825,216.649c-4.143,0-7.5,3.358-7.5,7.5s3.357,7.5,7.5,7.5h34.583c4.143,0,7.5-3.358,7.5-7.5s-3.357-7.5-7.5-7.5
		H190.825z"/>
</g>
<g>
</g>
<g>
</g>
<g>
</g>
<g>
</g>
<g>
</g>
<g>
</g>
<g>
</g>
<g>
</g>
<g>
</g>
<g>
</g>
<g>
</g>
<g>
</g>
<g>
</g>
<g>
</g>
<g>
</g>
</svg>
