<svg width="190" height="190" viewBox="0 0 190 190" fill="none" xmlns="http://www.w3.org/2000/svg">
<path d="M95 190C147.467 190 190 147.467 190 95C190 42.5329 147.467 0 95 0C42.5329 0 0 42.5329 0 95C0 147.467 42.5329 190 95 190Z" fill="#F1F6FF"/>
<path d="M61.2891 106.269V131.919C61.2891 140.219 76.3791 146.919 94.9991 146.919C113.619 146.919 128.709 140.189 128.709 131.919V106.999C107.549 90.2593 89.2991 122.329 61.2891 106.269Z" fill="#C5CFDF"/>
<path d="M75.4492 89.4191V126.999C75.4492 130.729 84.1992 133.759 94.9992 133.759C105.799 133.759 114.549 130.759 114.549 126.999V90.7991C101.999 102.999 88.7992 81.7491 75.4492 89.4191Z" fill="#C5CFDF"/>
<path d="M94.9991 73.1205C113.617 73.1205 128.709 66.3914 128.709 58.0905C128.709 49.7897 113.617 43.0605 94.9991 43.0605C76.3815 43.0605 61.2891 49.7897 61.2891 58.0905C61.2891 66.3914 76.3815 73.1205 94.9991 73.1205Z" stroke="#2B1B35" stroke-width="4" stroke-linecap="round" stroke-linejoin="round"/>
<path d="M114.549 58.0901C114.549 61.8201 105.799 64.8501 94.9992 64.8501C84.1992 64.8501 75.4492 61.8501 75.4492 58.0901C75.4492 54.3301 84.1992 51.3301 94.9992 51.3301" stroke="#2B1B35" stroke-width="4" stroke-linecap="round" stroke-linejoin="round"/>
<path d="M114.549 127.26C114.549 130.99 105.799 134.02 94.9992 134.02C84.1992 134.02 75.4492 131.02 75.4492 127.26" stroke="#2B1B35" stroke-width="4" stroke-linecap="round" stroke-linejoin="round"/>
<path d="M61.2891 58.0898V131.92C61.2891 140.22 76.3791 146.92 94.9991 146.92C113.619 146.92 128.709 140.19 128.709 131.92V58.0898" stroke="#2B1B35" stroke-width="4" stroke-linecap="round" stroke-linejoin="round"/>
<path d="M75.4492 127.261V70.3906" stroke="#2B1B35" stroke-width="4" stroke-linecap="round" stroke-linejoin="round"/>
<path d="M114.551 127.261V70.3906" stroke="#2B1B35" stroke-width="4" stroke-linecap="round" stroke-linejoin="round"/>
</svg>
