<svg width="190" height="190" viewBox="0 0 190 190" fill="none" xmlns="http://www.w3.org/2000/svg">
<path d="M95 190C147.467 190 190 147.467 190 95C190 42.5329 147.467 0 95 0C42.5329 0 0 42.5329 0 95C0 147.467 42.5329 190 95 190Z" fill="#F1F6FF"/>
<path d="M96.564 122.138C99.5516 119.15 99.5516 114.307 96.564 111.319C93.5765 108.332 88.7328 108.332 85.7453 111.319C82.7578 114.307 82.7578 119.15 85.7453 122.138C88.7328 125.125 93.5765 125.125 96.564 122.138Z" fill="#C5CFDF"/>
<path d="M77.8998 111C70.1298 118.77 81.6998 126.12 74.5898 133.23" stroke="#2B1B35" stroke-width="4" stroke-linecap="round" stroke-linejoin="round"/>
<path d="M96.8472 130C89.0772 137.77 81.7272 126.2 74.6172 133.31" stroke="#2B1B35" stroke-width="4" stroke-linecap="round" stroke-linejoin="round"/>
<path d="M72.3516 135.491L75.3816 132.471" stroke="#2B1B35" stroke-width="4" stroke-linecap="round" stroke-linejoin="round"/>
<path d="M72.3512 135.49C69.557 138.284 65.7675 139.853 61.8163 139.853C57.865 139.853 54.0755 138.284 51.2812 135.49" stroke="#2B1B35" stroke-width="4" stroke-linecap="round" stroke-linejoin="round"/>
<path d="M54 113.87C56.7942 116.664 60.5837 118.233 64.535 118.233C68.4863 118.233 72.2758 116.664 75.07 113.87L77.9 111" stroke="#2B1B35" stroke-width="4" stroke-linecap="round" stroke-linejoin="round"/>
<path d="M104.391 122.429C112.161 114.659 100.591 107.309 107.701 100.199" stroke="#2B1B35" stroke-width="4" stroke-linecap="round" stroke-linejoin="round"/>
<path d="M85.4375 103.48C93.2075 95.7099 100.557 107.28 107.667 100.17" stroke="#2B1B35" stroke-width="4" stroke-linecap="round" stroke-linejoin="round"/>
<path d="M109.942 97.9609L106.922 100.991" stroke="#2B1B35" stroke-width="4" stroke-linecap="round" stroke-linejoin="round"/>
<path d="M109.938 98.0008C112.731 95.2101 116.519 93.6426 120.467 93.6426C124.416 93.6426 128.204 95.2101 130.997 98.0008" stroke="#2B1B35" stroke-width="4" stroke-linecap="round" stroke-linejoin="round"/>
<path d="M104.259 78.6808C107.247 75.6933 107.247 70.8496 104.259 67.8621C101.272 64.8746 96.4281 64.8746 93.4406 67.8621C90.4531 70.8496 90.4531 75.6933 93.4406 78.6808C96.4281 81.6684 101.272 81.6684 104.259 78.6808Z" fill="#C5CFDF"/>
<path d="M85.6108 67.5703C77.8408 75.3403 89.4108 82.6903 82.3008 89.8003" stroke="#2B1B35" stroke-width="4" stroke-linecap="round" stroke-linejoin="round"/>
<path d="M104.558 86.5195C96.7881 94.2895 89.4381 82.7195 82.3281 89.8295" stroke="#2B1B35" stroke-width="4" stroke-linecap="round" stroke-linejoin="round"/>
<path d="M80.0625 92.0398L83.0825 89.0098" stroke="#2B1B35" stroke-width="4" stroke-linecap="round" stroke-linejoin="round"/>
<path d="M80.06 92C77.2662 94.7907 73.4788 96.3582 69.53 96.3582C65.5812 96.3582 61.7938 94.7907 59 92" stroke="#2B1B35" stroke-width="4" stroke-linecap="round" stroke-linejoin="round"/>
<path d="M112.102 78.9995C119.872 71.2295 108.302 63.8795 115.412 56.7695" stroke="#2B1B35" stroke-width="4" stroke-linecap="round" stroke-linejoin="round"/>
<path d="M93.1484 59.9995C100.918 52.2295 108.268 63.7995 115.378 56.6895" stroke="#2B1B35" stroke-width="4" stroke-linecap="round" stroke-linejoin="round"/>
<path d="M117.647 54.5098L114.617 57.5298" stroke="#2B1B35" stroke-width="4" stroke-linecap="round" stroke-linejoin="round"/>
<path d="M117.648 54.5097C120.443 51.716 124.232 50.1465 128.183 50.1465C132.135 50.1465 135.924 51.716 138.718 54.5097" stroke="#2B1B35" stroke-width="4" stroke-linecap="round" stroke-linejoin="round"/>
<path d="M135.452 76.6992C132.657 73.9054 128.868 72.3359 124.917 72.3359C120.965 72.3359 117.176 73.9054 114.382 76.6992L112.102 78.9992" stroke="#2B1B35" stroke-width="4" stroke-linecap="round" stroke-linejoin="round"/>
</svg>
