<svg width="190" height="190" viewBox="0 0 190 190" fill="none" xmlns="http://www.w3.org/2000/svg">
<path d="M95 190C147.467 190 190 147.467 190 95C190 42.5329 147.467 0 95 0C42.5329 0 0 42.5329 0 95C0 147.467 42.5329 190 95 190Z" fill="#F1F6FF"/>
<path d="M109.617 61.7102C111.55 61.7102 113.117 60.3178 113.117 58.6002C113.117 56.8826 111.55 55.4902 109.617 55.4902C107.684 55.4902 106.117 56.8826 106.117 58.6002C106.117 60.3178 107.684 61.7102 109.617 61.7102Z" fill="#C5CFDF"/>
<path d="M121.57 73.6595C123.503 73.6595 125.07 72.2671 125.07 70.5495C125.07 68.8318 123.503 67.4395 121.57 67.4395C119.637 67.4395 118.07 68.8318 118.07 70.5495C118.07 72.2671 119.637 73.6595 121.57 73.6595Z" fill="#C5CFDF"/>
<path d="M133.52 85.6106C135.453 85.6106 137.02 84.2182 137.02 82.5006C137.02 80.783 135.453 79.3906 133.52 79.3906C131.587 79.3906 130.02 80.783 130.02 82.5006C130.02 84.2182 131.587 85.6106 133.52 85.6106Z" fill="#C5CFDF"/>
<path d="M133.52 90.5307C138.502 90.5307 142.54 86.9355 142.54 82.5007C142.54 78.0659 138.502 74.4707 133.52 74.4707C128.538 74.4707 124.5 78.0659 124.5 82.5007C124.5 86.9355 128.538 90.5307 133.52 90.5307Z" stroke="#2B1B35" stroke-width="4" stroke-linecap="round" stroke-linejoin="round"/>
<path d="M121.571 78.5795C126.552 78.5795 130.591 74.9844 130.591 70.5495C130.591 66.1147 126.552 62.5195 121.571 62.5195C116.589 62.5195 112.551 66.1147 112.551 70.5495C112.551 74.9844 116.589 78.5795 121.571 78.5795Z" stroke="#2B1B35" stroke-width="4" stroke-linecap="round" stroke-linejoin="round"/>
<path d="M109.622 66.6303C114.603 66.6303 118.642 63.0352 118.642 58.6003C118.642 54.1655 114.603 50.5703 109.622 50.5703C104.64 50.5703 100.602 54.1655 100.602 58.6003C100.602 63.0352 104.64 66.6303 109.622 66.6303Z" stroke="#2B1B35" stroke-width="4" stroke-linecap="round" stroke-linejoin="round"/>
<path d="M88 137.061C88 141.491 84 145.061 79 145.061C74 145.061 70 141.471 70 137.061" stroke="#2B1B35" stroke-width="4" stroke-linecap="round" stroke-linejoin="round"/>
<path d="M58 125.109C58 129.539 62 133.109 67 133.109C68.4721 133.126 69.9442 133.066 71.41 132.929" stroke="#2B1B35" stroke-width="4" stroke-linecap="round" stroke-linejoin="round"/>
<path d="M46 113.15C46 117.58 50 121.15 55 121.15C56.3763 121.276 57.7599 121.302 59.14 121.23" stroke="#2B1B35" stroke-width="4" stroke-linecap="round" stroke-linejoin="round"/>
<path d="M100.6 58.5996C102.18 96.9996 54.39 79.5396 46 113.15" stroke="#2B1B35" stroke-width="4" stroke-linecap="round" stroke-linejoin="round"/>
<path d="M111.63 66.4199C113.99 103.57 64.3295 88.8699 58.2695 125.42" stroke="#2B1B35" stroke-width="4" stroke-linecap="round" stroke-linejoin="round"/>
<path d="M124.14 78.2402C120.14 116.24 75.74 100.24 70.5 137.61" stroke="#2B1B35" stroke-width="4" stroke-linecap="round" stroke-linejoin="round"/>
<path d="M142 85.1602C133.43 124.44 89.89 119.02 88 137.06" stroke="#2B1B35" stroke-width="4" stroke-linecap="round" stroke-linejoin="round"/>
</svg>
