<svg width="190" height="190" viewBox="0 0 190 190" fill="none" xmlns="http://www.w3.org/2000/svg">
<path d="M95 190C147.467 190 190 147.467 190 95C190 42.5329 147.467 0 95 0C42.5329 0 0 42.5329 0 95C0 147.467 42.5329 190 95 190Z" fill="#F1F6FF"/>
<path d="M112.109 51.3398C107.379 51.3398 103.539 52.3398 103.539 53.6398V129.29C103.539 130.56 107.369 131.59 112.109 131.59C116.849 131.59 120.679 130.59 120.679 129.29V53.6398C120.679 52.3698 116.839 51.3398 112.109 51.3398Z" fill="#C5CFDF"/>
<path d="M112.107 65.7191C125.495 65.7191 136.347 60.9778 136.347 55.1291C136.347 49.2804 125.495 44.5391 112.107 44.5391C98.7198 44.5391 87.8672 49.2804 87.8672 55.1291C87.8672 60.9778 98.7198 65.7191 112.107 65.7191Z" stroke="#2B1B35" stroke-width="4" stroke-linecap="round" stroke-linejoin="round"/>
<path d="M120.18 53.5801C120.18 54.9801 116.57 56.1201 112.11 56.1201C107.65 56.1201 104 55.0001 104 53.5801" stroke="#2B1B35" stroke-width="4" stroke-linecap="round" stroke-linejoin="round"/>
<path d="M136.347 130.869C136.347 136.719 125.497 141.459 112.107 141.459C98.7172 141.459 87.8672 136.719 87.8672 130.869" stroke="#2B1B35" stroke-width="4" stroke-linecap="round" stroke-linejoin="round"/>
<path d="M87.8672 55.1309V130.871" stroke="#2B1B35" stroke-width="4" stroke-linecap="round" stroke-linejoin="round"/>
<path d="M136.352 55.1309V130.871" stroke="#2B1B35" stroke-width="4" stroke-linecap="round" stroke-linejoin="round"/>
<path d="M59.8884 141.46C73.2758 141.46 84.1284 130.608 84.1284 117.22C84.1284 103.833 73.2758 92.9805 59.8884 92.9805C46.5011 92.9805 35.6484 103.833 35.6484 117.22C35.6484 130.608 46.5011 141.46 59.8884 141.46Z" stroke="#2B1B35" stroke-width="4" stroke-linecap="round" stroke-linejoin="round"/>
<path d="M55.9006 129.969C60.7386 129.969 64.6606 126.047 64.6606 121.209C64.6606 116.371 60.7386 112.449 55.9006 112.449C51.0626 112.449 47.1406 116.371 47.1406 121.209C47.1406 126.047 51.0626 129.969 55.9006 129.969Z" fill="#C5CFDF"/>
<path d="M76.5078 82.2705C81.1078 80.1005 86.8578 82.2705 87.8678 84.1905" stroke="#2B1B35" stroke-width="4" stroke-linecap="round" stroke-linejoin="round"/>
<path d="M59.8928 125.981C64.7308 125.981 68.6528 122.059 68.6528 117.221C68.6528 112.383 64.7308 108.461 59.8928 108.461C55.0548 108.461 51.1328 112.383 51.1328 117.221C51.1328 122.059 55.0548 125.981 59.8928 125.981Z" stroke="#2B1B35" stroke-width="4" stroke-linecap="round" stroke-linejoin="round"/>
<path d="M76.5119 82.2695L51.9219 94.2295" stroke="#2B1B35" stroke-width="4" stroke-linecap="round" stroke-linejoin="round"/>
</svg>
