<svg width="190" height="190" viewBox="0 0 190 190" fill="none" xmlns="http://www.w3.org/2000/svg">
<path d="M95 190C147.467 190 190 147.467 190 95C190 42.5329 147.467 0 95 0C42.5329 0 0 42.5329 0 95C0 147.467 42.5329 190 95 190Z" fill="#F1F6FF"/>
<path d="M117.551 47H124.651C126.096 47 127.482 47.5742 128.505 48.5963C129.527 49.6183 130.101 51.0046 130.101 52.45V64.35" stroke="#2B1B35" stroke-width="4" stroke-linecap="round" stroke-linejoin="round"/>
<path d="M96.6306 139.56H64.3406C62.8952 139.56 61.509 138.986 60.4869 137.964C59.4648 136.942 58.8906 135.555 58.8906 134.11V52.41C58.9012 50.9715 59.48 49.5955 60.501 48.5821C61.5219 47.5687 62.9021 47 64.3406 47H71.2106" stroke="#2B1B35" stroke-width="4" stroke-linecap="round" stroke-linejoin="round"/>
<path d="M130.109 64.3496V106.38" stroke="#2B1B35" stroke-width="4" stroke-linecap="round" stroke-linejoin="round"/>
<path d="M105.559 41.4297H83.4492C81.2401 41.4297 79.4492 43.2205 79.4492 45.4297V47.9697C79.4492 50.1788 81.2401 51.9697 83.4492 51.9697H105.559C107.768 51.9697 109.559 50.1788 109.559 47.9697V45.4297C109.559 43.2205 107.768 41.4297 105.559 41.4297Z" stroke="#2B1B35" stroke-width="4" stroke-linecap="round" stroke-linejoin="round"/>
<path d="M71.2812 66.1309H117.721" stroke="#2B1B35" stroke-width="4" stroke-linejoin="round"/>
<path d="M98.0195 78.2305H117.72" stroke="#C5CFDF" stroke-width="4" stroke-linejoin="round"/>
<path d="M98.0195 87.2305H117.72" stroke="#C5CFDF" stroke-width="4" stroke-linejoin="round"/>
<path d="M71.2812 106.211H117.721" stroke="#2B1B35" stroke-width="4" stroke-linejoin="round"/>
<path d="M71.2812 115.211H117.721" stroke="#2B1B35" stroke-width="4" stroke-linejoin="round"/>
<path d="M71.2812 124.211H93.4013" stroke="#2B1B35" stroke-width="4" stroke-linejoin="round"/>
<path d="M91.3313 75.7305H71.2812V95.7805H91.3313V75.7305Z" fill="#C5CFDF"/>
<path d="M122.251 152.57C133.771 152.57 143.111 143.23 143.111 131.71C143.111 120.189 133.771 110.85 122.251 110.85C110.73 110.85 101.391 120.189 101.391 131.71C101.391 143.23 110.73 152.57 122.251 152.57Z" fill="#C5CFDF"/>
<path d="M113.32 129.86L120.15 138.8L130.75 126.09" stroke="#2B1B35" stroke-width="4" stroke-linecap="round" stroke-linejoin="round"/>
</svg>
