<svg id="_3" data-name="3" xmlns="http://www.w3.org/2000/svg" viewBox="0 0 41 41"><defs><style>.cls-1{fill:#fff;}.cls-2{fill:#0049BC;}</style></defs><title>Instagram</title><circle class="cls-1" cx="20.5" cy="20.5" r="19.5"/><circle class="cls-2" cx="26.37" cy="14.54" r="1.35"/><path class="cls-2" d="M25.24,31.5H15.76A6.27,6.27,0,0,1,9.5,25.24V15.76A6.27,6.27,0,0,1,15.76,9.5h9.48a6.27,6.27,0,0,1,6.26,6.26v9.48A6.27,6.27,0,0,1,25.24,31.5ZM15.76,11.39a4.38,4.38,0,0,0-4.38,4.38v9.48a4.38,4.38,0,0,0,4.38,4.38h9.48a4.38,4.38,0,0,0,4.38-4.38V15.76a4.38,4.38,0,0,0-4.38-4.38H15.76Z"/><path class="cls-2" d="M20.5,26.13a5.63,5.63,0,1,1,5.63-5.63A5.64,5.64,0,0,1,20.5,26.13Zm0-9.38a3.75,3.75,0,1,0,3.75,3.75A3.75,3.75,0,0,0,20.5,16.75Z"/></svg>