<svg width="30" height="30" viewBox="0 0 30 30" fill="none" xmlns="http://www.w3.org/2000/svg">
<path d="M15 30C23.2843 30 30 23.2843 30 15C30 6.71573 23.2843 0 15 0C6.71573 0 0 6.71573 0 15C0 23.2843 6.71573 30 15 30Z" fill="url(#paint0_linear)"/>
<path d="M18.447 23.0005H11.5525C10.3456 22.9986 9.18873 22.5183 8.33534 21.6649C7.48196 20.8115 7.00168 19.6546 6.99976 18.4478V11.5532C7.00168 10.3463 7.48196 9.18946 8.33534 8.33608C9.18873 7.48269 10.3456 7.00241 11.5525 7.00049H18.447C19.6539 7.00241 20.8108 7.48269 21.6642 8.33608C22.5176 9.18946 22.9978 10.3463 22.9998 11.5532V18.4478C22.9978 19.6546 22.5176 20.8115 21.6642 21.6649C20.8108 22.5183 19.6539 22.9986 18.447 23.0005ZM11.5525 8.37503C10.7076 8.37503 9.89742 8.71064 9.30003 9.30803C8.70264 9.90542 8.36703 10.7157 8.36703 11.5605V18.455C8.36703 19.2999 8.70264 20.1101 9.30003 20.7075C9.89742 21.3049 10.7076 21.6405 11.5525 21.6405H18.447C19.2919 21.6405 20.1021 21.3049 20.6995 20.7075C21.2969 20.1101 21.6325 19.2999 21.6325 18.455V11.5532C21.6325 10.7084 21.2969 9.89815 20.6995 9.30076C20.1021 8.70337 19.2919 8.36776 18.447 8.36776H11.5525V8.37503Z" fill="white"/>
<path d="M14.9993 19.0953C14.1895 19.0953 13.3979 18.8552 12.7245 18.4053C12.0512 17.9554 11.5264 17.3159 11.2165 16.5677C10.9066 15.8195 10.8255 14.9963 10.9835 14.202C11.1415 13.4077 11.5314 12.6781 12.1041 12.1055C12.6767 11.5329 13.4063 11.1429 14.2005 10.9849C14.9948 10.8269 15.8181 10.908 16.5662 11.2179C17.3144 11.5278 17.9539 12.0526 18.4038 12.726C18.8537 13.3993 19.0939 14.191 19.0939 15.0008C19.092 16.0861 18.6599 17.1265 17.8925 17.894C17.125 18.6614 16.0847 19.0934 14.9993 19.0953ZM14.9993 12.2735C14.4599 12.2735 13.9326 12.4335 13.4841 12.7332C13.0356 13.0328 12.6861 13.4588 12.4797 13.9571C12.2732 14.4555 12.2192 15.0038 12.3245 15.5329C12.4297 16.0619 12.6894 16.5479 13.0709 16.9293C13.4523 17.3107 13.9382 17.5704 14.4673 17.6757C14.9963 17.7809 15.5447 17.7269 16.043 17.5205C16.5414 17.314 16.9673 16.9645 17.267 16.516C17.5667 16.0675 17.7266 15.5402 17.7266 15.0008C17.7266 14.2775 17.4393 13.5838 16.9278 13.0723C16.4163 12.5609 15.7227 12.2735 14.9993 12.2735Z" fill="white"/>
<path d="M19.2687 11.6482C19.8109 11.6482 20.2505 11.2086 20.2505 10.6664C20.2505 10.1241 19.8109 9.68457 19.2687 9.68457C18.7264 9.68457 18.2869 10.1241 18.2869 10.6664C18.2869 11.2086 18.7264 11.6482 19.2687 11.6482Z" fill="white"/>
<defs>
<linearGradient id="paint0_linear" x1="30" y1="-8.9407e-07" x2="-2.68221e-06" y2="30" gradientUnits="userSpaceOnUse">
<stop stop-color="#B5169C"/>
<stop offset="0.513812" stop-color="#E4505E"/>
<stop offset="1" stop-color="#F98F21"/>
</linearGradient>
</defs>
</svg>
