<svg width="30" height="30" viewBox="0 0 30 30" fill="none" xmlns="http://www.w3.org/2000/svg">
<path d="M15 30C23.2843 30 30 23.2843 30 15C30 6.71573 23.2843 0 15 0C6.71573 0 0 6.71573 0 15C0 23.2843 6.71573 30 15 30Z" fill="#577CA4"/>
<path fill-rule="evenodd" clip-rule="evenodd" d="M21.2632 20.1277H19.13C18.7483 20.1582 18.3693 20.0428 18.0694 19.8047C17.271 19.2562 16.5152 17.8299 15.9301 18.0189C15.345 18.2078 15.3511 19.4878 15.3511 19.4878C15.3546 19.638 15.3098 19.7855 15.2231 19.9083C15.0991 20.0139 14.9462 20.0798 14.7843 20.0972H13.8274C13.076 20.0805 12.3362 19.9096 11.6536 19.5951C10.9711 19.2805 10.3604 18.8291 9.85961 18.2688C7.8361 16.1599 6.0442 11.9727 6.0442 11.9727C6.01507 11.9086 6 11.839 6 11.7686C6 11.6981 6.01507 11.6285 6.0442 11.5644C6.17927 11.462 6.34401 11.4064 6.51351 11.4059H8.7991C8.93165 11.429 9.05814 11.4788 9.17088 11.5522C9.25829 11.6243 9.32723 11.7163 9.37202 11.8204C9.62 12.4314 9.90706 13.0259 10.2314 13.6001C11.1883 15.2518 11.6332 15.6114 11.9563 15.4286C12.4317 15.1726 12.2854 13.0942 12.2854 13.0942C12.2961 12.7166 12.2145 12.3421 12.0477 12.0032C11.8662 11.7979 11.6135 11.6694 11.3407 11.6436C11.2127 11.6436 11.4199 11.3267 11.6942 11.1926C12.3439 11.0101 13.023 10.9562 13.6933 11.0341C14.0704 11.0189 14.4478 11.0559 14.8148 11.1438C15.601 11.3328 15.3328 12.0703 15.3328 13.8317C15.3328 14.3985 15.2292 15.1909 15.6376 15.4529C15.8143 15.5687 16.2471 15.4529 17.3137 13.6245C17.6565 13.0217 17.9539 12.3942 18.2035 11.7472C18.252 11.6453 18.3253 11.5573 18.4168 11.4913C18.5127 11.4426 18.6209 11.4235 18.7277 11.4364H21.1352C21.1352 11.4364 21.8544 11.3511 21.9763 11.6741C22.0982 11.9971 21.7081 12.8138 20.7268 14.1121C19.1117 16.2636 18.9349 16.0624 20.2697 17.3058C20.9004 17.82 21.4384 18.4385 21.8605 19.1343C22.3846 20.0607 21.2632 20.1277 21.2632 20.1277Z" fill="white"/>
</svg>
