<svg width="30" height="30" viewBox="0 0 30 30" fill="none" xmlns="http://www.w3.org/2000/svg">
<path d="M15 30C23.2843 30 30 23.2843 30 15C30 6.71573 23.2843 0 15 0C6.71573 0 0 6.71573 0 15C0 23.2843 6.71573 30 15 30Z" fill="#DC2323"/>
<path d="M22.8406 11.4315C22.765 10.8558 22.546 10.3084 22.2037 9.83944C21.7809 9.41106 21.2063 9.16664 20.6045 9.1592C18.3611 9 15.0034 9 15.0034 9C15.0034 9 11.6456 9 9.40229 9.1592C8.79793 9.16474 8.22035 9.40931 7.79578 9.83944C7.45353 10.3084 7.23456 10.8558 7.15896 11.4315C7.05946 12.2916 7.00631 13.1564 6.99976 14.0222V15.2379C7.00633 16.1037 7.05947 16.9685 7.15896 17.8286C7.23572 18.4017 7.45464 18.9465 7.79578 19.4134C8.28367 19.8446 8.91037 20.0861 9.56149 20.0936C10.8424 20.2166 15.0034 20.2528 15.0034 20.2528C15.0034 20.2528 18.3684 20.2528 20.6045 20.0864C21.2063 20.0789 21.7809 19.8345 22.2037 19.4062C22.5451 18.9394 22.7641 18.3945 22.8406 17.8213C22.94 16.9613 22.9932 16.0965 22.9998 15.2307V14.0222C22.9932 13.1564 22.9401 12.2916 22.8406 11.4315ZM13.3534 16.7069V12.2058L17.6954 14.4636L13.3534 16.7069Z" fill="white"/>
</svg>
