<svg width="30" height="30" viewBox="0 0 30 30" fill="none" xmlns="http://www.w3.org/2000/svg">
<path d="M15 0C23.2812 0 30 6.71875 30 15C30 23.2812 23.2812 30 15 30C6.71875 30 0 23.2812 0 15C0 6.71875 6.71875 0 15 0Z" fill="#4861A3"/>
<path d="M12.6484 22.4219V15.5469H10.5V13.0859H12.6484V11.25C12.6484 11.25 12.4922 7.5 15.6172 7.5H18.1563V10H16.5938C15.9688 9.96094 15.4609 10.4297 15.4219 11.0547C15.4219 11.0937 15.4219 11.1719 15.4219 11.2109V13.0859H17.9609L17.6094 15.5469H15.3828V22.5H12.6484V22.4219Z" fill="white"/>
</svg>
