<svg id="Layer_1" data-name="Layer 1" xmlns="http://www.w3.org/2000/svg" viewBox="0 0 51 51"><defs><style>.cls-1{fill:#fff;}.cls-2{fill:#0049BC;}</style></defs><title>Icons_svg</title><circle class="cls-1" cx="25.5" cy="25.5" r="24.5"/><path class="cls-2" d="M37.42,32.92l-3.5,0a2.48,2.48,0,0,1-1.74-.53c-1.31-.9-2.55-3.24-3.51-2.93s-0.95,2.41-.95,2.41a1.15,1.15,0,0,1-.21.69,1.33,1.33,0,0,1-.72.31H25.22a9,9,0,0,1-6.51-3c-3.32-3.46-6.26-10.33-6.26-10.33a0.81,0.81,0,0,1,0-.67,1.28,1.28,0,0,1,.77-0.26l3.75,0a1.63,1.63,0,0,1,.61.24,1.17,1.17,0,0,1,.33.44,25.22,25.22,0,0,0,1.41,2.92c1.57,2.71,2.3,3.3,2.83,3,0.78-.42.54-3.83,0.54-3.83a3.81,3.81,0,0,0-.39-1.79,1.77,1.77,0,0,0-1.16-.59c-0.21,0,.13-0.52.58-0.74A8.5,8.5,0,0,1,25,18a6.73,6.73,0,0,1,1.84.18c1.29,0.31.85,1.52,0.85,4.41,0,0.93-.17,2.23.5,2.66,0.29,0.19,1,0,2.75-3a22.92,22.92,0,0,0,1.46-3.08,1.1,1.1,0,0,1,.35-0.42,0.89,0.89,0,0,1,.51-0.09l3.95,0s1.18-.14,1.38.39-0.44,1.87-2.05,4c-2.65,3.53-2.94,3.2-.75,5.24a11.7,11.7,0,0,1,2.61,3C39.26,32.81,37.42,32.92,37.42,32.92Z"/></svg>