<svg id="Layer_1" data-name="Layer 1" xmlns="http://www.w3.org/2000/svg" viewBox="0 0 51 51"><defs><style>.cls-1{fill:#fff;}.cls-2{fill:#0049BC;}</style></defs><title>Icons_svg</title><circle class="cls-1" cx="25.5" cy="25.5" r="24.5"/><g id="Lozenge"><path class="cls-2" d="M36.33,21.08a4.79,4.79,0,0,0-.88-2.2,3.16,3.16,0,0,0-2.21-.94c-3.1-.22-7.74-0.22-7.74-0.22h0s-4.64,0-7.74.22a3.16,3.16,0,0,0-2.22.94,4.79,4.79,0,0,0-.88,2.2,33.35,33.35,0,0,0-.22,3.58v1.68a33.36,33.36,0,0,0,.22,3.58,4.79,4.79,0,0,0,.88,2.19,3.75,3.75,0,0,0,2.44.94c1.77,0.17,7.52.22,7.52,0.22s4.65,0,7.74-.23a3.16,3.16,0,0,0,2.21-.94,4.78,4.78,0,0,0,.88-2.19,33.36,33.36,0,0,0,.22-3.58V24.66A33.35,33.35,0,0,0,36.33,21.08ZM23.22,28.37V22.15l6,3.12Z"/></g></svg>