<svg width="152" height="152" viewBox="0 0 152 152" fill="none" xmlns="http://www.w3.org/2000/svg">
<path d="M76 152C117.974 152 152 117.974 152 76C152 34.0264 117.974 0 76 0C34.0264 0 0 34.0264 0 76C0 117.974 34.0264 152 76 152Z" fill="#F1F6FF"/>
<path d="M94.041 37.6001H99.721C100.877 37.6001 101.986 38.0595 102.804 38.8771C103.622 39.6948 104.081 40.8038 104.081 41.9601V51.4801" stroke="#2B1B35" stroke-width="4" stroke-linecap="round" stroke-linejoin="round"/>
<path d="M77.3043 111.648H51.4723C50.316 111.648 49.207 111.189 48.3893 110.371C47.5717 109.553 47.1123 108.444 47.1123 107.288V41.9281C47.1208 40.7773 47.5838 39.6765 48.4006 38.8658C49.2173 38.055 50.3215 37.6001 51.4723 37.6001H56.9683" stroke="#2B1B35" stroke-width="4" stroke-linecap="round" stroke-linejoin="round"/>
<path d="M104.088 51.4797V85.1037" stroke="#2B1B35" stroke-width="4" stroke-linecap="round" stroke-linejoin="round"/>
<path d="M84.4476 33.1438H66.7596C64.9923 33.1438 63.5596 34.5765 63.5596 36.3438V38.3758C63.5596 40.1431 64.9923 41.5758 66.7596 41.5758H84.4476C86.2149 41.5758 87.6476 40.1431 87.6476 38.3758V36.3438C87.6476 34.5765 86.2149 33.1438 84.4476 33.1438Z" stroke="#2B1B35" stroke-width="4" stroke-linecap="round" stroke-linejoin="round"/>
<path d="M57.0254 52.9048H94.1774" stroke="#2B1B35" stroke-width="4" stroke-linejoin="round"/>
<path d="M78.416 62.5845H94.176" stroke="#C5CFDF" stroke-width="4" stroke-linejoin="round"/>
<path d="M78.416 69.7844H94.176" stroke="#C5CFDF" stroke-width="4" stroke-linejoin="round"/>
<path d="M57.0254 84.9688H94.1774" stroke="#2B1B35" stroke-width="4" stroke-linejoin="round"/>
<path d="M57.0254 92.1687H94.1774" stroke="#2B1B35" stroke-width="4" stroke-linejoin="round"/>
<path d="M57.0254 99.3687H74.7214" stroke="#2B1B35" stroke-width="4" stroke-linejoin="round"/>
<path d="M73.0654 60.5845H57.0254V76.6245H73.0654V60.5845Z" fill="#C5CFDF"/>
<path d="M97.8003 122.056C107.017 122.056 114.488 114.584 114.488 105.368C114.488 96.1512 107.017 88.6797 97.8003 88.6797C88.5838 88.6797 81.1123 96.1512 81.1123 105.368C81.1123 114.584 88.5838 122.056 97.8003 122.056Z" fill="#C5CFDF"/>
<path d="M90.6562 103.888L96.1203 111.04L104.6 100.872" stroke="#2B1B35" stroke-width="4" stroke-linecap="round" stroke-linejoin="round"/>
</svg>
