<svg width="152" height="152" viewBox="0 0 152 152" fill="none" xmlns="http://www.w3.org/2000/svg">
<path d="M75.9998 148.2C115.875 148.2 148.2 115.875 148.2 76C148.2 36.1251 115.875 3.80005 75.9998 3.80005C36.1248 3.80005 3.7998 36.1251 3.7998 76C3.7998 115.875 36.1248 148.2 75.9998 148.2Z" fill="#F1F6FF"/>
<path d="M106.947 96.52C106.271 93.9132 102.456 90.934 98.7622 88.5552C92.8722 84.7552 88.1602 83.2352 85.447 85.8192L83.2886 87.9168C82.849 88.3396 82.3304 88.6715 81.7625 88.8938C81.1946 89.1161 80.5884 89.2244 79.9787 89.2124C79.3689 89.2004 78.7675 89.0684 78.2087 88.8239C77.65 88.5795 77.1449 88.2273 76.7222 87.7876L60.405 71.5008C59.9653 71.0782 59.6132 70.5731 59.3688 70.0143C59.1243 69.4556 58.9923 68.8542 58.9803 68.2444C58.9683 67.6346 59.0765 67.0285 59.2988 66.4606C59.5211 65.8926 59.8531 65.374 60.2758 64.9344L62.3734 62.776C64.813 60.192 63.369 55.6092 59.6374 49.4608C57.2358 45.5088 53.6942 41.8608 51.6726 41.2756C45.9726 39.6492 39.7482 43.8368 37.7418 50.6996C37.224 52.4848 37.0411 54.3503 37.2022 56.202C37.7342 64.7596 45.9726 77.596 58.2162 90.0144C70.6346 102.266 83.471 110.534 92.0286 111.028C93.8803 111.19 95.7459 111.007 97.531 110.489C104.386 108.475 108.437 102.288 106.947 96.52Z" stroke="#2B1B35" stroke-width="4" stroke-linecap="round" stroke-linejoin="round"/>
<path d="M78.1895 42.8943C85.3833 42.8943 92.2825 45.752 97.3693 50.8388C102.456 55.9256 105.314 62.8248 105.314 70.0187" stroke="#C5CFDF" stroke-width="4" stroke-linecap="round" stroke-linejoin="round"/>
<path d="M78.1895 64.6001C79.6247 64.6041 80.9999 65.1766 82.014 66.1921C83.0281 67.2077 83.5987 68.5837 83.6007 70.0189" stroke="#C5CFDF" stroke-width="4" stroke-linecap="round" stroke-linejoin="round"/>
<path d="M78.1895 53.7473C82.505 53.7473 86.6437 55.4616 89.6952 58.5132C92.7467 61.5647 94.4611 65.7034 94.4611 70.0189" stroke="#C5CFDF" stroke-width="4" stroke-linecap="round" stroke-linejoin="round"/>
<path d="M59.2969 60.5432C60.4247 59.8776 59.3067 55.8948 56.7999 51.6476C54.293 47.4003 51.3466 44.4968 50.2188 45.1624C49.091 45.8281 50.209 49.8108 52.7158 54.0581C55.2226 58.3054 58.1691 61.2088 59.2969 60.5432Z" fill="#C5CFDF"/>
<path d="M103.078 98.0246C103.746 96.8932 100.844 93.9438 96.5969 91.437C92.3496 88.9301 88.3652 87.8151 87.6974 88.9465C87.0296 90.0779 89.9314 93.0273 94.1787 95.5342C98.4259 98.041 102.41 99.156 103.078 98.0246Z" fill="#C5CFDF"/>
</svg>
